<?xml version="1.0" encoding="utf-8"?>
<!-- Generator: Adobe Illustrator 22.1.0, SVG Export Plug-In . SVG Version: 6.00 Build 0)  -->
<svg version="1.1" id="Capa_1" xmlns="http://www.w3.org/2000/svg" xmlns:xlink="http://www.w3.org/1999/xlink" x="0px" y="0px"
	 viewBox="0 0 1000 604.3" style="enable-background:new 0 0 1000 604.3;" xml:space="preserve">
<style type="text/css">
	.st0{fill:#00B0B9;}
	.st1{fill:#040404;}
	.st2{fill:none;stroke:#222221;stroke-width:0.25;stroke-miterlimit:10;}
	.st3{fill:none;stroke:#00B0B9;stroke-width:6;stroke-miterlimit:10;}
	.st4{fill:none;stroke:#222221;stroke-miterlimit:10;}
	.st5{fill:#FFFFFF;}
	.st6{fill:#222221;}
	.st7{fill:#FC4C02;}
	.st8{fill:#222221;stroke:#222221;stroke-width:3;stroke-miterlimit:10;}
	.st9{fill:#84BD00;}
</style>
<polygon class="st0" points="111.9,507.9 180.4,507.3 180.7,546.7 111.6,550.3 "/>
<path class="st1" d="M196.3,569.2C196.3,569.2,196.3,569.2,196.3,569.2c0-0.1,0-0.2,0-0.2c0,0,0,0,0,0c0-0.1,0-0.1,0-0.2
	c0,0,0,0,0,0c0,0,0-0.1-0.1-0.1c0,0,0,0,0,0l-7.9-15.4l-0.4-50.8c0-1.6-1.3-2.8-2.9-2.8l-78.2,0.6c-1.6,0-2.8,1.3-2.8,2.9l0.4,50.8
	l-7.7,15.5c0,0,0,0,0,0c0,0,0,0.1-0.1,0.1c0,0,0,0,0,0c0,0,0,0.1,0,0.2c0,0,0,0,0,0c0,0.1,0,0.1,0,0.2c0,0,0,0,0,0c0,0,0,0.1,0,0.1
	l0,3.7c0,1.9,1.5,3.4,3.4,3.3l93.1-0.7c1.9,0,3.4-1.5,3.3-3.4L196.3,569.2C196.3,569.3,196.3,569.2,196.3,569.2 M106.8,503.2l78-0.6
	l0.4,49.6l-78,0.6L106.8,503.2z M106.7,555.7l79.2-0.6l6.6,12.8l-32.1,0.2l-1.7-5.8c-0.3-1.2-1.4-2-2.7-2l-19.4,0.2
	c-1.2,0-2.3,0.8-2.6,2l-1.6,5.9l-32.1,0.2L106.7,555.7z M157.2,568.1l-21.8,0.2l1.3-5l19.1-0.1L157.2,568.1z M193.4,573
	c0,0.2-0.2,0.4-0.4,0.4l-93.1,0.7c-0.2,0-0.4-0.2-0.4-0.4l0-2.2l94-0.7L193.4,573z"/>
<path class="st1" d="M180.5,529.9c-0.8,0-1.5,0.7-1.5,1.5l0.1,14.8l-65.9,0.5l-0.1-14.8c0-0.8-0.7-1.5-1.5-1.5
	c-0.8,0-1.5,0.7-1.5,1.5l0.1,15.5c0,1.3,1,2.3,2.3,2.3l67.2-0.5c1.3,0,2.3-1,2.3-2.3l-0.1-15.5C181.9,530.5,181.3,529.9,180.5,529.9
	"/>
<path class="st2" d="M180.5,529.9c-0.8,0-1.5,0.7-1.5,1.5l0.1,14.8l-65.9,0.5l-0.1-14.8c0-0.8-0.7-1.5-1.5-1.5
	c-0.8,0-1.5,0.7-1.5,1.5l0.1,15.5c0,1.3,1,2.3,2.3,2.3l67.2-0.5c1.3,0,2.3-1,2.3-2.3l-0.1-15.5C181.9,530.5,181.3,529.9,180.5,529.9
	"/>
<path class="st1" d="M179.5,505.8l-67.2,0.5c-1.3,0-2.3,1-2.3,2.3l0.1,25.4c0,0.8,0.7,1.5,1.5,1.5c0.8,0,1.5-0.7,1.4-1.5l-0.1-24.8
	l65.9-0.5l0.1,23.8c0,0.8,0.7,1.5,1.5,1.5c0.8,0,1.5-0.7,1.4-1.5l-0.1-24.5C181.8,506.8,180.7,505.8,179.5,505.8"/>
<path class="st2" d="M179.5,505.8l-67.2,0.5c-1.3,0-2.3,1-2.3,2.3l0.1,25.4c0,0.8,0.7,1.5,1.5,1.5c0.8,0,1.5-0.7,1.4-1.5l-0.1-24.8
	l65.9-0.5l0.1,23.8c0,0.8,0.7,1.5,1.5,1.5c0.8,0,1.5-0.7,1.4-1.5l-0.1-24.5C181.8,506.8,180.7,505.8,179.5,505.8"/>
<path class="st3" d="M112.4,500.2v-34c0-5.5-4.5-9.9-9.9-9.9H44.9c-5.9,0-10.6-4.8-10.6-10.6V420"/>
<line class="st3" x1="104.1" y1="529.9" x2="59.5" y2="529.9"/>
<line class="st3" x1="142.6" y1="499.6" x2="142.6" y2="414.2"/>
<path class="st3" d="M188.4,529.5H204c13.7,0,24.8-11.1,24.8-24.8V453"/>
<path class="st1" d="M161.8,370.9c-4.8-5-11.2-7.8-18.1-8c-6.9-0.2-13.4,2.4-18.4,7.1c-5,4.8-7.8,11.2-8,18.1
	c-0.2,6.9,2.4,13.4,7.1,18.4c4.8,5,11.2,7.8,18.1,8c6.9,0.2,13.5-2.4,18.4-7.1c5-4.8,7.8-11.2,8-18.1
	C169.1,382.5,166.5,375.9,161.8,370.9 M159.8,406.3c-4.7,4.5-10.8,6.8-17.3,6.7c-6.5-0.2-12.5-2.8-16.9-7.5
	c-4.5-4.7-6.8-10.8-6.7-17.3c0.2-6.5,2.8-12.5,7.5-16.9c4.7-4.5,10.8-6.8,17.3-6.7c6.5,0.2,12.5,2.8,16.9,7.5
	c4.5,4.7,6.8,10.8,6.7,17.3C167.1,395.8,164.5,401.8,159.8,406.3"/>
<path class="st4" d="M161.8,370.9c-4.8-5-11.2-7.8-18.1-8c-6.9-0.2-13.4,2.4-18.4,7.1c-5,4.8-7.8,11.2-8,18.1
	c-0.2,6.9,2.4,13.4,7.1,18.4c4.8,5,11.2,7.8,18.1,8c6.9,0.2,13.5-2.4,18.4-7.1c5-4.8,7.8-11.2,8-18.1
	C169.1,382.5,166.5,375.9,161.8,370.9 M159.8,406.3c-4.7,4.5-10.8,6.8-17.3,6.7c-6.5-0.2-12.5-2.8-16.9-7.5
	c-4.5-4.7-6.8-10.8-6.7-17.3c0.2-6.5,2.8-12.5,7.5-16.9c4.7-4.5,10.8-6.8,17.3-6.7c6.5,0.2,12.5,2.8,16.9,7.5
	c4.5,4.7,6.8,10.8,6.7,17.3C167.1,395.8,164.5,401.8,159.8,406.3"/>
<path class="st1" d="M151.4,373l-15.9-0.4c-4-0.1-7.4,3.1-7.5,7.1l-0.4,15.9c-0.1,4,3.1,7.4,7.1,7.5l15.9,0.4c4,0.1,7.4-3.1,7.5-7.1
	l0.4-15.9C158.7,376.4,155.5,373.1,151.4,373 M156.3,396.3c-0.1,3-2.6,5.3-5.5,5.3l-15.9-0.4c-3-0.1-5.3-2.6-5.3-5.5l0.4-15.9
	c0.1-3,2.6-5.3,5.5-5.3l15.9,0.4c3,0.1,5.3,2.6,5.3,5.5L156.3,396.3z"/>
<path class="st1" d="M151.9,378.6c-0.6,0-1.2,0.5-1.2,1.1c0,0.6,0.5,1.2,1.1,1.2c0.6,0,1.2-0.5,1.2-1.1
	C153,379.1,152.5,378.6,151.9,378.6"/>
<path class="st1" d="M143.3,380.6c-4.1-0.1-7.6,3.2-7.7,7.3c-0.1,4.1,3.2,7.6,7.3,7.7c4.1,0.1,7.6-3.2,7.7-7.3
	C150.7,384.1,147.4,380.7,143.3,380.6 M143,393.6c-3.1-0.1-5.5-2.6-5.4-5.7c0.1-3.1,2.6-5.5,5.7-5.4c3.1,0.1,5.5,2.6,5.4,5.7
	C148.6,391.3,146,393.7,143,393.6"/>
<path class="st1" d="M18.3,414.8c0.9,0,1.6,0.7,1.6,1.6c0,0.9-0.7,1.6-1.6,1.6c-0.9,0-1.6-0.7-1.6-1.6
	C16.7,415.5,17.4,414.8,18.3,414.8"/>
<path class="st1" d="M54.5,400.8c0.8-0.9,1.2-2,1.2-3.2c0-2.7-2.2-4.8-4.8-4.8h-9.3c0.9-2.8,1.3-6.5,1.3-8.1V383
	c0-3.5-2.9-6.4-6.4-6.4h-1.6c-0.7,0-1.4,0.5-1.6,1.2l-0.9,3.5c-1.2,4.9-5.1,10.3-9.1,11.3c-0.7-1.8-2.4-3-4.5-3H9.2
	c-0.9,0-1.6,0.7-1.6,1.6V420c0,0.9,0.7,1.6,1.6,1.6h9.6c1.9,0,3.6-1.1,4.3-2.7l5.5,1.8c1.8,0.6,3.7,0.9,5.6,0.9h13.4
	c2.6,0,4.8-2.2,4.8-4.8c0-0.6-0.1-1.2-0.3-1.8c2-0.6,3.5-2.4,3.5-4.6c0-1.2-0.5-2.4-1.2-3.2c0.8-0.9,1.2-2,1.2-3.2
	C55.7,402.7,55.2,401.6,54.5,400.8 M20.4,416.8c0,0.9-0.7,1.6-1.6,1.6h-8v-25.6h8c0.9,0,1.6,0.7,1.6,1.6V416.8z M47.7,402.4h3.2
	c0.9,0,1.6,0.7,1.6,1.6c0,0.9-0.7,1.6-1.6,1.6h-3.2c-0.9,0-1.6,0.7-1.6,1.6c0,0.9,0.7,1.6,1.6,1.6h3.2c0.9,0,1.6,0.7,1.6,1.6
	c0,0.9-0.7,1.6-1.6,1.6h-3.2c-0.9,0-1.6,0.7-1.6,1.6c0,0.9,0.7,1.6,1.6,1.6c0.9,0,1.6,0.7,1.6,1.6s-0.7,1.6-1.6,1.6H34.3
	c-1.6,0-3.1-0.2-4.6-0.7l-6.1-2v-19.8c2.5-0.5,5-2.1,7.2-4.7c2.2-2.5,3.9-5.9,4.7-9l0.6-2.3h0.4c1.8,0,3.2,1.4,3.2,3.2v1.6
	c0,2.2-0.7,6.3-1.5,8.1h-3.3c-0.9,0-1.6,0.7-1.6,1.6c0,0.9,0.7,1.6,1.6,1.6h16c0.9,0,1.6,0.7,1.6,1.6c0,0.9-0.7,1.6-1.6,1.6h-3.2
	c-0.9,0-1.6,0.7-1.6,1.6C46.1,401.6,46.8,402.4,47.7,402.4"/>
<path class="st1" d="M245.7,418.9h-34.1c-3,0-5.5,2.5-5.5,5.5v23.3c0,3,2.5,5.5,5.5,5.5h34.1c3,0,5.5-2.5,5.5-5.5v-23.3
	C251.2,421.4,248.7,418.9,245.7,418.9 M248.7,447.7c0,1.7-1.3,3-3,3h-34.1c-1.7,0-3-1.3-3-3v-23.3c0-1.7,1.3-3,3-3h34.1
	c1.7,0,3,1.3,3,3L248.7,447.7L248.7,447.7z"/>
<path class="st1" d="M234.5,435.8l11-9.9c0.5-0.5,0.6-1.3,0.1-1.8c-0.5-0.5-1.3-0.6-1.8-0.1l-15.2,13.6l-3-2.6c0,0,0,0,0,0
	c-0.1-0.1-0.1-0.1-0.2-0.2L213.4,424c-0.5-0.5-1.3-0.4-1.8,0.1c-0.5,0.5-0.4,1.3,0.1,1.8l11.2,10l-11.1,10.4
	c-0.5,0.5-0.5,1.3-0.1,1.8c0.3,0.3,0.6,0.4,0.9,0.4c0.3,0,0.6-0.1,0.9-0.3l11.3-10.6l3.1,2.7c0.2,0.2,0.5,0.3,0.8,0.3
	c0.3,0,0.6-0.1,0.8-0.3l3.1-2.8l11.2,10.7c0.2,0.2,0.6,0.3,0.9,0.3c0.3,0,0.7-0.1,0.9-0.4c0.5-0.5,0.5-1.3,0-1.8L234.5,435.8z"/>
<path class="st1" d="M36.2,542.7h5.1c0.4,0,0.8-0.4,0.8-0.8v-11.4h2.6c0.4,0,0.7-0.3,0.8-0.7l0.4-4.3c0-0.2,0-0.4-0.2-0.6
	c-0.2-0.2-0.4-0.3-0.6-0.3h-3.1v-1.8c0-0.4,0.1-0.4,0.3-0.4h2.7c0.4,0,0.8-0.4,0.8-0.8v-4.2c0-0.4-0.4-0.8-0.8-0.8l-3.8,0
	c-2.6,0-4.1,1.2-4.8,2.1c-1,1.4-1.2,3-1.2,3.8v2h-1.6c-0.4,0-0.8,0.4-0.8,0.8v4.3c0,0.4,0.4,0.8,0.8,0.8h1.6V542
	C35.4,542.4,35.8,542.7,36.2,542.7 M34.6,528.9v-2.7h1.6c0.4,0,0.8-0.4,0.8-0.8v-2.8c0-0.5,0.1-1.8,0.8-2.8c0.7-1,1.9-1.5,3.5-1.5
	l3,0v2.6h-1.9c-0.9,0-1.9,0.6-1.9,2v2.5c0,0.4,0.4,0.8,0.8,0.8h3l-0.3,2.7h-2.7c-0.4,0-0.8,0.4-0.8,0.8v11.4H37v-11.4
	c0-0.4-0.4-0.8-0.8-0.8H34.6z"/>
<path class="st1" d="M54.1,515.2c-3.8-3.8-8.9-5.9-14.3-5.9c-5.4,0-10.5,2.1-14.3,5.9c-3.8,3.8-5.9,8.9-5.9,14.3
	c0,5.4,2.1,10.5,5.9,14.3c3.8,3.8,8.9,5.9,14.3,5.9c5.4,0,10.5-2.1,14.3-5.9c3.8-3.8,5.9-8.9,5.9-14.3
	C60.1,524.1,58,519.1,54.1,515.2 M53.2,543c-3.6,3.6-8.4,5.6-13.4,5.6c-5.1,0-9.9-2-13.4-5.6c-3.6-3.6-5.6-8.4-5.6-13.4
	c0-5.1,2-9.9,5.6-13.4c3.6-3.6,8.4-5.6,13.4-5.6c5.1,0,9.9,2,13.4,5.6c3.6,3.6,5.6,8.4,5.6,13.4C58.8,534.6,56.8,539.4,53.2,543"/>
<path class="st4" d="M54.1,515.2c-3.8-3.8-8.9-5.9-14.3-5.9c-5.4,0-10.5,2.1-14.3,5.9c-3.8,3.8-5.9,8.9-5.9,14.3
	c0,5.4,2.1,10.5,5.9,14.3c3.8,3.8,8.9,5.9,14.3,5.9c5.4,0,10.5-2.1,14.3-5.9c3.8-3.8,5.9-8.9,5.9-14.3
	C60.1,524.1,58,519.1,54.1,515.2 M53.2,543c-3.6,3.6-8.4,5.6-13.4,5.6c-5.1,0-9.9-2-13.4-5.6c-3.6-3.6-5.6-8.4-5.6-13.4
	c0-5.1,2-9.9,5.6-13.4c3.6-3.6,8.4-5.6,13.4-5.6c5.1,0,9.9,2,13.4,5.6c3.6,3.6,5.6,8.4,5.6,13.4C58.8,534.6,56.8,539.4,53.2,543"/>
<g>
	<path class="st5" d="M781.9,608.4c68.4,0,172.4,0.1,202,0c4,0,7.2-3.2,7.2-7.2v-79.5c0-12.1-1.2-24.2-4-36
		c-12-50.8-43.4-70.4-106.4-70.4c-10.4-1-23.5-1.4-38.4,0.7c-3.7,0.5-48.6,9.7-64.7,63.6c-3.1,10.5-4.5,21.4-4.5,32.4l0.4,88.3
		C773.6,604.7,777.3,608.4,781.9,608.4"/>
</g>
<g>
	<path class="st6" d="M950.6,611.7c-44.9,0-116.9,0-168.7,0c-6.4,0-11.6-5.1-11.6-11.5l-0.4-88.3c-0.1-11.7,1.5-23,4.6-33.3
		c17.5-58.3,66.9-65.8,67.4-65.9c12.9-1.8,26.1-2,39.2-0.7c0,0,0.1,0,0.1,0c65.3,0,97.1,21.2,109.2,73c2.7,11.4,4.1,23.8,4.1,36.8
		v79.5c0,5.8-4.7,10.5-10.5,10.5C976.7,611.7,965,611.7,950.6,611.7z M864.4,417.8c-7.3,0-14.5,0.5-21.6,1.5
		c-0.5,0.1-46,7.8-62,61.2c-2.9,9.8-4.4,20.3-4.3,31.4l0.4,88.3c0,2.7,2.3,4.9,5,4.9h0c68.4,0,172.4,0.1,202,0
		c2.2,0,3.9-1.7,3.9-3.8v-79.5c0-12.5-1.3-24.3-3.9-35.3c-11.5-48.9-40.4-67.9-103.2-67.9C875.2,418,869.8,417.8,864.4,417.8z"/>
</g>
<g>
	<path class="st7" d="M967.4,286.7c0,65.5-31,60.2-84.2,60.2c-53.2,0-92.6,8.1-92.6-62.7c0-52.5,37-86.6,90.2-86.6
		C934,197.6,967.4,234.3,967.4,286.7"/>
</g>
<g>
	<path class="st6" d="M855.2,350.5c-21.7,0-40.3-1.7-52.5-13.8c-10.5-10.4-15.4-27-15.4-52.5c0-53.8,37.6-89.9,93.5-89.9
		c53.8,0,89.9,37.2,89.9,92.5c0,25-4.5,41.2-14.2,50.8c-13.2,13.1-34.8,13-62.2,12.8c-8.4-0.1-17.6,0-26,0.1
		C863.8,350.4,859.4,350.5,855.2,350.5z M880.8,200.9c-52,0-86.9,33.5-86.9,83.3c0,23.3,4.4,38.9,13.4,47.8
		c12.7,12.5,33.9,12.2,60.9,11.8c8.5-0.1,17.7-0.2,26.2-0.1c26.8,0.2,46.2,0.3,57.5-10.8c8.3-8.3,12.2-22.9,12.2-46.1
		C964.1,234.6,931.4,200.9,880.8,200.9z"/>
</g>
<g>
	<path class="st5" d="M902.6,391.2h-48.9V419c0,6.6,3.8,12.7,9.9,15.6c3.8,1.8,8.7,3.3,14.4,3.3c5.8,0,10.8-1.5,14.6-3.3
		c6.1-2.9,9.9-9,9.9-15.6V391.2z"/>
</g>
<g>
	<path class="st6" d="M878.1,441.2c0,0-0.1,0-0.1,0c-5.5,0-10.8-1.2-15.8-3.6c-7.2-3.4-11.8-10.7-11.8-18.6v-31h55.5v31
		c0,7.9-4.6,15.2-11.8,18.6C889,440,883.7,441.2,878.1,441.2z M857,394.6V419c0,5.3,3.1,10.3,8,12.6c4.1,2,8.5,3,13,3
		c4.6,0.1,9-1,13.2-3c4.9-2.3,8-7.3,8-12.6v-24.4H857z"/>
</g>
<g>
	<path class="st5" d="M951,331.4c0-23.9,0.1-47.7,0.1-71.6c-48.5-5.5-96.9-11-145.4-16.5c0.1,29.4,0.1,58.7,0.2,88.1h0
		c0,0.2,0,0.4,0,0.7c0,38.3,32.5,69.4,72.5,69.4c40.1,0,72.5-31.1,72.5-69.4V331.4z"/>
</g>
<g>
	<path class="st6" d="M878.4,404.8c-40.9,0-74.3-31.2-75.8-70.1h0l0-1.2c0-0.5,0-1,0-1.5l0-0.2l0-0.5l-0.2-91.8l152,17.3l-0.1,75.2
		C954.3,372.2,920.2,404.8,878.4,404.8z M809.2,328.1L809.2,328.1l0,3.3l0,0.5c0,36.7,31,66.3,69.2,66.3s69.2-29.7,69.2-66.1
		l0.1-69.3L809,247L809.2,328.1z"/>
</g>
<g>
	<path class="st6" d="M843.5,316.8c0,3.1-2.6,5.6-5.7,5.6s-5.7-2.5-5.7-5.6c0-3.1,2.5-5.6,5.7-5.6S843.5,313.7,843.5,316.8"/>
</g>
<g>
	<path class="st6" d="M929.7,288c-0.8,0-1.6-0.3-2.2-0.9c-1.3-1.1-8-6.8-16.6-5.2c-3.9,0.7-6.7,2.6-8.5,4.1c-1.4,1.2-3.5,1-4.7-0.4
		c-1.2-1.4-1-3.5,0.4-4.7c3.4-2.9,7.4-4.9,11.6-5.6c11.7-2.1,20.6,5.3,22.2,6.8c1.3,1.2,1.4,3.3,0.2,4.7
		C931.5,287.6,930.6,288,929.7,288z"/>
</g>
<g>
	<path class="st7" d="M882.1,222.6l47.1,3.1l19.3,12.5l5.3,9.1l2.2,21.6c-24.3,3.7-38.5-1.6-47.1-7.5c-13.6-9.3-20.9-25.3-26.1-23.2
		c-3.2,1.3-3.4,8.3-3.5,11.2c-0.3,9.6,4.3,16.2,2.8,17.1c-1,0.6-3.9-1.7-6.3-4.6c-8.5-10.1-5.6-20.8-9.6-22.3
		c-4.6-1.7-10.3,13.2-22,21.2c-19.5,13.3-39.2,15.6-48.3,16.1l8-36.1l52.1-19.9L882.1,222.6"/>
</g>
<g>
	<path class="st5" d="M797.6,276.9c9.1-0.5,28.8-2.8,48.3-16.1c11.7-8,17.4-22.9,22-21.2c3.9,1.5,1.1,12.2,9.6,22.3
		c2.4,2.8,5.3,5.2,6.3,4.6c1.5-0.9-3.1-7.5-2.8-17.1c0.1-2.9,0.3-10,3.5-11.2c5.2-2.1,12.4,13.9,26.1,23.2
		c8.6,5.9,22.8,11.1,47.1,7.5"/>
</g>
<g>
	<path class="st6" d="M797.6,280.2c-1.7,0-3.2-1.4-3.3-3.1c-0.1-1.8,1.3-3.4,3.1-3.5c11.8-0.6,29.5-3.8,46.6-15.5
		c5.3-3.6,9.4-9,12.7-13.3c4.3-5.6,7.7-10,12.3-8.3c3.4,1.3,4.1,4.9,4.8,8.7c0.7,3.7,1.5,8.1,4.6,12.6c-0.5-2.5-0.9-5.3-0.8-8.5
		c0.1-3.9,0.4-12.1,5.6-14.2c4.9-2,9,2.9,14.2,9c3.9,4.6,8.8,10.4,14.9,14.5c10.9,7.4,26,9.8,44.8,6.9c1.8-0.3,3.5,1,3.8,2.8
		c0.3,1.8-1,3.5-2.8,3.8c-20.5,3.1-37.2,0.4-49.5-8c-6.8-4.7-12-10.8-16.2-15.7c-2.3-2.7-5.4-6.4-6.8-7c-0.3,0.5-1.1,2.2-1.3,8.1
		c-0.2,5.1,1.2,9.3,2.1,12.1c0.9,2.8,1.9,6-0.9,7.7c-2.7,1.7-6.2-0.1-10.6-5.3c-5.4-6.5-6.7-13.2-7.6-17.7c-0.2-1-0.4-2.3-0.7-3.2
		c-1.2,1.1-3.2,3.6-4.7,5.6c-3.6,4.7-8.1,10.5-14.2,14.7c-18.4,12.6-37.4,16-50,16.6C797.8,280.2,797.7,280.2,797.6,280.2z"/>
</g>
<g>
	<path class="st6" d="M882.2,340.5c0,0-0.1,0-0.1,0l-6.7-0.2c-3.5-0.1-6.3-2.9-6.3-6.4c0-1.6,0.5-5.3,1.4-11.2
		c0.6-3.7,1.1-7.6,1.4-10.3c0.2-1.8,1.9-3.1,3.7-2.9c1.8,0.2,3.1,1.8,2.9,3.7c-0.3,2.8-0.9,6.8-1.5,10.6c-0.6,4-1.3,9-1.3,10.2
		l6.6,0.1c1.8,0.1,3.3,1.6,3.2,3.4C885.4,339.1,883.9,340.5,882.2,340.5z"/>
</g>
<g>
	<path class="st6" d="M877.3,370.2c-0.2,0-0.5,0-0.7,0c-10.3-0.4-15.6-8.3-15.8-8.7c-1-1.5-0.6-3.6,1-4.6c1.5-1,3.6-0.6,4.6,1
		c0.2,0.3,3.7,5.4,10.5,5.7c7.5,0.2,11.1-5.5,11.1-5.5c1-1.6,3-2,4.6-1.1c1.6,1,2,3,1.1,4.6C893.4,361.9,888.1,370.2,877.3,370.2z"
		/>
</g>
<g>
	<path class="st5" d="M805.5,307.2c-9.9-0.6-18.1,7-18.6,15.9c-0.4,9.5,8.1,18.1,18.6,17.5V307.2z"/>
</g>
<g>
	<path class="st6" d="M804.5,344c-5.6,0-11-2.2-15-6.2c-4-4-6.2-9.4-6-14.9c0.2-5.2,2.6-10,6.6-13.7c4.2-3.8,9.7-5.7,15.4-5.4
		l3.1,0.2v39.7l-3.1,0.2C805.3,344,804.9,344,804.5,344z M802.2,310.7c-2.8,0.4-5.4,1.7-7.5,3.6c-2.7,2.4-4.3,5.7-4.4,9
		c-0.2,3.6,1.3,7.1,4,9.8c2.2,2.2,5,3.6,7.9,4V310.7z"/>
</g>
<g>
	<path class="st5" d="M951.7,340.6c9.9,0.6,18.1-7,18.6-15.9c0.4-9.5-8.1-18.1-18.6-17.5V340.6z"/>
</g>
<g>
	<path class="st6" d="M952.7,344c-0.4,0-0.8,0-1.2,0l-3.1-0.2v-39.7l3.1-0.2c6-0.3,11.8,1.9,16.1,6.1c4,4,6.2,9.4,6,14.9
		c-0.2,5.2-2.6,10-6.6,13.7C963,342.1,958,344,952.7,344z M955,310.7v26.5c2.8-0.4,5.4-1.7,7.5-3.6c2.7-2.4,4.3-5.7,4.4-9.1
		c0.2-3.6-1.3-7.1-4-9.8C960.8,312.6,958,311.2,955,310.7z"/>
</g>
<g>
	<path class="st6" d="M823.5,288.4c-0.9,0-1.8-0.4-2.4-1.1c-1.2-1.3-1.1-3.4,0.2-4.7c1.7-1.5,10.5-9,22.2-6.8
		c4.2,0.8,8.2,2.7,11.6,5.6c1.4,1.2,1.5,3.3,0.4,4.7c-1.2,1.4-3.3,1.5-4.7,0.4c-1.7-1.5-4.6-3.4-8.5-4.1c-8.6-1.6-15.3,4.1-16.6,5.2
		C825.1,288.1,824.3,288.4,823.5,288.4z"/>
</g>
<g>
	<path class="st6" d="M920.7,316.8c0,3.1-2.6,5.6-5.7,5.6s-5.7-2.5-5.7-5.6c0-3.1,2.6-5.6,5.7-5.6S920.7,313.7,920.7,316.8"/>
</g>
<g>
	<path class="st5" d="M922.4,588.3c-6.9-20.9-15.6-58.1-13.8-109.7c0.5-14.8,12.2-26.8,27.1-27.9c13.9-1,26.7,7.9,30.3,21.2
		l27.6,99.7c5.1,18.4-8.9,36.5-28.2,36.5h-15.3C937.6,608.1,926.3,600.1,922.4,588.3"/>
</g>
<g>
	<path class="st6" d="M965.5,611.4h-15.3c-14.1,0-26.5-8.9-30.9-22.1l0,0c-7.4-22.2-15.8-59.5-13.9-110.8
		c0.6-16.5,13.6-29.8,30.2-31c15.5-1.1,29.7,8.8,33.8,23.6l27.6,99.7c2.7,9.7,0.7,19.8-5.4,27.8
		C985.4,606.7,975.9,611.4,965.5,611.4z M925.6,587.2c3.5,10.5,13.4,17.5,24.6,17.5h15.3c8.2,0,15.8-3.7,20.8-10.2
		c4.8-6.4,6.4-14.4,4.3-22l-27.6-99.7c-3.3-11.8-14.6-19.6-26.9-18.8c-13.2,1-23.6,11.6-24.1,24.7
		C910.2,529,918.4,565.5,925.6,587.2L925.6,587.2z"/>
</g>
<g>
	<path class="st8" d="M923.1,483.6c18.1-12.4,23.6-23.5,26.2-30.9c1.8-5,0.4-10.7-3.5-14.5L925,417.5c-3.3-3.2-8.5-3.6-12-0.8
		c-2,1.6-3.3,4-3.4,6.6c0,0.3,0,0.6,0,0.9c-1.6-1.4-3.1-2.8-4.4-4c-3.3-3.2-8.5-3.6-12-0.8c-0.3,0.3-0.7,0.5-0.9,0.9
		c-1.5,1.5-2.4,3.6-2.5,5.7c-0.1,2.6,0.8,5.1,2.7,6.9l1.8,1.7c-1.9-0.1-3.8,0.5-5.3,1.7c-1.9,1.5-3,3.6-3.1,5.9
		c-0.1,2.3,0.8,4.6,2.4,6.2l5.5,5.4c-0.1,0-0.3,0-0.5,0c-2.2,0.1-4.2,1-5.8,2.6c-3,3.2-2.8,8.3,0.4,11.4l14.4,14.1
		C907.9,487.3,916.7,488.1,923.1,483.6 M890.6,464.9c-1.7-1.7-1.9-4.4-0.3-6c0,0,0,0,0,0c0.8-0.8,1.8-1.3,3-1.3c1.1,0,2.2,0.4,3,1.2
		c0,0,0.1,0.1,0.1,0.1l8.5,7.1c2.1,1.8,4.2,3.5,5.8,4.9l1.9,1.6c0.2,0.1,0.4,0.3,0.6,0.5l0,0l0,0c0.8,0.6,1.8,1,2.8-0.1
		c0.7-0.8,0.7-2-0.1-2.7l-25.1-24.6c-0.9-0.8-1.3-2-1.3-3.2c0.1-1.2,0.6-2.3,1.6-3.1c1.6-1.3,4.1-1.1,5.7,0.5c0,0,0.1,0.1,0.1,0.1
		l22.7,19.8c0.3,0.2,0.5,0.5,0.8,0.7l0.1,0.1l0,0c0.9,0.7,1.8,1,2.8,0c0,0,0,0,0,0c0.7-0.8,0.7-2-0.1-2.7L895.1,430
		c-1-1-1.6-2.4-1.5-3.9c0.1-1.5,0.8-2.8,1.9-3.7c2-1.6,4.9-1.3,6.9,0.6l28,25.1c0.3,0.3,0.7,0.6,1,0.8l0.2,0.2l0,0
		c1,0.7,1.8,1,2.7,0c0,0,0,0,0,0c0.7-0.8,0.7-2-0.1-2.7l-19.5-19c-1-1-1.6-2.4-1.5-3.9c0.1-1.5,0.8-2.8,2-3.7c2-1.6,4.9-1.3,6.8,0.5
		l20.8,20.7l0,0c2.8,2.7,3.8,6.9,2.5,10.5c-2.4,6.8-7.5,17.2-24.7,28.9c-4.9,3.4-11.6,2.8-15.9-1.4L890.6,464.9z"/>
</g>
<g>
	<path class="st5" d="M920.9,480.1c17.2-11.7,22.3-22.1,24.7-28.9c1.3-3.6,0.3-7.7-2.5-10.5c0,0,0,0,0,0L922.2,420
		c-1.9-1.9-4.9-2.1-6.8-0.5c-1.2,0.9-1.9,2.2-2,3.7c-0.1,1.5,0.5,2.9,1.5,3.9l19.5,19c0.8,0.7,0.8,1.9,0.1,2.7c0,0,0,0,0,0
		c-0.9,1-1.8,0.7-2.7,0l0,0l-0.2-0.2c-0.3-0.2-0.6-0.5-1-0.8l-28-25.1c-2-1.9-4.9-2.2-6.9-0.6c-1.2,0.9-1.9,2.2-2,3.7
		c-0.1,1.5,0.5,2.9,1.5,3.9l28.2,27.6c0.8,0.7,0.8,1.9,0.1,2.7c0,0,0,0,0,0c-0.9,1-1.9,0.7-2.7,0l0,0l-0.1-0.1
		c-0.3-0.2-0.5-0.4-0.8-0.7L897,439.5c0,0-0.1,0-0.1-0.1c-1.6-1.6-4-1.8-5.7-0.5c-1,0.8-1.5,1.9-1.6,3.1c-0.1,1.2,0.4,2.4,1.3,3.2
		l25.1,24.6c0.7,0.7,0.8,1.9,0.1,2.7c-1,1.1-2,0.6-2.8,0.1l0,0l0,0c-0.2-0.2-0.4-0.3-0.6-0.5l-1.9-1.6c-1.6-1.3-3.7-3.1-5.8-4.9
		l-8.5-7.1c0,0-0.1-0.1-0.1-0.1c-0.8-0.8-1.9-1.2-3-1.2c-1.1,0-2.2,0.5-3,1.3c0,0,0,0,0,0c-1.5,1.6-1.4,4.3,0.3,6l14.4,14.1
		C909.2,482.9,915.9,483.5,920.9,480.1"/>
</g>
<g>
	<path class="st5" d="M788.4,588.3c6.9-20.9,15.6-58.1,13.8-109.7c-0.5-14.8-12.2-26.8-27.1-27.9c-13.9-1-26.7,7.9-30.3,21.2
		L717,571.6c-5.1,18.4,8.9,36.5,28.2,36.5h15.3C773.2,608.1,784.5,600.1,788.4,588.3"/>
</g>
<g>
	<path class="st6" d="M760.6,611.4h-15.3c-10.3,0-19.8-4.7-26-12.8c-6.1-8-8.1-18.2-5.4-27.8l27.6-99.7
		c4.1-14.8,18.3-24.7,33.8-23.6c16.6,1.2,29.6,14.5,30.2,31c1.8,51.3-6.6,88.6-13.9,110.8l0,0C787.1,602.5,774.7,611.4,760.6,611.4z
		 M772.9,454c-11.6,0-21.9,7.7-25,18.8l-27.6,99.7c-2.1,7.7-0.6,15.7,4.3,22c4.9,6.5,12.5,10.2,20.8,10.2h15.3
		c11.3,0,21.2-7,24.6-17.5c7.2-21.7,15.4-58.2,13.6-108.5c-0.5-13.1-10.8-23.7-24-24.7C774.2,454,773.5,454,772.9,454z M788.4,588.3
		L788.4,588.3L788.4,588.3z"/>
</g>
<g>
	<path class="st9" d="M837.3,395.4c-4.4,2.2-5.9,2.2-6.4,1.7c-0.4-0.4,0-1.1,0.1-3.3c0-1.7,0-2.6-0.5-3c-1-0.8-2.9,0.9-4.4,0
		c-0.5-0.3-0.8-0.8-1-1.2l-0.3-0.3c-3-2.9-8.3-2.5-11.9,1c-1.8,1.7-2.8,3.9-3,6.2c-0.1,2.1,0.6,4,2,5.4l0.3,0.3
		c0.2,0.1,0.5,0.4,0.8,0.7c0.9,0.9,1.2,1.6,1.8,2.8c0.9,1.7,1.4,2.5,2.1,2.8c1.3,0.4,2.4-1,3-0.6c0.4,0.3,0.4,1.6-1.7,6.2l-13.3,13
		c-1.1,1.1-1.3,2.7-0.5,3.6l11,10.8c-0.2-1.5,0.6-2.7,1.6-2.9c0.7-0.2,1.4,0.3,1.6,0.4c0.8,0.5,1.7,0.9,2.5,1.4
		c4.9-8.1,14.8-9.5,19.7-5.7c5,3.9,6,14.2-1,20.9c0-1.4,0-2.8,0.1-4.2c-1.3,1.3-2.8,3-4.1,5c-0.7,1.1-1.4,2.2-1.9,3.2l11,10.7
		c0.5,0.5,1.1,0.5,1.5,0.5c0.8,0,1.5-0.4,2.1-1l13.3-13c1.7-1.7,4.1-2.3,6.4-1.7c2.1,0.6,3.6,2.2,4,4.2c0.3,1.3,0.9,2.4,1.8,3.3
		l0.3,0.3c3,2.9,8.3,2.5,11.9-1c3.5-3.5,4-8.7,1-11.6l-0.3-0.3c-0.9-0.9-2.1-1.5-3.4-1.8c-2.1-0.4-3.7-1.9-4.3-3.9
		c-0.2-0.6-0.2-1.1-0.2-1.7c0-1.7,0.7-3.3,2-4.5l3.5-3.4l4.7-4.6l5.1-5c0.6-0.6,1-1.3,1-2.1c0-0.4,0-1-0.5-1.5
		c0,0-13.5-14.7-13.1-16.7c0.5-2.2,2-3.9,4.1-4.7c1.3-0.5,2.5-1.3,3.6-2.3l0.4-0.4c3.5-3.5,4-8.7,1-11.6c-3-2.9-8.3-2.5-11.9,1
		l-0.4,0.4c-1,1-1.8,2.2-2.4,3.5c-0.8,2.1-2.6,3.6-4.8,4c-2,0.4-4.1-0.2-5.5-1.5l-11.5-11.3c-0.5-0.5-1.1-0.5-1.5-0.5
		c-0.7,0-1.5,0.4-2.1,1L837.3,395.4z"/>
</g>
<g>
	<path class="st6" d="M846.9,381.2l-11.9,11.7c-0.6-1.9-1.7-3.6-3.1-5l-0.3-0.3c-5.2-5.2-14.1-4.7-19.9,0.9
		c-2.7,2.7-4.4,6.2-4.6,9.8c-0.2,3.8,1.1,7.3,3.6,9.8l0.3,0.3c1.4,1.4,3.1,2.4,5.1,3l-11.9,11.7c-3.5,3.4-3.7,8.9-0.5,12l10.7,10.6
		c1.3,1.3,3.2,1.8,5.1,1.4c2.1-0.4,3.7-1.8,4.5-3.8c0.5-1.2,1.2-2.3,2.2-3.3l0.3-0.3c1.7-1.6,3.8-2.6,5.9-2.7c2-0.1,3.8,0.5,5.1,1.8
		c1.3,1.3,2,3.1,1.8,5.1c-0.1,2.1-1.1,4.2-2.8,5.8l-0.3,0.3c-1,1-2.1,1.7-3.3,2.2c-2,0.7-3.4,2.4-3.8,4.4c-0.4,1.9,0.1,3.7,1.5,5
		l10.7,10.6c3.2,3.2,8.7,3,12.2-0.5l11.9-11.7c0.6,1.9,1.6,3.6,3.1,5l0.3,0.3c5.2,5.2,14.2,4.7,19.9-0.9c3-3,4.6-6.9,4.6-10.7
		c0-3.3-1.2-6.5-3.7-9l-0.3-0.3c-1.4-1.4-3.1-2.4-5.1-3l11.9-11.7c1.6-1.6,2.6-3.7,2.8-5.9c0-0.2,0-0.3,0-0.5c0-2.1-0.8-4.1-2.3-5.6
		l-10.2-10.1c1.9-0.8,3.7-1.9,5.2-3.4l0.3-0.3c5.7-5.7,6.2-14.5,0.9-19.6c-5.2-5.2-14.2-4.7-19.9,0.9l-0.3,0.3
		c-1.5,1.5-2.7,3.2-3.5,5.1l-10.2-10.1c-1.6-1.6-3.9-2.4-6.2-2.3C850.7,378.7,848.6,379.6,846.9,381.2 M854.7,385.1l10.7,10.6
		c1.3,1.3,3.2,1.8,5.1,1.4c2.1-0.4,3.7-1.8,4.5-3.8c0.5-1.2,1.2-2.3,2.2-3.3l0.3-0.3c3.3-3.3,8.3-3.7,11.1-0.9
		c2.8,2.8,2.4,7.6-0.9,10.9l-0.3,0.3c-1,1-2.1,1.7-3.3,2.2c-2,0.7-3.4,2.4-3.8,4.4c-0.4,1.9,0.1,3.7,1.5,5l10.7,10.6
		c0.4,0.4,0.5,1,0.5,1.4c0,0.7-0.4,1.4-0.9,2l-4.8,4.7l-4.4,4.4l-3.2,3.2c-1.2,1.2-1.8,2.7-1.8,4.3c0,0.5,0.1,1.1,0.2,1.6
		c0.6,1.9,2.1,3.3,4,3.7c1.2,0.3,2.3,0.8,3.1,1.7l0.3,0.3c2.8,2.8,2.4,7.6-0.9,10.9c-3.3,3.3-8.3,3.7-11.1,0.9l-0.3-0.3
		c-0.9-0.8-1.4-1.9-1.7-3.1c-0.4-1.9-1.8-3.4-3.7-4c-2.1-0.6-4.3,0-5.9,1.6l-12.4,12.2c-0.6,0.5-1.3,0.9-2,0.9c-0.4,0-1,0-1.4-0.5
		L835.8,458c1.9-0.8,3.7-1.9,5.2-3.4l0.3-0.3c5.7-5.7,6.2-14.5,0.9-19.6c-5.2-5.2-14.1-4.7-19.9,0.9l-0.3,0.3
		c-1.5,1.5-2.7,3.2-3.5,5.1l-10.2-10.1c-0.8-0.8-0.6-2.3,0.5-3.3l12.4-12.2c1.6-1.6,2.2-3.8,1.6-5.8c-0.6-1.9-2.1-3.3-4-3.7
		c-1.2-0.3-2.3-0.8-3.1-1.7l-0.3-0.3c-1.3-1.3-1.9-3.1-1.8-5.1c0.1-2.1,1.1-4.2,2.8-5.8c3.3-3.3,8.3-3.7,11.1-0.9l0.3,0.3
		c0.9,0.8,1.4,1.9,1.7,3.1c0.4,1.9,1.8,3.4,3.7,4c2.1,0.6,4.3,0,5.9-1.6l12.4-12.2c0.6-0.5,1.3-0.9,2-0.9
		C853.7,384.6,854.3,384.7,854.7,385.1"/>
</g>
<g>
	<path class="st8" d="M803.2,481.8l14.4-14.1c3.2-3.1,3.4-8.3,0.4-11.4c-1.5-1.6-3.6-2.5-5.8-2.6c-0.1,0-0.3,0-0.4,0l5.5-5.4
		c1.7-1.6,2.5-3.9,2.4-6.2c-0.1-2.3-1.3-4.5-3.1-5.9c-1.5-1.2-3.4-1.8-5.3-1.7l1.8-1.7c1.8-1.8,2.8-4.3,2.7-6.9
		c-0.1-2.1-1-4.2-2.5-5.7c-0.3-0.3-0.6-0.6-0.9-0.9c-3.5-2.8-8.7-2.4-12,0.8c-1.3,1.2-2.8,2.5-4.4,4c0-0.3,0-0.6,0-0.9
		c-0.1-2.6-1.4-5-3.4-6.6c-3.5-2.8-8.7-2.4-12,0.8l-20.8,20.8c-3.9,3.8-5.2,9.5-3.5,14.5c2.6,7.3,8.1,18.5,26.2,30.9
		C788.8,488.1,797.6,487.3,803.2,481.8 M800.5,479c-4.3,4.2-11,4.8-15.9,1.4c-17.2-11.7-22.3-22.1-24.7-28.9
		c-1.3-3.6-0.3-7.7,2.5-10.5c0,0,0,0,0,0l20.8-20.7c1.9-1.9,4.9-2.1,6.8-0.5c1.2,0.9,1.9,2.2,1.9,3.7c0.1,1.5-0.5,2.9-1.5,3.9
		l-19.5,19c-0.8,0.7-0.8,1.9-0.1,2.7c0,0,0,0,0,0c0.9,1,1.8,0.7,2.7,0l0,0l0.2-0.2c0.3-0.2,0.6-0.5,1-0.8l28-25.1
		c2-1.9,4.9-2.2,6.9-0.6c1.2,0.9,1.9,2.2,2,3.7c0.1,1.5-0.5,2.9-1.5,3.9l-28.2,27.6c-0.8,0.7-0.8,1.9-0.1,2.7c0,0,0,0,0,0
		c0.9,1,1.9,0.7,2.7,0l0,0l0.1-0.1c0.3-0.2,0.5-0.4,0.8-0.7l22.7-19.8c0,0,0.1,0,0.1-0.1c1.6-1.6,4-1.8,5.7-0.5
		c1,0.8,1.6,1.9,1.6,3.1c0.1,1.2-0.4,2.4-1.3,3.2l-25.1,24.6c-0.7,0.7-0.8,1.9-0.1,2.7c1,1.1,2,0.6,2.8,0.1l0,0l0,0
		c0.2-0.2,0.4-0.3,0.6-0.5l1.9-1.6c1.6-1.3,3.7-3.1,5.8-4.9l8.5-7.1c0,0,0.1-0.1,0.1-0.1c0.8-0.8,1.9-1.2,3-1.2c1.1,0,2.2,0.5,3,1.3
		c0,0,0,0,0,0.1c1.5,1.6,1.4,4.3-0.3,6L800.5,479z"/>
</g>
<g>
	<path class="st5" d="M784.6,480.1c-17.2-11.7-22.3-22.1-24.7-28.9c-1.3-3.6-0.3-7.7,2.5-10.5c0,0,0,0,0,0l20.8-20.7
		c1.9-1.9,4.9-2.1,6.8-0.5c1.2,0.9,1.9,2.2,1.9,3.7c0.1,1.5-0.5,2.9-1.5,3.9l-19.5,19c-0.8,0.7-0.8,1.9-0.1,2.7c0,0,0,0,0,0
		c0.9,1,1.8,0.7,2.7,0l0,0l0.2-0.2c0.3-0.2,0.6-0.5,1-0.8l28-25.1c2-1.9,4.9-2.2,6.9-0.6c1.2,0.9,1.9,2.2,2,3.7
		c0.1,1.5-0.5,2.9-1.5,3.9l-28.2,27.6c-0.8,0.7-0.8,1.9-0.1,2.7c0,0,0,0,0,0c0.9,1,1.9,0.7,2.7,0l0,0l0.1-0.1
		c0.3-0.2,0.5-0.4,0.8-0.7l22.7-19.8c0,0,0,0,0.1-0.1c1.6-1.6,4-1.8,5.7-0.5c1,0.8,1.6,1.9,1.6,3.1c0.1,1.2-0.4,2.4-1.3,3.2
		l-25.1,24.6c-0.7,0.7-0.8,1.9-0.1,2.7c1,1.1,2,0.6,2.8,0.1l0,0l0,0c0.2-0.2,0.4-0.3,0.6-0.5l1.9-1.6c1.6-1.3,3.7-3.1,5.8-4.9
		l8.5-7.1c0,0,0.1-0.1,0.1-0.1c0.8-0.8,1.9-1.2,3-1.2c1.1,0,2.2,0.5,3,1.3c0,0,0,0,0,0c1.5,1.6,1.4,4.3-0.3,6l-14.4,14.1
		C796.2,482.9,789.5,483.5,784.6,480.1"/>
</g>
</svg>
