<?xml version="1.0" encoding="utf-8"?>
<!-- Generator: Adobe Illustrator 22.1.0, SVG Export Plug-In . SVG Version: 6.00 Build 0)  -->
<svg version="1.1" id="Capa_1" xmlns="http://www.w3.org/2000/svg" xmlns:xlink="http://www.w3.org/1999/xlink" x="0px" y="0px"
	 viewBox="0 0 250 160" style="enable-background:new 0 0 250 160;" xml:space="preserve">
<style type="text/css">
	.st0{fill:#D7802A;}
	.st1{fill:#090A0B;}
	.st2{fill:#0A0A0C;}
	.st3{fill:#0A0A0B;}
	.st4{fill:#0F1010;}
	.st5{fill:#131314;}
	.st6{fill:#FFFEFE;}
	.st7{fill:#FFFEFD;}
	.st8{fill:#F6E2CC;}
	.st9{fill:#FDF9F3;}
	.st10{fill:#FFFFFF;}
	.st11{fill:#FFFFFD;}
	.st12{fill:#FDFDFD;}
	.st13{fill:#D7812C;}
	.st14{fill:#D88431;}
	.st15{fill:#D88433;}
</style>
<image style="overflow:visible;" width="900" height="900" xlink:href="DCB0644D.jpg"  transform="matrix(8.717262e-02 0 0 8.935311e-02 382.2821 -25.7671)">
</image>
<text transform="matrix(1 0 0 1 342.0979 95.2932)" style="fill:#08090A; font-family:'Roboto-Bold'; font-size:29.1506px;">#SoyVisual</text>
<g>
	<path class="st0" d="M23.6,74.4c0-8.7,0-17.4,0-26.1c0-0.9,0.2-1.2,1.2-1.2c17.4,0,34.8,0,52.2,0c0.9,0,1.2,0.2,1.2,1.2
		c0,17.5,0,34.9,0,52.4c0,0.9-0.2,1.3-1.2,1.3c-17.4,0-34.8,0-52.2,0c-1,0-1.2-0.3-1.2-1.2C23.6,91.9,23.6,83.1,23.6,74.4z"/>
	<path class="st1" d="M143.7,89.7c0-1.9,0-3.7,0-5.4c0-0.7,0.2-0.9,0.9-0.9c2.8,0,2.8-0.1,2.8,2.7c0,4.8,0,9.6,0,14.5
		c0,0.9-0.2,1.4-1.2,1.2c-0.3-0.1-0.7,0-1,0c-0.9,0.1-1.5-0.1-1.2-1.5c-1,0.9-1.8,1.5-2.9,1.7c-2.7,0.5-5.1-0.6-6.3-3.1
		c-1.1-2.3-1.2-4.7-0.3-7c1.5-4,5.8-5,9-2.2C143.4,89.7,143.4,89.7,143.7,89.7z"/>
	<path class="st2" d="M89,92.5c0-2.7,0-5.4,0-8.2c0-0.7,0.2-1,1-1c3.7,0,7.4,0,11.1,0c0.7,0,0.9,0.2,0.9,0.9c0,2.5,0.1,2.5-2.4,2.5
		c-1.8,0-3.6,0-5.4,0c-0.8,0-1.2,0.1-1.1,1c0.1,1-0.4,2.4,0.3,3c0.6,0.6,1.9,0.2,2.9,0.2c1.2,0,2.4,0,3.6,0c0.6,0,0.9,0.1,0.9,0.8
		c0.1,2.4,0.1,2.4-2.3,2.4c-1.4,0-2.9,0-4.3,0c-0.9,0-1.2,0.2-1.1,1.1c0.1,1.8,0,3.7,0,5.5c0,0.9-0.3,1.2-1.1,1.1
		c-0.7-0.1-1.3-0.1-2,0c-0.9,0.1-1-0.3-1-1.1C89,98,89,95.3,89,92.5z"/>
	<path class="st1" d="M162,96.3c0.1,1.5-0.2,3.2,0.2,4.9c0.1,0.5-0.2,0.5-0.5,0.5c-0.8,0-1.6,0-2.4,0c-0.2,0-0.5-0.1-0.5-0.2
		c-0.4-1.5-1-0.4-1.5-0.2c-1.7,0.8-3.5,1-5.3,0.4c-1.6-0.5-2.5-1.9-2.4-3.7c0-1.7,0.8-2.8,2.4-3.4c1.5-0.6,3-0.6,4.6-0.9
		c0.9-0.2,1.9-0.3,1.8-1.6c-0.1-1-0.8-1.5-2.1-1.5c-1.1,0-2.2,0.1-2.6,1.5c-0.1,0.4-0.3,0.5-0.7,0.5c-0.5,0-1.1,0-1.6,0
		c-1.6,0-1.7-0.2-1-1.7c0.5-1.1,1.4-1.8,2.5-2.2c2.2-0.8,4.5-0.8,6.7-0.1c1.7,0.5,2.5,1.7,2.5,3.5C162,93.4,162,94.7,162,96.3z"/>
	<path class="st1" d="M185.8,95.1c0-4.2,2.7-7,6.9-7c4.2,0,6.9,2.8,6.9,7c0,4.3-2.7,7.1-6.9,7.1C188.5,102.1,185.8,99.4,185.8,95.1z
		"/>
	<path class="st3" d="M122.6,90c1.5-1.7,3.2-2.2,5.3-1.9c2.1,0.3,3.3,1.5,3.5,3.7c0.3,3.1,0.1,6.1,0.1,9.2c0,0.5-0.2,0.7-0.7,0.7
		c0,0-0.1,0-0.1,0c-2.8,0.1-2.8,0.1-2.8-2.7c0-1.7,0.1-3.5,0-5.2c-0.1-2.3-1.3-3.2-3.3-2.6c-1.1,0.3-1.8,1.2-1.8,2.7
		c-0.1,2.3-0.1,4.6,0,6.9c0,0.8-0.2,1.1-1,1.1c-2.7,0-2.7,0-2.7-2.7c0-3.2,0-6.5,0-9.7c0-0.8,0.2-1.1,1-1c0.3,0,0.7,0,1,0
		C122.2,88.3,122.9,88.6,122.6,90z"/>
	<path class="st3" d="M112.8,100c-1.5,1.9-3.3,2.3-5.4,2c-2.1-0.3-3.4-1.5-3.5-3.8c-0.2-3.1-0.1-6.1-0.1-9.2c0-0.4,0.1-0.6,0.5-0.6
		c0.1,0,0.2,0,0.2,0c2.9-0.2,2.8-0.2,2.9,2.7c0,2-0.2,4,0.1,5.9c0.2,1.5,0.9,2.1,2.2,2.1c1.4,0.1,2.3-0.6,2.7-1.9
		c0.4-1.4,0.2-2.8,0.2-4.2c0-1.3,0.1-2.6,0-3.8c-0.1-1,0.6-1,1.1-0.8c0.9,0.3,2.4-0.9,2.5,0.7c0.2,3.9,0.1,7.8,0.1,11.8
		c0,0.2,0,0.4-0.1,0.4c-0.9,0.7-2,0.2-3,0.3c-0.7,0-0.4-0.6-0.4-1C112.9,100.6,112.9,100.5,112.8,100z"/>
	<path class="st1" d="M205.7,90c1.4-1.6,3.1-2.1,5.2-1.8c2,0.3,3.2,1.4,3.4,3.4c0.4,3.2,0.3,6.4,0.1,9.5c-0.1,1.3-1.8,0.3-2.8,0.6
		c-0.6,0.2-0.8-0.1-0.8-0.7c0-2.2,0-4.4,0-6.5c0-0.5,0-0.9-0.1-1.4c-0.3-1.5-0.9-2-2.2-2.1c-1.4,0-2.3,0.6-2.7,1.9
		c-0.2,0.6-0.2,1.3-0.2,2c0,1.9,0,3.8,0,5.7c0,0.2,0.1,0.5,0,0.7c-0.8,1.1-1.9,0.2-2.8,0.5c-0.5,0.1-0.8-0.1-0.8-0.7
		c0-4,0-7.9,0-11.9c0-0.3-0.1-0.6,0.3-0.7c1,0,2-0.1,2.9,0C205.9,88.7,205.2,89.5,205.7,90z"/>
	<path class="st1" d="M175.4,93.1c-0.8,0.1-1.5,0-2-1.1c-0.7-1.5-3.2-1.5-4.3-0.2c-1.2,1.5-1.4,4.7-0.2,6.3c0.7,1,1.6,1.3,2.7,1.2
		c1.1-0.1,1.9-0.7,2.2-1.7c0.2-0.9,0.7-1,1.5-1c0.2,0,0.4,0,0.6,0c1.9,0,2,0.1,1.2,1.9c-1.1,2.5-3.6,3.8-6.7,3.5
		c-3-0.3-5.2-2.4-5.7-5.2c-0.2-1.2-0.2-2.5,0.1-3.7c1.1-4.9,7.2-6.8,11.1-3.6c0.7,0.6,1.2,1.4,1.5,2.3c0.4,1.2,0.3,1.3-0.9,1.3
		C176.1,93.1,175.9,93.1,175.4,93.1z"/>
	<path class="st3" d="M179.8,95.1c0-1.9,0-3.8,0-5.7c0-0.7,0.1-1,0.9-1c2.8,0,2.8-0.1,2.8,2.7c0,3.2,0,6.4,0,9.6
		c0,0.8-0.2,1.1-1,1.1c-2.6,0-2.6,0-2.6-2.6C179.8,97.9,179.8,96.5,179.8,95.1z"/>
	<path class="st4" d="M191.2,86.5c0.8-1.2,1.5-2.2,2.2-3.2c0.2-0.3,0.5-0.3,0.8-0.3c1,0,2.1,0,3.5,0c-1.1,1-2.1,1.7-2.8,2.7
		C193.9,86.8,192.7,86.6,191.2,86.5z"/>
	<path class="st5" d="M181.6,83.4c0.3,0,0.7,0,1,0c0.6,0,0.7,0.2,0.7,0.7c0.1,2.3,0.2,2.3-2.2,2.3c-0.5,0-1.2,0.3-1.3-0.2
		c-0.2-0.8-0.2-1.8,0-2.6c0-0.2,0.3-0.1,0.5-0.1C180.8,83.4,181.2,83.4,181.6,83.4z"/>
	<path class="st6" d="M61.8,96.5c-2.6,1.8-5.1,0.1-5.2-2.7c0-0.9,0.1-1.7,0.4-2.5c0.7-1.6,2.4-2.3,4.1-1.6c0.4,0.2,0.6,0.3,1.1,0
		c0.9-0.6,1.5-0.1,1.5,1c0,2.1,0,4.1,0,6.2c0,2.2-0.8,3.1-3,3.4c-1,0.1-2,0-2.8-0.5c-0.5-0.3-1.2-0.8-0.9-1.3
		c0.3-0.5,1.2-0.6,1.9-0.3c0.2,0.1,0.4,0.3,0.6,0.4C60.8,99.1,61.7,98.3,61.8,96.5z"/>
	<path class="st6" d="M30.3,89.4c2.3,0,3.7,1.6,3.7,4c0,2.5-1.5,4-3.8,4c-2.3,0-3.8-1.7-3.8-4.1C26.4,90.9,27.9,89.3,30.3,89.4z"/>
	<path class="st7" d="M46.9,94c0,0.7,0,1.4,0,2.1c0,1.1-0.8,1.6-1.6,1c-0.6-0.4-0.9-0.2-1.3-0.1c-0.3,0.1-0.7,0.2-1,0.2
		c-1.6,0.1-2.5-0.5-2.7-1.7c-0.3-1.2,0.4-2.3,1.7-2.8c0.8-0.3,1.6-0.4,2.4-0.6c0.3-0.1,0.7,0,0.6-0.5c0-0.4-0.3-0.7-0.6-0.7
		c-0.7-0.2-1.3-0.1-1.9,0.4c-0.3,0.3-0.6,0.4-1,0.1c-0.8-0.4-0.9-0.7-0.1-1.3c1.2-0.9,3.4-1,4.6-0.3c0.7,0.4,1,0.9,1,1.7
		C46.9,92.4,46.9,93.2,46.9,94z"/>
	<path class="st7" d="M48.4,93.4c0-1,0-1.9,0-2.9c0-0.3-0.1-0.8,0.4-0.8c0.4,0,1-0.5,1.3,0.1c0.3,0.7,0.6,0.3,1,0.1
		c0.6-0.3,1.1-0.5,1.8-0.5c1.5,0,2.4,0.7,2.4,2.2c0.1,1.6,0,3.3,0,4.9c0,0.9-0.6,0.7-1.1,0.8c-0.6,0-1,0-1-0.8c0.1-1.4,0-2.7,0-4.1
		c0-0.7,0-1.4-1-1.4c-0.9,0-1.8,0.7-1.8,1.5c0,1.3,0,2.6,0,4c0,0.8-0.3,0.9-1,0.9c-0.7,0-1.1-0.1-1.1-0.9
		C48.5,95.3,48.4,94.4,48.4,93.4z"/>
	<path class="st6" d="M69.5,93.7c-0.6,0-1.2,0-1.8,0c-0.9-0.1-0.9,0.4-0.7,1c0.4,1.1,1.7,1.4,2.7,0.7c0.3-0.2,0.4-0.6,0.9-0.4
		c0.4,0.2,0.9,0.4,1,0.7c0.2,0.4-0.3,0.7-0.6,0.9c-1.3,1-2.7,1-4.1,0.5c-1.3-0.4-1.9-1.5-2-2.9c-0.4-3.1,1.3-5.1,4.1-4.8
		c1.9,0.2,3.1,1.8,3,3.7c0,0.5-0.3,0.7-0.7,0.6C70.7,93.7,70.1,93.7,69.5,93.7z"/>
	<path class="st6" d="M35.4,93.3c0-0.9,0-1.8,0-2.7c0-1,0.8-1.6,1.6-1c0.6,0.4,0.9,0.2,1.4,0c0.3-0.2,0.8-0.4,1.1-0.1
		c0.3,0.4,0.2,0.9,0.1,1.3c0,0.5-0.4,0.5-0.8,0.5c-1.1,0.1-1.5,0.6-1.4,1.7c0.1,1.1,0,2.3,0,3.4c0,0.9-0.6,0.7-1.1,0.7
		c-0.6,0-1,0-1-0.8C35.4,95.4,35.4,94.3,35.4,93.3z"/>
	<path class="st8" d="M74.5,89c-0.2-0.3-0.4-0.6-0.7-1.1c0,0.3,0,0.6,0,0.8c0,0.2-0.1,0.4-0.3,0.4c-0.2,0-0.3-0.2-0.3-0.4
		c0-0.3,0-0.5,0-0.8c0-0.4-0.2-1,0.4-1.2c0.6-0.2,0.7,0.5,0.9,0.9c0.1,0.3,0.2,0.5,0.6,0.3c0.1,0,0.2,0.2,0.3,0.3
		c0,0.2,0,0.4-0.2,0.5C74.7,88.6,74.7,88.9,74.5,89z"/>
	<path class="st9" d="M75.2,88.1C75.1,88,75,88,74.9,87.9c0.1-0.3,0.2-0.7,0.3-1c0.1-0.2,0.3-0.2,0.5-0.2c0.2,0,0.3,0.2,0.3,0.4
		c0,0.7,0.1,1.3-0.1,2C75.2,89.1,76,88,75.2,88.1z"/>
	<path class="st10" d="M71.8,89.2c-0.6-0.8,0.2-1.9-0.9-2.4c0.6-0.2,1.1-0.2,1.8,0C71.6,87.3,72.3,88.4,71.8,89.2z"/>
	<path class="st11" d="M74.5,89c0.1-0.3-0.1-0.8,0.5-0.4C74.9,88.9,74.9,89.2,74.5,89z"/>
	<path class="st10" d="M143.8,95.1c0.1,0.9-0.1,1.7-0.4,2.5c-0.4,1-1.1,1.6-2.3,1.8c-1.2,0.1-2.2-0.2-2.8-1.3
		c-1.2-1.9-1.1-3.8-0.2-5.8c0.6-1.1,1.6-1.5,2.9-1.4c1.2,0.1,1.9,0.7,2.4,1.8C143.7,93.4,143.8,94.2,143.8,95.1z"/>
	<path class="st12" d="M158.3,95.5c0,0.7,0.1,1.3,0,1.9c-0.2,2-2.9,3.1-4.5,1.9c-1-0.8-0.8-2.4,0.6-2.9
		C155.5,95.9,156.9,95.8,158.3,95.5z"/>
	<path class="st10" d="M196,95.2c-0.1,0.6-0.1,1.2-0.3,1.7c-0.4,1.6-1.4,2.4-3,2.4c-1.6,0-2.7-0.8-3.1-2.3c-0.4-1.3-0.3-2.6,0-3.9
		c0.4-1.5,1.5-2.2,3-2.2c1.4,0,2.5,0.8,2.9,2.2C195.8,93.8,196,94.5,196,95.2z"/>
	<path class="st13" d="M61.8,93.2c-0.1,0.4-0.1,0.8-0.3,1.2c-0.2,0.7-0.7,1.1-1.5,1.1c-0.7,0-1.1-0.5-1.3-1.1
		c-0.2-0.6-0.2-1.3-0.1-2c0.2-0.8,0.5-1.5,1.5-1.5c1,0,1.3,0.6,1.5,1.4C61.8,92.6,61.8,92.9,61.8,93.2z"/>
	<path class="st13" d="M31.9,93.5c0,1.4-0.7,2.2-1.7,2.2c-1.1,0-1.8-0.9-1.7-2.3c0-1.4,0.7-2.2,1.8-2.2C31.4,91.1,32,91.9,31.9,93.5
		z"/>
	<path class="st14" d="M44.9,94.3c0,0.9-0.8,1.5-1.7,1.5c-0.6,0-0.9-0.4-0.9-1c0-0.7,1-1.4,2.1-1.5C45.1,93.4,44.8,94,44.9,94.3z"/>
	<path class="st15" d="M68.4,90.8c0.6,0,1,0.1,1.3,0.5c0.2,0.2,0.4,0.5,0.2,0.8c-0.2,0.3-0.5,0.2-0.7,0.2c-0.3,0-0.6,0.1-0.9,0
		c-0.4-0.1-1.2,0.4-1.2-0.4C67.1,91.2,67.7,90.8,68.4,90.8z"/>
</g>
</svg>
