<?xml version="1.0" encoding="utf-8"?>
<!-- Generator: Adobe Illustrator 22.1.0, SVG Export Plug-In . SVG Version: 6.00 Build 0)  -->
<svg version="1.1" id="Capa_1" xmlns="http://www.w3.org/2000/svg" xmlns:xlink="http://www.w3.org/1999/xlink" x="0px" y="0px"
	 viewBox="0 0 1000 502.7" style="enable-background:new 0 0 1000 502.7;" xml:space="preserve">
<style type="text/css">
	.st0{fill:none;stroke:#00B0B9;stroke-width:4;stroke-miterlimit:10;}
	.st1{fill:none;stroke:#FC4C02;stroke-width:4;stroke-miterlimit:10;}
	.st2{fill:none;stroke:#84BD00;stroke-width:4;stroke-miterlimit:10;}
</style>
<path class="st0" d="M197.8,404.7h-95.9c-3.6,0-6.5-2.9-6.5-6.5V349"/>
<path class="st0" d="M364.2,359.5v38.8c0,3.6-2.9,6.5-6.5,6.5h-97.3"/>
<path class="st0" d="M95.4,291.4v-44.5c0-3.6,2.9-6.5,6.5-6.5h255.9c3.6,0,6.5,2.9,6.5,6.5v43.2"/>
<path class="st1" d="M901.8,361.1v37.7c0,3.6-2.9,6.5-6.5,6.5H639.5c-3.6,0-6.5-2.9-6.5-6.5V349"/>
<path class="st1" d="M802.6,240.4h92.7c3.6,0,6.5,2.9,6.5,6.5v32.5"/>
<path class="st1" d="M633,293.2v-46.3c0-3.6,2.9-6.5,6.5-6.5h105.2"/>
<path class="st1" d="M855.6,240.4h-60.1c-3.4,0-6.3-2.5-6.7-5.8c-0.4-2.8,0.2-6.9,3.1-12.4c7.2-13.7,2.6-30.6-18.9-30.6h0.7
	c-21.5,0-26,16.9-18.9,30.6c2.9,5.5,3.4,9.6,3.1,12.4c-0.4,3.3-3.3,5.8-6.7,5.8H691"/>
<path class="st0" d="M147.5,404.8h60.1c3.4,0,6.3,2.5,6.7,5.8c0.4,2.8-0.2,6.9-3.1,12.4c-7.2,13.7-2.6,30.6,18.9,30.6h-0.7
	c21.5,0,26-16.9,18.9-30.6c-2.9-5.5-3.4-9.6-3.1-12.4c0.4-3.3,3.3-5.8,6.7-5.8h60.1"/>
<path class="st1" d="M901.8,369.3V347c0-3.4,2.5-6.3,5.8-6.7c2.8-0.4,6.9,0.2,12.4,3.1c13.7,7.2,30.6,2.6,30.6-18.9v0.7
	c0-21.5-16.9-26-30.6-18.9c-5.5,2.9-9.6,3.4-12.4,3.1c-3.3-0.4-5.8-3.3-5.8-6.7v-27.9"/>
<path class="st2" d="M364.1,274.4v27.9c0,3.4,2.5,6.3,5.8,6.7c2.8,0.4,6.9-0.2,12.4-3.1c13.7-7.2,30.6-2.6,30.6,18.9v-0.7
	c0,21.5-16.9,26-30.6,18.9c-5.5-2.9-9.6-3.4-12.4-3.1c-3.3,0.4-5.8,3.3-5.8,6.7V369v-9.5v39.3c0,3.6,2.9,6.5,6.5,6.5h255.9
	c3.6,0,6.5-2.9,6.5-6.5V355l0,14.3v-27.9c0-3.4-2.5-6.3-5.8-6.7c-2.8-0.4-6.9,0.2-12.4,3.1c-13.7,7.2-30.6,2.6-30.6-18.9v0.7
	c0-21.5,16.9-26,30.6-18.9c5.5,2.9,9.6,3.4,12.4,3.1c3.3-0.4,5.8-3.3,5.8-6.7v-22.3l0,9.2v-37c0-3.6-2.9-6.5-6.5-6.5H370.5
	c-3.6,0-6.5,2.9-6.5,6.5v42.7"/>
<path class="st0" d="M95.3,274.8v22.3c0,3.4-2.5,6.3-5.8,6.7c-2.8,0.4-6.9-0.2-12.4-3.1c-13.7-7.2-30.6-2.6-30.6,18.9v-0.7
	c0,21.5,16.9,26,30.6,18.9c5.5-2.9,9.6-3.4,12.4-3.1c3.3,0.4,5.8,3.3,5.8,6.7v27.9"/>
</svg>
