<?xml version="1.0" encoding="utf-8"?>
<!-- Generator: Adobe Illustrator 22.1.0, SVG Export Plug-In . SVG Version: 6.00 Build 0)  -->
<svg version="1.1" id="Capa_1" xmlns="http://www.w3.org/2000/svg" xmlns:xlink="http://www.w3.org/1999/xlink" x="0px" y="0px"
	 viewBox="0 0 418 148" style="enable-background:new 0 0 418 148;" xml:space="preserve">
<style type="text/css">
	.st0{fill:#C4D150;}
	.st1{fill:#08090A;}
	.st2{fill:#00B0B9;}
	.st3{fill:#FC4C02;}
	.st4{fill:#84BD00;}
</style>
<path class="st0" d="M122.7,130.4"/>
<g>
	<g>
		<path class="st1" d="M128,72.4c-0.1-0.1-0.2-0.2-0.2-0.4l0.1-0.3l6.7-17.5c0.1-0.4,0.4-0.6,0.9-0.6h1.7c0.4,0,0.7,0.2,0.9,0.6
			l6.7,17.5l0.1,0.3c0,0.1-0.1,0.3-0.2,0.4s-0.2,0.2-0.4,0.2H143c-0.2,0-0.3,0-0.4-0.1c-0.1-0.1-0.2-0.2-0.2-0.3l-1.5-3.9h-9
			l-1.5,3.9c-0.1,0.3-0.4,0.5-0.7,0.5h-1.3C128.2,72.5,128.1,72.5,128,72.4z M132.6,65.9h7.4l-3.7-9.7L132.6,65.9z"/>
		<path class="st1" d="M148.8,70.9c-1.3-1.3-2-3.1-2.1-5.3c0-0.5,0-1.4,0-2.5c0-1.2,0-2,0-2.5c0.1-2.2,0.8-3.9,2.1-5.2
			c1.3-1.3,3.1-1.9,5.5-1.9c1.6,0,2.9,0.3,4,0.9c1.1,0.6,1.9,1.3,2.5,2.1c0.6,0.8,0.9,1.5,0.9,2.2v0.1c0,0.1-0.1,0.3-0.2,0.4
			s-0.2,0.1-0.4,0.1h-1.5c-0.2,0-0.3,0-0.4-0.1c-0.1-0.1-0.2-0.2-0.2-0.4c-0.3-0.8-0.8-1.6-1.6-2.1c-0.8-0.6-1.8-0.9-3.1-0.9
			c-1.5,0-2.7,0.4-3.6,1.2s-1.3,2.1-1.4,3.8c0,0.5,0,1.3,0,2.4c0,1.1,0,1.9,0,2.4c0.1,1.8,0.5,3,1.4,3.9c0.9,0.8,2.1,1.2,3.6,1.2
			c1.5,0,2.8-0.4,3.7-1.3c0.9-0.8,1.4-2.1,1.4-3.8v-1.2h-4.1c-0.2,0-0.3-0.1-0.4-0.2c-0.1-0.1-0.2-0.3-0.2-0.5v-0.8
			c0-0.2,0.1-0.3,0.2-0.5c0.1-0.1,0.3-0.2,0.4-0.2h6.1c0.2,0,0.4,0.1,0.5,0.2c0.1,0.1,0.2,0.3,0.2,0.5v2.6c0,1.5-0.3,2.7-0.9,3.9
			c-0.6,1.1-1.5,2-2.6,2.6c-1.2,0.6-2.5,0.9-4.1,0.9C151.9,72.8,150.1,72.2,148.8,70.9z"/>
		<path class="st1" d="M165.9,72.4c-0.1-0.1-0.2-0.3-0.2-0.4V54.2c0-0.2,0.1-0.4,0.2-0.5c0.1-0.1,0.3-0.2,0.4-0.2h6.6
			c2.1,0,3.7,0.5,4.8,1.4c1.2,1,1.7,2.4,1.7,4.2c0,1.4-0.3,2.5-1,3.4c-0.7,0.9-1.6,1.5-2.9,1.8l4.2,7.2c0.1,0.1,0.1,0.2,0.1,0.3
			c0,0.1-0.1,0.3-0.2,0.4c-0.1,0.1-0.2,0.2-0.4,0.2h-1.2c-0.3,0-0.5-0.1-0.6-0.2c-0.2-0.1-0.3-0.3-0.4-0.5l-4-6.9h-4.8v7
			c0,0.2-0.1,0.3-0.2,0.4c-0.1,0.1-0.3,0.2-0.5,0.2h-1.3C166.2,72.5,166,72.5,165.9,72.4z M172.9,62.7c2.7,0,4.1-1.1,4.1-3.4
			c0-2.3-1.4-3.4-4.1-3.4h-4.5v6.9H172.9z"/>
		<path class="st1" d="M185.2,70.9c-1.3-1.3-1.9-3.2-1.9-5.7v-11c0-0.2,0.1-0.4,0.2-0.5c0.1-0.1,0.3-0.2,0.4-0.2h1.3
			c0.2,0,0.4,0.1,0.5,0.2c0.1,0.1,0.2,0.3,0.2,0.5v11c0,1.8,0.4,3.1,1.2,4c0.8,0.9,2,1.3,3.5,1.3c1.5,0,2.7-0.4,3.5-1.3
			c0.8-0.9,1.2-2.2,1.2-3.9v-11c0-0.2,0.1-0.4,0.2-0.5c0.1-0.1,0.3-0.2,0.5-0.2h1.3c0.2,0,0.3,0.1,0.4,0.2c0.1,0.1,0.2,0.3,0.2,0.5
			v11c0,2.5-0.6,4.4-1.9,5.7c-1.3,1.3-3,1.9-5.4,1.9S186.5,72.2,185.2,70.9z"/>
		<path class="st1" d="M202.6,72.4c-0.1-0.1-0.2-0.3-0.2-0.4V54.2c0-0.2,0.1-0.4,0.2-0.5c0.1-0.1,0.3-0.2,0.4-0.2h6.8
			c2,0,3.6,0.5,4.8,1.5c1.2,1,1.7,2.4,1.7,4.3c0,1.9-0.6,3.3-1.7,4.3c-1.2,1-2.8,1.5-4.8,1.5H205v6.8c0,0.2-0.1,0.3-0.2,0.4
			c-0.1,0.1-0.3,0.2-0.4,0.2H203C202.8,72.5,202.7,72.5,202.6,72.4z M209.7,62.9c2.7,0,4.1-1.2,4.1-3.5c0-1.2-0.3-2-1-2.7
			c-0.7-0.6-1.7-0.9-3.1-0.9H205v7.1H209.7z"/>
		<path class="st1" d="M217,72.4c-0.1-0.1-0.2-0.2-0.2-0.4l0.1-0.3l6.7-17.5c0.1-0.4,0.4-0.6,0.9-0.6h1.7c0.4,0,0.7,0.2,0.9,0.6
			l6.7,17.5l0.1,0.3c0,0.1-0.1,0.3-0.2,0.4c-0.1,0.1-0.2,0.2-0.4,0.2H232c-0.2,0-0.3,0-0.4-0.1c-0.1-0.1-0.2-0.2-0.2-0.3l-1.5-3.9
			h-9l-1.5,3.9c-0.1,0.3-0.4,0.5-0.7,0.5h-1.3C217.3,72.5,217.1,72.5,217,72.4z M221.7,65.9h7.4l-3.7-9.7L221.7,65.9z"/>
		<path class="st1" d="M237.7,70.9c-1.3-1.3-1.9-3.1-2-5.4c0-0.5,0-1.3,0-2.4c0-1.1,0-1.9,0-2.4c0.1-2.3,0.8-4.1,2-5.4
			c1.3-1.3,3.1-2,5.5-2c1.6,0,3,0.3,4.1,0.9c1.1,0.6,2,1.3,2.5,2.2s0.9,1.9,0.9,3c0,0.2-0.1,0.3-0.2,0.4c-0.1,0.1-0.3,0.1-0.4,0.1
			h-1.4c-0.2,0-0.3,0-0.4-0.1c-0.1-0.1-0.2-0.2-0.2-0.5c-0.3-1.4-0.9-2.4-1.7-2.9c-0.8-0.6-1.9-0.8-3.3-0.8c-3.1,0-4.8,1.8-4.9,5.3
			c0,0.5,0,1.2,0,2.2c0,1,0,1.8,0,2.3c0.1,3.5,1.8,5.2,4.9,5.2c1.4,0,2.4-0.3,3.2-0.8c0.8-0.6,1.4-1.5,1.7-2.9
			c0.1-0.2,0.1-0.4,0.2-0.5c0.1-0.1,0.3-0.1,0.4-0.1h1.4c0.2,0,0.3,0.1,0.4,0.1c0.1,0.1,0.2,0.2,0.2,0.4c-0.1,1-0.4,2-0.9,3
			c-0.6,0.9-1.4,1.7-2.5,2.2c-1.1,0.6-2.5,0.9-4.1,0.9C240.8,72.8,239,72.2,237.7,70.9z"/>
		<path class="st1" d="M254.6,72.4c-0.1-0.1-0.2-0.3-0.2-0.4V54.2c0-0.2,0.1-0.3,0.2-0.4c0.1-0.1,0.3-0.2,0.4-0.2h1.4
			c0.2,0,0.4,0.1,0.5,0.2c0.1,0.1,0.2,0.3,0.2,0.5v17.7c0,0.2-0.1,0.3-0.2,0.4c-0.1,0.1-0.3,0.2-0.4,0.2H255
			C254.9,72.5,254.7,72.5,254.6,72.4z"/>
		<path class="st1" d="M263.1,71c-1.3-1.2-2-3.1-2-5.6c0-0.5,0-1.3,0-2.3c0-1,0-1.8,0-2.3c0.1-2.5,0.8-4.3,2.1-5.6
			c1.3-1.3,3.1-1.9,5.4-1.9c2.3,0,4,0.6,5.4,1.9c1.3,1.3,2,3.1,2.1,5.6c0,1,0.1,1.8,0.1,2.3c0,0.5,0,1.2-0.1,2.3
			c-0.1,2.5-0.7,4.4-2,5.6c-1.3,1.2-3.1,1.9-5.4,1.9C266.2,72.8,264.4,72.2,263.1,71z M272,69.3c0.9-0.9,1.3-2.2,1.4-4
			c0-1.1,0.1-1.8,0.1-2.2c0-0.4,0-1.1-0.1-2.2c-0.1-1.8-0.5-3.1-1.4-4c-0.9-0.9-2-1.3-3.5-1.3c-1.4,0-2.6,0.4-3.5,1.3
			c-0.9,0.9-1.3,2.2-1.4,4c0,0.5,0,1.2,0,2.2c0,0.9,0,1.6,0,2.2c0.1,1.8,0.5,3.1,1.4,4c0.9,0.9,2,1.3,3.5,1.3
			C270,70.6,271.2,70.1,272,69.3z M267.4,51.8c0-0.1,0-0.3,0.1-0.4l2-2.4c0.2-0.2,0.3-0.3,0.5-0.4c0.1-0.1,0.3-0.1,0.5-0.1h1.9
			c0.3,0,0.5,0.2,0.5,0.5c0,0.1,0,0.2-0.1,0.3l-3.1,2.6c-0.1,0.1-0.3,0.2-0.4,0.2c-0.1,0-0.3,0.1-0.5,0.1h-1
			C267.6,52.2,267.4,52.1,267.4,51.8z"/>
		<path class="st1" d="M280.2,72.4c-0.1-0.1-0.2-0.3-0.2-0.4V54.2c0-0.2,0.1-0.4,0.2-0.5c0.1-0.1,0.3-0.2,0.4-0.2h1.2
			c0.2,0,0.3,0,0.4,0.1c0.1,0.1,0.2,0.2,0.3,0.3l9.1,14V54.2c0-0.2,0.1-0.4,0.2-0.5c0.1-0.1,0.3-0.2,0.4-0.2h1.2
			c0.2,0,0.4,0.1,0.5,0.2c0.1,0.1,0.2,0.3,0.2,0.5v17.7c0,0.2-0.1,0.3-0.2,0.5c-0.1,0.1-0.3,0.2-0.4,0.2h-1.2
			c-0.3,0-0.5-0.1-0.6-0.4l-9.1-13.8v13.6c0,0.2-0.1,0.3-0.2,0.4c-0.1,0.1-0.3,0.2-0.4,0.2h-1.2C280.5,72.5,280.3,72.5,280.2,72.4z"
			/>
	</g>
	<g>
		<path class="st1" d="M128,108.8c-0.1-0.1-0.2-0.3-0.2-0.4c0-0.1,0-0.2,0-0.3l7.1-19.5c0.2-0.6,0.6-0.9,1.2-0.9h4.7
			c0.6,0,1,0.3,1.2,0.9l7.1,19.5c0,0.1,0,0.2,0,0.3c0,0.2-0.1,0.3-0.2,0.4c-0.1,0.1-0.3,0.2-0.4,0.2h-3.9c-0.5,0-0.8-0.2-1-0.7
			l-1.1-2.9h-8l-1.1,2.9c-0.2,0.4-0.5,0.7-1,0.7h-3.9C128.3,109,128.1,108.9,128,108.8z M135.8,100.8h5.4l-2.7-7.7L135.8,100.8z"/>
		<path class="st1" d="M151.7,108.7c-0.2-0.2-0.2-0.3-0.2-0.5V88.5c0-0.2,0.1-0.4,0.2-0.6c0.1-0.2,0.3-0.2,0.5-0.2h8.6
			c2.6,0,4.7,0.6,6.2,1.8c1.5,1.2,2.2,2.9,2.2,5.3c0,2.3-0.7,4-2.2,5.2c-1.5,1.1-3.6,1.7-6.2,1.7h-3.5v6.6c0,0.2-0.1,0.4-0.2,0.5
			c-0.1,0.2-0.3,0.2-0.5,0.2h-4.4C152.1,109,151.9,108.9,151.7,108.7z M160.7,97.3c0.8,0,1.5-0.2,2-0.7c0.5-0.4,0.7-1.1,0.7-1.9
			c0-0.8-0.2-1.4-0.7-1.9c-0.4-0.5-1.1-0.7-2-0.7h-3.4v5.2H160.7z"/>
		<path class="st1" d="M172.3,108.7c-0.2-0.2-0.2-0.3-0.2-0.5V88.5c0-0.2,0.1-0.4,0.2-0.6c0.1-0.2,0.3-0.2,0.5-0.2h8.4
			c2.7,0,4.8,0.6,6.3,1.8c1.5,1.2,2.3,2.9,2.3,5.1c0,1.4-0.3,2.6-1,3.6c-0.7,1-1.6,1.8-2.7,2.3l4.1,7.4c0.1,0.1,0.1,0.2,0.1,0.3
			c0,0.2-0.1,0.3-0.2,0.4c-0.1,0.1-0.3,0.2-0.5,0.2h-4.3c-0.6,0-1-0.3-1.2-0.8l-3.3-6.6h-2.9v6.7c0,0.2-0.1,0.4-0.2,0.5
			c-0.2,0.1-0.3,0.2-0.6,0.2h-4.2C172.7,109,172.5,108.9,172.3,108.7z M181.2,97.1c0.9,0,1.5-0.2,2-0.7c0.5-0.4,0.7-1,0.7-1.8
			c0-0.8-0.2-1.4-0.7-1.9c-0.5-0.5-1.1-0.7-2-0.7h-3.4v5H181.2z"/>
		<path class="st1" d="M193.5,108.7c-0.2-0.2-0.2-0.3-0.2-0.5V88.5c0-0.2,0.1-0.4,0.2-0.6c0.1-0.2,0.3-0.2,0.5-0.2h14.3
			c0.2,0,0.4,0.1,0.6,0.2c0.2,0.2,0.2,0.3,0.2,0.6v3c0,0.2-0.1,0.4-0.2,0.5c-0.2,0.1-0.3,0.2-0.6,0.2h-9.6v3.9h8.9
			c0.2,0,0.4,0.1,0.6,0.2c0.2,0.2,0.2,0.3,0.2,0.6v2.8c0,0.2-0.1,0.4-0.2,0.6c-0.2,0.2-0.3,0.2-0.6,0.2h-8.9v3.9h9.8
			c0.2,0,0.4,0.1,0.6,0.2c0.2,0.2,0.2,0.3,0.2,0.6v3c0,0.2-0.1,0.4-0.2,0.5c-0.2,0.1-0.3,0.2-0.6,0.2H194
			C193.8,109,193.6,108.9,193.5,108.7z"/>
		<path class="st1" d="M213,108.7c-0.2-0.2-0.2-0.3-0.2-0.5V88.5c0-0.2,0.1-0.4,0.2-0.6c0.1-0.2,0.3-0.2,0.5-0.2h3.4
			c0.5,0,0.8,0.2,1,0.6l7.2,11.3V88.5c0-0.2,0.1-0.4,0.2-0.6c0.1-0.2,0.3-0.2,0.5-0.2h3.9c0.2,0,0.4,0.1,0.5,0.2
			c0.1,0.2,0.2,0.3,0.2,0.6v19.7c0,0.2-0.1,0.4-0.2,0.6c-0.1,0.2-0.3,0.2-0.5,0.2h-3.4c-0.5,0-0.8-0.2-1-0.6l-7.1-10.9v10.7
			c0,0.2-0.1,0.4-0.2,0.5c-0.2,0.1-0.3,0.2-0.6,0.2h-3.9C213.3,109,213.1,108.9,213,108.7z"/>
		<path class="st1" d="M234.8,108.7c-0.2-0.2-0.2-0.3-0.2-0.5V88.5c0-0.2,0.1-0.4,0.2-0.6c0.1-0.2,0.3-0.2,0.5-0.2h8
			c3,0,5.3,0.7,7,2.1c1.7,1.4,2.5,3.5,2.6,6.2c0,0.6,0,1.4,0,2.3c0,1,0,1.7,0,2.3c-0.2,5.5-3.4,8.3-9.4,8.3h-8.1
			C235.2,109,235,108.9,234.8,108.7z M243.4,104.4c1.3,0,2.2-0.3,2.8-0.9c0.6-0.6,0.9-1.6,1-2.9c0-0.6,0.1-1.3,0.1-2.3
			c0-0.9,0-1.7-0.1-2.2c0-1.3-0.4-2.3-1-2.9c-0.7-0.6-1.6-0.9-2.9-0.9h-2.9v12.1H243.4z"/>
		<path class="st1" d="M256.7,108.7c-0.2-0.2-0.2-0.3-0.2-0.5V88.5c0-0.2,0.1-0.4,0.2-0.6c0.1-0.2,0.3-0.2,0.5-0.2h14.3
			c0.2,0,0.4,0.1,0.6,0.2c0.2,0.2,0.2,0.3,0.2,0.6v3c0,0.2-0.1,0.4-0.2,0.5c-0.2,0.1-0.3,0.2-0.6,0.2H262v3.9h8.9
			c0.2,0,0.4,0.1,0.6,0.2c0.2,0.2,0.2,0.3,0.2,0.6v2.8c0,0.2-0.1,0.4-0.2,0.6c-0.2,0.2-0.3,0.2-0.6,0.2H262v3.9h9.8
			c0.2,0,0.4,0.1,0.6,0.2c0.2,0.2,0.2,0.3,0.2,0.6v3c0,0.2-0.1,0.4-0.2,0.5c-0.2,0.1-0.3,0.2-0.6,0.2h-14.6
			C257,109,256.8,108.9,256.7,108.7z"/>
		<path class="st1" d="M276.2,108.7c-0.2-0.2-0.2-0.3-0.2-0.5V88.5c0-0.2,0.1-0.4,0.2-0.6c0.1-0.2,0.3-0.2,0.5-0.2h8.4
			c2.7,0,4.8,0.6,6.3,1.8c1.5,1.2,2.3,2.9,2.3,5.1c0,1.4-0.3,2.6-1,3.6c-0.7,1-1.6,1.8-2.7,2.3l4.1,7.4c0.1,0.1,0.1,0.2,0.1,0.3
			c0,0.2-0.1,0.3-0.2,0.4c-0.1,0.1-0.3,0.2-0.5,0.2h-4.3c-0.6,0-1-0.3-1.2-0.8l-3.3-6.6h-2.9v6.7c0,0.2-0.1,0.4-0.2,0.5
			c-0.2,0.1-0.3,0.2-0.6,0.2h-4.2C276.5,109,276.3,108.9,276.2,108.7z M285,97.1c0.9,0,1.5-0.2,2-0.7c0.5-0.4,0.7-1,0.7-1.8
			c0-0.8-0.2-1.4-0.7-1.9c-0.5-0.5-1.1-0.7-2-0.7h-3.4v5H285z"/>
		<g>
			<path class="st1" d="M301.1,108.8c-0.1-0.1-0.2-0.3-0.2-0.4c0-0.1,0-0.2,0-0.3l7.1-19.5c0.2-0.6,0.6-0.9,1.2-0.9h4.7
				c0.6,0,1,0.3,1.2,0.9l7.1,19.5c0,0.1,0,0.2,0,0.3c0,0.2-0.1,0.3-0.2,0.4c-0.1,0.1-0.3,0.2-0.4,0.2h-3.9c-0.5,0-0.8-0.2-1-0.7
				l-1.1-2.9h-8l-1.1,2.9c-0.2,0.4-0.5,0.7-1,0.7h-3.9C301.3,109,301.2,108.9,301.1,108.8z M308.8,100.8h5.4l-2.7-7.7L308.8,100.8z"
				/>
			<path class="st1" d="M334.6,108.7c-0.2-0.2-0.4-0.4-0.4-0.7l-6.1-19.4l-0.1-0.3c0-0.2,0.1-0.3,0.2-0.4c0.1-0.1,0.3-0.2,0.5-0.2h4
				c0.3,0,0.6,0.1,0.7,0.3c0.2,0.2,0.3,0.4,0.4,0.6l4.1,13.7l4.2-13.7c0.1-0.2,0.2-0.4,0.4-0.6c0.2-0.2,0.4-0.2,0.7-0.2h4
				c0.2,0,0.3,0.1,0.5,0.2c0.1,0.1,0.2,0.3,0.2,0.4c0,0.1,0,0.2,0,0.3l-6.2,19.4c-0.1,0.3-0.2,0.5-0.4,0.7s-0.5,0.3-0.8,0.3h-4.9
				C335.1,109,334.9,108.9,334.6,108.7z"/>
			<path class="st1" d="M350.8,108.7c-0.2-0.2-0.2-0.3-0.2-0.5V88.5c0-0.2,0.1-0.4,0.2-0.5c0.2-0.1,0.3-0.2,0.5-0.2h4.3
				c0.2,0,0.4,0.1,0.5,0.2c0.1,0.1,0.2,0.3,0.2,0.5v19.7c0,0.2-0.1,0.4-0.2,0.5c-0.1,0.2-0.3,0.2-0.5,0.2h-4.3
				C351.1,109,351,108.9,350.8,108.7z"/>
			<path class="st1" d="M365.8,108.7c-0.2-0.2-0.4-0.4-0.4-0.7l-6.1-19.4l-0.1-0.3c0-0.2,0.1-0.3,0.2-0.4c0.1-0.1,0.3-0.2,0.5-0.2h4
				c0.3,0,0.6,0.1,0.7,0.3c0.2,0.2,0.3,0.4,0.4,0.6l4.1,13.7l4.2-13.7c0.1-0.2,0.2-0.4,0.4-0.6c0.2-0.2,0.4-0.2,0.7-0.2h4
				c0.2,0,0.3,0.1,0.5,0.2c0.1,0.1,0.2,0.3,0.2,0.4c0,0.1,0,0.2,0,0.3l-6.2,19.4c-0.1,0.3-0.2,0.5-0.4,0.7c-0.2,0.2-0.5,0.3-0.8,0.3
				h-4.9C366.3,109,366,108.9,365.8,108.7z"/>
			<path class="st1" d="M382,108.7c-0.2-0.2-0.2-0.3-0.2-0.5V88.5c0-0.2,0.1-0.4,0.2-0.5c0.2-0.1,0.3-0.2,0.5-0.2h4.3
				c0.2,0,0.4,0.1,0.5,0.2c0.1,0.1,0.2,0.3,0.2,0.5v19.7c0,0.2-0.1,0.4-0.2,0.5c-0.1,0.2-0.3,0.2-0.5,0.2h-4.3
				C382.3,109,382.1,108.9,382,108.7z"/>
			<path class="st1" d="M392,108.7c-0.2-0.2-0.2-0.3-0.2-0.5V88.5c0-0.2,0.1-0.4,0.2-0.6c0.1-0.2,0.3-0.2,0.5-0.2h8.4
				c2.7,0,4.8,0.6,6.3,1.8s2.3,2.9,2.3,5.1c0,1.4-0.3,2.6-1,3.6c-0.7,1-1.6,1.8-2.7,2.3l4.1,7.4c0.1,0.1,0.1,0.2,0.1,0.3
				c0,0.2-0.1,0.3-0.2,0.4c-0.1,0.1-0.3,0.2-0.5,0.2h-4.3c-0.6,0-1-0.3-1.2-0.8l-3.3-6.6h-2.9v6.7c0,0.2-0.1,0.4-0.2,0.5
				c-0.2,0.1-0.3,0.2-0.6,0.2h-4.2C392.3,109,392.1,108.9,392,108.7z M400.8,97.1c0.9,0,1.5-0.2,2-0.7c0.5-0.4,0.7-1,0.7-1.8
				c0-0.8-0.2-1.4-0.7-1.9c-0.5-0.5-1.1-0.7-2-0.7h-3.4v5H400.8z"/>
		</g>
	</g>
</g>
<g>
	<path class="st2" d="M54.9,125.4l-6.6-6.6c-1-1-2.6-1.1-3.7-0.3c-0.9,0.7-2,2.1-2.8,4.6c-1.9,6.1-8.3,9.8-14.6,3.5l0.2,0.2
		c-6.3-6.3-2.7-12.7,3.5-14.6c2.5-0.8,3.8-1.8,4.6-2.8c0.9-1.1,0.7-2.7-0.3-3.7L29,99.5l5.6,5.6L22.5,93l42.8-42.8L108.1,93
		l-11.9,11.9l5.7-5.8l-6.6,6.6c-1,1-1.1,2.6-0.3,3.7c0.7,0.9,2.1,2,4.6,2.8c6.1,1.9,9.8,8.3,3.5,14.6l0.2-0.2
		c-6.3,6.3-12.7,2.7-14.6-3.5c-0.8-2.5-1.8-3.8-2.8-4.6c-1.1-0.9-2.7-0.7-3.7,0.3L76,125l5.9-5.9l-16.7,16.7l-16.5-16.5"/>
	<g>
		<path class="st3" d="M62.3,131.2V95.8l-9.6-10.4c0,0-3.4-2.2-2.4-4.6c1.8-4.1,4.1-2.3,4.1-2.3l9.8,9.3c0,0,3.3,0.5,4.9-1.9
			c1.6-2.4,9-7.6,9-7.6l2.3,3.2c0,0,1.8,0.7-3.5,5.6c0,0-8.3,6.5-7.4,11.9l0.4,31.3l-1.1,3.3l-2.9,1.5L62.3,131.2z"/>
		<g>
			<path class="st4" d="M69.1,99.1c4.9,0,9.4,0.1,12.3,0.1c2,0,3.9-0.8,5.2-2.2l3.3-3.3c2.9-2.9,2.9-7.6,0-10.5l0,0
				c-2.9-2.9-7.6-2.9-10.5,0l-8.2,8.2c-1.4,1.4-2.2,3.3-2.2,5.2L69.1,99.1"/>
			<path class="st4" d="M61.4,99v-2.6c0-2-0.8-3.8-2.2-5.2L51.1,83c-2.9-2.9-7.6-2.9-10.5,0l0,0c-2.9,2.9-2.9,7.6,0,10.5l3.3,3.3
				c1.4,1.4,3.2,2.1,5.2,2.2C51.8,99,56.8,99,61.4,99"/>
			<g>
				<path class="st1" d="M91.1,82.2c-3.5-3.5-9.2-3.5-12.7,0l-8.2,8.2c-1.7,1.7-2.6,4-2.6,6.4v36.8l3.2-1.9v-30.9
					c4.8,0,8.4,0.1,10.7,0.1c0,0,0,0,0,0c2.4,0,4.7-0.9,6.4-2.6l3.3-3.3C94.6,91.4,94.6,85.7,91.1,82.2z M88.8,92.6l-3.3,3.3
					c-1.1,1.1-2.6,1.7-4.1,1.7c0,0,0,0,0,0c-2.3,0-5.9,0-10.7-0.1v-0.8c0-1.6,0.6-3,1.7-4.1l8.2-8.2c2.3-2.3,6-2.3,8.2,0
					C91.1,86.7,91.1,90.4,88.8,92.6z"/>
				<path class="st1" d="M52.2,81.9c-3.5-3.5-9.2-3.5-12.7,0c-3.5,3.5-3.5,9.2,0,12.7l3.3,3.3c1.7,1.7,3.9,2.6,6.3,2.6
					c2.6,0,6.5,0.1,10.8,0.1v31l3.2,1.9V99v-2.6c0-2.4-0.9-4.7-2.6-6.4L52.2,81.9z M45,95.6l-3.3-3.3c-2.3-2.3-2.3-6,0-8.2
					c1.1-1.1,2.6-1.7,4.1-1.7c1.5,0,3,0.6,4.1,1.7l8.2,8.2c1.1,1.1,1.7,2.6,1.7,4.1v1c-4.3,0-8.2-0.1-10.8-0.1
					C47.5,97.3,46.1,96.7,45,95.6z"/>
			</g>
		</g>
	</g>
	<g>
		<path class="st4" d="M56.6,57.3l-6.9-6.8c-3.9-3.9-4.3-10-0.8-14.3L57,26.1c4.2-5.2,12.2-5.3,16.5-0.2l8.2,9.7
			c3.5,4.2,3.3,10.4-0.5,14.3L74,57.3L56.6,57.3z"/>
		<path class="st1" d="M74.7,58.9l-18.7,0l-7.4-7.3c-4.5-4.4-4.9-11.5-0.9-16.4l8.1-10.1c2.3-2.8,5.7-4.5,9.4-4.6c0,0,0,0,0.1,0
			c3.7,0,7.1,1.6,9.5,4.4l8.2,9.7c4.1,4.8,3.8,11.9-0.6,16.4L74.7,58.9z M57.2,55.7l16.1,0l6.7-6.9c3.3-3.4,3.5-8.6,0.4-12.2
			l-8.2-9.7c-1.8-2.1-4.3-3.3-7.1-3.3c0,0,0,0,0,0c-2.7,0-5.2,1.3-6.9,3.4l-8.1,10.1c-2.9,3.7-2.7,8.9,0.7,12.2L57.2,55.7z"/>
	</g>
	<path class="st1" d="M67.1,136.2c-1,1-2.7,1-3.7,0l-15.8-15.8l0,0l-0.4-0.4c-0.4-0.4-1.1-0.5-1.6-0.1c-0.6,0.5-1.5,1.5-2.2,3.8
		c-1.2,4-4,6.8-7.3,7.6c-3.2,0.8-6.7-0.4-9.7-3.3l0,0c0,0,0,0,0,0l-0.2-0.2l0,0c-2.9-3-4.1-6.5-3.3-9.7c0.8-3.4,3.7-6.1,7.6-7.3
		c2.3-0.7,3.3-1.6,3.8-2.2c0.4-0.5,0.3-1.2-0.1-1.6l-0.7-0.7l0,0L22,94.8c-1-1-1-2.6,0-3.6l43.3-43.3l43.2,43.2c1,1,1,2.7,0,3.7
		L97.3,106l0,0l-0.8,0.8c-0.4,0.4-0.5,1.1-0.1,1.6c0.5,0.6,1.5,1.5,3.8,2.2c4,1.2,6.8,4,7.6,7.3c0.8,3.2-0.4,6.7-3.3,9.7l0,0
		l-0.2,0.2l0,0c-3,3-6.5,4.1-9.7,3.3c-3.4-0.8-6.1-3.7-7.3-7.6c-0.7-2.3-1.6-3.3-2.2-3.8c-0.5-0.4-1.2-0.3-1.6,0.1l-0.3,0.3l0,0
		L67.1,136.2z M56,124.3l8.4,8.4c0.5,0.5,1.3,0.5,1.8,0l8.7-8.7l0,0l6.3-6.3c1.6-1.6,4-1.7,5.8-0.4c1.4,1.1,2.5,2.9,3.3,5.4
		c0.9,2.8,2.8,5,5.1,5.5c2.2,0.5,4.5-0.4,6.8-2.6c2.2-2.3,3.1-4.6,2.6-6.8c-0.6-2.2-2.7-4.2-5.5-5.1c-2.5-0.8-4.3-1.9-5.4-3.3
		c-1.3-1.7-1.2-4.2,0.4-5.8l6.6-6.6l0,0l5.1-5.1L65.3,52.4L24.7,93l5.4,5.4l0,0l6.3,6.3c1.6,1.6,1.7,4,0.4,5.8
		c-1.1,1.4-2.9,2.5-5.4,3.3c-2.8,0.9-5,2.8-5.5,5.1c-0.5,2.2,0.4,4.5,2.6,6.8c2.3,2.2,4.6,3.1,6.8,2.6c2.2-0.6,4.2-2.7,5.1-5.5
		c0.8-2.5,1.9-4.3,3.3-5.4c1.7-1.3,4.2-1.2,5.8,0.4L56,124.3L56,124.3z"/>
	<g>
		<g>
			<path class="st4" d="M102.7,68.9l-11,11c-3.3,3.3-8.6,3.3-11.8,0l-5.3-5.3c-3.3-3.3-3.3-8.6,0-11.8l11-11c3.3-3.3,8.6-3.3,11.8,0
				l5.3,5.3C105.9,60.4,105.9,65.7,102.7,68.9z"/>
			<path class="st1" d="M85.8,84.7c-2.2,0-4.2-0.8-5.7-2.4l-7.9-7.9c-1.5-1.5-2.4-3.5-2.4-5.7c0-2.2,0.8-4.2,2.4-5.7l13.6-13.6
				c3.1-3.1,8.3-3.1,11.4,0l7.9,7.9c3.1,3.1,3.1,8.3,0,11.4L91.5,82.3C90,83.9,87.9,84.7,85.8,84.7z M91.5,50.2
				c-1.3,0-2.5,0.5-3.5,1.4L74.4,65.3c-0.9,0.9-1.4,2.2-1.4,3.5c0,1.3,0.5,2.5,1.4,3.5l7.9,7.9c0.9,0.9,2.2,1.4,3.5,1.4
				s2.5-0.5,3.5-1.4l13.6-13.6c1.9-1.9,1.9-5,0-6.9l-7.9-7.9C94,50.7,92.7,50.2,91.5,50.2z"/>
		</g>
		<g>
			<path class="st4" d="M28.7,69.7l9.3,9.3c3.7,3.7,9.7,3.7,13.5,0l3.6-3.6c3.7-3.7,3.7-9.7,0-13.5l-9.3-9.3
				c-3.7-3.7-9.7-3.7-13.5,0l-3.6,3.6C24.9,60,24.9,66,28.7,69.7z"/>
			<path class="st1" d="M39,82.3L25.4,68.7c-3.1-3.1-3.1-8.3,0-11.4l7.9-7.9c3.1-3.1,8.3-3.1,11.4,0L58.3,63
				c1.5,1.5,2.4,3.5,2.4,5.7c0,2.2-0.8,4.2-2.4,5.7l-7.9,7.9c-1.5,1.5-3.5,2.4-5.7,2.4C42.6,84.7,40.5,83.9,39,82.3z M35.6,51.6
				l-7.9,7.9c-1.9,1.9-1.9,5,0,6.9l13.6,13.6c0.9,0.9,2.2,1.4,3.5,1.4s2.5-0.5,3.5-1.4l7.9-7.9c0.9-0.9,1.4-2.2,1.4-3.5
				c0-1.3-0.5-2.5-1.4-3.5L42.5,51.6c-1-1-2.2-1.4-3.5-1.4C37.8,50.2,36.5,50.7,35.6,51.6z"/>
		</g>
	</g>
	<g>
		<path class="st4" d="M61.6,85.5L48.8,72.8c-1.9-1.9-2.1-5-0.3-7.1l12.9-15.5c2.1-2.5,6-2.5,8.1,0l12.6,15.5c1.7,2.1,1.5,5.1-0.4,7
			L69,85.5C66.9,87.5,63.6,87.5,61.6,85.5z"/>
		<path class="st1" d="M65.3,88.6c-1.8,0-3.5-0.7-4.8-2v0L47.7,73.9c-2.5-2.5-2.7-6.5-0.4-9.2l12.9-15.5c1.3-1.6,3.2-2.5,5.3-2.5
			c0,0,0,0,0,0c2.1,0,4,0.9,5.3,2.5l12.6,15.5c2.2,2.7,2,6.7-0.5,9.2L70.1,86.6C68.8,87.9,67,88.6,65.3,88.6z M62.7,84.4
			c1.4,1.4,3.8,1.4,5.2,0l12.8-12.8c1.3-1.3,1.4-3.4,0.3-4.9L68.3,51.2c-0.7-0.9-1.7-1.3-2.8-1.4c0,0,0,0,0,0
			c-1.1,0-2.1,0.5-2.8,1.3L49.7,66.7c-1.2,1.5-1.1,3.6,0.2,4.9L62.7,84.4L62.7,84.4z"/>
	</g>
</g>
</svg>
