<?xml version="1.0" encoding="utf-8"?>
<!-- Generator: Adobe Illustrator 22.1.0, SVG Export Plug-In . SVG Version: 6.00 Build 0)  -->
<svg version="1.1" id="Capa_1" xmlns="http://www.w3.org/2000/svg" xmlns:xlink="http://www.w3.org/1999/xlink" x="0px" y="0px"
	 viewBox="0 0 1000 740.1" style="enable-background:new 0 0 1000 740.1;" xml:space="preserve">
<style type="text/css">
	.st0{fill:#222221;stroke:#222221;stroke-width:2;stroke-miterlimit:10;}
	.st1{fill:none;stroke:#222221;stroke-width:4;stroke-miterlimit:10;}
	.st2{fill:none;stroke:#222221;stroke-width:4;stroke-linecap:round;stroke-linejoin:round;stroke-miterlimit:10;}
	.st3{fill:#FC4C02;stroke:#222221;stroke-width:4;stroke-miterlimit:10;}
	.st4{fill:#00B0B9;stroke:#222221;stroke-width:4;stroke-miterlimit:10;}
	.st5{fill:#FFC600;stroke:#222221;stroke-width:4;stroke-miterlimit:10;}
	.st6{clip-path:url(#SVGID_4_);}
	.st7{fill:none;}
	.st8{clip-path:url(#SVGID_6_);}
	.st9{fill:none;stroke:#000000;stroke-width:4;stroke-miterlimit:10;}
</style>
<g>
	<path class="st0" d="M721.1,214.6H566.3c-0.9,0-1.7-0.5-1.7-1.1s0.8-1.1,1.7-1.1H721c0.9,0,1.7,0.5,1.7,1.1S722,214.6,721.1,214.6z
		"/>
</g>
<path class="st1" d="M360,214.8H146.4c-13,0-23.4,9.2-23.4,20.6v59"/>
<path class="st1" d="M123,410.8v204.6c0,23.4,21.4,42.3,47.6,42.3h604.8"/>
<g>
	<path class="st2" d="M748.1,234.8h134.6c11.3,0,16.3-14.2,7.5-21.2l-1-0.8c-2.1-1.7-4.8-2.6-7.5-2.6H758.1c-2.8,0-5.6-1.2-7.6-3.1
		l-54.2-53.4c-2.2-2.2-5.2-3.4-8.4-3.4l0,0c-10.6,0-15.9,12.8-8.5,20.4c20.1,20.3,40,40.5,60.1,60.8
		C741.8,233.5,745,234.8,748.1,234.8z"/>
	<path class="st3" d="M756.6,234.8v12.4c0,3.8-3.1,6.9-6.9,6.9h-19.3c-3.3,0-5.9-2.6-5.9-5.9l0,0c0-2.9,2.3-5.2,5.2-5.2h11.4
		c2.3,0,4.3-1.9,4.3-4.3v-3.8"/>
	<path class="st3" d="M866.8,234.8v12.4c0,3.8,3.1,6.9,6.9,6.9H893c3.3,0,5.9-2.6,5.9-5.9l0,0c0-2.9-2.3-5.2-5.2-5.2h-11.4
		c-2.3,0-4.3-1.9-4.3-4.3v-3.8"/>
	<path class="st2" d="M730.5,187.4l21.8,20.5c1.4,1.4,3.3,2.2,5.3,2.2h31.2c2.5,0,3.8-3,2.1-4.8c-9.2-9.8-32.4-30.8-58.4-24.6
		C729.5,181.3,728.4,185.1,730.5,187.4z"/>
</g>
<g>
	<path class="st2" d="M892.6,731.3H784.4c-5.9,0-10.6-4.7-10.6-10.6V558.4c0-5.9,4.7-10.6,10.6-10.6h108.2c5.9,0,10.6,4.7,10.6,10.6
		v162.3C903.2,726.6,898.5,731.3,892.6,731.3z"/>
	<path class="st4" d="M883.1,715h-89c-4.1,0-7.4-3.3-7.4-7.4v-139c0-4.1,3.3-7.4,7.4-7.4h89c4.1,0,7.4,3.3,7.4,7.4v139
		C890.5,711.7,887.2,715,883.1,715z"/>
	<path class="st3" d="M859.2,570.6H819c-3,0-5.4-2.4-5.4-5.4v-4.9c0-3,2.4-5.4,5.4-5.4h40.2c3,0,5.4,2.4,5.4,5.4v4.9
		C864.6,568.2,862.2,570.6,859.2,570.6z"/>
	<line class="st2" x1="802.9" y1="593.6" x2="878.3" y2="593.6"/>
	<line class="st2" x1="802.9" y1="608.3" x2="878.3" y2="608.3"/>
	<line class="st2" x1="802.9" y1="624" x2="878.3" y2="624"/>
	<line class="st2" x1="802.9" y1="662.2" x2="837.2" y2="662.2"/>
</g>
<g>
	<path class="st5" d="M234.7,401.7c0.2,3.8-0.1,12.5-5.6,20.4c-6.9,9.8-19.4,15-32.7,14c-1.6-0.1-2.2-2.2-0.9-3.1
		c4.8-3.5,9.1-7.6,9.3-13.2c0.1-2.4-1.5-4.6-2.9-5.7c-1.3-1-2.7-1.3-9.1-1.3c-2.9,0-5.3,0-7.1,0c-21.5,0.1-43,0.1-64.5,0.2
		c-4.7,0-8.5-3.8-8.5-8.5v-60.1c0-4.2,3.4-7.6,7.6-7.6H227c4.6,0,8.4,3.8,8.3,8.4C235.1,364,234.9,382.8,234.7,401.7z"/>
	<line class="st1" x1="224.9" y1="348.8" x2="211.3" y2="348.8"/>
	<line class="st1" x1="206.1" y1="348.8" x2="125" y2="348.8"/>
	<line class="st1" x1="223.9" y1="360.6" x2="125" y2="360.6"/>
	<line class="st1" x1="223.9" y1="374" x2="158.5" y2="374"/>
	<path class="st5" d="M10.4,381c-0.2,5,0.1,16.3,7.4,26.7c9,12.8,25.3,19.6,42.8,18.3c2.1-0.2,2.8-2.8,1.1-4.1
		c-6.3-4.6-11.9-9.9-12.2-17.3c-0.1-3.2,1.9-6.1,3.8-7.5c1.7-1.3,3.6-1.6,11.9-1.8c3.7-0.1,6.9,0,9.3,0c28.1,0.1,56.3,0.2,84.4,0.3
		c6.1,0,11.1-5,11.1-11.1V306c0-5.5-4.4-9.9-9.9-9.9H20.4c-6.1,0-10.9,4.9-10.9,11C9.8,331.7,10.1,356.4,10.4,381z"/>
	<line class="st1" x1="19.6" y1="311" x2="38" y2="311"/>
	<line class="st1" x1="43.9" y1="311" x2="153.3" y2="311"/>
	<line class="st1" x1="19.8" y1="325.2" x2="153.3" y2="325.2"/>
	<line class="st1" x1="19.8" y1="341.5" x2="108.1" y2="341.5"/>
</g>
<g>
	<defs>
		<circle id="SVGID_2_" cx="462.2" cy="196.1" r="104.1"/>
	</defs>
	<clipPath id="SVGID_4_">
		<use xlink:href="#SVGID_2_"  style="overflow:visible;"/>
	</clipPath>
	<g class="st6">
	</g>
</g>
<circle class="st7" cx="462.2" cy="196.1" r="104.1"/>
<g>
	<g>
		<g>
			<g>
				<defs>
					<circle id="SVGID_5_" cx="462.2" cy="196.1" r="104.1"/>
				</defs>
				<clipPath id="SVGID_6_">
					<use xlink:href="#SVGID_5_"  style="overflow:visible;"/>
				</clipPath>
				<g id="_x30_GYWKY_1_" class="st8">
				</g>
				<g class="st8">
					<circle id="SVGID_3_" class="st9" cx="462.2" cy="196.1" r="104.1"/>
				</g>
			</g>
		</g>
	</g>
	<g>
		<circle id="SVGID_1_" class="st9" cx="462.2" cy="196.1" r="104.1"/>
	</g>
</g>
<g>
	<path d="M342.6,394.3c0,0.9-0.3,1.5-0.9,2s-1.4,0.7-2.5,0.7h-1v3.4h-1v-8.6h2.2C341.5,391.8,342.6,392.6,342.6,394.3z M338.2,396.1
		h0.9c0.9,0,1.5-0.1,1.9-0.4s0.6-0.7,0.6-1.4c0-0.6-0.2-1-0.6-1.3s-0.9-0.4-1.7-0.4h-1.1L338.2,396.1L338.2,396.1z"/>
	<path d="M348.4,398.6c0,0.6-0.2,1.1-0.7,1.4s-1.1,0.5-1.9,0.5c-0.9,0-1.5-0.1-2-0.4v-0.9c0.3,0.2,0.6,0.3,1,0.4s0.7,0.1,1,0.1
		c0.5,0,0.9-0.1,1.2-0.2s0.4-0.4,0.4-0.7c0-0.3-0.1-0.5-0.3-0.6s-0.6-0.4-1.3-0.6c-0.6-0.2-1-0.4-1.3-0.6s-0.4-0.4-0.6-0.6
		s-0.2-0.5-0.2-0.8c0-0.5,0.2-0.9,0.6-1.2s1-0.5,1.8-0.5c0.7,0,1.4,0.1,2,0.4l-0.3,0.8c-0.6-0.3-1.2-0.4-1.8-0.4
		c-0.5,0-0.8,0.1-1,0.2s-0.4,0.3-0.4,0.6c0,0.2,0,0.3,0.1,0.4s0.2,0.2,0.4,0.3s0.6,0.3,1.1,0.5c0.8,0.3,1.3,0.6,1.5,0.8
		S348.4,398.1,348.4,398.6z"/>
	<path d="M349.9,392.2c0-0.2,0.1-0.4,0.2-0.5s0.2-0.2,0.4-0.2c0.2,0,0.3,0.1,0.4,0.2s0.2,0.3,0.2,0.5s-0.1,0.4-0.2,0.5
		s-0.2,0.2-0.4,0.2c-0.2,0-0.3-0.1-0.4-0.2S349.9,392.4,349.9,392.2z M351,400.3h-1v-6.4h1V400.3z"/>
	<path d="M355.6,400.4c-0.9,0-1.6-0.3-2.2-0.9s-0.8-1.4-0.8-2.4c0-1.1,0.3-1.9,0.8-2.5s1.3-0.9,2.2-0.9c0.3,0,0.6,0,0.9,0.1
		s0.6,0.1,0.7,0.2l-0.3,0.8c-0.2-0.1-0.4-0.2-0.7-0.2s-0.5-0.1-0.7-0.1c-1.3,0-2,0.8-2,2.5c0,0.8,0.2,1.4,0.5,1.8s0.8,0.6,1.4,0.6
		c0.5,0,1.1-0.1,1.6-0.3v0.9C356.8,400.3,356.2,400.4,355.6,400.4z"/>
	<path d="M364.3,397.1c0,1-0.3,1.9-0.8,2.5s-1.3,0.9-2.2,0.9c-0.6,0-1.1-0.1-1.5-0.4s-0.8-0.7-1-1.2s-0.4-1.1-0.4-1.8
		c0-1,0.3-1.9,0.8-2.4s1.3-0.9,2.2-0.9c0.9,0,1.6,0.3,2.1,0.9S364.3,396.1,364.3,397.1z M359.4,397.1c0,0.8,0.2,1.4,0.5,1.9
		s0.8,0.6,1.4,0.6s1.1-0.2,1.5-0.6s0.5-1.1,0.5-1.9s-0.2-1.4-0.5-1.9s-0.8-0.6-1.5-0.6c-0.6,0-1.1,0.2-1.4,0.6
		S359.4,396.3,359.4,397.1z M360.5,392.9c0.2-0.2,0.4-0.5,0.6-0.9s0.4-0.6,0.5-0.9h1.2v0.1c-0.2,0.3-0.4,0.6-0.8,0.9
		s-0.6,0.7-0.9,0.9h-0.7L360.5,392.9L360.5,392.9z"/>
	<path d="M366.9,400.3h-1v-9.1h1V400.3z"/>
	<path d="M374.6,397.1c0,1-0.3,1.9-0.8,2.5s-1.3,0.9-2.2,0.9c-0.6,0-1.1-0.1-1.5-0.4s-0.8-0.7-1-1.2s-0.4-1.1-0.4-1.8
		c0-1,0.3-1.9,0.8-2.4s1.3-0.9,2.2-0.9c0.9,0,1.6,0.3,2.1,0.9S374.6,396.1,374.6,397.1z M369.7,397.1c0,0.8,0.2,1.4,0.5,1.9
		s0.8,0.6,1.4,0.6s1.1-0.2,1.5-0.6s0.5-1.1,0.5-1.9s-0.2-1.4-0.5-1.9s-0.8-0.6-1.5-0.6c-0.6,0-1.1,0.2-1.4,0.6
		S369.7,396.3,369.7,397.1z"/>
	<path d="M381.5,393.9v0.6l-1.2,0.1c0.1,0.1,0.2,0.3,0.3,0.5s0.1,0.5,0.1,0.7c0,0.6-0.2,1.1-0.6,1.5s-1,0.6-1.8,0.6
		c-0.2,0-0.4,0-0.5,0c-0.4,0.2-0.6,0.5-0.6,0.8c0,0.2,0.1,0.3,0.2,0.4s0.4,0.1,0.7,0.1h1.1c0.7,0,1.2,0.1,1.6,0.4s0.6,0.7,0.6,1.3
		c0,0.7-0.3,1.3-0.9,1.6s-1.4,0.6-2.5,0.6c-0.8,0-1.5-0.2-1.9-0.5s-0.7-0.8-0.7-1.3c0-0.4,0.1-0.7,0.4-1s0.6-0.5,1.1-0.6
		c-0.2-0.1-0.3-0.2-0.4-0.3s-0.2-0.3-0.2-0.5s0.1-0.4,0.2-0.6s0.3-0.3,0.6-0.5c-0.3-0.1-0.6-0.4-0.8-0.7s-0.3-0.7-0.3-1.1
		c0-0.7,0.2-1.2,0.6-1.6s1-0.6,1.8-0.6c0.3,0,0.6,0,0.9,0.1H381.5z M376.4,401.4c0,0.3,0.1,0.6,0.4,0.8s0.7,0.3,1.3,0.3
		c0.8,0,1.4-0.1,1.8-0.4s0.6-0.6,0.6-1c0-0.3-0.1-0.6-0.3-0.7s-0.6-0.2-1.2-0.2h-1.2c-0.4,0-0.8,0.1-1,0.3S376.4,401,376.4,401.4z
		 M376.9,396c0,0.4,0.1,0.8,0.4,1s0.6,0.3,1.1,0.3c0.9,0,1.4-0.5,1.4-1.4c0-1-0.5-1.4-1.4-1.4c-0.5,0-0.8,0.1-1.1,0.4
		S376.9,395.5,376.9,396z"/>
	<path d="M386.8,400.3l-0.2-0.9l0,0c-0.3,0.4-0.6,0.7-1,0.8s-0.7,0.2-1.2,0.2c-0.6,0-1.1-0.2-1.5-0.5s-0.5-0.8-0.5-1.4
		c0-1.3,1-2,3.1-2h1.1v-0.4c0-0.5-0.1-0.9-0.3-1.1s-0.6-0.4-1-0.4c-0.5,0-1.1,0.2-1.8,0.5l-0.3-0.7c0.3-0.2,0.7-0.3,1-0.4
		s0.8-0.1,1.1-0.1c0.8,0,1.3,0.2,1.7,0.5s0.6,0.9,0.6,1.6v4.4h-0.8V400.3z M384.6,399.6c0.6,0,1.1-0.2,1.4-0.5s0.5-0.8,0.5-1.4v-0.6
		h-1c-0.8,0-1.3,0.1-1.7,0.4s-0.5,0.5-0.5,1c0,0.4,0.1,0.6,0.3,0.8S384.2,399.6,384.6,399.6z"/>
	<path d="M392.8,400.3v-8.6h1v8.6H392.8z"/>
	<path d="M400.4,400.3v-4.2c0-0.5-0.1-0.9-0.4-1.2s-0.6-0.4-1.1-0.4c-0.7,0-1.2,0.2-1.5,0.5s-0.5,1-0.5,1.8v3.4h-1v-6.4h0.8l0.2,0.9
		l0,0c0.2-0.3,0.5-0.6,0.8-0.7s0.8-0.3,1.2-0.3c0.8,0,1.4,0.2,1.7,0.6s0.6,1,0.6,1.8v4.2L400.4,400.3L400.4,400.3z"/>
	<path d="M406.2,394.7h-1.6v5.7h-1v-5.7h-1.1v-0.4l1.1-0.4v-0.4c0-1.6,0.7-2.4,2.1-2.4c0.3,0,0.7,0.1,1.2,0.2l-0.3,0.8
		c-0.4-0.1-0.7-0.2-1-0.2c-0.4,0-0.6,0.1-0.8,0.4s-0.3,0.6-0.3,1.2v0.4h1.6L406.2,394.7L406.2,394.7z"/>
	<path d="M411.4,400.3l-0.2-0.9l0,0c-0.3,0.4-0.6,0.7-1,0.8s-0.7,0.2-1.2,0.2c-0.6,0-1.1-0.2-1.5-0.5s-0.5-0.8-0.5-1.4
		c0-1.3,1-2,3.1-2h1.1v-0.4c0-0.5-0.1-0.9-0.3-1.1s-0.6-0.4-1-0.4c-0.5,0-1.1,0.2-1.8,0.5l-0.3-0.7c0.3-0.2,0.7-0.3,1-0.4
		s0.8-0.1,1.1-0.1c0.8,0,1.3,0.2,1.7,0.5s0.6,0.9,0.6,1.6v4.4h-0.8V400.3z M409.2,399.6c0.6,0,1.1-0.2,1.4-0.5s0.5-0.8,0.5-1.4v-0.6
		h-1c-0.8,0-1.3,0.1-1.7,0.4s-0.5,0.5-0.5,1c0,0.4,0.1,0.6,0.3,0.8S408.8,399.6,409.2,399.6z"/>
	<path d="M418.5,400.3v-4.2c0-0.5-0.1-0.9-0.4-1.2s-0.6-0.4-1.1-0.4c-0.7,0-1.2,0.2-1.5,0.5s-0.5,1-0.5,1.8v3.4h-1v-6.4h0.8l0.2,0.9
		l0,0c0.2-0.3,0.5-0.6,0.8-0.7s0.8-0.3,1.2-0.3c0.8,0,1.4,0.2,1.7,0.6s0.6,1,0.6,1.8v4.2L418.5,400.3L418.5,400.3z"/>
	<path d="M423.5,399.6c0.2,0,0.3,0,0.5,0s0.3-0.1,0.4-0.1v0.7c-0.1,0.1-0.3,0.1-0.5,0.1s-0.4,0-0.6,0c-1.2,0-1.9-0.7-1.9-2v-3.8
		h-0.9V394l0.9-0.4l0.4-1.4h0.6v1.5h1.9v0.8h-1.9v3.8c0,0.4,0.1,0.7,0.3,0.9S423.2,399.6,423.5,399.6z"/>
	<path d="M431.2,397.1c0,1-0.3,1.9-0.8,2.5s-1.3,0.9-2.2,0.9c-0.6,0-1.1-0.1-1.5-0.4s-0.8-0.7-1-1.2s-0.4-1.1-0.4-1.8
		c0-1,0.3-1.9,0.8-2.4s1.3-0.9,2.2-0.9c0.9,0,1.6,0.3,2.1,0.9S431.2,396.1,431.2,397.1z M426.3,397.1c0,0.8,0.2,1.4,0.5,1.9
		s0.8,0.6,1.4,0.6s1.1-0.2,1.5-0.6s0.5-1.1,0.5-1.9s-0.2-1.4-0.5-1.9s-0.8-0.6-1.5-0.6c-0.6,0-1.1,0.2-1.4,0.6
		S426.3,396.3,426.3,397.1z"/>
	<path d="M434.9,402.6c-0.4,0-0.7-0.1-0.9-0.2v-0.8c0.3,0.1,0.6,0.1,0.9,0.1c0.4,0,0.7-0.1,0.9-0.4s0.3-0.6,0.3-1v-8.6h1v8.5
		c0,0.7-0.2,1.3-0.6,1.7S435.6,402.6,434.9,402.6z"/>
	<path d="M440.2,393.9v4.2c0,0.5,0.1,0.9,0.4,1.2s0.6,0.4,1.1,0.4c0.7,0,1.2-0.2,1.5-0.6s0.5-1,0.5-1.8v-3.4h1v6.4h-0.8l-0.1-0.9
		h-0.1c-0.2,0.3-0.5,0.6-0.8,0.7s-0.8,0.3-1.2,0.3c-0.8,0-1.4-0.2-1.8-0.6s-0.6-1-0.6-1.8v-4.2L440.2,393.9L440.2,393.9z"/>
	<path d="M448,400.3l-2.4-6.4h1l1.4,3.8c0.3,0.9,0.5,1.5,0.6,1.7l0,0c0-0.2,0.2-0.6,0.4-1.3s0.7-2.1,1.5-4.3h1l-2.4,6.4L448,400.3
		L448,400.3z"/>
	<path d="M455.3,400.4c-0.9,0-1.7-0.3-2.2-0.9s-0.8-1.4-0.8-2.4s0.3-1.9,0.8-2.5s1.2-0.9,2.1-0.9c0.8,0,1.4,0.3,1.9,0.8
		s0.7,1.2,0.7,2.1v0.6h-4.4c0,0.8,0.2,1.3,0.6,1.7s0.9,0.6,1.5,0.6c0.7,0,1.4-0.1,2.1-0.4v0.9c-0.3,0.1-0.7,0.3-1,0.3
		S455.8,400.4,455.3,400.4z M455.1,394.6c-0.5,0-0.9,0.2-1.2,0.5s-0.5,0.8-0.5,1.4h3.4c0-0.6-0.1-1.1-0.4-1.4
		S455.6,394.6,455.1,394.6z"/>
	<path d="M463.8,400.3v-4.2c0-0.5-0.1-0.9-0.4-1.2s-0.6-0.4-1.1-0.4c-0.7,0-1.2,0.2-1.5,0.5s-0.5,1-0.5,1.8v3.4h-1v-6.4h0.8l0.2,0.9
		l0,0c0.2-0.3,0.5-0.6,0.8-0.7s0.8-0.3,1.2-0.3c0.8,0,1.4,0.2,1.7,0.6s0.6,1,0.6,1.8v4.2L463.8,400.3L463.8,400.3z"/>
	<path d="M466.6,392.2c0-0.2,0.1-0.4,0.2-0.5s0.2-0.2,0.4-0.2c0.2,0,0.3,0.1,0.4,0.2s0.2,0.3,0.2,0.5s-0.1,0.4-0.2,0.5
		s-0.2,0.2-0.4,0.2c-0.2,0-0.3-0.1-0.4-0.2S466.6,392.4,466.6,392.2z M467.7,400.3h-1v-6.4h1V400.3z"/>
	<path d="M470.7,400.3h-1v-9.1h1V400.3z"/>
	<path d="M473.8,398.9l0.1,0.1c-0.1,0.4-0.2,0.8-0.4,1.4s-0.4,1-0.6,1.4h-0.7c0.1-0.4,0.2-0.9,0.3-1.5s0.2-1.1,0.3-1.4H473.8z"/>
	<path d="M481.6,400.4c-0.9,0-1.7-0.3-2.2-0.9s-0.8-1.4-0.8-2.4s0.3-1.9,0.8-2.5s1.2-0.9,2.1-0.9c0.8,0,1.4,0.3,1.9,0.8
		s0.7,1.2,0.7,2.1v0.6h-4.4c0,0.8,0.2,1.3,0.6,1.7s0.9,0.6,1.5,0.6c0.7,0,1.4-0.1,2.1-0.4v0.9c-0.3,0.1-0.7,0.3-1,0.3
		S482,400.4,481.6,400.4z M481.3,394.6c-0.5,0-0.9,0.2-1.2,0.5s-0.5,0.8-0.5,1.4h3.4c0-0.6-0.1-1.1-0.4-1.4S481.8,394.6,481.3,394.6
		z"/>
	<path d="M489.7,398.6c0,0.6-0.2,1.1-0.7,1.4s-1.1,0.5-1.9,0.5c-0.9,0-1.5-0.1-2-0.4v-0.9c0.3,0.2,0.6,0.3,1,0.4s0.7,0.1,1,0.1
		c0.5,0,0.9-0.1,1.2-0.2s0.4-0.4,0.4-0.7c0-0.3-0.1-0.5-0.3-0.6s-0.6-0.4-1.3-0.6c-0.6-0.2-1-0.4-1.3-0.6s-0.4-0.4-0.6-0.6
		s-0.2-0.5-0.2-0.8c0-0.5,0.2-0.9,0.6-1.2s1-0.5,1.8-0.5c0.7,0,1.4,0.1,2,0.4l-0.3,0.8c-0.6-0.3-1.2-0.4-1.8-0.4
		c-0.5,0-0.8,0.1-1,0.2s-0.4,0.3-0.4,0.6c0,0.2,0,0.3,0.1,0.4s0.2,0.2,0.4,0.3s0.6,0.3,1.1,0.5c0.8,0.3,1.3,0.6,1.5,0.8
		S489.7,398.1,489.7,398.6z"/>
	<path d="M494.3,400.4c-0.4,0-0.8-0.1-1.1-0.2s-0.6-0.4-0.9-0.7h-0.1c0,0.4,0.1,0.7,0.1,1.1v2.6h-1v-9.3h0.8l0.1,0.9l0,0
		c0.3-0.4,0.5-0.6,0.9-0.8s0.7-0.2,1.1-0.2c0.9,0,1.5,0.3,2,0.9s0.7,1.4,0.7,2.4c0,1.1-0.2,1.9-0.7,2.5S495.1,400.4,494.3,400.4z
		 M494.2,394.6c-0.7,0-1.1,0.2-1.4,0.5s-0.4,0.9-0.5,1.7v0.2c0,0.9,0.2,1.5,0.5,1.9s0.8,0.6,1.4,0.6s1-0.2,1.3-0.7s0.5-1.1,0.5-1.9
		s-0.2-1.4-0.5-1.8S494.7,394.6,494.2,394.6z"/>
	<path d="M501.4,400.4c-0.9,0-1.7-0.3-2.2-0.9s-0.8-1.4-0.8-2.4s0.3-1.9,0.8-2.5s1.2-0.9,2.1-0.9c0.8,0,1.4,0.3,1.9,0.8
		s0.7,1.2,0.7,2.1v0.6h-4.4c0,0.8,0.2,1.3,0.6,1.7s0.9,0.6,1.5,0.6c0.7,0,1.4-0.1,2.1-0.4v0.9c-0.3,0.1-0.7,0.3-1,0.3
		S501.8,400.4,501.4,400.4z M501.1,394.6c-0.5,0-0.9,0.2-1.2,0.5s-0.5,0.8-0.5,1.4h3.4c0-0.6-0.1-1.1-0.4-1.4
		S501.6,394.6,501.1,394.6z"/>
	<path d="M508,400.4c-0.9,0-1.6-0.3-2.2-0.9s-0.8-1.4-0.8-2.4c0-1.1,0.3-1.9,0.8-2.5s1.3-0.9,2.2-0.9c0.3,0,0.6,0,0.9,0.1
		s0.6,0.1,0.7,0.2l-0.3,0.8c-0.2-0.1-0.4-0.2-0.7-0.2s-0.5-0.1-0.7-0.1c-1.3,0-2,0.8-2,2.5c0,0.8,0.2,1.4,0.5,1.8s0.8,0.6,1.4,0.6
		c0.5,0,1.1-0.1,1.6-0.3v0.9C509.2,400.3,508.6,400.4,508,400.4z"/>
	<path d="M511,392.2c0-0.2,0.1-0.4,0.2-0.5s0.2-0.2,0.4-0.2c0.2,0,0.3,0.1,0.4,0.2c0.1,0.1,0.2,0.3,0.2,0.5s-0.1,0.4-0.2,0.5
		c-0.1,0.1-0.2,0.2-0.4,0.2c-0.2,0-0.3-0.1-0.4-0.2S511,392.4,511,392.2z M512.1,400.3h-1v-6.4h1V400.3z"/>
	<path d="M518.1,400.3l-0.2-0.9l0,0c-0.3,0.4-0.6,0.7-1,0.8s-0.7,0.2-1.2,0.2c-0.6,0-1.1-0.2-1.5-0.5s-0.5-0.8-0.5-1.4
		c0-1.3,1-2,3.1-2h1.1v-0.4c0-0.5-0.1-0.9-0.3-1.1s-0.6-0.4-1-0.4c-0.5,0-1.1,0.2-1.8,0.5l-0.3-0.7c0.3-0.2,0.7-0.3,1-0.4
		s0.8-0.1,1.1-0.1c0.8,0,1.3,0.2,1.7,0.5s0.6,0.9,0.6,1.6v4.4h-0.8V400.3z M515.9,399.6c0.6,0,1.1-0.2,1.4-0.5s0.5-0.8,0.5-1.4v-0.6
		h-1c-0.8,0-1.3,0.1-1.7,0.4s-0.5,0.5-0.5,1c0,0.4,0.1,0.6,0.3,0.8S515.5,399.6,515.9,399.6z"/>
	<path d="M521.8,400.3h-1v-9.1h1V400.3z"/>
	<path d="M523.8,392.2c0-0.2,0.1-0.4,0.2-0.5s0.2-0.2,0.4-0.2s0.3,0.1,0.4,0.2s0.2,0.3,0.2,0.5s-0.1,0.4-0.2,0.5s-0.2,0.2-0.4,0.2
		s-0.3-0.1-0.4-0.2S523.8,392.4,523.8,392.2z M524.8,400.3h-1v-6.4h1V400.3z"/>
	<path d="M531,398.6c0,0.6-0.2,1.1-0.7,1.4s-1.1,0.5-1.9,0.5c-0.9,0-1.5-0.1-2-0.4v-0.9c0.3,0.2,0.6,0.3,1,0.4s0.7,0.1,1,0.1
		c0.5,0,0.9-0.1,1.2-0.2s0.4-0.4,0.4-0.7c0-0.3-0.1-0.5-0.3-0.6s-0.6-0.4-1.3-0.6c-0.6-0.2-1-0.4-1.3-0.6s-0.4-0.4-0.6-0.6
		s-0.2-0.5-0.2-0.8c0-0.5,0.2-0.9,0.6-1.2s1-0.5,1.8-0.5c0.7,0,1.4,0.1,2,0.4l-0.3,0.8c-0.6-0.3-1.2-0.4-1.8-0.4
		c-0.5,0-0.8,0.1-1,0.2s-0.4,0.3-0.4,0.6c0,0.2,0,0.3,0.1,0.4s0.2,0.2,0.4,0.3s0.6,0.3,1.1,0.5c0.8,0.3,1.3,0.6,1.5,0.8
		S531,398.1,531,398.6z"/>
	<path d="M534.7,399.6c0.2,0,0.3,0,0.5,0s0.3-0.1,0.4-0.1v0.7c-0.1,0.1-0.3,0.1-0.5,0.1s-0.4,0-0.6,0c-1.2,0-1.9-0.7-1.9-2v-3.8
		h-0.9V394l0.9-0.4l0.4-1.4h0.6v1.5h1.9v0.8h-1.9v3.8c0,0.4,0.1,0.7,0.3,0.9S534.4,399.6,534.7,399.6z"/>
	<path d="M540.8,400.3l-0.2-0.9l0,0c-0.3,0.4-0.6,0.7-1,0.8s-0.7,0.2-1.2,0.2c-0.6,0-1.1-0.2-1.5-0.5s-0.5-0.8-0.5-1.4
		c0-1.3,1-2,3.1-2h1.1v-0.4c0-0.5-0.1-0.9-0.3-1.1s-0.6-0.4-1-0.4c-0.5,0-1.1,0.2-1.8,0.5l-0.3-0.7c0.3-0.2,0.7-0.3,1-0.4
		s0.8-0.1,1.1-0.1c0.8,0,1.3,0.2,1.7,0.5s0.6,0.9,0.6,1.6v4.4h-0.8V400.3z M538.6,399.6c0.6,0,1.1-0.2,1.4-0.5s0.5-0.8,0.5-1.4v-0.6
		h-1c-0.8,0-1.3,0.1-1.7,0.4s-0.5,0.5-0.5,1c0,0.4,0.1,0.6,0.3,0.8S538.2,399.6,538.6,399.6z"/>
	<path d="M549.4,400.4c-0.9,0-1.7-0.3-2.2-0.9s-0.8-1.4-0.8-2.4s0.3-1.9,0.8-2.5s1.2-0.9,2.1-0.9c0.8,0,1.4,0.3,1.9,0.8
		s0.7,1.2,0.7,2.1v0.6h-4.4c0,0.8,0.2,1.3,0.6,1.7s0.9,0.6,1.5,0.6c0.7,0,1.4-0.1,2.1-0.4v0.9c-0.3,0.1-0.7,0.3-1,0.3
		S549.8,400.4,549.4,400.4z M549.1,394.6c-0.5,0-0.9,0.2-1.2,0.5s-0.5,0.8-0.5,1.4h3.4c0-0.6-0.1-1.1-0.4-1.4
		S549.6,394.6,549.1,394.6z"/>
	<path d="M557.8,400.3v-4.2c0-0.5-0.1-0.9-0.4-1.2s-0.6-0.4-1.1-0.4c-0.7,0-1.2,0.2-1.5,0.5s-0.5,1-0.5,1.8v3.4h-1v-6.4h0.8l0.2,0.9
		l0,0c0.2-0.3,0.5-0.6,0.8-0.7s0.8-0.3,1.2-0.3c0.8,0,1.4,0.2,1.7,0.6s0.6,1,0.6,1.8v4.2L557.8,400.3L557.8,400.3z"/>
	<path d="M570.7,400.3h-1.1l-4.7-7.2l0,0c0.1,0.8,0.1,1.6,0.1,2.3v4.9h-1v-8.6h1.1l4.7,7.2l0,0c0-0.1,0-0.4-0.1-1s0-1,0-1.2v-4.9
		h0.9L570.7,400.3L570.7,400.3z"/>
	<path d="M577.8,400.3H573v-8.6h4.8v0.9H574v2.8h3.6v0.9H574v3.2h3.8V400.3z"/>
	<path d="M584.5,400.3h-4.8v-8.6h4.8v0.9h-3.8v2.8h3.6v0.9h-3.6v3.2h3.8V400.3z"/>
	<path d="M586.1,399.7c0-0.3,0.1-0.5,0.2-0.6s0.3-0.2,0.5-0.2s0.4,0.1,0.5,0.2s0.2,0.3,0.2,0.6c0,0.3-0.1,0.4-0.2,0.6
		s-0.3,0.2-0.5,0.2s-0.4-0.1-0.5-0.2S586.1,400,586.1,399.7z"/>
</g>
<g>
	<path d="M360.9,361.7c-0.1-0.1-0.2-0.3-0.2-0.4v-16.2c0-0.2,0.1-0.3,0.2-0.5c0.1-0.1,0.3-0.2,0.5-0.2h3.3c0.2,0,0.3,0.1,0.5,0.2
		c0.1,0.1,0.2,0.3,0.2,0.5v5.5l4.4-5.6c0.2-0.3,0.5-0.5,1-0.5h3.8c0.1,0,0.3,0.1,0.4,0.2c0.1,0.1,0.2,0.2,0.2,0.4
		c0,0.1,0,0.2-0.1,0.3l-5.8,7.5l6.3,8.3c0.1,0.1,0.1,0.2,0.1,0.3s-0.1,0.3-0.2,0.4c-0.1,0.1-0.2,0.2-0.4,0.2h-3.9
		c-0.3,0-0.5-0.1-0.6-0.2c-0.2-0.1-0.3-0.2-0.4-0.3l-4.8-6.1v6c0,0.2-0.1,0.3-0.2,0.4c-0.1,0.1-0.3,0.2-0.5,0.2h-3.3
		C361.2,361.9,361,361.8,360.9,361.7z"/>
	<path d="M376.1,361.7c-0.1-0.1-0.2-0.2-0.2-0.4c0-0.1,0-0.2,0-0.2l5.8-16c0.2-0.5,0.5-0.7,1-0.7h3.9c0.5,0,0.8,0.2,1,0.7l5.8,16
		c0,0,0,0.1,0,0.2c0,0.1-0.1,0.3-0.2,0.4c-0.1,0.1-0.2,0.2-0.4,0.2h-3.3c-0.4,0-0.7-0.2-0.9-0.5l-0.9-2.4h-6.5l-0.9,2.4
		c-0.2,0.4-0.5,0.5-0.9,0.5h-3.3C376.3,361.9,376.2,361.9,376.1,361.7z M382.5,355.2h4.5l-2.2-6.4L382.5,355.2z"/>
	<path d="M395.6,361.7c-0.1-0.1-0.2-0.3-0.2-0.4v-16.2c0-0.2,0.1-0.3,0.2-0.5c0.1-0.1,0.3-0.2,0.5-0.2h6.9c2.2,0,3.9,0.5,5.2,1.5
		s1.9,2.4,1.9,4.2c0,1.2-0.3,2.2-0.8,3c-0.5,0.8-1.3,1.4-2.2,1.9l3.4,6.1c0.1,0.1,0.1,0.2,0.1,0.3c0,0.1,0,0.3-0.1,0.4
		c-0.1,0.1-0.2,0.2-0.4,0.2h-3.5c-0.5,0-0.8-0.2-1-0.7l-2.8-5.4h-2.4v5.5c0,0.2-0.1,0.3-0.2,0.5s-0.3,0.2-0.5,0.2H396
		C395.9,361.9,395.7,361.8,395.6,361.7z M402.9,352.1c0.7,0,1.3-0.2,1.6-0.5s0.6-0.9,0.6-1.5s-0.2-1.1-0.6-1.5
		c-0.4-0.4-0.9-0.6-1.6-0.6h-2.8v4.1H402.9z"/>
	<path d="M413,361.7c-0.1-0.1-0.2-0.3-0.2-0.4V345c0-0.2,0.1-0.3,0.2-0.5c0.1-0.1,0.3-0.2,0.4-0.2h3.5c0.2,0,0.3,0.1,0.4,0.2
		c0.1,0.1,0.2,0.3,0.2,0.5v13h7.5c0.2,0,0.3,0.1,0.5,0.2s0.2,0.3,0.2,0.5v2.6c0,0.2-0.1,0.3-0.2,0.5s-0.3,0.2-0.5,0.2h-11.6
		C413.2,361.9,413.1,361.8,413,361.7z"/>
	<path d="M426.4,361.7c-0.1-0.1-0.2-0.2-0.2-0.4c0-0.1,0-0.2,0-0.2l5.8-16c0.2-0.5,0.5-0.7,1-0.7h3.9c0.5,0,0.8,0.2,1,0.7l5.8,16
		c0,0,0,0.1,0,0.2c0,0.1-0.1,0.3-0.2,0.4c-0.1,0.1-0.2,0.2-0.4,0.2h-3.3c-0.4,0-0.7-0.2-0.9-0.5l-0.9-2.4h-6.5l-0.9,2.4
		c-0.2,0.4-0.5,0.5-0.9,0.5h-3.3C426.7,361.9,426.5,361.9,426.4,361.7z M432.9,355.2h4.5l-2.2-6.4L432.9,355.2z"/>
	<path d="M452.9,361.5c-1.1-0.5-2-1.1-2.6-1.8c-0.6-0.8-0.9-1.6-0.9-2.5c0-0.2,0.1-0.3,0.2-0.4c0.1-0.1,0.2-0.2,0.4-0.2h3.3
		c0.2,0,0.4,0,0.5,0.1c0.1,0.1,0.3,0.2,0.4,0.4c0.2,0.4,0.6,0.7,1,1c0.5,0.3,1.1,0.4,1.8,0.4c0.9,0,1.6-0.1,2.1-0.4s0.7-0.7,0.7-1.1
		c0-0.4-0.1-0.6-0.4-0.9s-0.6-0.4-1.2-0.6c-0.5-0.2-1.3-0.4-2.4-0.6c-2-0.4-3.5-1-4.5-1.8s-1.5-2-1.5-3.5c0-1,0.3-2,0.9-2.8
		c0.6-0.8,1.4-1.4,2.4-1.9c1.1-0.4,2.3-0.7,3.7-0.7c1.5,0,2.7,0.3,3.8,0.8c1.1,0.5,1.9,1.1,2.5,1.9s0.9,1.5,0.9,2.2
		c0,0.1-0.1,0.3-0.1,0.4c-0.1,0.1-0.2,0.2-0.4,0.2H460c-0.4,0-0.7-0.2-0.9-0.5c-0.1-0.4-0.4-0.6-0.8-0.9c-0.4-0.2-0.9-0.4-1.6-0.4
		c-0.7,0-1.2,0.1-1.6,0.4s-0.6,0.6-0.6,1.1s0.3,0.9,0.8,1.1c0.5,0.3,1.4,0.6,2.8,0.8c1.6,0.3,2.8,0.6,3.7,1.1c0.9,0.4,1.6,1,2.1,1.6
		c0.4,0.7,0.7,1.5,0.7,2.6c0,1.1-0.3,2.1-1,2.9c-0.6,0.8-1.6,1.5-2.7,1.9s-2.5,0.7-3.9,0.7C455.4,362.2,454,361.9,452.9,361.5z"/>
	<path d="M465.4,361.7c-0.1-0.1-0.2-0.2-0.2-0.4c0-0.1,0-0.2,0-0.2l5.8-16c0.2-0.5,0.5-0.7,1-0.7h3.9c0.5,0,0.8,0.2,1,0.7l5.8,16
		c0,0,0,0.1,0,0.2c0,0.1-0.1,0.3-0.2,0.4c-0.1,0.1-0.2,0.2-0.4,0.2h-3.3c-0.4,0-0.7-0.2-0.9-0.5l-0.9-2.4h-6.5l-0.9,2.4
		c-0.2,0.4-0.5,0.5-0.9,0.5h-3.3C465.7,361.9,465.5,361.9,465.4,361.7z M471.8,355.2h4.5l-2.2-6.4L471.8,355.2z"/>
	<path d="M485,361.7c-0.1-0.1-0.2-0.3-0.2-0.4V345c0-0.2,0.1-0.3,0.2-0.5c0.1-0.1,0.3-0.2,0.4-0.2h3.5c0.2,0,0.3,0.1,0.4,0.2
		c0.1,0.1,0.2,0.3,0.2,0.5v13h7.5c0.2,0,0.3,0.1,0.5,0.2s0.2,0.3,0.2,0.5v2.6c0,0.2-0.1,0.3-0.2,0.5s-0.3,0.2-0.5,0.2h-11.6
		C485.2,361.9,485.1,361.8,485,361.7z"/>
	<path d="M501.2,360.4c-1.4-1.1-2.1-2.8-2.2-5c0-0.5,0-1.2,0-2.2c0-1,0-1.8,0-2.3c0.1-2.2,0.8-3.8,2.2-5c1.4-1.2,3.2-1.8,5.6-1.8
		c1.5,0,2.8,0.2,4,0.7s2.1,1.2,2.8,2.1c0.7,0.9,1,2,1.1,3.3c0,0.1-0.1,0.3-0.2,0.4c-0.1,0.1-0.2,0.1-0.4,0.1h-3.5
		c-0.2,0-0.4,0-0.5-0.1c-0.1-0.1-0.2-0.3-0.3-0.5c-0.2-0.8-0.6-1.4-1.1-1.7c-0.5-0.3-1.1-0.5-1.9-0.5c-1.9,0-2.9,1-2.9,3.1
		c0,0.5,0,1.1,0,2.1c0,0.9,0,1.6,0,2.1c0.1,2.1,1,3.1,2.9,3.1c0.8,0,1.4-0.2,1.9-0.5c0.5-0.3,0.8-0.9,1.1-1.7
		c0.1-0.3,0.2-0.4,0.3-0.5c0.1-0.1,0.3-0.1,0.5-0.1h3.5c0.1,0,0.3,0.1,0.4,0.1c0.1,0.1,0.2,0.2,0.2,0.4c0,1.3-0.4,2.3-1.1,3.3
		c-0.7,0.9-1.6,1.6-2.8,2.1c-1.2,0.5-2.5,0.7-4,0.7C504.4,362.2,502.6,361.6,501.2,360.4z"/>
	<path d="M517.4,361.7c-0.1-0.1-0.2-0.3-0.2-0.4v-16.2c0-0.2,0.1-0.3,0.2-0.5c0.1-0.1,0.3-0.2,0.5-0.2h11.8c0.2,0,0.3,0.1,0.5,0.2
		s0.2,0.3,0.2,0.5v2.5c0,0.2-0.1,0.3-0.2,0.5s-0.3,0.2-0.5,0.2h-7.9v3.2h7.4c0.2,0,0.3,0.1,0.5,0.2s0.2,0.3,0.2,0.5v2.3
		c0,0.2-0.1,0.3-0.2,0.5s-0.3,0.2-0.5,0.2h-7.4v3.3h8.1c0.2,0,0.3,0.1,0.5,0.2s0.2,0.3,0.2,0.5v2.5c0,0.2-0.1,0.3-0.2,0.5
		s-0.3,0.2-0.5,0.2h-12C517.7,361.9,517.5,361.8,517.4,361.7z"/>
	<path d="M533.5,361.7c-0.1-0.1-0.2-0.3-0.2-0.4v-16.2c0-0.2,0.1-0.3,0.2-0.5c0.1-0.1,0.3-0.2,0.5-0.2h6.6c2.5,0,4.4,0.6,5.8,1.8
		c1.4,1.2,2.1,2.9,2.1,5.1c0,0.5,0,1.1,0,1.9s0,1.4,0,1.9c-0.2,4.6-2.8,6.9-7.8,6.9h-6.7C533.7,361.9,533.6,361.8,533.5,361.7z
		 M540.5,358.2c1,0,1.8-0.3,2.3-0.8s0.8-1.3,0.8-2.4c0-0.5,0-1.1,0-1.9s0-1.4,0-1.9c0-1.1-0.3-1.9-0.9-2.4c-0.5-0.5-1.3-0.8-2.4-0.8
		H538v10H540.5z"/>
	<path d="M552.9,360.4c-1.4-1.1-2.1-2.8-2.2-5.1c0-0.5,0-1.2,0-2.2c0-1,0-1.7,0-2.2c0.1-2.2,0.8-3.9,2.2-5.1
		c1.4-1.2,3.3-1.8,5.6-1.8c2.3,0,4.2,0.6,5.6,1.8c1.4,1.2,2.1,2.9,2.2,5.1c0,1,0,1.7,0,2.2c0,0.5,0,1.2,0,2.2
		c-0.1,2.2-0.8,3.9-2.2,5.1s-3.2,1.7-5.6,1.7C556.1,362.2,554.3,361.6,552.9,360.4z M560.6,357.6c0.5-0.5,0.8-1.3,0.8-2.4
		c0-1,0.1-1.7,0.1-2.1s0-1.1-0.1-2c0-1.1-0.3-1.9-0.8-2.4c-0.5-0.5-1.2-0.8-2.1-0.8c-0.9,0-1.6,0.3-2.1,0.8s-0.8,1.3-0.8,2.4
		c0,0.5,0,1.1,0,2c0,0.9,0,1.6,0,2.1c0,1.1,0.3,1.9,0.8,2.4s1.2,0.8,2.1,0.8C559.4,358.4,560.1,358.1,560.6,357.6z"/>
</g>
</svg>
