<?xml version="1.0" encoding="utf-8"?>
<!-- Generator: Adobe Illustrator 22.1.0, SVG Export Plug-In . SVG Version: 6.00 Build 0)  -->
<svg version="1.1" id="Capa_1" xmlns="http://www.w3.org/2000/svg" xmlns:xlink="http://www.w3.org/1999/xlink" x="0px" y="0px"
	 viewBox="0 0 1000 931.8" style="enable-background:new 0 0 1000 931.8;" xml:space="preserve">
<style type="text/css">
	.st0{fill:#FC4C02;}
	.st1{fill:#222221;}
	.st2{fill:#00B0B9;}
	.st3{fill:none;}
	.st4{fill:#FFC600;}
	.st5{fill:#FFFFFF;}
	.st6{fill:#84BD00;}
	.st7{fill:#006CB0;}
</style>
<g>
	<path d="M955,567.1H542.4c-20.7,0-37.6-16.9-37.6-37.6V408.8c0-20.7,16.9-37.6,37.6-37.6H955c20.7,0,37.6,16.9,37.6,37.6v120.8
		C992.6,550.3,975.7,567.1,955,567.1z M542.4,373.7c-19.4,0-35.1,15.8-35.1,35.1v120.8c0,19.4,15.8,35.1,35.1,35.1H955
		c19.4,0,35.1-15.8,35.1-35.1V408.8c0-19.4-15.8-35.1-35.1-35.1L542.4,373.7L542.4,373.7z"/>
</g>
<g>
	<path d="M457.6,826.4H45.1c-20.7,0-37.6-16.9-37.6-37.6V668.1c0-20.7,16.8-37.6,37.6-37.6h412.6c20.7,0,37.6,16.9,37.6,37.6v120.8
		C495.2,809.6,478.3,826.4,457.6,826.4z M45.1,633C25.7,633,10,648.8,10,668.1v120.8c0,19.4,15.8,35.1,35.1,35.1h412.6
		c19.4,0,35.1-15.8,35.1-35.1V668.1c0-19.4-15.8-35.1-35.1-35.1H45.1z"/>
</g>
<g>
	<path d="M576.6,372.5h-2.4v-39.2c0-19.4-15.8-35.1-35.1-35.1H125v-2.4h414c20.7,0,37.6,16.8,37.6,37.6V372.5z"/>
</g>
<g>
	<path d="M426.8,631.1h-2.4v-63.9c0-20.7,16.9-37.6,37.6-37.6h44.2v2.4H462c-19.4,0-35.1,15.8-35.1,35.1v64H426.8z"/>
</g>
<g>
	<circle class="st0" cx="109.8" cy="294.4" r="15.1"/>
	<path class="st1" d="M109.8,310.7c-9,0-16.3-7.3-16.3-16.3s7.3-16.3,16.3-16.3s16.3,7.3,16.3,16.3S118.9,310.7,109.8,310.7z
		 M109.8,280.5c-7.7,0-13.9,6.2-13.9,13.9c0,7.7,6.2,13.9,13.9,13.9s13.9-6.2,13.9-13.9C123.8,286.7,117.5,280.5,109.8,280.5z"/>
</g>
<g>
	<g>
		<path class="st1" d="M273.8,527.5H161.2c-3,0-5.9-1.2-8-3.3l-50.3-50.8c-3.2-3.3-4.1-7.9-2.4-12.2c1.8-4.2,5.7-6.9,10.3-6.9
			c3,0,5.7,1.1,7.9,3.2l45.3,44.7c1.5,1.5,3.4,2.3,5.5,2.3h103.4c2.5,0,5,0.9,7,2.5l0.8,0.7c3.8,3,5.2,7.9,3.6,12.4
			C282.8,524.6,278.6,527.5,273.8,527.5z M110.9,456.7c-3.6,0-6.7,2.1-8.1,5.4s-0.7,7,1.9,9.5l50.3,50.8c1.6,1.7,3.9,2.6,6.2,2.6
			h112.6c4.6,0,7.3-3,8.3-5.9c1-2.8,0.8-6.9-2.8-9.8l-0.8-0.7c-1.5-1.2-3.5-1.9-5.5-1.9H169.6c-2.7,0-5.3-1.1-7.2-3L117,459.3
			C115.4,457.6,113.2,456.7,110.9,456.7z"/>
	</g>
	<g>
		<path class="st0" d="M170.3,527.3v10.3c0,3.2-2.6,5.8-5.8,5.8h-16.2c-2.7,0-4.9-2.2-4.9-4.9l0,0c0-2.4,2-4.4,4.4-4.4h9.6
			c2,0,3.6-1.6,3.6-3.6v-3.2"/>
		<path class="st1" d="M164.5,544.6h-16.2c-3.4,0-6.1-2.8-6.1-6.1c0-3.1,2.5-5.6,5.6-5.6h9.6c1.3,0,2.4-1.1,2.4-2.4v-3.2h2.4v3.2
			c0,2.6-2.1,4.8-4.8,4.8h-9.6c-1.8,0-3.2,1.4-3.2,3.2c0,2.1,1.7,3.7,3.7,3.7h16.2c2.5,0,4.5-2,4.5-4.5v-10.3h2.4v10.3
			C171.5,541.5,168.4,544.6,164.5,544.6z"/>
	</g>
	<g>
		<path class="st0" d="M260.4,526.3v10.3c0,3.2,2.6,5.8,5.8,5.8h16.2c2.7,0,4.9-2.2,4.9-4.9l0,0c0-2.4-2-4.4-4.4-4.4h-9.6
			c-2,0-3.6-1.6-3.6-3.6v-3.2"/>
		<path class="st1" d="M282.3,543.6h-16.2c-3.8,0-7-3.1-7-7v-10.3h2.4v10.3c0,2.5,2,4.5,4.5,4.5h16.2c2.1,0,3.7-1.7,3.7-3.7
			c0-1.8-1.4-3.2-3.2-3.2h-9.6c-2.6,0-4.8-2.1-4.8-4.8v-3.2h2.4v3.2c0,1.3,1.1,2.4,2.4,2.4h9.6c3.1,0,5.6,2.5,5.6,5.6
			C288.5,540.9,285.7,543.6,282.3,543.6z"/>
	</g>
	<g>
		<path class="st1" d="M195.2,506.8h-26.1c-2,0-3.9-0.8-5.3-2.2l-18.2-17.1l0,0c-1.2-1.2-1.6-2.9-1.1-4.5s1.7-2.8,3.4-3.2
			c22.4-5.3,42.4,12.9,50,21c1,1.1,1.3,2.6,0.7,3.9C197.9,506,196.6,506.8,195.2,506.8z M147.3,485.7l18.2,17.1c1,1,2.2,1.5,3.6,1.5
			h26.1c0.7,0,1-0.5,1.1-0.7s0.3-0.7-0.2-1.3c-7.3-7.8-26.4-25.3-47.6-20.3c-0.8,0.2-1.4,0.7-1.6,1.5
			C146.6,484.4,146.8,485.2,147.3,485.7z"/>
	</g>
</g>
<g>
	<g>
		<path class="st1" d="M393.1,487.9h-65.6c-4.2,0-7.6-3.4-7.6-7.6V382c0-4.2,3.4-7.6,7.6-7.6h65.6c4.2,0,7.6,3.4,7.6,7.6v98.3
			C400.7,484.5,397.3,487.9,393.1,487.9z M327.5,376.7c-2.9,0-5.2,2.3-5.2,5.2v98.3c0,2.9,2.3,5.2,5.2,5.2h65.6
			c2.9,0,5.2-2.3,5.2-5.2v-98.3c0-2.9-2.3-5.2-5.2-5.2H327.5L327.5,376.7z"/>
	</g>
	<g>
		<path class="st2" d="M384.4,476.8h-48.1c-4.1,0-7.4-3.3-7.4-7.4V391c0-4.1,3.3-7.4,7.4-7.4h48.1c4.1,0,7.4,3.3,7.4,7.4v78.4
			C391.8,473.5,388.5,476.8,384.4,476.8z"/>
		<path class="st1" d="M387.3,478h-53.9c-3.1,0-5.7-2.6-5.7-5.7v-84.2c0-3.1,2.6-5.7,5.7-5.7h53.9c3.1,0,5.7,2.6,5.7,5.7v84.2
			C393,475.5,390.5,478,387.3,478z M333.4,384.9c-1.8,0-3.3,1.5-3.3,3.3v84.2c0,1.8,1.5,3.3,3.3,3.3h53.9c1.8,0,3.3-1.5,3.3-3.3
			v-84.2c0-1.8-1.5-3.3-3.3-3.3L333.4,384.9L333.4,384.9z"/>
	</g>
	<g>
		<path class="st0" d="M371.4,389.3H350c-2.6,0-4.7-2.1-4.7-4.7l0,0c0-2.6,2.1-4.7,4.7-4.7h21.4c2.6,0,4.7,2.1,4.7,4.7l0,0
			C376.1,387.2,374,389.3,371.4,389.3z"/>
		<path class="st1" d="M372.8,390.5h-24.3c-2.5,0-4.5-2-4.5-4.5v-3c0-2.5,2-4.5,4.5-4.5h24.3c2.5,0,4.5,2,4.5,4.5v3
			C377.3,388.5,375.3,390.5,372.8,390.5z M348.5,381c-1.1,0-2,0.9-2,2v3c0,1.1,0.9,2,2,2h24.3c1.1,0,2-0.9,2-2v-3c0-1.1-0.9-2-2-2
			H348.5z"/>
	</g>
	<g>
		<line class="st3" x1="338.7" y1="403.2" x2="384.4" y2="403.2"/>
		<path class="st1" d="M384.4,404.4h-45.7c-0.7,0-1.2-0.5-1.2-1.2s0.5-1.2,1.2-1.2h45.7c0.7,0,1.2,0.5,1.2,1.2
			S385,404.4,384.4,404.4z"/>
	</g>
	<g>
		<line class="st3" x1="338.7" y1="412.1" x2="384.4" y2="412.1"/>
		<path class="st1" d="M384.4,413.3h-45.7c-0.7,0-1.2-0.5-1.2-1.2s0.5-1.2,1.2-1.2h45.7c0.7,0,1.2,0.5,1.2,1.2
			S385,413.3,384.4,413.3z"/>
	</g>
	<g>
		<line class="st3" x1="338.7" y1="421.6" x2="384.4" y2="421.6"/>
		<path class="st1" d="M384.4,422.8h-45.7c-0.7,0-1.2-0.5-1.2-1.2s0.5-1.2,1.2-1.2h45.7c0.7,0,1.2,0.5,1.2,1.2
			S385,422.8,384.4,422.8z"/>
	</g>
	<g>
		<line class="st3" x1="338.7" y1="444.8" x2="359.5" y2="444.8"/>
		<path class="st1" d="M359.5,446h-20.8c-0.7,0-1.2-0.5-1.2-1.2s0.5-1.2,1.2-1.2h20.8c0.7,0,1.2,0.5,1.2,1.2S360.1,446,359.5,446z"
			/>
	</g>
</g>
<g>
	<g>
		<path class="st4" d="M283.4,434.6c0.1,2.3,0,7.6-3.4,12.4c-4.2,5.9-11.7,9.1-19.8,8.5c-1-0.1-1.3-1.3-0.5-1.9
			c2.9-2.1,5.5-4.6,5.7-8c0.1-1.5-0.9-2.8-1.8-3.5c-0.8-0.6-1.7-0.8-5.5-0.8c-1.7,0-3.2,0-4.3,0c-13,0-26.1,0.1-39.1,0.1
			c-2.8,0-5.1-2.3-5.1-5.1v-36.4c0-2.5,2.1-4.6,4.6-4.6h64.6c2.8,0,5.1,2.3,5,5.1C283.7,411.8,283.5,423.2,283.4,434.6z"/>
		<path class="st1" d="M262.1,456.7c-0.7,0-1.4,0-2-0.1c-0.9-0.1-1.7-0.7-2-1.6s0.1-1.9,0.8-2.4c2.5-1.8,5-4,5.2-7.1
			c0-1-0.6-2-1.3-2.4c-0.5-0.4-1.1-0.5-4.8-0.6c-1.4,0-2.8,0-4.3,0l-39.1,0.1c-3.5,0-6.4-2.8-6.4-6.4v-36.4c0-3.2,2.6-5.8,5.8-5.8
			h64.6c1.7,0,3.3,0.7,4.4,1.9c1.2,1.2,1.8,2.8,1.8,4.5l-0.4,34.2c0.1,3.4-0.4,8.5-3.6,13.1C277,453.4,269.9,456.7,262.1,456.7z
			 M260.7,454.3c7.5,0.4,14.5-2.6,18.3-8c2.9-4.1,3.3-8.6,3.2-11.6l0,0l0,0l0.4-34.2c0-1-0.4-2-1.1-2.7s-1.7-1.1-2.7-1.1h-64.6
			c-1.9,0-3.4,1.5-3.4,3.4v36.4c0,2.2,1.8,3.9,3.9,3.9h0.1l39-0.1c1.4,0,2.9,0,4.3,0c3.9,0.1,5.1,0.2,6.2,1.1
			c1.1,0.8,2.3,2.5,2.2,4.5C266.4,449.5,263.4,452.3,260.7,454.3z"/>
	</g>
	<g>
		<line class="st3" x1="277.5" y1="402.6" x2="269.2" y2="402.6"/>
		<rect x="269.2" y="401.4" class="st1" width="8.2" height="2.4"/>
	</g>
	<g>
		<line class="st3" x1="266.1" y1="402.6" x2="216.9" y2="402.6"/>
		<rect x="216.9" y="401.4" class="st1" width="49.2" height="2.4"/>
	</g>
	<g>
		<line class="st3" x1="276.9" y1="409.7" x2="216.9" y2="409.7"/>
		<rect x="216.9" y="408.5" class="st1" width="59.9" height="2.4"/>
	</g>
	<g>
		<line class="st3" x1="276.9" y1="417.8" x2="237.2" y2="417.8"/>
		<rect x="237.2" y="416.6" class="st1" width="39.6" height="2.4"/>
	</g>
	<g>
		<path class="st4" d="M147.5,422.1c-0.1,3,0,9.9,4.5,16.2c5.4,7.8,15.3,11.9,25.9,11.1c1.3-0.1,1.7-1.7,0.7-2.5
			c-3.8-2.8-7.2-6-7.4-10.5c-0.1-1.9,1.2-3.7,2.3-4.5c1-0.8,2.2-1,7.2-1.1c2.3,0,4.2,0,5.6,0c17,0.1,34.1,0.1,51.1,0.2
			c3.7,0,6.7-3,6.7-6.7v-47.6c0-3.3-2.7-6-6-6h-84.5c-3.7,0-6.6,3-6.6,6.7C147.2,392.2,147.3,407.1,147.5,422.1z"/>
		<path class="st1" d="M175.3,450.7c-10,0-19.2-4.4-24.4-11.7c-4.2-6-4.9-12.5-4.7-16.9l-0.5-44.7c0-2.1,0.8-4.1,2.3-5.6
			s3.4-2.3,5.5-2.3H238c4,0,7.2,3.2,7.2,7.2v47.6c0,4.4-3.6,7.9-7.9,7.9l-51.1-0.2c-1.9,0-3.7,0-5.6,0c-5,0.1-5.8,0.3-6.5,0.8
			c-0.9,0.7-1.9,2.1-1.8,3.5c0.2,4.1,3.6,7.1,6.9,9.5c0.9,0.6,1.3,1.7,1,2.8c-0.3,1-1.2,1.8-2.3,1.9
			C177.1,450.6,176.2,450.7,175.3,450.7z M153.6,371.9c-1.4,0-2.8,0.6-3.8,1.6s-1.6,2.4-1.6,3.8l0.5,44.8l0,0
			c-0.2,4,0.4,10,4.3,15.5c5.1,7.3,14.6,11.3,24.8,10.6c0,0,0.1,0,0.1-0.1s0-0.2-0.1-0.2c-3.6-2.6-7.7-6.2-7.9-11.4
			c-0.1-2.4,1.4-4.5,2.8-5.5c1.3-1,2.7-1.2,7.9-1.3c1.9,0,3.8,0,5.6,0l51.1,0.2c3,0,5.5-2.5,5.5-5.5v-47.6c0-2.6-2.2-4.8-4.8-4.8
			h-84.4V371.9z"/>
	</g>
	<g>
		<line class="st3" x1="153.1" y1="379.7" x2="164.2" y2="379.7"/>
		<rect x="153.1" y="378.5" class="st1" width="11.1" height="2.4"/>
	</g>
	<g>
		<line class="st3" x1="167.8" y1="379.7" x2="234.1" y2="379.7"/>
		<rect x="167.8" y="378.5" class="st1" width="66.3" height="2.4"/>
	</g>
	<g>
		<line class="st3" x1="153.2" y1="388.3" x2="234.1" y2="388.3"/>
		<rect x="153.2" y="387.1" class="st1" width="80.9" height="2.4"/>
	</g>
	<g>
		<line class="st3" x1="153.2" y1="398.1" x2="206.7" y2="398.1"/>
		<rect x="153.2" y="396.9" class="st1" width="53.5" height="2.4"/>
	</g>
</g>
<g>
	<g>
		<path class="st0" d="M750.3,764.6v7.3c1.1,0.7,4.1,2.5,8.3,2.5c4,0,6.9-1.7,8-2.5c0-2.4,0-4.9,0-7.3"/>
		<path class="st1" d="M758.4,775.6c-4.2,0-7.3-1.7-8.8-2.7l-0.5-0.4v-8h2.4v6.7c1.4,0.8,3.9,1.9,7,1.9c3,0,5.4-1.1,6.8-1.9v-6.7
			h2.4v8l-0.5,0.4c-1.8,1.2-4.8,2.6-8.7,2.7C758.5,775.6,758.5,775.6,758.4,775.6z"/>
	</g>
	<g>
		<path class="st1" d="M862.6,802.2H723.9c-0.9,0-1.8-0.4-2.4-1c-0.6-0.7-1-1.5-1-2.4l0.2-11.6c0-1.8,1.6-3.3,3.4-3.3h138.5
			c1.9,0,3.4,1.5,3.4,3.4v11.5C866,800.6,864.5,802.2,862.6,802.2z M724.1,786.2c-0.5,0-1,0.4-1,1l-0.2,11.6c0,0.3,0.1,0.5,0.3,0.7
			s0.4,0.3,0.7,0.3h138.7c0.5,0,1-0.4,1-1v-11.6c0-0.5-0.4-1-1-1H724.1z"/>
	</g>
	<g>
		<path class="st5" d="M739.8,733.6h107.9c0.9,0,1.7,1,1.7,2.2v11.6c0,1.2-0.8,2.2-1.7,2.2h-108c-1,0-1.7-1-1.7-2.2l0.1-11.6
			C738.1,734.6,738.9,733.6,739.8,733.6z"/>
		<path class="st1" d="M847.7,750.9h-108c-0.7,0-1.4-0.3-1.9-0.8c-0.6-0.7-1-1.6-1-2.6l0.1-11.6c0-1.9,1.3-3.3,2.9-3.3h107.9
			c1.6,0,2.9,1.5,2.9,3.4v11.6C850.6,749.3,849.3,750.9,847.7,750.9z M739.8,734.9c-0.2,0-0.5,0.4-0.5,1l-0.1,11.6
			c0,0.4,0.2,0.7,0.3,0.9c0,0,0.1,0.1,0.2,0.1h108c0.2,0,0.5-0.4,0.5-1v-11.7c0-0.6-0.3-1-0.5-1L739.8,734.9L739.8,734.9z"/>
	</g>
	<g>
		<path class="st2" d="M766.8,737.8h50.4c0.4,0,0.8,0.5,0.8,1v5.4c0,0.6-0.4,1-0.8,1h-50.5c-0.4,0-0.8-0.5-0.8-1l0.1-5.4
			C766,738.2,766.3,737.8,766.8,737.8z"/>
		<path class="st1" d="M817.2,746.4h-50.5c-0.5,0-1-0.2-1.4-0.6c-0.4-0.4-0.7-1-0.7-1.7l0.1-5.4c0-1.2,0.9-2.2,2-2.2h50.4
			c1.1,0,2,1,2,2.2v5.4C819.2,745.4,818.3,746.4,817.2,746.4z M767.1,744h49.6v-5h-49.6V744z"/>
	</g>
	<g>
		<line class="st3" x1="722.3" y1="785" x2="737.9" y2="749.6"/>
		<path class="st1" d="M722.3,786.2c-0.2,0-0.3,0-0.5-0.1c-0.6-0.3-0.9-1-0.6-1.6l15.6-35.3c0.3-0.6,1-0.9,1.6-0.6
			c0.6,0.3,0.9,1,0.6,1.6l-15.6,35.3C723.2,785.9,722.8,786.2,722.3,786.2z"/>
	</g>
	<g>
		<line class="st3" x1="864.9" y1="785" x2="849.4" y2="749.6"/>
		<path class="st1" d="M864.9,786.2c-0.5,0-0.9-0.3-1.1-0.7l-15.6-35.3c-0.3-0.6,0-1.3,0.6-1.6s1.3,0,1.6,0.6l15.6,35.3
			c0.3,0.6,0,1.3-0.6,1.6C865.3,786.1,865.1,786.2,864.9,786.2z"/>
	</g>
	<g>
		<ellipse class="st4" cx="758.4" cy="764.6" rx="8.1" ry="3.9"/>
		<path class="st1" d="M758.4,769.6c-5.3,0-9.3-2.2-9.3-5.1c0-2.9,4-5.1,9.3-5.1s9.3,2.2,9.3,5.1
			C767.8,767.5,763.8,769.6,758.4,769.6z M758.4,761.9c-4.2,0-6.9,1.6-6.9,2.7s2.7,2.7,6.9,2.7s6.9-1.6,6.9-2.7
			S762.7,761.9,758.4,761.9z"/>
	</g>
	<g>
		<path class="st0" d="M819.5,764.6v7.3c1.1,0.7,4.1,2.5,8.3,2.5c4,0,6.9-1.7,8-2.5c0-2.4,0-4.9,0-7.3"/>
		<path class="st1" d="M827.6,775.6c-4.2,0-7.3-1.7-8.8-2.7l-0.5-0.4v-8h2.4v6.7c1.4,0.8,3.9,1.9,7,1.9c3,0,5.4-1.1,6.8-1.9v-6.7
			h2.4v8l-0.5,0.4c-1.8,1.2-4.8,2.6-8.7,2.7C827.7,775.6,827.7,775.6,827.6,775.6z"/>
	</g>
	<g>
		<ellipse class="st4" cx="827.6" cy="764.6" rx="8.1" ry="3.9"/>
		<path class="st1" d="M827.6,769.6c-5.3,0-9.3-2.2-9.3-5.1c0-2.9,4-5.1,9.3-5.1s9.3,2.2,9.3,5.1C837,767.5,833,769.6,827.6,769.6z
			 M827.6,761.9c-4.2,0-6.9,1.6-6.9,2.7s2.7,2.7,6.9,2.7s6.9-1.6,6.9-2.7S831.9,761.9,827.6,761.9z"/>
	</g>
	<g>
		<path class="st1" d="M830.4,836.2c-5.7,0-11.5-2.4-15.5-5.6c-0.3-0.2-0.8-0.6-1.4-1.2c-2.9,1.5-6.1,2.5-9.5,2.7
			c-5.8,0.4-11.6-1.9-15.6-4.8c-0.2,0.1-0.5,0.2-0.7,0.3c-8,3.6-21,5-30.6-0.5c-2.7-1.5-5.7-4-8-6.8c-3.8,1.4-8.5,2.1-12.5,1.6
			c-2.7-0.3-6.1-1.2-8.8-2.8c-0.6,0.3-1.1,0.5-1.7,0.8c-7.5,3-17.8,3.7-24-1.5c-4.3-3.5-5.7-9.6-3.6-14.8c3-7.2,12.2-11.6,21.9-10.5
			c0.7,0.1,1.1,0.7,1.1,1.3c-0.1,0.7-0.7,1.1-1.3,1.1c-8.5-1-16.9,2.9-19.4,9c-1.7,4.2-0.5,9.2,2.9,12c5.4,4.5,15,3.7,21.5,1.1
			c0.1,0,0.2-0.1,0.3-0.1c-1.5-1.2-2.5-2.8-2.7-4.5c-0.2-1.9,0.5-4.1,1.9-5.8c1.1-1.3,2.4-2,3.7-2.1c1.5-0.1,3.1,0.7,4.4,2.1
			c1.4,1.5,2.1,3.3,1.9,4.9c-0.2,1.9-1.8,3.8-4.3,5.5c2.1,0.9,4.5,1.5,6.6,1.8c3.8,0.5,7.7-0.1,10.8-1.2c-1.4-2.3-2.2-4.8-1.4-6.9
			c0.8-2.5,3.7-4.9,6.4-4.4c2.5,0.4,4.6,3.4,4.4,6c-0.1,1.6-1.1,3.1-2.8,4.5c-0.8,0.6-1.7,1.2-2.7,1.7c1.9,2.2,4.3,4.2,6.9,5.7
			c8.7,5,20.5,3.8,28.1,0.6c-0.2-0.2-0.4-0.4-0.6-0.6c-2.6-2.6-4-5.5-3.8-8.1c0.1-2.1,1.4-4.5,3.3-6c1.5-1.3,3.2-1.9,4.7-1.7
			c1.6,0.2,3.2,1.2,4.5,3c1.6,2.2,2.3,4.9,1.9,7.1c-0.5,2.4-2.4,4.7-5.5,6.7c3.5,2.3,8.3,4,13.1,3.7c2.7-0.2,5.4-1,7.8-2.1
			c-2.7-2.9-5.8-7.4-4.3-11.8c1.1-3.5,5.1-6.9,9.1-6.1c3.7,0.7,6,4.7,6.1,8c0.1,3.7-2.7,7.6-6.8,10.4c0.3,0.3,0.6,0.5,0.7,0.6
			c5.8,4.6,15.2,7.1,21.8,3c0.7-0.4,1.3-0.9,1.9-1.4c-0.3-0.2-0.7-0.4-1-0.6c-3.2-2-5.1-4.2-5.5-6.6c-0.4-2,0.3-4.4,1.7-6.4
			c1.2-1.7,2.7-2.7,4.2-3c3.1-0.6,6.4,2,7.6,4.7c1.4,3.4-0.1,7.7-2.9,11.1c6.2,2.5,15,3.7,22.4,1.6c13.7-4,23.9-20.6,25.3-41.3
			c0-0.7,0.6-1.2,1.3-1.1c0.7,0,1.2,0.6,1.1,1.3c-1.5,22.1-12.1,39.1-27,43.5c-8.3,2.4-18.1,0.9-24.8-2c-0.9,0.9-1.9,1.7-3,2.3
			C836.7,835.5,833.6,836.2,830.4,836.2z M840.4,816c-0.2,0-0.3,0-0.5,0c-0.9,0.2-1.9,0.9-2.7,2c-1,1.4-1.5,3.3-1.3,4.6
			c0.3,1.6,1.8,3.4,4.4,5c0.5,0.3,1,0.6,1.5,0.8c2.5-2.9,4-6.5,3-9.1C844.1,817.5,842.1,816,840.4,816z M815.2,812
			c-2.4,0-4.9,2.3-5.6,4.5c-1.1,3.5,1.8,7.4,4.2,9.8c3.7-2.4,6.3-5.6,6.2-8.6c-0.1-2.3-1.8-5.2-4.2-5.7
			C815.7,812,815.4,812,815.2,812z M789.5,811.6c-0.8,0-1.7,0.4-2.6,1.2c-1.4,1.2-2.3,2.9-2.4,4.4c-0.1,1.8,1,4.1,3.1,6.2
			c0.4,0.4,0.8,0.7,1.2,1.1c3-1.7,4.9-3.7,5.3-5.6c0.3-1.5-0.3-3.6-1.4-5.2c-0.9-1.2-1.9-1.9-2.8-2
			C789.6,811.6,789.5,811.6,789.5,811.6z M751.9,809.3c-1.2,0-2.9,1.3-3.4,2.8c-0.5,1.4,0.1,3.3,1.4,5.2c1.1-0.5,2-1.1,2.7-1.7
			c1.2-1,1.9-2,2-2.9c0.1-1.4-1.1-3.2-2.4-3.5C752.1,809.4,752,809.3,751.9,809.3z M728.4,807.6L728.4,807.6c-0.7,0-1.4,0.5-2,1.2
			c-1,1.1-1.5,2.7-1.4,3.9c0.2,1.4,1.2,2.6,2.7,3.7c2.6-1.4,4.2-3.1,4.4-4.4c0.1-0.9-0.4-2-1.3-3
			C730.1,808.1,729.2,807.6,728.4,807.6z"/>
	</g>
	<g>
		<path class="st6" d="M902.8,747c0,13.6,0,27.1,0,40.7c-8.2,2.3-16.9-0.5-22.1-7c-5.7-7.2-5.4-17-1-24.1
			C884.5,748.9,893.7,745.1,902.8,747z"/>
		<path class="st1" d="M897,789.7c-6.7,0-13-3-17.2-8.3c-5.7-7.2-6.1-17.4-1.1-25.5c5.1-8.1,14.9-12.1,24.4-10.1l1,0.2v42.6
			l-0.9,0.2C901.1,789.4,899,789.7,897,789.7z M898.1,747.7c-7,0-13.6,3.5-17.4,9.5c-4.5,7.2-4.1,16.3,0.9,22.7
			c4.7,5.9,12.4,8.6,19.9,6.8V748C900.4,747.8,899.2,747.7,898.1,747.7z"/>
	</g>
	<g>
		<path class="st6" d="M904.7,789.5h-0.4c-0.9,0-1.6-0.7-1.6-1.6v-41c0-0.9,0.7-1.6,1.6-1.6h0.4c0.9,0,1.6,0.7,1.6,1.6v41
			C906.3,788.8,905.6,789.5,904.7,789.5z"/>
		<path class="st1" d="M905.3,790.7h-1.6c-1.2,0-2.2-1-2.2-2.2v-42.2c0-1.2,1-2.2,2.2-2.2h1.6c1.2,0,2.2,1,2.2,2.2v42.2
			C907.5,789.7,906.5,790.7,905.3,790.7z M904,788.2h1.1v-41.7H904V788.2z"/>
	</g>
	<g>
		<path class="st6" d="M938.7,787.8c0-13.6,0-27.1,0-40.7c8.2-2.3,16.9,0.5,22.1,7c5.7,7.2,5.4,17,1,24.1
			C957,785.9,947.8,789.8,938.7,787.8z"/>
		<path class="st1" d="M943.4,789.5c-1.6,0-3.3-0.2-5-0.5l-1-0.2v-42.6l0.9-0.2c8.7-2.4,17.9,0.5,23.4,7.4
			c5.7,7.2,6.1,17.4,1.1,25.5C958.7,785.6,951.3,789.5,943.4,789.5z M939.9,786.8c8.2,1.4,16.5-2.2,20.9-9.2
			c4.5-7.2,4.1-16.3-0.9-22.7c-4.7-5.9-12.4-8.6-19.9-6.8L939.9,786.8L939.9,786.8z"/>
	</g>
	<g>
		<path class="st6" d="M936.8,745.4h0.4c0.9,0,1.6,0.7,1.6,1.6v41c0,0.9-0.7,1.6-1.6,1.6h-0.4c-0.9,0-1.6-0.7-1.6-1.6v-41
			C935.2,746.1,935.9,745.4,936.8,745.4z"/>
		<path class="st1" d="M937.8,790.7h-1.6c-1.2,0-2.2-1-2.2-2.2v-42.2c0-1.2,1-2.2,2.2-2.2h1.6c1.2,0,2.2,1,2.2,2.2v42.2
			C939.9,789.7,939,790.7,937.8,790.7z M936.4,788.2h1.1v-41.7h-1.1V788.2z"/>
	</g>
	<g>
		<path class="st1" d="M949,748c-0.7,0-1.2-0.5-1.2-1.2c0-14.4-11.7-26.1-26.1-26.1c-14.4,0-26.1,11.7-26.1,26.1
			c0,0.7-0.5,1.2-1.2,1.2s-1.2-0.5-1.2-1.2c0-15.8,12.8-28.6,28.6-28.6s28.6,12.8,28.6,28.6C950.2,747.5,949.6,748,949,748z"/>
	</g>
</g>
<g>
	<g>
		<path class="st3" d="M592.2,672.3"/>
	</g>
	<g>
		<path class="st1" d="M598.1,688.1c-0.1,0-0.2,0-0.3,0c-0.7-0.2-1-0.8-0.9-1.5l2.3-9.3c0.2-0.7,0.8-1.1,1.5-0.9
			c0.7,0.2,1,0.8,0.9,1.5l-2.3,9.3C599.2,687.7,598.7,688.1,598.1,688.1z"/>
	</g>
	<g>
		<line class="st3" x1="611.9" y1="676.4" x2="608.8" y2="689.1"/>
		
			<rect x="603.7" y="681.5" transform="matrix(0.2363 -0.9717 0.9717 0.2363 -197.3113 1114.3523)" class="st1" width="13.2" height="2.4"/>
	</g>
	<g>
		<path class="st2" d="M600.4,650.8l21,12.5c0.4,0.2,0.8,0.5,1.1,0.9l2.2,2.3c0.2,0.2,0.5,0.4,0.8,0.6l15.1,5.6
			c1.1,0.4,1.7,1.5,1.4,2.6l0,0c-0.3,1.1-1.3,1.8-2.4,1.7l-15.9-1.5c-0.2,0-0.4,0-0.6,0l-0.4,0.1c-2.4,0.4-4.7,0.7-7.1,0.7
			l-21.6,0.4c-1.5,0-2.6-1.3-2.2-2.8l5.3-21.7C597.4,650.8,599.1,650.1,600.4,650.8z"/>
		<path class="st1" d="M639.8,678.2c-0.1,0-0.2,0-0.3,0l-15.9-1.5c-0.1,0-0.2,0-0.3,0l-0.4,0.1c-2.4,0.4-4.9,0.7-7.3,0.7l-21.6,0.4
			c-1.1,0-2.1-0.5-2.8-1.3s-0.9-1.9-0.7-3l5.3-21.7c0.3-1.1,1-1.9,2-2.4c1-0.4,2.1-0.4,3.1,0.2l21,12.5c0.5,0.3,1,0.7,1.4,1.1
			l2.2,2.3c0.1,0.1,0.2,0.2,0.4,0.3l15.1,5.6c1.6,0.6,2.6,2.3,2.1,4C642.8,677.1,641.4,678.2,639.8,678.2z M623.5,674.3
			c0.1,0,0.2,0,0.3,0l15.9,1.5c0.5,0,1-0.3,1.1-0.8s-0.2-1-0.6-1.2l-15.1-5.6c-0.5-0.2-0.9-0.5-1.3-0.9l-2.2-2.3
			c-0.3-0.3-0.5-0.5-0.9-0.7l-21-12.5c-0.3-0.2-0.6-0.2-0.9-0.1c-0.3,0.1-0.5,0.4-0.6,0.7l-5.3,21.7c-0.1,0.3,0,0.6,0.2,0.9
			c0.2,0.2,0.5,0.4,0.8,0.4l21.6-0.4c2.3,0,4.7-0.3,6.9-0.7l0.4-0.1C623.1,674.3,623.3,674.3,623.5,674.3z"/>
	</g>
	<g>
		<path class="st4" d="M587.2,754.8L587.2,754.8c-5-1.2-8-6.2-6.8-11.2l11.9-49c1.2-5,6.2-8,11.2-6.8l0,0c5,1.2,8,6.2,6.8,11.2
			l-11.9,49C597.1,752.9,592.2,756,587.2,754.8z"/>
		<path class="st1" d="M591.4,756.8c-0.6,0-1.2-0.1-1.8-0.2l-5.3-1.3c-2-0.5-3.7-1.7-4.8-3.5s-1.4-3.8-0.9-5.9l13.2-54.2
			c1-4.1,5.2-6.7,9.3-5.7l5.3,1.3c2,0.5,3.7,1.7,4.8,3.5s1.4,3.8,0.9,5.9l-13.2,54.2c-0.5,2-1.7,3.7-3.5,4.8
			C594.2,756.4,592.8,756.8,591.4,756.8z M599.3,688.2c-2.4,0-4.6,1.6-5.2,4.1l-13.2,54.2c-0.3,1.4-0.1,2.8,0.6,4
			c0.7,1.2,1.9,2.1,3.3,2.4l5.3,1.3c1.4,0.3,2.8,0.1,4-0.6c1.2-0.7,2.1-1.9,2.4-3.3l13.2-54.2c0.7-2.8-1.1-5.7-3.9-6.4l-5.3-1.3
			C600.1,688.3,599.7,688.2,599.3,688.2z"/>
	</g>
</g>
<g>
	<g>
		<path class="st1" d="M663.9,724.8c-1,0-1.9-0.2-2.8-0.5c-3.9-1.4-6.5-5.4-6.3-9.9c-3.8-2.4-6.9-5.7-9.1-9.4
			c-0.8-1.5-8.1-14.9-0.5-23.9c4-4.7,11.4-7.9,18-4.8c5,2.3,8.3,7.8,8.4,13.8c0,0.7-0.5,1.2-1.2,1.2s-1.2-0.5-1.2-1.2
			c-0.1-5.1-2.9-9.7-7-11.7c-5.4-2.5-11.9,0.2-15.2,4.1c-6.6,7.9,0.5,20.6,0.8,21.2c2,3.6,5.1,6.7,8.8,8.9c0.4,0.2,0.6,0.7,0.6,1.2
			c-0.4,3.6,1.6,7,4.6,8.1c1.7,0.6,3.7,0.4,5.5-0.6c2-1.1,3.4-2.9,4-5.2c0.2-0.6,0.8-1,1.5-0.9c0.6,0.2,1,0.8,0.9,1.5
			c-0.7,2.9-2.6,5.3-5.2,6.7C667.1,724.4,665.5,724.8,663.9,724.8z"/>
	</g>
	<g>
		<path class="st1" d="M663.4,708.1c-1.3,0-2.7-0.3-3.9-1.2c-2.3-1.7-2.5-4.4-2.5-5.5c-0.2-2.5,0.6-4,1.4-5.4
			c0.6-1.1,1.2-2.1,1.4-3.7c0-0.3,0.1-0.6,0.1-0.9c0-0.1,0-0.1,0-0.2c0-2.9-1.2-6.1-3.2-6.8c-1.6-0.6-3.4,0.6-3.5,0.7
			c-1.8,1.3-2.6,3.9-1.8,6.4c0.2,0.6-0.2,1.3-0.8,1.5s-1.3-0.2-1.5-0.8c-1.1-3.6,0-7.2,2.8-9.1c0.5-0.3,3-1.9,5.6-1
			c3.1,1.1,4.8,5,4.9,8.7c0.3,0.2,0.6,0.4,0.9,0.7c1.5,1.1,3.5,2.6,3,4.7c-0.3,1.2-0.9,2-1.4,2.6c-0.4,0.5-0.7,0.8-0.9,1.4
			c-0.2,0.9,0.5,1.6,1.6,2.6c1,0.9,2.3,2,1.6,3.6c-0.3,0.7-1.1,1.3-2.1,1.5C664.4,708,663.9,708.1,663.4,708.1z M661.9,693.7
			c-0.3,1.5-0.9,2.6-1.5,3.6c-0.7,1.3-1.3,2.3-1.1,4c0.1,0.8,0.2,2.7,1.5,3.7s3.2,0.8,3.8,0.5c-0.2-0.2-0.6-0.6-0.9-0.8
			c-1.2-1-2.9-2.6-2.4-5c0.3-1.2,0.9-1.9,1.4-2.5c0.4-0.5,0.8-0.9,0.9-1.5C663.8,695.2,662.7,694.3,661.9,693.7z"/>
	</g>
</g>
<g>
	<path class="st1" d="M620.5,778.4c-41.5,0-75.4-33.8-75.4-75.4c0-41.5,33.8-75.4,75.4-75.4c41.5,0,75.4,33.8,75.4,75.4
		C695.8,744.6,662,778.4,620.5,778.4z M620.5,630.1c-40.2,0-72.9,32.7-72.9,72.9s32.7,72.9,72.9,72.9s72.9-32.7,72.9-72.9
		S660.7,630.1,620.5,630.1z"/>
</g>
<path class="st0" d="M779.9,212.7c-5.3,0-10.3,2-14.1,5.8l-0.8,0.8l-0.8-0.8c-3.8-3.7-8.8-5.8-14.1-5.8s-10.3,2-14.1,5.8
	c-3.8,3.7-5.9,8.7-5.8,13.9c0,5.3,2.1,10.2,5.9,13.9l26.6,26.3c0.6,0.6,1.5,1,2.3,1s1.7-0.3,2.3-1l26.7-26.3
	c3.8-3.7,5.9-8.7,5.9-13.9c0-5.3-2.1-10.2-5.8-13.9C790.2,214.7,785.2,212.7,779.9,212.7 M789.2,241.6l-24.4,23.9l-24.3-24
	c-2.5-2.5-3.9-5.8-3.9-9.3s1.4-6.8,3.9-9.3s5.8-3.8,9.4-3.8s6.9,1.4,9.4,3.9l3.2,3.2c1.3,1.3,3.4,1.3,4.7,0l3.2-3.1
	c2.5-2.5,5.9-3.8,9.4-3.8s6.9,1.4,9.4,3.8c2.5,2.5,3.9,5.8,3.9,9.3C793.1,235.9,791.7,239.2,789.2,241.6"/>
<path class="st4" d="M771.5,372.2L771.5,372.2c-19.8,0.1-29.1-15.9-29.2-35.7l-0.2-42.5c-0.1-19.8,9.1-35.8,28.9-35.9
	c19.8-0.1,29.3,17.6,29.3,37.4l0.2,42.5C800.6,357.8,791.3,372.2,771.5,372.2"/>
<path class="st1" d="M771.4,373.2c-18.4,0-29.9-14-30-36.7l-0.2-42.5c0-10.5,2.4-19.5,7.2-25.9c5.2-7.1,13.1-10.9,22.7-11h0.1
	c9.5,0,17.4,4,22.7,11.7c4.8,6.8,7.4,16.3,7.5,26.7l0.2,42.5c0.1,22-11.2,35.1-30.1,35.2C771.4,373.2,771.4,373.2,771.4,373.2
	 M771.5,371.2v1V371.2c17.9-0.1,28.1-12.2,28.1-33.2l-0.2-42.5c-0.1-26.9-15.2-36.4-28.2-36.4h-0.1c-9.1,0-16.2,3.5-21.1,10.2
	c-4.5,6.1-6.8,14.7-6.8,24.7l0.2,42.5C743.5,353.3,750.9,371.2,771.5,371.2C771.4,371.2,771.4,371.2,771.5,371.2"/>
<path class="st5" d="M801.9,372.1l-59.2,0.2l-0.1-19.3c-0.1-14.7,11.8-26.6,26.5-26.7h6c14.7-0.1,26.6,11.8,26.7,26.5L801.9,372.1z"
	/>
<path class="st1" d="M741.7,373.4l-0.1-20.3c0-7.4,2.8-14.3,8-19.5s12.1-8.1,19.5-8.2h6h0.1c15.2,0,27.5,12.3,27.6,27.5l0.1,20.3
	L741.7,373.4z M775.3,327.4L775.3,327.4h-6.1c-6.8,0-13.3,2.7-18.1,7.6s-7.5,11.3-7.4,18.1l0.1,18.3l57.2-0.2l-0.1-18.3
	C800.8,338.8,789.3,327.4,775.3,327.4"/>
<path class="st5" d="M772.1,333.1h-1.4c-3.5,0-6.3-2.8-6.3-6.3v-7.7l14-0.1v7.7C778.4,330.2,775.6,333.1,772.1,333.1"/>
<path class="st1" d="M770.6,334.1c-1.9,0-3.8-0.8-5.1-2.1c-1.4-1.4-2.2-3.2-2.2-5.2v-8.7l16-0.1v8.7c0,4-3.2,7.3-7.3,7.3
	L770.6,334.1L770.6,334.1z M765.3,320.1v6.7c0,1.4,0.6,2.7,1.6,3.7s2.3,1.6,3.8,1.5h1.4c2.9,0,5.3-2.4,5.3-5.3V320L765.3,320.1z"/>
<path class="st5" d="M749.9,281.7l8.5-6.9l12.5-10.2c0,0,6.7,5.4,12.7,10.1c4.1,3.2,7.8,6.1,8.8,6.8v0.2v19.1l0,0c0,0.1,0,0.1,0,0.2
	c0,11.4-9.4,20.6-21.2,20.7c-11.7,0-21.3-9.1-21.3-20.5c0-0.1,0-0.1,0-0.2c0-5.1-0.1-12.6-0.1-19.1
	C749.9,281.8,749.9,281.7,749.9,281.7"/>
<path class="st1" d="M771.3,322.8c-12.3,0-22.4-9.6-22.4-21.6V301c0-3.5,0-8.3-0.1-13.1v-6.2c0-0.3,0.1-0.6,0.4-0.9l21-17
	c0.4-0.3,1-0.3,1.4,0c0.1,0.1,6.8,5.4,12.7,10.1c5,3.9,7.9,6.2,8.8,6.8c0.3,0.2,0.5,0.5,0.5,0.9v0.2v19.1v0.1v0.1
	C793.6,313,783.6,322.8,771.3,322.8 M751,282.2v5.7c0,4.8,0.1,9.5,0.1,13.1v0.2c0,10.8,9.1,19.5,20.2,19.4s20.1-8.8,20.1-19.6v-0.2
	v-0.1v-18.6c-1.3-0.9-4.1-3.1-8.4-6.5c-4.8-3.8-10.2-8-12-9.5L751,282.2z"/>
<path class="st1" d="M762.4,294.3c0,0.8-0.7,1.5-1.5,1.5s-1.5-0.7-1.5-1.5s0.7-1.5,1.5-1.5C761.8,292.8,762.4,293.5,762.4,294.3"/>
<path class="st1" d="M785.2,288.4c-0.2,0-0.5-0.1-0.7-0.3c-0.3-0.3-2.1-1.8-4.3-1.4c-1,0.2-1.7,0.7-2.2,1.1c-0.4,0.4-1,0.3-1.4-0.1
	s-0.3-1,0.1-1.4c0.9-0.8,2-1.3,3.1-1.6c3.1-0.6,5.5,1.4,6,1.8c0.4,0.4,0.4,1,0.1,1.4C785.7,288.3,785.5,288.4,785.2,288.4"/>
<path class="st1" d="M772.7,302.5L772.7,302.5h-1.8c-1,0-1.8-0.8-1.8-1.8c0-0.4,0.1-1.4,0.4-3c0.1-1,0.3-2,0.4-2.8
	c0.1-0.5,0.5-0.9,1.1-0.9c0.5,0.1,0.9,0.6,0.9,1.1c-0.1,0.7-0.2,1.8-0.4,2.8c-0.1,1-0.3,2.1-0.3,2.6h1.6c0.6,0,1,0.5,1,1
	C773.7,302.1,773.2,302.5,772.7,302.5 M771.1,300.6L771.1,300.6L771.1,300.6z"/>
<path class="st1" d="M757.1,288.6c-0.3,0-0.5-0.1-0.7-0.3c-0.4-0.4-0.4-1,0.1-1.4c0.4-0.4,2.8-2.5,6-1.9c1.1,0.2,2.2,0.7,3.1,1.5
	c0.4,0.4,0.5,1,0.1,1.4s-1,0.5-1.4,0.1c-0.6-0.6-1.4-0.9-2.2-1.1c-2.2-0.4-3.9,1.1-4.3,1.4C757.6,288.5,757.4,288.6,757.1,288.6"/>
<path class="st1" d="M782.9,294.2c0,0.8-0.7,1.5-1.5,1.5s-1.5-0.7-1.5-1.5s0.7-1.5,1.5-1.5S782.9,293.4,782.9,294.2"/>
<path class="st5" d="M793.4,290c3.1-0.2,5.7,2.2,5.8,5c0.2,3-2.5,5.7-5.8,5.5V290z"/>
<path class="st1" d="M793.8,301.7c-0.1,0-0.2,0-0.4,0l-1.1-0.1v-12.7l1.1-0.1c1.8-0.1,3.5,0.5,4.9,1.7c1.3,1.1,2.1,2.7,2.1,4.4
	c0.1,1.8-0.6,3.5-1.9,4.8C797.2,301,795.5,301.7,793.8,301.7 M794.6,291.2v8.1c0.8-0.2,1.6-0.6,2.3-1.2c0.8-0.8,1.3-2,1.2-3.1
	c-0.1-1-0.6-2.1-1.4-2.8C796.1,291.7,795.4,291.3,794.6,291.2"/>
<path class="st5" d="M749.1,300.6c-3.1,0.2-5.7-2.2-5.8-5c-0.1-3,2.5-5.7,5.8-5.5V300.6z"/>
<path class="st1" d="M748.8,301.8c-1.7,0-3.2-0.6-4.5-1.7s-2.1-2.7-2.1-4.4c-0.1-1.8,0.6-3.5,1.9-4.8c1.3-1.3,3.2-2,5-1.9l1.1,0.1
	v12.7l-1.1,0.1C749,301.8,748.9,301.8,748.8,301.8 M747.9,291.3c-0.8,0.2-1.6,0.6-2.3,1.2c-0.8,0.8-1.3,2-1.2,3.1
	c0.1,1,0.6,2.1,1.4,2.8c0.6,0.6,1.3,0.9,2.1,1.1V291.3z"/>
<path class="st5" d="M765,306.9c0,0,7.4,5.1,12.5,0"/>
<path class="st1" d="M771.9,310.1c-3,0-5.9-1.3-7.5-2.4c-0.5-0.3-0.6-0.9-0.3-1.4s0.9-0.6,1.4-0.3c0.3,0.2,6.8,4.5,11.2,0.1
	c0.4-0.4,1-0.4,1.4,0s0.4,1,0,1.4C776.3,309.4,774.1,310.1,771.9,310.1"/>
<path class="st2" d="M845.1,315.7L845.1,315.7c-21.5,0-41.3-9.5-41.3-21.3l9.7-25.3c0-11.8,10.1-21.3,31.6-21.3l0,0
	c21.5,0,31.7,10.6,31.7,22.3l12,25.3C888.8,307.1,866.6,315.7,845.1,315.7"/>
<path class="st1" d="M845.1,316.7c-22.9,0-42.3-10.2-42.3-22.3v-0.2l9.7-25.3c0.1-10.7,8.7-22.1,32.6-22.1c24,0,32.6,12.4,32.7,23.1
	l12,25.3v0.2C889.8,308.1,866.6,316.7,845.1,316.7 M804.8,294.5c0.2,10.7,18.9,20.1,40.3,20.1l0,0c10.5,0,21.3-2.1,29.5-5.7
	c8.4-3.7,13.1-8.4,13.2-13.4l-12-25.3V270c0-9.8-8-21.3-30.7-21.3c-18.8,0-30.6,7.8-30.6,20.3v0.2L804.8,294.5z"/>
<path class="st0" d="M878.2,371.8h-64.4v-20.9c0-16,13-28.9,28.9-28.9h6.6c16,0,28.9,12.9,28.9,28.9V371.8z"/>
<path class="st1" d="M879.2,372.8h-66.4v-21.9c0-16.5,13.4-29.9,29.9-29.9h6.6c16.5,0,29.9,13.4,29.9,29.9V372.8z M814.8,370.8h62.4
	v-19.9c0-15.4-12.5-27.9-27.9-27.9h-6.6c-15.4,0-27.9,12.5-27.9,27.9V370.8z"/>
<path class="st5" d="M845.9,329.2h-1.6c-3.8,0-6.9-3.1-6.9-6.9v-4.2c0-2.3,1.9-4.2,4.2-4.2h6.9c2.3,0,4.2,1.9,4.2,4.2v4.2
	C852.7,326.1,849.7,329.2,845.9,329.2"/>
<path class="st1" d="M845.9,330.2h-1.6c-4.3,0-7.9-3.5-7.9-7.9v-4.2c0-2.9,2.3-5.2,5.2-5.2h6.9c2.9,0,5.2,2.3,5.2,5.2v4.2
	C853.7,326.7,850.2,330.2,845.9,330.2 M841.7,314.9c-1.8,0-3.2,1.4-3.2,3.2v4.2c0,3.2,2.6,5.9,5.9,5.9h1.6c3.2,0,5.9-2.6,5.9-5.9
	v-4.2c0-1.8-1.4-3.2-3.2-3.2H841.7z"/>
<path class="st5" d="M822,273.2l9.2-7.4l13.7-11c0,0,7.3,5.8,13.8,11c4.4,3.5,8.5,6.7,9.6,7.5v0.2c0,6.9,0,13.9,0,20.8l0,0
	c0,0.1,0,0.1,0,0.2c0,12.4-10.3,22.4-23.1,22.4s-23.1-10-23.1-22.4v-0.2c0-5.5,0-13.7,0-20.8v-0.3H822z"/>
<path class="st1" d="M845.1,318c-13.4,0-24.3-10.6-24.3-23.6v-0.2c0-3.8,0-9,0-14.2v-6.8c0-0.4,0.2-0.7,0.4-0.9l22.9-18.4
	c0.4-0.3,1-0.3,1.5,0c0.1,0.1,7.4,5.9,13.8,11c5.4,4.3,8.6,6.8,9.5,7.4c0.3,0.2,0.5,0.6,0.5,1v0.2v20.8v0.1v0.1
	C869.4,307.4,858.5,318,845.1,318 M823.2,273.8v6.2c0,5.2,0,10.4,0,14.2v0.2c0,11.7,9.8,21.2,21.9,21.2s21.9-9.5,21.9-21.2v-0.2
	v-0.1v-20.2c-1.4-1-4.4-3.4-9.1-7.2c-5.2-4.1-11-8.8-13-10.4L823.2,273.8z"/>
<path class="st1" d="M835.6,287c0,0.9-0.7,1.6-1.6,1.6c-0.9,0-1.6-0.7-1.6-1.6s0.7-1.6,1.6-1.6C834.8,285.4,835.6,286.1,835.6,287"
	/>
<path class="st1" d="M860.3,280.6c-0.2,0-0.5-0.1-0.7-0.3c-0.4-0.3-2.3-2-4.7-1.5c-1.1,0.2-1.9,0.8-2.4,1.2c-0.4,0.4-1,0.3-1.4-0.1
	s-0.3-1,0.1-1.4c1-0.9,2.1-1.4,3.4-1.7c3.4-0.6,6,1.6,6.4,2s0.4,1,0.1,1.4C860.9,280.4,860.6,280.6,860.3,280.6"/>
<path class="st1" d="M846.7,295.9C846.6,295.9,846.6,295.9,846.7,295.9l-2-0.1c-1,0-1.9-0.9-1.9-1.9c0-0.5,0.2-1.5,0.4-3.3
	c0.2-1.1,0.3-2.2,0.4-3c0.1-0.5,0.6-0.9,1.1-0.9c0.5,0.1,0.9,0.6,0.9,1.1c-0.1,0.8-0.3,2-0.4,3.1c-0.2,1.1-0.4,2.5-0.4,2.9l1.9,0.1
	c0.6,0,1,0.5,1,1C847.6,295.4,847.2,295.9,846.7,295.9 M844.8,293.9L844.8,293.9L844.8,293.9z"/>
<path class="st1" d="M829.8,280.7c-0.3,0-0.5-0.1-0.7-0.3c-0.4-0.4-0.3-1,0.1-1.4c0.5-0.4,3.1-2.6,6.4-2c1.2,0.2,2.4,0.8,3.4,1.7
	c0.4,0.4,0.5,1,0.1,1.4s-1,0.5-1.4,0.1c-0.5-0.4-1.3-1-2.4-1.2c-2.4-0.5-4.4,1.2-4.7,1.5C830.3,280.6,830,280.7,829.8,280.7"/>
<path class="st1" d="M857.8,287c0,0.9-0.7,1.6-1.6,1.6c-0.9,0-1.6-0.7-1.6-1.6s0.7-1.6,1.6-1.6C857,285.4,857.8,286.1,857.8,287"/>
<path class="st5" d="M869.3,282.4c3.3-0.2,6.1,2.4,6.3,5.5c0.2,3.3-2.7,6.2-6.3,6V282.4z"/>
<path class="st1" d="M869.6,295.1c-0.1,0-0.3,0-0.4,0L868,295v-13.8l1.2-0.1c1.9-0.1,3.8,0.5,5.3,1.9c1.4,1.2,2.2,3,2.3,4.8
	c0.1,1.9-0.7,3.8-2.1,5.2C873.3,294.4,871.5,295.1,869.6,295.1 M870.5,283.7v8.9c0.9-0.2,1.8-0.6,2.5-1.3c0.9-0.9,1.4-2.1,1.4-3.3
	c-0.1-1.1-0.6-2.3-1.5-3.1C872.2,284.3,871.4,283.9,870.5,283.7"/>
<path class="st5" d="M821,293.8c-3.3,0.2-6.1-2.4-6.3-5.5c-0.2-3.3,2.7-6.2,6.3-6V293.8z"/>
<path class="st1" d="M820.7,295.1c-1.8,0-3.5-0.7-4.8-1.9c-1.4-1.2-2.2-3-2.3-4.8c-0.1-1.9,0.7-3.8,2.1-5.2c1.5-1.4,3.5-2.2,5.5-2.1
	l1.2,0.1V295l-1.2,0.1C820.9,295.1,820.8,295.1,820.7,295.1 M819.8,283.7c-0.9,0.2-1.8,0.6-2.5,1.3c-0.9,0.9-1.4,2.1-1.4,3.3
	c0.1,1.1,0.6,2.3,1.5,3.1c0.7,0.6,1.5,1,2.3,1.2v-8.9H819.8z"/>
<path class="st5" d="M838.3,300.7c0,0,8.1,5.5,13.6,0"/>
<path class="st1" d="M845.8,304.1c-3.3,0-6.4-1.4-8.1-2.6c-0.5-0.3-0.6-0.9-0.3-1.4s0.9-0.6,1.4-0.3c0.3,0.2,7.5,5,12.3,0.1
	c0.4-0.4,1-0.4,1.4,0s0.4,1,0,1.4C850.5,303.4,848.2,304.1,845.8,304.1"/>
<path class="st7" d="M684.1,300.6c0,12.4,10.1,22.5,22.5,22.5s22.5-10.1,22.5-22.5s-10.1-22.5-22.5-22.5
	C694.2,278.1,684.1,288.2,684.1,300.6"/>
<path class="st1" d="M706.6,324.1c-13,0-23.5-10.6-23.5-23.5c0-13,10.6-23.5,23.5-23.5c13,0,23.5,10.6,23.5,23.5
	C730.2,313.6,719.6,324.1,706.6,324.1 M706.6,279.1c-11.9,0-21.5,9.7-21.5,21.5c0,11.9,9.7,21.5,21.5,21.5
	c11.9,0,21.5-9.7,21.5-21.5C728.2,288.7,718.5,279.1,706.6,279.1"/>
<path class="st5" d="M731.7,372.4h-50.9v-16.6c0-12.6,10.2-22.8,22.8-22.8h5.2c12.6,0,22.9,10.2,22.9,22.8V372.4z"/>
<path class="st1" d="M732.7,373.4h-52.9v-17.6c0-13.2,10.7-23.8,23.8-23.8h5.2c13.2,0,23.9,10.7,23.9,23.8V373.4z M681.9,371.4h48.9
	v-15.6c0-12-9.8-21.8-21.9-21.8h-5.2c-12,0-21.8,9.8-21.8,21.8V371.4z"/>
<path class="st5" d="M705.9,339h-1c-2.5,0-4.6-2-4.6-4.6V327h10.1v7.5C710.4,337,708.4,339,705.9,339"/>
<path class="st1" d="M705.9,340h-1c-3.1,0-5.6-2.5-5.6-5.6V326h12.1v8.5C711.4,337.6,708.9,340,705.9,340 M701.3,328v6.5
	c0,2,1.6,3.6,3.6,3.6h1c2,0,3.6-1.6,3.6-3.6V328H701.3z"/>
<path class="st5" d="M689,298.6l7.3-5.2l10.8-7.7c0,0,5.7,4.1,10.8,7.7c3.5,2.5,6.7,4.7,7.5,5.3v0.1c0,4.9,0,9.8,0,14.6l0,0
	c0,0.1,0,0.1,0,0.2c0,8.7-8.1,15.8-18.2,15.8c-10,0-18.2-7.1-18.2-15.8v-0.2c0-3.9,0-9.7,0-14.6L689,298.6L689,298.6z"/>
<path class="st1" d="M706.3,329.3c-10.6,0-19.2-7.2-19.2-16.1v-0.1c0-2.6,0-6.1,0-9.7v-4.6c0-0.2,0.1-0.5,0.3-0.6l18.1-12.5
	c0.3-0.2,0.8-0.2,1.2,0c0.1,0,5.8,4,10.9,7.5c4.3,2.9,6.8,4.6,7.5,5.1c0.2,0.2,0.4,0.4,0.4,0.7v0.1v14.1c0,0,0,0,0,0.1v0.1
	C725.5,322.1,716.9,329.3,706.3,329.3 M689,299.2v4.2c0,3.5,0,7.1,0,9.7v0.1c0,8,7.8,14.5,17.3,14.5s17.3-6.5,17.3-14.5v-0.1V313
	v-13.8c-1.1-0.7-3.5-2.3-7.2-4.9c-4.1-2.8-8.7-6-10.3-7.1L689,299.2z"/>
<path class="st1" d="M698.8,306.7c0,0.7-0.6,1.3-1.3,1.3s-1.3-0.6-1.3-1.3c0-0.7,0.6-1.3,1.3-1.3C698.2,305.4,698.8,306,698.8,306.7
	"/>
<path class="st1" d="M718.4,301.8c-0.2,0-0.5-0.1-0.7-0.3c-0.2-0.2-1.7-1.5-3.5-1.1c-0.6,0.1-1.3,0.4-1.8,0.9
	c-0.4,0.4-1,0.3-1.4-0.1s-0.3-1,0.1-1.4c0.8-0.7,1.8-1.2,2.8-1.4c2.8-0.5,4.9,1.3,5.3,1.6c0.4,0.4,0.4,1,0.1,1.4
	C718.9,301.7,718.6,301.8,718.4,301.8"/>
<path class="st1" d="M707.6,313.9L707.6,313.9H706c-0.9,0-1.7-0.8-1.7-1.7c0-0.4,0.1-1.2,0.3-2.6c0.1-0.9,0.3-1.7,0.3-2.4
	c0.1-0.5,0.5-0.9,1.1-0.9c0.5,0.1,0.9,0.6,0.9,1.1c-0.1,0.6-0.2,1.6-0.3,2.4c-0.1,0.7-0.2,1.6-0.3,2h1.3c0.6,0,1,0.5,1,1
	C708.6,313.5,708.1,313.9,707.6,313.9 M706.3,312.2L706.3,312.2L706.3,312.2z"/>
<path class="st1" d="M694.2,301.9c-0.3,0-0.5-0.1-0.7-0.3c-0.4-0.4-0.4-1,0.1-1.4c0.4-0.4,2.5-2.2,5.3-1.6c1,0.2,2,0.7,2.8,1.4
	c0.4,0.4,0.5,1,0.1,1.4s-1,0.5-1.4,0.1c-0.4-0.3-1-0.7-1.8-0.9c-1.9-0.3-3.4,1-3.5,1.1C694.7,301.8,694.5,301.9,694.2,301.9"/>
<path class="st1" d="M716,305.8c0.5,0.5,0.5,1.3,0,1.8s-1.3,0.5-1.8,0s-0.5-1.3,0-1.8C714.6,305.3,715.5,305.3,716,305.8"/>
<path class="st5" d="M725.4,303.1c2.6-0.2,4.9,1.9,5,4.3c0.1,2.6-2.2,4.9-5,4.7V303.1z"/>
<path class="st1" d="M725.7,313.2c-0.1,0-0.2,0-0.3,0l-0.9-0.1v-10.9l0.9-0.1c1.5-0.1,3,0.4,4.2,1.5c1.1,1,1.8,2.4,1.8,3.8
	c0.1,1.5-0.5,3-1.6,4.1C728.7,312.6,727.2,313.2,725.7,313.2 M726.4,304.1v7c0.7-0.1,1.4-0.5,1.9-1c0.7-0.7,1.1-1.7,1.1-2.6
	s-0.5-1.8-1.2-2.4C727.7,304.6,727.1,304.3,726.4,304.1"/>
<path class="st5" d="M687.3,312.1c-2.6,0.2-4.9-1.9-5-4.3c-0.1-2.6,2.2-4.9,5-4.7V312.1z"/>
<path class="st1" d="M687,313.1c-1.4,0-2.8-0.5-3.8-1.5c-1.1-1-1.8-2.4-1.8-3.8c-0.1-1.5,0.5-3,1.6-4.1c1.2-1.1,2.7-1.7,4.3-1.7h0.9
	v11l-0.9,0.1C687.3,313.1,687.1,313.1,687,313.1 M686.3,304.1c-0.7,0.1-1.4,0.5-1.9,1c-0.7,0.7-1.1,1.7-1.1,2.6s0.5,1.8,1.2,2.4
	c0.5,0.5,1.2,0.8,1.8,0.9V304.1z"/>
<path class="st5" d="M700.9,317.5c0,0,6.4,4.4,10.7,0"/>
<path class="st1" d="M706.9,320.5c-2.6,0-5.1-1.1-6.6-2.1c-0.5-0.3-0.6-0.9-0.3-1.4s0.9-0.6,1.4-0.3c0.2,0.2,5.8,3.8,9.5,0.1
	c0.4-0.4,1-0.4,1.4,0s0.4,1,0,1.4C710.8,319.9,708.8,320.5,706.9,320.5"/>
<path class="st2" d="M679.8,168.6c-3,0-5.7,1.1-7.8,3.2l-0.5,0.5l-0.5-0.5c-2.1-2.1-4.9-3.2-7.8-3.2c-2.9,0-5.7,1.1-7.8,3.2
	c-2.1,2.1-3.2,4.8-3.2,7.7s1.2,5.7,3.2,7.7l14.8,14.6c0.4,0.4,0.8,0.5,1.3,0.5s0.9-0.2,1.3-0.5l14.8-14.6c2.1-2.1,3.2-4.8,3.2-7.7
	s-1.2-5.7-3.2-7.7C685.5,169.8,682.7,168.6,679.8,168.6 M684.9,184.7L671.4,198L658,184.7c-1.4-1.4-2.2-3.2-2.2-5.1
	c0-1.9,0.8-3.8,2.1-5.1c1.4-1.4,3.2-2.1,5.2-2.1s3.8,0.8,5.2,2.1l1.8,1.8c0.7,0.7,1.9,0.7,2.6,0l1.8-1.7c1.4-1.4,3.2-2.1,5.2-2.1
	s3.8,0.8,5.2,2.1c1.4,1.4,2.2,3.2,2.2,5.1C687.1,181.5,686.3,183.3,684.9,184.7"/>
</svg>
