<?xml version="1.0" encoding="utf-8"?>
<!-- Generator: Adobe Illustrator 22.1.0, SVG Export Plug-In . SVG Version: 6.00 Build 0)  -->
<svg version="1.1" id="Capa_1" xmlns="http://www.w3.org/2000/svg" xmlns:xlink="http://www.w3.org/1999/xlink" x="0px" y="0px"
	 viewBox="0 0 1000 962.4" style="enable-background:new 0 0 1000 962.4;" xml:space="preserve">
<style type="text/css">
	.st0{fill:#FFFFFF;}
	.st1{fill:#232322;}
	.st2{fill:#79B8BB;}
	.st3{fill:#D88540;}
	.st4{fill:none;}
	.st5{fill:#4D79A9;}
	.st6{fill:#F6D621;}
	.st7{fill:#95BA3A;}
	.st8{fill:#08090A;}
	.st9{fill:#00B0B9;}
	.st10{fill:#222221;}
	.st11{fill:#84BD00;}
	.st12{fill:#FFC600;}
	.st13{fill:#FC4C02;}
</style>
<g>
	<path class="st0" d="M929.2-3.9H514.9c-34.2,0-62.2-28-62.2-62.2v-90.7c0-34.2,28-62.2,62.2-62.2h416.6c33,0,60,27,60,60v92.9
		C991.4-31.9,963.4-3.9,929.2-3.9z"/>
	<path class="st1" d="M952.1-2.6H492c-22.4,0-40.6-18.2-40.6-40.6v-136.4c0-22.4,18.2-40.6,40.6-40.6h461.5
		c21.6,0,39.2,17.6,39.2,39.2v137.9C992.7-20.9,974.5-2.6,952.1-2.6z M492-217.8c-21,0-38.1,17.1-38.1,38.1v136.4
		c0,21,17.1,38.1,38.1,38.1h460.1c21,0,38.1-17.1,38.1-38.1v-137.9c0-20.2-16.5-36.7-36.7-36.7H492V-217.8z"/>
</g>
<g>
	<g>
		<path class="st2" d="M783.7-402.5c-5.7-0.6-13-0.8-21.2,0.4c-2.3,0.3-33.3,6.8-38.3,47.9c-0.1,0.6-0.1,1.6-0.1,2.2l0,0v31.4
			c0,0.4-0.7,0.5-0.7,0l-6.9-66.6c-0.9-8.8-8.8-15.3-17.7-14.3l-1.9,0.2c-8.8,0.9-15.3,8.8-14.3,17.7l11.5,85.6
			c0.3,2.1,2,3.6,4.1,3.6c20.4,0,120.1,0,142.5,0c2.2,0,4-1.8,4-4v-44.8c0-6.7-0.7-13.4-2.2-19.9
			C835.9-391.6,818.5-402.5,783.7-402.5z"/>
		<path class="st1" d="M822.1-293c-38.9,0-113.9,0-123.9,0c-2.7,0-5-2-5.4-4.7l-11.5-85.6c-0.5-4.6,0.9-9.2,3.8-12.8
			c2.9-3.6,7.1-5.8,11.7-6.3l1.9-0.2c4.6-0.5,9.1,0.9,12.7,3.8c3.6,2.9,5.8,7.1,6.3,11.7l5.1,49v-13.8c0-0.6,0.1-1.7,0.1-2.4
			c2.6-21.8,12.7-33.9,20.6-40.1c9.6-7.6,18.6-8.9,18.7-8.9c7.1-1,14.3-1.1,21.5-0.4c36,0,53.3,11.7,60,40.5
			c1.5,6.4,2.2,13.2,2.2,20.2v44.8c0,2.9-2.4,5.3-5.3,5.3C836.7-293,830.1-293,822.1-293z M700.5-400.3c-0.5,0-1,0-1.6,0.1L697-400
			c-3.9,0.4-7.5,2.3-10,5.4s-3.6,6.9-3.2,10.9l11.5,85.6c0.2,1.4,1.4,2.5,2.9,2.5c12.1,0,119.1,0,142.5,0c1.5,0,2.8-1.2,2.8-2.8
			v-44.8c0-6.9-0.7-13.5-2.2-19.6c-6.3-27.3-23-38.5-57.6-38.5h-0.1c-7-0.7-14-0.6-20.9,0.4c-0.1,0-8.6,1.4-17.5,8.4
			c-11,8.6-17.6,21.6-19.7,38.4c-0.1,0.5-0.1,1.5-0.1,2.1v31.4c0,0.9-0.7,1.6-1.5,1.6c-0.9,0-1.6-0.6-1.7-1.4l-6.9-66.6
			c-0.4-3.9-2.3-7.5-5.4-10C707.1-399.1,703.9-400.3,700.5-400.3z"/>
	</g>
	<g>
		<path class="st3" d="M832.8-480.3c0,38.3-17.9,35.2-48.6,35.2c-30.7,0-53.5,4.8-53.5-36.7c0-30.7,21.4-50.7,52.1-50.7
			S832.8-511,832.8-480.3z"/>
		<path class="st1" d="M768-443.6c-12.4,0-22.9-1-29.8-7.8c-6-5.9-8.8-15.6-8.8-30.4c0-31.1,21.4-52,53.4-52
			c15.3,0,28.2,5.2,37.4,15c9,9.6,13.8,22.9,13.8,38.5c0,14.5-2.6,23.9-8.1,29.3c-7.5,7.4-19.8,7.3-35.4,7.2c-2.1,0-4.2,0-6.4,0
			c-2.9,0-5.8,0-8.6,0.1C773-443.6,770.5-443.6,768-443.6z M782.8-531.2c-30.4,0-50.8,19.9-50.8,49.4c0,13.9,2.6,23.2,8,28.6
			c7.5,7.4,19.9,7.2,35.5,7c2.8,0,5.7-0.1,8.7-0.1c2.2,0,4.4,0,6.4,0c15.6,0.1,26.9,0.2,33.6-6.5c5-5,7.3-13.7,7.3-27.5
			C831.6-510.7,812-531.2,782.8-531.2z"/>
	</g>
	<g>
		<path class="st0" d="M795.4-419.1h-28.2v16.2c0,3.9,2.2,7.4,5.7,9.1c2.2,1.1,5,1.9,8.3,1.9c3.4,0,6.2-0.9,8.5-1.9
			c3.5-1.7,5.7-5.2,5.7-9.1V-419.1z"/>
		<path class="st1" d="M781.3-390.5C781.3-390.5,781.2-390.5,781.3-390.5c-3.2,0-6.1-0.7-9-2.1c-3.9-1.9-6.4-5.9-6.4-10.3v-17.5
			h30.8v17.5c0,4.4-2.5,8.4-6.5,10.3C787.4-391.2,784.4-390.5,781.3-390.5z M768.4-417.8v15c0,3.4,2,6.5,5,8
			c2.5,1.2,5.1,1.8,7.8,1.8s5.4-0.6,7.9-1.8c3.1-1.5,5-4.6,5-8v-15H768.4z"/>
	</g>
	<g>
		<path class="st0" d="M823.3-454.1c0-14,0.1-27.9,0.1-41.9c-28-3.2-56-6.4-84-9.7c0,17.2,0.1,34.4,0.1,51.6l0,0c0,0.1,0,0.3,0,0.4
			l0,0c0,22.4,18.8,40.6,41.9,40.6l0,0c23.1,0,41.9-18.2,41.9-40.6C823.3-453.9,823.3-454,823.3-454.1z"/>
		<path class="st1" d="M781.4-411.8c-23.8,0-43.2-18.8-43.2-41.9c0-0.1,0-0.1,0-0.2v-0.2l-0.1-53l86.5,10l-0.1,43.4
			C824.6-430.6,805.2-411.8,781.4-411.8z M740.8-455.4L740.8-455.4v1.5c0,0.1,0,0.1,0,0.2c0,21.7,18.2,39.4,40.6,39.4
			c22.4,0,40.6-17.7,40.6-39.4v-0.4l0.1-40.8l-81.4-9.4L740.8-455.4z"/>
	</g>
	<g>
		<circle class="st1" cx="758" cy="-466.5" r="3.3"/>
	</g>
	<g>
		<path class="st1" d="M811-479.6c-0.5,0-0.9-0.2-1.3-0.5c-0.7-0.7-4.6-4-9.6-3.1c-2.2,0.4-3.9,1.5-4.9,2.4c-0.8,0.7-2,0.6-2.7-0.2
			s-0.6-2,0.2-2.7c2-1.7,4.3-2.8,6.7-3.3c6.7-1.2,11.9,3.1,12.8,4c0.8,0.7,0.8,1.9,0.1,2.7C812.1-479.8,811.5-479.6,811-479.6z"/>
	</g>
	<g>
		<g>
			<path class="st3" d="M826.3-490.7c-14,2.2-22.2-0.9-27.2-4.4c-7.9-5.4-12-14.8-15.1-13.6c-1.8,0.7-2,4.9-2,6.6
				c-0.2,5.6,2.5,9.5,1.6,10c-0.6,0.4-2.3-1-3.6-2.7c-4.9-5.9-3.3-12.2-5.5-13.1c-2.7-1-6,7.7-12.7,12.4
				c-11.3,7.8-22.6,9.1-27.9,9.4l4.6-21.1l30.1-11.6l42.3,2.8l11.1,7.3l3,5.3L826.3-490.7z"/>
		</g>
		<g>
			<path class="st0" d="M734.8-486c5.3-0.3,16.6-1.6,27.9-9.4c6.7-4.7,10-13.4,12.7-12.4c2.3,0.9,0.6,7.2,5.5,13.1
				c1.4,1.7,3.1,3,3.6,2.7c0.8-0.5-1.8-4.4-1.6-10c0.1-1.7,0.2-5.8,2-6.6c3-1.2,7.2,8.1,15.1,13.6c5,3.4,13.2,6.5,27.2,4.4"/>
			<path class="st1" d="M734.8-484.8c-0.7,0-1.2-0.5-1.3-1.2c0-0.7,0.5-1.3,1.2-1.3c6.9-0.4,17.2-2.3,27.3-9.2
				c3.1-2.2,5.6-5.4,7.5-7.9c2.4-3.2,4.1-5.5,6.4-4.6c1.6,0.6,2,2.5,2.4,4.6c0.5,2.4,1.1,5.7,3.7,8.9c0.3,0.4,0.7,0.8,1,1.1
				c-0.6-1.8-1.3-4.5-1.2-7.7c0.1-2.2,0.2-6.7,2.8-7.7c2.4-1,4.6,1.6,7.5,5.1c2.3,2.7,5.1,6.1,8.7,8.6c6.4,4.5,15.3,5.9,26.3,4.2
				c0.7-0.1,1.3,0.4,1.4,1.1c0.1,0.7-0.4,1.3-1.1,1.4c-11.7,1.8-21.1,0.3-28.1-4.6c-3.9-2.7-6.9-6.2-9.2-9.1
				c-1.6-1.9-3.9-4.6-4.6-4.4c-0.3,0.1-1.1,0.9-1.2,5.4c-0.1,3.1,0.7,5.6,1.2,7.3s1,3-0.2,3.7c-1.5,1-3.7-1.1-5.3-2.9
				c-3-3.6-3.7-7.5-4.2-10c-0.2-1-0.5-2.6-0.8-2.7c-0.6,0-2.3,2.3-3.4,3.8c-2,2.7-4.6,6.1-8.1,8.5
				C752.9-487.1,742.1-485.2,734.8-484.8L734.8-484.8z"/>
		</g>
	</g>
	<g>
		<path class="st1" d="M783.6-449.4L783.6-449.4l-3.9-0.1c-1.7-0.1-3-1.4-3-3.1c0-0.9,0.3-3,0.8-6.4c0.3-2.2,0.7-4.5,0.8-6.1
			c0.1-0.7,0.7-1.2,1.4-1.1s1.2,0.7,1.1,1.4c-0.2,1.6-0.5,3.9-0.8,6.2c-0.4,2.5-0.8,5.3-0.8,6.1c0,0.3,0.3,0.6,0.6,0.6l3.9,0.1
			c0.7,0,1.2,0.6,1.2,1.3C784.8-450,784.3-449.4,783.6-449.4z"/>
	</g>
	<g>
		<path class="st1" d="M780.8-431.4c-0.1,0-0.3,0-0.4,0c-6-0.2-9-4.9-9.1-5.1c-0.6-0.9-0.3-2.1,0.6-2.6c0.9-0.6,2-0.3,2.6,0.6
			c0.1,0.1,2.2,3.2,6.1,3.3c4.3,0.1,6.4-3.2,6.4-3.2c0.5-0.9,1.7-1.2,2.6-0.6c0.9,0.5,1.2,1.7,0.6,2.6
			C790.1-436.3,787.1-431.4,780.8-431.4z"/>
	</g>
	<g>
		<path class="st0" d="M739.3-468.3c-5.7-0.3-10.5,4.1-10.7,9.3c-0.3,5.6,4.7,10.6,10.7,10.3V-468.3z"/>
		<path class="st1" d="M738.8-447.4c-3,0-6-1.2-8.1-3.4c-2.2-2.2-3.4-5.2-3.3-8.2c0.1-2.8,1.5-5.6,3.7-7.6c2.3-2.1,5.3-3.1,8.4-3
			l1.2,0.1v22l-1.2,0.1C739.2-447.4,739-447.4,738.8-447.4z M738.1-467c-2,0.1-3.9,0.9-5.4,2.3c-1.7,1.5-2.7,3.7-2.8,5.8
			c-0.1,2.3,0.8,4.6,2.6,6.3c1.5,1.5,3.5,2.4,5.6,2.6L738.1-467L738.1-467z"/>
	</g>
	<g>
		<path class="st0" d="M823.8-448.7c5.7,0.3,10.5-4.1,10.7-9.3c0.3-5.6-4.7-10.6-10.7-10.3V-448.7z"/>
		<path class="st1" d="M824.4-447.4c-0.2,0-0.5,0-0.7,0l-1.2-0.1v-22l1.2-0.1c3.2-0.2,6.4,1,8.7,3.3c2.2,2.2,3.4,5.2,3.3,8.2
			c-0.1,2.8-1.5,5.6-3.7,7.6C829.9-448.5,827.2-447.4,824.4-447.4z M825-467v17c2-0.1,3.9-0.9,5.4-2.3c1.7-1.5,2.7-3.7,2.8-5.8
			c0.1-2.3-0.8-4.6-2.6-6.3C829.1-465.9,827.1-466.8,825-467z"/>
	</g>
	<g>
		<path class="st1" d="M749.7-479.3c-0.5,0-1-0.2-1.4-0.6c-0.7-0.8-0.7-2,0.1-2.7c1-0.9,6.1-5.2,12.8-4c2.4,0.5,4.8,1.6,6.7,3.3
			c0.8,0.7,0.9,1.9,0.2,2.7s-1.9,0.9-2.7,0.2c-1-0.9-2.7-2-4.9-2.4c-5-0.9-8.8,2.4-9.6,3.1C750.6-479.5,750.2-479.3,749.7-479.3z"/>
	</g>
	<g>
		<circle class="st1" cx="802.6" cy="-466.5" r="3.3"/>
	</g>
	<g>
		<path class="st0" d="M715.3-430.6c-0.6-0.5-1.3-0.6-2.1-0.3l0,0c-0.3,0.1-2.3,1.1-3.9,3c-1.9,2.4-3.1,6-3.5,7.4
			c-0.1,0.4-0.1,0.7-0.1,1.1c0.1,0.9,0,0.1,0,0c-0.1-0.3-0.4-1.5-0.5-1.9l-6.6-18.8c-0.6-1.7-2.4-2.8-4.2-2.5
			c-2.2,0.5-3.4,2.7-2.7,4.7l4.6,13.2c0.1,0.2-7.6-18.8-7.6-18.8c-0.6-1.7-2.4-2.8-4.2-2.5c-2.2,0.5-3.4,2.7-2.7,4.7l6.7,19.2
			c0.1,0.2-6.2-14.9-6.2-14.9c-0.5-1.5-2.1-2.5-3.7-2.2c-1.9,0.4-3,2.4-2.3,4.1l6,17c0.1,0.2-4.6-10.4-4.6-10.4
			c-0.6-1.6-2.4-2.5-4-1.9s-2.5,2.4-1.9,4l8.1,23.2c5,11.6,12.9,10.7,19.9,8.2c5.8-2.1,10.1-6.8,11-12.3c0.1-0.7,0.5-2.4,1-4.4
			c1.2-5.1,4.3-15.9,4.4-16.8C716.5-428.5,716.2-429.9,715.3-430.6z"/>
		<path class="st1" d="M692.3-391.8c-5,0-9.9-2.4-13.4-10.5v-0.1l-8.1-23.2c-0.8-2.3,0.4-4.8,2.7-5.6c1-0.3,2-0.3,3,0l-1.1-3.2
			c-0.4-1.2-0.3-2.5,0.3-3.6s1.7-1.9,2.9-2.2c0.8-0.2,1.7-0.1,2.4,0.2l-0.2-0.6c-0.5-1.3-0.3-2.8,0.3-4c0.7-1.2,1.9-2.1,3.2-2.4
			c2.4-0.5,4.8,0.9,5.6,3.3c0.3,0.7,0.6,1.5,0.9,2.3c0.7-1.2,1.9-2,3.2-2.3c2.4-0.5,4.8,0.9,5.6,3.3l5.8,16.6
			c0.6-1.6,1.6-3.4,2.7-4.9c1.8-2.1,4-3.2,4.5-3.4c1.2-0.4,2.4-0.2,3.3,0.6l0,0c1.2,1,1.7,2.8,1.5,3.7c-0.1,0.4-0.4,1.6-1.3,4.9
			c-1,3.8-2.4,8.9-3.1,12c-0.5,2-0.9,3.8-1,4.4c-1,5.9-5.6,11-11.8,13.2C697.9-392.5,695.1-391.8,692.3-391.8z M681.2-403.3
			c4.6,10.6,11.5,9.9,18.3,7.5c5.4-1.9,9.3-6.2,10.2-11.3c0.2-0.7,0.6-2.4,1-4.5c0.7-3.1,2.1-8.3,3.2-12.1c0.6-2,1.1-4.1,1.2-4.6
			c0-0.3-0.2-1-0.6-1.4c-0.2-0.1-0.4-0.3-0.8-0.1c0,0-1.9,0.8-3.4,2.7c-1.8,2.2-2.9,5.6-3.3,6.9c0,0.2-0.1,0.3-0.1,0.5
			c0.1,0.4,0.2,1.1-0.3,1.6l-0.6,0.6l-0.7-0.3c-0.7-0.2-0.8-0.8-0.9-1.3c0-0.2-0.1-0.4-0.2-0.7c-0.1-0.3-0.2-0.9-0.3-1l-6.6-18.8
			c-0.4-1.2-1.6-1.9-2.7-1.6c-0.7,0.1-1.2,0.6-1.6,1.2c-0.3,0.6-0.4,1.3-0.2,1.9l5.1,14.4l-1.2,0.4c-0.8,0.3-1.3-0.1-1.6-0.8l0,0
			l-0.1-0.2c-0.1-0.2-0.2-0.4-0.3-0.6l-7.2-18c-0.4-1.2-1.6-1.9-2.8-1.7c-0.7,0.1-1.2,0.6-1.6,1.2c-0.3,0.6-0.4,1.3-0.2,1.9
			l7.1,20.3l-1.1,0.4c-0.9,0.3-1.3-0.2-1.6-0.8l0,0v-0.1c-0.1-0.2-0.1-0.3-0.2-0.5l-6-14.4c-0.3-0.9-1.3-1.5-2.2-1.3
			c-0.5,0.1-1,0.4-1.3,0.9s-0.3,1-0.1,1.6l6.4,18.2l-1.1,0.5c-0.9,0.4-1.4-0.3-1.7-0.8l0,0l0,0c-0.1-0.1-0.1-0.2-0.2-0.3l-0.5-1.2
			c-0.4-1-1-2.3-1.6-3.6l-2.3-5.3c-0.2-0.5-0.5-0.9-1-1.1s-1-0.2-1.5-0.1c-1,0.3-1.5,1.4-1.2,2.4L681.2-403.3z"/>
	</g>
</g>
<g>
	<line class="st4" x1="871.9" y1="-294.3" x2="511.4" y2="-294.3"/>
	<rect x="511.4" y="-295.6" class="st1" width="360.5" height="2.5"/>
</g>
<g>
	<g>
		<path class="st3" d="M871.2-294.3c37.6,0,99.2,0,116.2,0c2.2,0,4-1.8,4-4v-44.8c0-6.7-0.7-13.4-2.2-19.9
			c-6.6-28.5-24-39.5-58.8-39.5c-5.7-0.6-13-0.8-21.2,0.4c-2,0.3-25.2,5.1-34.8,32.7c-2.4,6.8-3.4,14-3.4,21.2L871.2-294.3z"/>
		<path class="st1" d="M968.7-293c-26.6,0-69.9,0-97.5,0h-1.3l-0.3-55.2c0-7.6,1.1-14.9,3.5-21.6c10.3-29.6,35.6-33.5,35.9-33.5
			c7.1-1,14.3-1.1,21.5-0.4c36,0,53.3,11.7,60,40.5c1.5,6.4,2.2,13.2,2.2,20.2v44.8c0,2.9-2.4,5.3-5.3,5.3
			C983.3-293,976.8-293,968.7-293z M872.4-295.6c36.1,0,97.7,0,115,0c1.5,0,2.7-1.2,2.7-2.7v-44.8c0-6.9-0.7-13.5-2.2-19.6
			c-6.3-27.3-23-38.5-57.6-38.5h-0.1c-7-0.7-14-0.6-20.9,0.4c-0.2,0-24.2,4.1-33.8,31.9c-2.2,6.5-3.4,13.4-3.3,20.7L872.4-295.6z"/>
	</g>
	<g>
		<g>
			<path class="st5" d="M979.5-480.3c0-26.3-14.1-45.8-37.4-50.9c-33.3-7.3-64.7,18.7-64.7,52.9v65.1l0,0c0,5.6,4.5,10.1,10.1,10.1
				h66c14.3,0,25.9-11.6,25.9-25.8L979.5-480.3z"/>
			<path class="st1" d="M953.6-401.8h-66c-6.3,0-11.4-5.1-11.4-11.4v-65.1c0-16.9,7.6-32.7,20.7-43.3c12.9-10.4,29.5-14.3,45.5-10.8
				c23.7,5.2,38.4,25.2,38.4,52.1l0,0l-0.1,51.3C980.7-414,968.5-401.8,953.6-401.8z M930.9-531.1c-11.6,0-23,4-32.4,11.5
				c-12.6,10.1-19.8,25.2-19.8,41.3v65.1c0,4.9,4,8.9,8.9,8.9h66c13.5,0,24.6-11,24.6-24.6l0.1-51.3c0-25.7-13.9-44.7-36.4-49.6
				C938.2-530.7,934.5-531.1,930.9-531.1z"/>
		</g>
		<g>
			<path class="st0" d="M942.1-419.1h-28.2v16.2c0,3.9,2.2,7.4,5.7,9.1c2.2,1.1,5,1.9,8.3,1.9c3.4,0,6.2-0.9,8.5-1.9
				c3.5-1.7,5.7-5.2,5.7-9.1V-419.1z"/>
			<path class="st1" d="M928-390.5C928-390.5,927.9-390.5,928-390.5c-3.2,0-6.1-0.7-9-2.1c-3.9-1.9-6.4-5.9-6.4-10.3v-17.5h30.8
				v17.5c0,4.4-2.5,8.4-6.5,10.3C934.1-391.2,931.1-390.5,928-390.5z M915.1-417.8v15c0,3.4,2,6.5,5,8c2.5,1.2,5.1,1.8,7.8,1.8
				s5.4-0.6,7.9-1.8c3.1-1.5,5-4.6,5-8v-15H915.1z"/>
		</g>
		<g>
			<path class="st0" d="M970.1-454.1c0-8.9,0-17.8,0-26.7c0-8.7-6.5-16-15.1-17c-16.6-1.9-33.2-3.8-49.8-5.7c-10.1-1.2-19,6.8-19,17
				l0.1,32.4l0,0c0,0.1,0,0.3,0,0.4l0,0c0,22.4,18.8,40.6,41.9,40.6l0,0c23.1,0,41.9-18.2,41.9-40.6
				C970.1-453.9,970.1-454,970.1-454.1z"/>
			<path class="st1" d="M928.2-411.8c-23.8,0-43.2-18.8-43.2-41.9c0-0.1,0-0.1,0-0.2v-0.2l-0.1-32.4c0-5.2,2.2-10.2,6.1-13.7
				c3.9-3.5,9.1-5.1,14.3-4.5l49.8,5.7c9.3,1.1,16.2,8.9,16.2,18.2v27.1C971.3-430.6,952-411.8,928.2-411.8z M887.5-455.4
				L887.5-455.4v1.5c0,0.1,0,0.1,0,0.2c0,21.7,18.2,39.4,40.6,39.4c22.4,0,40.6-17.7,40.6-39.4v-0.4v-26.7c0-8-6-14.8-14-15.7
				l-49.8-5.7c-4.5-0.5-9,0.9-12.3,3.9c-3.4,3-5.3,7.3-5.3,11.8L887.5-455.4z"/>
		</g>
		<g>
			<circle class="st1" cx="904.7" cy="-466.5" r="3.3"/>
		</g>
		<g>
			<path class="st1" d="M957.8-479.9c-0.4,0-0.8-0.1-1.1-0.4c-0.7-0.7-4.7-4.1-9.8-3.1c-2.3,0.4-4,1.6-5.1,2.5
				c-0.7,0.6-1.7,0.5-2.2-0.2c-0.6-0.7-0.5-1.7,0.2-2.2c1.9-1.7,4.2-2.8,6.6-3.2c6.6-1.2,11.6,3.1,12.6,3.9c0.6,0.6,0.7,1.6,0.1,2.2
				C958.6-480.1,958.2-479.9,957.8-479.9z"/>
		</g>
		<g>
			<path class="st1" d="M930.3-449.4L930.3-449.4l-3.9-0.1c-1.7-0.1-3-1.4-3-3.1c0-0.9,0.3-3,0.8-6.4c0.3-2.2,0.7-4.5,0.8-6.1
				c0.1-0.7,0.7-1.2,1.4-1.1s1.2,0.7,1.1,1.4c-0.2,1.6-0.5,3.9-0.8,6.2c-0.4,2.5-0.8,5.3-0.8,6.1c0,0.3,0.3,0.6,0.6,0.6l3.9,0.1
				c0.7,0,1.2,0.6,1.2,1.3C931.6-450,931-449.4,930.3-449.4z"/>
		</g>
		<g>
			<path class="st1" d="M927.5-431.4c-0.1,0-0.3,0-0.4,0c-6-0.2-9-4.9-9.1-5.1c-0.6-0.9-0.3-2.1,0.6-2.6c0.9-0.6,2-0.3,2.6,0.6
				c0.1,0.1,2.2,3.2,6.1,3.3c4.3,0.1,6.4-3.2,6.4-3.2c0.5-0.9,1.7-1.2,2.6-0.6c0.9,0.5,1.2,1.7,0.6,2.6
				C936.8-436.3,933.8-431.4,927.5-431.4z"/>
		</g>
		<g>
			<path class="st0" d="M886-468.3c-5.7-0.3-10.5,4.1-10.7,9.3c-0.3,5.6,4.7,10.6,10.7,10.3V-468.3z"/>
			<path class="st1" d="M885.5-447.4c-3,0-6-1.2-8.1-3.4c-2.2-2.2-3.4-5.2-3.3-8.2c0.1-2.8,1.5-5.6,3.7-7.6c2.3-2.1,5.3-3.1,8.4-3
				l1.2,0.1v22l-1.2,0.1C885.9-447.4,885.7-447.4,885.5-447.4z M884.8-467c-2,0.1-3.9,0.9-5.4,2.3c-1.7,1.5-2.7,3.7-2.8,5.8
				c-0.1,2.3,0.8,4.6,2.6,6.3c1.5,1.5,3.5,2.4,5.6,2.6L884.8-467L884.8-467z"/>
		</g>
		<g>
			<path class="st0" d="M970.5-448.7c5.7,0.3,10.5-4.1,10.7-9.3c0.3-5.6-4.7-10.6-10.7-10.3V-448.7z"/>
			<path class="st1" d="M971.1-447.4c-0.2,0-0.5,0-0.7,0l-1.2-0.1v-22l1.2-0.1c3.2-0.2,6.4,1,8.7,3.3c2.2,2.2,3.4,5.2,3.3,8.2
				c-0.1,2.8-1.5,5.6-3.7,7.6C976.7-448.5,973.9-447.4,971.1-447.4z M971.7-467v17c2-0.1,3.9-0.9,5.4-2.3c1.7-1.5,2.7-3.7,2.8-5.8
				c0.1-2.3-0.8-4.6-2.6-6.3C975.8-465.9,973.8-466.8,971.7-467z"/>
		</g>
		<g>
			<path class="st1" d="M896.4-479.6c-0.4,0-0.9-0.2-1.2-0.5c-0.6-0.6-0.6-1.6,0.1-2.2c0.9-0.9,6-5.1,12.6-3.9
				c2.4,0.4,4.6,1.6,6.6,3.2c0.7,0.6,0.7,1.6,0.2,2.2c-0.6,0.7-1.6,0.7-2.2,0.2c-1-0.9-2.7-2.1-5.1-2.5c-5.1-0.9-9.1,2.5-9.8,3.1
				C897.2-479.8,896.8-479.6,896.4-479.6z"/>
		</g>
		<g>
			<circle class="st1" cx="949.3" cy="-466.5" r="3.3"/>
		</g>
	</g>
</g>
<g>
	<g>
		<circle class="st6" cx="524.5" cy="-592.5" r="22.5"/>
		<path class="st1" d="M524.5-568.7c-13.1,0-23.8-10.7-23.8-23.8s10.7-23.8,23.8-23.8s23.8,10.7,23.8,23.8S537.6-568.7,524.5-568.7z
			 M524.5-613.7c-11.7,0-21.3,9.5-21.3,21.3s9.5,21.3,21.3,21.3s21.3-9.5,21.3-21.3S536.2-613.7,524.5-613.7z"/>
	</g>
	<g>
		<line class="st4" x1="524.5" y1="-635.8" x2="524.5" y2="-620.8"/>
		<rect x="523.2" y="-635.8" class="st1" width="2.5" height="15"/>
	</g>
	<g>
		<line class="st4" x1="524.5" y1="-564.2" x2="524.5" y2="-549.2"/>
		<rect x="523.2" y="-564.2" class="st1" width="2.5" height="15"/>
	</g>
	<g>
		<line class="st4" x1="481.7" y1="-591.3" x2="496.7" y2="-591.3"/>
		<rect x="481.7" y="-592.6" class="st1" width="15" height="2.5"/>
	</g>
	<g>
		<line class="st4" x1="553.3" y1="-591.3" x2="568.4" y2="-591.3"/>
		<rect x="553.3" y="-592.6" class="st1" width="15" height="2.5"/>
	</g>
	<g>
		<line class="st4" x1="493.8" y1="-623.1" x2="504.5" y2="-612.5"/>
		
			<rect x="497.9" y="-625.3" transform="matrix(0.7071 -0.7071 0.7071 0.7071 583.0212 172.0076)" class="st1" width="2.5" height="15"/>
	</g>
	<g>
		<line class="st4" x1="544.5" y1="-572.5" x2="555.1" y2="-561.8"/>
		
			<rect x="548.5" y="-574.7" transform="matrix(0.7071 -0.7071 0.7071 0.7071 562.078 222.6178)" class="st1" width="2.5" height="15"/>
	</g>
	<g>
		<line class="st4" x1="555.1" y1="-623.1" x2="544.5" y2="-612.5"/>
		
			<rect x="542.3" y="-619.2" transform="matrix(0.7071 -0.7071 0.7071 0.7071 597.9837 207.7542)" class="st1" width="15" height="2.5"/>
	</g>
	<g>
		<line class="st4" x1="504.5" y1="-572.5" x2="493.8" y2="-561.8"/>
		
			<rect x="491.6" y="-568.4" transform="matrix(0.7071 -0.7071 0.7071 0.7071 547.2044 186.805)" class="st1" width="15" height="2.5"/>
	</g>
</g>
<g>
	<path class="st0" d="M628.4-514.4c8.4,0,15.2-6.8,15.2-15.2s-6.8-15.2-15.2-15.2c-3,0-5.9,0.9-8.3,2.4c-0.5-9.1-8.1-16.4-17.4-16.4
		c-9.6,0-17.4,7.8-17.4,17.4c0,0.8,0.1,1.5,0.2,2.3c-0.4,0-0.7-0.1-1.1-0.1c-6.8,0-12.3,5.5-12.3,12.3s5.5,12.3,12.3,12.3h44V-514.4
		z"/>
	<path class="st1" d="M628.4-513.1h-44c-7.5,0-13.6-6.1-13.6-13.6c0-7.4,5.9-13.4,13.3-13.6c0-0.3,0-0.6,0-1
		c0-10.3,8.4-18.7,18.7-18.7c9.2,0,16.9,6.7,18.4,15.6c2.2-1.1,4.7-1.7,7.2-1.7c9.1,0,16.4,7.4,16.4,16.4S637.5-513.1,628.4-513.1z
		 M584.5-537.8c-6.1,0-11.1,5-11.1,11.1s5,11.1,11.1,11.1h44c7.7,0,13.9-6.2,13.9-13.9s-6.2-13.9-13.9-13.9c-2.7,0-5.3,0.8-7.6,2.2
		c-0.4,0.2-0.9,0.3-1.3,0.1c-0.4-0.2-0.7-0.6-0.7-1.1c-0.5-8.5-7.6-15.2-16.1-15.2c-8.9,0-16.1,7.2-16.1,16.1c0,0.7,0,1.4,0.1,2.1
		c0,0.4-0.1,0.8-0.3,1s-0.6,0.4-1,0.4C585.1-537.8,584.8-537.8,584.5-537.8z"/>
</g>
<g>
	<path class="st0" d="M733.1-611.1c5.4,0,9.8-4.4,9.8-9.8c0-4.5-3-8.3-7.2-9.4c0.1-0.7,0.2-1.5,0.2-2.3c0-7.3-5.9-13.3-13.3-13.3
		c-5.8,0-10.7,3.7-12.5,8.9c-1.1-0.4-2.3-0.7-3.6-0.7c-4.5,0-8.2,3-9.4,7.1c-0.4-0.1-0.9-0.1-1.3-0.1c-5.4,0-9.8,4.4-9.8,9.8
		c0,5.4,4.4,9.8,9.8,9.8H733.1z"/>
	<path class="st1" d="M733.1-609.9h-37.3c-6.1,0-11.1-5-11.1-11.1s5-11.1,11.1-11.1c0.2,0,0.3,0,0.5,0c1.7-4.2,5.7-7,10.3-7
		c1,0,1.9,0.1,2.9,0.4c2.3-5.2,7.5-8.6,13.3-8.6c8,0,14.5,6.5,14.5,14.5c0,0.5,0,0.9-0.1,1.4c4.2,1.6,7,5.7,7,10.3
		C744.2-614.8,739.2-609.9,733.1-609.9z M695.8-629.5c-4.7,0-8.5,3.8-8.5,8.5s3.8,8.5,8.5,8.5h37.3c4.7,0,8.5-3.8,8.5-8.5
		c0-3.8-2.6-7.2-6.2-8.2c-0.6-0.2-1-0.8-0.9-1.4c0.1-0.7,0.2-1.4,0.2-2.1c0-6.6-5.4-12-12-12c-5.1,0-9.7,3.2-11.3,8.1
		c-0.1,0.3-0.4,0.6-0.7,0.7c-0.3,0.1-0.7,0.2-1,0c-1-0.4-2.1-0.6-3.1-0.6c-3.8,0-7.1,2.5-8.2,6.1c-0.2,0.6-0.8,1-1.4,0.9
		C696.5-629.4,696.1-629.5,695.8-629.5z"/>
</g>
<g>
	<path class="st1" d="M483.1-451.8H450c-5.5,0-10-5-10-11.2c0-4.6,2.5-8.7,6.3-10.4c0-0.5-0.1-1-0.1-1.5c0-8.2,5.9-14.8,13.1-14.8
		c5.2,0,9.8,3.4,11.9,8.7c0.8-0.2,1.6-0.3,2.4-0.3c4.1,0,7.8,2.9,9.3,7.1c0.1,0,0.2,0,0.3,0c5.5,0,10,5,10,11.2
		C493.1-456.8,488.6-451.8,483.1-451.8z M459.2-487.2c-5.8,0-10.5,5.5-10.5,12.3c0,0.7,0.1,1.4,0.2,2.1c0.1,0.6-0.3,1.2-0.9,1.4
		c-3.2,1-5.5,4.5-5.5,8.4c0,4.8,3.3,8.7,7.4,8.7h33.2c4.1,0,7.4-3.9,7.4-8.7s-3.3-8.7-7.4-8.7c-0.3,0-0.6,0-1,0.1
		c-0.6,0.1-1.3-0.3-1.4-0.9c-0.9-3.7-3.9-6.2-7.1-6.2c-0.9,0-1.8,0.2-2.7,0.6c-0.3,0.1-0.7,0.1-1,0c-0.3-0.2-0.6-0.4-0.7-0.8
		C467.7-483.9,463.7-487.2,459.2-487.2z"/>
</g>
<g>
	<path class="st0" d="M818.8-568.1c-8.4,0-15.2-6.8-15.2-15.2s6.8-15.2,15.2-15.2c3,0,5.9,0.9,8.3,2.4c0.5-9.1,8.1-16.4,17.4-16.4
		c9.6,0,17.4,7.8,17.4,17.4c0,0.8-0.1,1.5-0.2,2.3c0.4,0,0.7-0.1,1.1-0.1c6.8,0,12.3,5.5,12.3,12.3s-5.5,12.3-12.3,12.3h-44V-568.1z
		"/>
	<path class="st1" d="M862.7-566.9h-44c-9.1,0-16.4-7.4-16.4-16.4c0-9.1,7.4-16.4,16.4-16.4c2.5,0,5,0.6,7.2,1.7
		c1.5-8.9,9.2-15.6,18.4-15.6c10.3,0,18.7,8.4,18.7,18.7c0,0.3,0,0.6,0,1c7.4,0.2,13.3,6.2,13.3,13.6
		C876.3-573,870.2-566.9,862.7-566.9z M818.8-597.2c-7.7,0-13.9,6.2-13.9,13.9s6.2,13.9,13.9,13.9h44c6.1,0,11.1-5,11.1-11.1
		s-5-11.1-11.1-11.1c-0.3,0-0.6,0-1,0.1c-0.4,0-0.8-0.1-1-0.4c-0.3-0.3-0.4-0.7-0.3-1c0.1-0.7,0.1-1.4,0.1-2.1
		c0-8.9-7.2-16.1-16.1-16.1c-8.5,0-15.6,6.7-16.1,15.2c0,0.4-0.3,0.9-0.7,1.1c-0.4,0.2-0.9,0.2-1.3-0.1
		C824.1-596.4,821.5-597.2,818.8-597.2z"/>
</g>
<g>
	<path class="st3" d="M571.2-421.4H624c4.3,0,8.3,2.2,10.6,5.8l17.2,26.7c1.3,2.1-0.1,4.8-2.6,4.9l-47.7,0.5"/>
	<path class="st1" d="M601.6-382.3v-2.5l47.7-0.5c0.7,0,1.3-0.4,1.6-1s0.3-1.3-0.1-1.9l-17.2-26.7c-2.1-3.3-5.7-5.2-9.6-5.2h-52.8
		v-2.5H624c4.8,0,9.1,2.4,11.7,6.4l17.3,26.6c0.9,1.4,1,3.1,0.2,4.5s-2.2,2.3-3.9,2.3L601.6-382.3z"/>
</g>
<g>
	<path class="st3" d="M524.9-382.8l-46.9,0.5c-2.5,0-4-2.7-2.7-4.8l17.9-28.4c2.3-3.7,6.4-5.9,10.7-5.9h52.3"/>
	<path class="st1" d="M478-381c-1.6,0-3.1-0.8-3.9-2.3c-0.8-1.4-0.8-3.1,0.1-4.5l17.9-28.4c2.6-4.1,7-6.5,11.8-6.5h52.3v2.5h-52.3
		c-3.9,0-7.5,2-9.6,5.3l-17.9,28.4c-0.4,0.6-0.4,1.3-0.1,1.9s1,1,1.7,1l0,0l46.9-0.5v2.5L478-381L478-381z"/>
</g>
<g>
	<path class="st1" d="M602.3-376.5h-7.1c-0.9,0-1.8-0.4-2.4-1.1l-29-34.3c-0.2-0.2-0.4-0.2-0.5-0.2l0,0c-0.1,0-0.3,0-0.5,0.2
		l-28.3,34.2c-0.6,0.7-1.5,1.1-2.4,1.1h-7.2c-1.2,0-2.3-0.7-2.9-1.8c-0.5-1.1-0.4-2.4,0.4-3.3l38.4-47.6c0.6-0.7,1.5-1.2,2.4-1.2
		l0,0c1,0,1.8,0.4,2.4,1.2l0,0l39,47.6c0.8,1,0.9,2.2,0.4,3.4C604.6-377.2,603.5-376.5,602.3-376.5z M563.3-414.7
		c0.9,0,1.8,0.4,2.4,1.1l29,34.3c0.1,0.1,0.3,0.2,0.5,0.2h7.1c0.4,0,0.5-0.3,0.6-0.4s0.1-0.4-0.1-0.7l-39-47.6
		c-0.2-0.2-0.4-0.2-0.5-0.2l0,0c-0.1,0-0.3,0-0.5,0.2l-38.4,47.6c-0.2,0.3-0.1,0.6-0.1,0.7c0.1,0.1,0.2,0.4,0.6,0.4h7.2
		c0.2,0,0.4-0.1,0.5-0.2l28.3-34.2C561.5-414.2,562.4-414.7,563.3-414.7L563.3-414.7z"/>
</g>
<g>
	<path class="st1" d="M639.2-293H485.9c-0.7,0-1.3-0.6-1.3-1.3v-88c0-0.7,0.6-1.3,1.3-1.3s1.3,0.6,1.3,1.3v86.8H638v-88.4
		c0-0.7,0.6-1.3,1.3-1.3s1.3,0.6,1.3,1.3v89.6C640.5-293.6,639.9-293,639.2-293z"/>
</g>
<g>
	<path class="st2" d="M511.1-331.6h-3.7c-5.8,0-10.5-4.7-10.5-10.5v-13.1c0-5.8,4.7-10.5,10.5-10.5h3.7c5.8,0,10.5,4.7,10.5,10.5
		v13.1C521.6-336.3,516.8-331.6,511.1-331.6z"/>
	<path class="st1" d="M514.9-330.4h-11.4c-4.4,0-7.9-3.5-7.9-7.9v-20.9c0-4.4,3.5-7.9,7.9-7.9h11.4c4.4,0,7.9,3.5,7.9,7.9v20.9
		C522.8-333.9,519.3-330.4,514.9-330.4z M503.5-364.5c-3,0-5.4,2.4-5.4,5.4v20.9c0,3,2.4,5.4,5.4,5.4h11.4c3,0,5.4-2.4,5.4-5.4
		v-20.9c0-3-2.4-5.4-5.4-5.4H503.5z"/>
</g>
<g>
	<path class="st2" d="M618.6-331.6h-3.7c-5.8,0-10.5-4.7-10.5-10.5v-13.1c0-5.8,4.7-10.5,10.5-10.5h3.7c5.8,0,10.5,4.7,10.5,10.5
		v13.1C629.1-336.3,624.3-331.6,618.6-331.6z"/>
	<path class="st1" d="M622.4-330.4H611c-4.4,0-7.9-3.5-7.9-7.9v-20.9c0-4.4,3.5-7.9,7.9-7.9h11.4c4.4,0,7.9,3.5,7.9,7.9v20.9
		C630.3-333.9,626.8-330.4,622.4-330.4z M611-364.5c-3,0-5.4,2.4-5.4,5.4v20.9c0,3,2.4,5.4,5.4,5.4h11.4c3,0,5.4-2.4,5.4-5.4v-20.9
		c0-3-2.4-5.4-5.4-5.4H611z"/>
</g>
<g>
	<path class="st2" d="M553.8-362h19v-16.4c0-5.2-4.2-9.5-9.5-9.5l0,0c-5.2,0-9.5,4.2-9.5,9.5V-362z"/>
	<path class="st1" d="M574-360.7h-21.5v-17.7c0-5.9,4.8-10.8,10.8-10.8s10.8,4.8,10.8,10.8L574-360.7L574-360.7z M555.1-363.2h16.4
		v-15.2c0-4.5-3.7-8.2-8.2-8.2s-8.2,3.7-8.2,8.2V-363.2z"/>
</g>
<g>
	<path class="st6" d="M547.5-294.3v-44.9c0-3.1,2.6-5.7,5.8-5.7H572c3.2,0,5.8,2.5,5.8,5.7v44.9"/>
	<path class="st1" d="M579.1-294.3h-2.5v-44.9c0-2.4-2-4.4-4.5-4.4h-18.8c-2.5,0-4.5,2-4.5,4.4v44.9h-2.5v-44.9
		c0-3.8,3.2-6.9,7.1-6.9H572c3.9,0,7.1,3.1,7.1,6.9V-294.3z"/>
</g>
<g>
	<path class="st1" d="M532.9-293c-0.7,0-1.3-0.6-1.3-1.3v-83.5c0-0.7,0.6-1.3,1.3-1.3s1.3,0.6,1.3,1.3v83.5
		C534.2-293.6,533.6-293,532.9-293z"/>
</g>
<g>
	<path class="st1" d="M594.3-293c-0.7,0-1.3-0.6-1.3-1.3v-83.5c0-0.7,0.6-1.3,1.3-1.3s1.3,0.6,1.3,1.3v83.5
		C595.6-293.6,595-293,594.3-293z"/>
</g>
<g>
	<path class="st1" d="M450.3-104H290c-27.5,0-49.8-17.5-49.8-39v-10.3c0-16.6-17.5-30.1-39.1-30.1H63.2c-24.8,0-44.9-15.8-44.9-35.2
		V-272c-0.1-5.3,2.1-10.4,6.2-14.6c5.7-5.8,14.2-9.1,23.5-9.1h437.9v2.5H48c-8.6,0-16.5,3-21.7,8.3c-3.7,3.7-5.6,8.1-5.5,12.8v53.4
		c0,18,19,32.7,42.4,32.7h137.9c23,0,41.6,14.6,41.6,32.6v10.3c0,20.1,21.2,36.5,47.3,36.5h160.3V-104z"/>
</g>
<g>
	<path class="st7" d="M80.7-380.3L80.7-380.3c7.4,0,14,4.7,16.3,11.7l7.5,22.6c3.7,11.1-4.6,22.6-16.3,22.6H74.9
		c-11.2,0-19.4-10.6-16.6-21.4l5.8-22.6C66-375,72.9-380.3,80.7-380.3z"/>
	<path class="st1" d="M88.2-322.1H74.9c-5.7,0-11-2.6-14.6-7.1c-3.5-4.5-4.7-10.3-3.3-15.9l5.8-22.6c2.1-8.2,9.4-13.8,17.9-13.8
		c7.9,0,15,5.1,17.5,12.6l7.5,22.6c1.9,5.7,1,11.7-2.5,16.6C99.7-324.9,94.2-322.1,88.2-322.1z M80.7-379c-7.3,0-13.6,4.9-15.4,11.9
		l-5.8,22.6c-1.2,4.8-0.2,9.8,2.8,13.7c3,3.9,7.6,6.2,12.6,6.2h13.3c5.2,0,9.9-2.4,12.9-6.6s3.8-9.4,2.2-14.3l-7.5-22.6
		C93.6-374.7,87.6-379,80.7-379z"/>
</g>
<g>
	<path class="st7" d="M416.5-380.3L416.5-380.3c7.4,0,14,4.7,16.3,11.7l7.5,22.6c3.7,11.1-4.6,22.6-16.3,22.6h-13.3
		c-11.2,0-19.4-10.6-16.6-21.4l5.8-22.6C401.8-375,408.7-380.3,416.5-380.3z"/>
	<path class="st1" d="M424-322.1h-13.3c-5.7,0-11-2.6-14.6-7.1c-3.5-4.5-4.7-10.3-3.3-15.9l5.8-22.6c2.1-8.2,9.4-13.8,17.9-13.8
		c7.9,0,15,5.1,17.5,12.6l7.5,22.6c1.9,5.7,1,11.7-2.5,16.6C435.5-324.9,430-322.1,424-322.1z M416.5-379c-7.3,0-13.6,4.9-15.4,11.9
		l-5.8,22.6c-1.2,4.8-0.2,9.8,2.8,13.7c3,3.9,7.6,6.2,12.6,6.2H424c5.2,0,9.9-2.4,12.9-6.6s3.8-9.4,2.2-14.3l-7.5-22.6
		C429.4-374.7,423.4-379,416.5-379z"/>
</g>
<g>
	<path class="st7" d="M102.3-352.7l0.5-2.1c1.6-6.3,7.3-10.7,13.8-10.7l0,0c6.1,0,11.6,3.9,13.5,9.7l6.2,18.7
		c3.1,9.2-3.8,18.7-13.5,18.7h-11c-5.8,0-10.6-3.4-12.9-8.2"/>
	<path class="st1" d="M122.8-317.1h-11c-6.1,0-11.4-3.4-14-8.9l2.3-1.1c2.2,4.6,6.7,7.5,11.7,7.5h11c4.2,0,8-2,10.5-5.4
		s3.1-7.7,1.8-11.7l-6.2-18.7c-1.8-5.3-6.7-8.9-12.3-8.9c-5.9,0-11.1,4-12.5,9.7l-0.5,2.1l-2.4-0.6l0.5-2.1
		c1.8-6.8,7.9-11.6,15-11.6c6.7,0,12.6,4.3,14.7,10.6l6.2,18.7c1.6,4.8,0.8,9.9-2.1,14C132.5-319.5,127.9-317.1,122.8-317.1z"/>
</g>
<g>
	<g>
		<path class="st3" d="M313.9-307.1v-49.3c0-1.8-1.5-3.3-3.3-3.3h-15.7c-1.8,0-3.3,1.5-3.3,3.3v49.3"/>
		<path class="st1" d="M315.2-307.1h-2.5v-49.3c0-1.1-0.9-2.1-2.1-2.1h-15.7c-1.1,0-2.1,0.9-2.1,2.1v49.3h-2.5v-49.3
			c0-2.5,2.1-4.6,4.6-4.6h15.7c2.5,0,4.6,2.1,4.6,4.6V-307.1z"/>
	</g>
	<g>
		<path class="st2" d="M216.4-361.7h62.5c1.8,0,3.3,1.5,3.3,3.3v11.5c0,1.8-1.5,3.3-3.3,3.3h-62.5"/>
		<path class="st1" d="M278.8-342.3h-62.5v-2.5h62.5c1.1,0,2.1-0.9,2.1-2.1v-11.5c0-1.1-0.9-2.1-2.1-2.1h-62.5v-2.5h62.5
			c2.5,0,4.6,2.1,4.6,4.6v11.5C283.4-344.3,281.4-342.3,278.8-342.3z"/>
	</g>
	<g>
		<path class="st2" d="M350.4-359.5h-22c-1.8,0-3.3,1.5-3.3,3.3v18.5c0,1.8,1.5,3.3,3.3,3.3h22"/>
		<path class="st1" d="M350.4-333.1h-22c-2.5,0-4.6-2.1-4.6-4.6v-18.5c0-2.5,2.1-4.6,4.6-4.6h22v2.5h-22c-1.1,0-2.1,0.9-2.1,2.1
			v18.5c0,1.1,0.9,2.1,2.1,2.1h22V-333.1z"/>
	</g>
	<g>
		<rect x="258.2" y="-361.7" class="st8" width="2.5" height="18.2"/>
	</g>
	<g>
		<rect x="235.6" y="-361.7" class="st8" width="2.5" height="17.9"/>
	</g>
	<g>
		<path class="st8" d="M256.3-294.7c-6.5,0-11.9-5.3-11.9-11.9s5.3-11.9,11.9-11.9c6.5,0,11.9,5.3,11.9,11.9
			S262.8-294.7,256.3-294.7z M256.3-315.9c-5.1,0-9.3,4.2-9.3,9.3s4.2,9.3,9.3,9.3s9.3-4.2,9.3-9.3S261.4-315.9,256.3-315.9z"/>
	</g>
	<g>
		<path class="st8" d="M328.3-294.7c-6.5,0-11.9-5.3-11.9-11.9s5.3-11.9,11.9-11.9c6.5,0,11.9,5.3,11.9,11.9
			S334.9-294.7,328.3-294.7z M328.3-315.9c-5.1,0-9.3,4.2-9.3,9.3s4.2,9.3,9.3,9.3s9.3-4.2,9.3-9.3S333.5-315.9,328.3-315.9z"/>
	</g>
	<g>
		<path class="st8" d="M347-305.8h-8.1v-2.5h8.1c1.1,0,2.1-0.9,2.1-2.1v-57.8c0-1.1-0.9-2.1-2.1-2.1H219.7c-1.1,0-2.1,0.9-2.1,2.1
			v57.8c0,1.1,0.9,2.1,2.1,2.1h26v2.5h-26c-2.5,0-4.6-2.1-4.6-4.6v-57.8c0-2.5,2.1-4.6,4.6-4.6H347c2.5,0,4.6,2.1,4.6,4.6v57.8
			C351.6-307.9,349.6-305.8,347-305.8z"/>
	</g>
	<g>
		<rect x="266.9" y="-308.4" class="st8" width="50.8" height="2.5"/>
	</g>
</g>
<g>
	<path class="st1" d="M80.8-293c-0.7,0-1.3-0.6-1.3-1.3v-44.9c0-0.7,0.6-1.3,1.3-1.3s1.3,0.6,1.3,1.3v44.9
		C82.1-293.6,81.5-293,80.8-293z"/>
</g>
<g>
	<path class="st1" d="M116.7-293c-0.7,0-1.3-0.6-1.3-1.3v-37.2c0-0.7,0.6-1.3,1.3-1.3s1.3,0.6,1.3,1.3v37.2
		C117.9-293.6,117.4-293,116.7-293z"/>
</g>
<g>
	<path class="st1" d="M416.6-293c-0.7,0-1.3-0.6-1.3-1.3v-44.9c0-0.7,0.6-1.3,1.3-1.3s1.3,0.6,1.3,1.3v44.9
		C417.9-293.6,417.3-293,416.6-293z"/>
</g>
<g>
	<path class="st9" d="M330,958.7c-11.9-0.1-20.6-3.9-25.1-11.1c-4.6-7.3-4.2-17.6,0.9-27c3.6-6.5,5-12.2,4.4-17.2
		c-0.7-5.1-5.3-8.9-10.7-8.9h-8.3v-0.1H178.5c-23,0-41.7-17.9-41.7-39.8V388.3c0-22,18.7-39.8,41.7-39.8h495.1
		c5.3-0.1,9.9-3.9,10.6-8.9c0.6-4.8-0.8-10.6-4.4-17.2c-5.1-9.5-5.5-19.8-0.9-27c4.5-7.2,13.2-11,25.1-11.1
		c11.9,0.1,20.6,3.9,25.1,11.1c4.6,7.3,4.2,17.6-0.9,27c-3.6,6.5-5,12.2-4.4,17.2c0.7,5,5.2,8.8,10.5,8.9h93.6
		c23,0,41.7,17.9,41.7,39.8v251.8c0,5.2,4,9.6,9.3,10.2c0.8,0.1,1.5,0.1,2.4,0.1c4.5,0,9.8-1.4,15.6-4.3c5.2-2.6,10.7-3.9,16-3.9
		c14.8,0,23.8,10.1,23.9,27.1c-0.2,20-12.5,27-24,27l0,0c-5.2,0-10.7-1.3-15.9-3.9c-5.7-2.9-10.9-4.3-15.5-4.3
		c-0.8,0-1.7,0.1-2.5,0.2c-5.3,0.7-9.3,5.1-9.3,10.2v156.2c0,22-18.7,39.8-41.7,39.8H363.4v0.1h-2.9c-5.4,0-10,3.8-10.7,8.9
		c-0.6,4.8,0.8,10.6,4.4,17.2c5.1,9.5,5.5,19.8,0.9,27C350.6,954.8,341.9,958.7,330,958.7z"/>
	<path class="st1" d="M704,285.6c11.4,0.1,19.6,3.7,23.8,10.4c4.3,6.9,3.9,16.6-0.9,25.6c-3.7,6.7-5.2,12.8-4.5,18.1
		c0.8,5.7,5.9,10,12,10.1H828c22.2,0,40.2,17.3,40.2,38.4v247.7v2.9v1.3c0,5.9,4.6,10.9,10.6,11.7c0.8,0.1,1.7,0.2,2.5,0.2
		c4.8,0,10.3-1.5,16.3-4.5c5-2.5,10.3-3.8,15.3-3.8c13.9,0,22.3,9.6,22.4,25.6c-0.1,16-8.5,25.7-22.5,25.7c-5,0-10.2-1.3-15.2-3.7
		c-5.9-3-11.4-4.5-16.2-4.5c-0.9,0-1.8,0.1-2.7,0.2c-6,0.8-10.6,5.7-10.6,11.7v6.5l0,0v2.9v146.7c0,21.2-18,38.4-40.2,38.4h-463h-3
		v0.1h-1.4c-6.2,0-11.4,4.4-12.2,10.1c-0.7,5.1,0.8,11.2,4.5,18.1c4.9,9,5.3,18.8,1,25.6c-4.2,6.7-12.5,10.3-23.8,10.4
		c-11.4-0.1-19.6-3.7-23.8-10.4c-4.3-6.9-3.9-16.6,0.9-25.6c3.7-6.7,5.2-12.8,4.5-18.1c-0.8-5.7-6-10.1-12.2-10.1h-6.8V893h-3H178.5
		c-22.2,0-40.2-17.3-40.2-38.4V388.3c0-21.2,18.1-38.4,40.2-38.4h495.1c6.1-0.1,11.2-4.4,12-10.1c0.7-5.1-0.8-11.2-4.5-18.1
		c-4.9-9-5.3-18.8-1-25.6C684.4,289.4,692.6,285.7,704,285.6 M704,282.8c-29.2,0.2-35.3,22.4-25.5,40.2c3.9,7.3,4.7,12.6,4.2,16.3
		c-0.6,4.4-4.5,7.5-9.1,7.6H178.5c-23.9,0-43.2,18.5-43.2,41.3v466.4c0,22.8,19.4,41.3,43.2,41.3h111.1v0.1h9.8
		c4.6,0,8.6,3.2,9.2,7.6c0.5,3.7-0.2,9.1-4.2,16.3c-9.7,17.9-3.6,39.9,25.6,40.2c29.2-0.2,35.3-22.4,25.5-40.2
		c-3.9-7.3-4.7-12.6-4.2-16.3c0.6-4.4,4.6-7.6,9.2-7.6h4.4v-0.1H828c23.9,0,43.2-18.5,43.2-41.3V707.8l0,0v-9.4c0-4.4,3.4-8.2,8-8.8
		c0.7-0.1,1.5-0.1,2.3-0.1c3.7,0,8.6,1.1,14.8,4.1c5.4,2.7,11.1,4.1,16.6,4.1c13.5,0,25.3-8.7,25.5-28.5
		c-0.2-19.9-11.9-28.6-25.4-28.6c-5.5,0-11.2,1.4-16.6,4.1c-6.3,3.1-11.2,4.1-14.9,4.1c-0.8,0-1.5,0-2.2-0.1c-4.6-0.6-8-4.4-8-8.8
		v-4.2l0,0V388.3c0-22.8-19.4-41.3-43.2-41.3h-93.6c-4.5-0.1-8.5-3.2-9.1-7.6c-0.5-3.7,0.2-9.1,4.2-16.3
		C739.3,305.1,733.1,283.1,704,282.8L704,282.8z"/>
</g>
<path class="st10" d="M546.5,246.5c-33.9,0-61.5-27.6-61.5-61.5s27.6-61.5,61.5-61.5c33.9,0,61.5,27.6,61.5,61.5
	C608,219,580.4,246.5,546.5,246.5 M546.5,126.6c-32.2,0-58.5,26.2-58.5,58.5c0,32.2,26.2,58.5,58.5,58.5c32.2,0,58.5-26.2,58.5-58.5
	S578.7,126.6,546.5,126.6"/>
<path class="st9" d="M642.1,271.2c1.2-1.7,1.9-3.7,2.1-5.8c0.5-5.7-3-10.8-8.2-12.5c0.2-0.8,0.4-1.7,0.4-2.5c0-3.6-1.9-6.7-4.8-8.5
	v-2.1c0-19.9-14.7-36-32.9-36s-32.9,16.1-32.9,36v1.8c-3.1,1.7-5.2,5-5.2,8.8c0,0.8,0.1,1.7,0.4,2.5c-5.2,1.7-8.7,6.8-8.2,12.5
	c0.2,2.1,0.9,4.1,2.1,5.8c-1.8,1.5-3.1,3.5-3.8,5.8c-0.9,3.1-0.6,6.3,1,9.1c1.3,2.3,3.3,4.2,5.8,5.3h81.3l0,0c2.4-1,4.5-2.9,5.8-5.2
	C647.6,281,646.4,274.8,642.1,271.2"/>
<path class="st10" d="M557.8,292.6h-0.3l-0.3-0.1c-2.7-1.2-5-3.2-6.4-5.8c-1.7-3.1-2.1-6.7-1.1-10.1c0.6-2.1,1.8-4.1,3.3-5.6
	c-0.9-1.7-1.5-3.5-1.7-5.4c-0.5-5.7,2.8-11.2,8-13.4c-0.1-0.5-0.1-1.1-0.1-1.6c0-3.9,2-7.5,5.2-9.6v-1.1c0-20.6,15.3-37.3,34.2-37.3
	s34.2,16.7,34.2,37.3v1.4c3,2.1,4.8,5.5,4.8,9.2c0,0.6-0.1,1.1-0.2,1.7c5.2,2.2,8.5,7.7,8,13.4c-0.2,1.9-0.8,3.8-1.7,5.4
	c4.1,4.1,5.1,10.6,2.2,15.7c-1.4,2.6-3.7,4.7-6.4,5.8l-0.3,0.1L557.8,292.6L557.8,292.6z M553.2,285.4c1.1,2,2.8,3.6,4.9,4.6h80.7
	c2.1-0.9,3.8-2.6,4.9-4.6c2.4-4.4,1.4-10-2.5-13.2l-0.9-0.8l0.7-1c1-1.5,1.7-3.3,1.9-5.1c0.4-4.9-2.6-9.6-7.3-11.1l-1.2-0.4l0.3-1.2
	c0.2-0.7,0.3-1.4,0.3-2.2c0-3-1.5-5.7-4.1-7.3l-0.6-0.4v-2.8c0-19.1-14.2-34.6-31.5-34.6c-17.4,0-31.5,15.5-31.5,34.6v2.6l-0.7,0.4
	c-2.8,1.5-4.5,4.4-4.5,7.6c0,0.7,0.1,1.4,0.3,2.1l0.3,1.2l-1.2,0.4c-4.7,1.5-7.8,6.2-7.3,11.1c0.2,1.8,0.8,3.6,1.9,5.1l0.7,1
	l-0.9,0.8c-1.6,1.3-2.7,3.1-3.3,5.1C551.6,280.1,551.9,282.9,553.2,285.4"/>
<path class="st0" d="M554.1,348.9h89v-5.5c0-24.6-19.9-44.5-44.5-44.5s-44.5,19.9-44.5,44.5V348.9z"/>
<path class="st10" d="M644.5,348.9c0,0.7-0.6,1.3-1.3,1.3h-89c-0.7,0-1.3-0.6-1.3-1.3v-18.8c0-17.9,14.6-32.5,32.5-32.5h26.7
	c17.9,0,32.5,14.6,32.5,32.5v18.8 M555.5,347.6h86.3v-17.5c0-16.4-13.4-29.8-29.8-29.8h-26.7c-16.4,0-29.8,13.4-29.8,29.8V347.6z"/>
<path class="st11" d="M598.6,348.9L598.6,348.9c8.3,0,15.3-6.2,16.3-14.4l4.2-35h-41.3l4.5,35.1
	C583.3,342.8,590.3,348.9,598.6,348.9"/>
<path class="st10" d="M616.2,334.7c-1.1,8.9-8.6,15.6-17.6,15.6c-8.9,0-16.5-6.7-17.6-15.5l-4.7-36.6h44.3L616.2,334.7 M579.3,300.8
	l4.3,33.6c1,7.5,7.4,13.2,15,13.2s14.1-5.7,15-13.3l4-33.6L579.3,300.8L579.3,300.8z"/>
<path class="st0" d="M578.2,299.4v-0.3h1.8l0.9-0.2c4.7,0,8.5-3.8,8.5-8.5v-8.9h20.3v8.9c0,4.7,3.8,8.5,8.5,8.5l0.9,0.5l-1.9,15.3
	c-10.1,10.1-26.5,10.3-36.8,0.3l-0.6-0.6L578.2,299.4L578.2,299.4L578.2,299.4z"/>
<path class="st10" d="M618.1,315.7c-5.4,5.4-12.4,8-19.5,8c-6.9,0-13.9-2.6-19.2-7.7l-0.6-0.6c-0.2-0.2-0.4-0.5-0.4-0.8l-1.5-14.9
	c0-0.1,0-0.2-0.1-0.3c0-0.1,0-0.1,0-0.2v-0.1c-0.1-0.4,0.1-0.8,0.3-1.1c0.3-0.3,0.6-0.5,1-0.5h1.7l0.7-0.1c0.1,0,0.2,0,0.2,0
	c4,0,7.2-3.2,7.2-7.2v-8.9c0-0.7,0.6-1.3,1.3-1.3h20.3c0.7,0,1.3,0.6,1.3,1.3v8.9c0,4,3.2,7.2,7.2,7.2c0.2,0,0.5,0.1,0.7,0.2
	l0.9,0.5c0.5,0.3,0.7,0.8,0.7,1.3l-1.9,15.3C618.4,315.2,618.3,315.5,618.1,315.7 M581,313.9l0.2,0.2c9.6,9.3,25.1,9.3,34.6,0
	l1.8-13.9c-5.2-0.3-9.4-4.6-9.4-9.9v-7.6h-17.6v7.6c0,5.4-4.4,9.8-9.7,9.9l-0.7,0.1c-0.1,0-0.2,0-0.2,0h-0.3L581,313.9z"/>
<path class="st0" d="M573.1,234.3l10.4-8.4l15.4-12.4c0,0,8.2,6.6,15.5,12.4c5,4,9.6,7.6,10.8,8.4c0,0.1,0,0.1,0,0.2
	c0,7.8,0,15.6,0,23.4l0,0c0,0.1,0,0.2,0,0.2c0,14-11.7,25.3-26.1,25.3c-14.4,0-26.1-11.3-26.1-25.3V258c0-6.2,0-15.5,0-23.4
	L573.1,234.3L573.1,234.3z"/>
<path class="st10" d="M626.6,258.2c0,14.7-12.3,26.6-27.4,26.6c-15.1,0-27.4-11.9-27.4-26.6V258c0-4.3,0-10.2,0-16v-7.6
	c0-0.4,0.2-0.8,0.5-1l25.9-20.8c0.5-0.4,1.2-0.4,1.7,0c0.1,0.1,8.3,6.7,15.5,12.4c6.1,4.8,9.7,7.7,10.7,8.4c0.4,0.3,0.6,0.7,0.6,1.1
	v0.2v23.4L626.6,258.2L626.6,258.2 M574.5,234.9v7c0,5.8,0,11.7,0,16v0.2c0,13.2,11.1,24,24.7,24c13.6,0,24.7-10.7,24.7-24v-0.2
	v-0.1V235c-1.5-1.1-5-3.9-10.3-8.1c-5.9-4.7-12.4-9.9-14.7-11.7L574.5,234.9z"/>
<path class="st10" d="M617.9,241.2c-0.4,0-0.7-0.1-1-0.4c-0.1-0.1-0.2-0.2-0.3-0.4c-0.6-0.8-1.8-2.4-5.2-2.2c-0.3,0-0.6,0-0.9,0.1
	c-1.7,0.1-3.5,0.3-5.3-1.8c-0.5-0.6-0.4-1.4,0.1-1.9c0.6-0.5,1.4-0.4,1.9,0.1c0.9,1.1,1.6,1,3.1,0.9c0.3,0,0.6,0,1-0.1
	c4.8-0.2,6.8,2.4,7.4,3.3c0,0.1,0.1,0.1,0.1,0.2c0.5,0.5,0.5,1.4,0,1.9C618.5,241,618.2,241.2,617.9,241.2"/>
<path class="st10" d="M588.5,242.3c0,1.3-1,2.3-2.3,2.3s-2.3-1-2.3-2.3s1-2.3,2.3-2.3S588.5,241,588.5,242.3"/>
<path class="st10" d="M611.3,242.1c0,1.3-1,2.3-2.3,2.3s-2.3-1-2.3-2.3s1-2.3,2.3-2.3S611.3,240.8,611.3,242.1"/>
<path class="st10" d="M591.2,238.9c-0.3,0-0.6-0.1-0.9-0.3c-0.5-0.4-1.4-1.1-2.7-1.6c-3-1.2-5.6-0.8-6.1-0.7
	c-0.7,0.1-1.4-0.4-1.5-1.1c-0.1-0.7,0.4-1.4,1.1-1.5c0.6-0.1,3.9-0.6,7.5,0.9c1.3,0.5,2.5,1.3,3.5,2.1c0.6,0.5,0.6,1.3,0.1,1.9
	C591.9,238.7,591.6,238.9,591.2,238.9"/>
<path class="st10" d="M598.7,259.6c-0.2,0-0.4-0.1-0.7-0.2l-2.2-1.2c-1.6-0.9-2.3-2.8-1.6-4.5l3.2-8.2c0.3-0.7,1-1,1.7-0.8
	c0.7,0.3,1,1,0.8,1.7l-3.2,8.2c-0.2,0.4,0,1,0.4,1.2l2.2,1.2c0.6,0.4,0.9,1.2,0.5,1.8C599.6,259.4,599.1,259.6,598.7,259.6"/>
<path class="st12" d="M604.2,267c0,1.6-3.6,3.2-5.2,2.9c-1.6-0.3-4.1-1-3.4-2.5c0.3-0.5,1-2.5,2.5-3.1c0.1-0.1,1.2,0.4,1.4,0.4
	c0.3,0,0.9-0.7,1.1-0.6C602.5,264.8,604.2,265.7,604.2,267"/>
<path class="st10" d="M603.8,268.9c-1.1,1-3.1,1.7-4.4,1.7c-0.2,0-0.4,0-0.5,0c-2.2-0.4-3.5-1-3.9-1.9c-0.2-0.3-0.3-0.9,0-1.5
	c0-0.1,0.1-0.1,0.1-0.2c0.4-0.8,1.2-2.6,2.7-3.1c0.3-0.1,0.6,0,1.2,0.2c0.1,0,0.2,0.1,0.3,0.1l0.1-0.1c0.4-0.3,0.8-0.6,1.2-0.4
	c2.1,0.7,4.1,1.6,4.1,3.5C604.9,267.7,604.5,268.3,603.8,268.9 M598.6,265.2c-0.1,0-0.3-0.1-0.5-0.2c-0.9,0.4-1.5,1.8-1.8,2.4
	c-0.1,0.1-0.1,0.2-0.1,0.3c-0.1,0.2-0.1,0.3,0,0.3c0.2,0.3,1,0.9,2.9,1.2c0.8,0.2,2.8-0.4,3.9-1.3c0.4-0.3,0.6-0.6,0.6-0.9
	c0-0.9-1.7-1.7-3-2.1c-0.1,0-0.2,0.1-0.2,0.2c-0.3,0.2-0.5,0.4-0.8,0.4C599.3,265.5,599.1,265.4,598.6,265.2"/>
<path class="st0" d="M625.3,244c3.6-0.2,6.6,2.6,6.8,5.9c0.2,3.5-3,6.7-6.8,6.5V244z"/>
<path class="st10" d="M631.2,255.5c-1.5,1.5-3.5,2.3-5.5,2.3c-0.1,0-0.3,0-0.4,0l-1.3-0.1v-14.9l1.3-0.1c2.1-0.1,4.1,0.6,5.7,2
	c1.5,1.4,2.4,3.2,2.5,5.2C633.6,251.9,632.7,254,631.2,255.5 M629.2,246.7c-0.7-0.6-1.6-1.1-2.5-1.2v9.6c1-0.2,1.9-0.7,2.7-1.4
	c1-1,1.5-2.3,1.5-3.6C630.8,248.8,630.2,247.6,629.2,246.7"/>
<path class="st0" d="M573.1,256.3c-3.6,0.2-6.6-2.6-6.8-5.9c-0.2-3.5,3-6.7,6.8-6.5V256.3z"/>
<path class="st10" d="M573.2,257.7c-0.2,0-0.3,0-0.5,0c-1.9,0-3.8-0.7-5.2-2c-1.5-1.4-2.4-3.2-2.5-5.2c-0.1-2.1,0.7-4.1,2.3-5.6
	c1.6-1.6,3.7-2.4,5.9-2.3l1.3,0.1v14.9L573.2,257.7 M571.8,245.3c-1,0.2-1.9,0.7-2.7,1.4c-1,1-1.5,2.3-1.5,3.6
	c0.1,1.2,0.6,2.4,1.6,3.3c0.7,0.6,1.6,1.1,2.5,1.2v-9.5H571.8z"/>
<path class="st0" d="M630.5,275.8c0,0.2,0.1,0.4,0.1,0.7c-1.4,0.4-9.3,2.5-11,0.5c-0.1-0.1-0.5-0.6-0.4-1c0.3-0.8,2.1-1.1,4.7-1.5
	c1.4-0.3,3.5-0.7,6.1-1.2L630.5,275.8z"/>
<path class="st10" d="M631,277.7c-3.4,0.9-6.1,1.4-8.2,1.4c-2,0-3.5-0.4-4.2-1.3c-0.8-1-0.8-1.8-0.6-2.4c0.5-1.5,2.3-1.8,5.1-2.3
	l0.7-0.1c2-0.4,4-0.8,6-1.2c0.4-0.1,0.7,0,1,0.2s0.5,0.5,0.6,0.9l0.5,2.7l0.1,0.7C632.1,276.9,631.6,277.6,631,277.7 M623.5,275.8
	c-0.8,0.1-1.8,0.3-2.5,0.5c1.1,0.3,3.8,0.3,8.1-0.8l-0.1-0.8c-1.6,0.3-3.2,0.7-4.8,0.9L623.5,275.8"/>
<path class="st0" d="M650.9,348.8c0,0,7.2-37.9-10-68.3c-1.4-2.5-4.6-3.5-7.5-2.8c-4.1,0.9-6.6,5.1-5.5,9.2
	c4.2,14.3,6.3,48.3,0.2,61.9L650.9,348.8L650.9,348.8z"/>
<path class="st10" d="M652.2,349.1c-0.1,0.6-0.7,1.1-1.3,1.1h-22.8c-0.5,0-0.9-0.2-1.1-0.6c-0.2-0.4-0.3-0.9-0.1-1.3
	c2.7-6,4-16.7,3.7-30.1c-0.3-11.6-1.8-23.7-3.9-30.9c-0.7-2.3-0.3-4.8,0.9-6.8s3.3-3.5,5.6-4c3.6-0.8,7.3,0.6,8.9,3.5
	C659.3,310.3,652.2,348.7,652.2,349.1 M629.2,286.5c4.2,14.4,6,46.3,0.8,61h19.7c1-6.4,5.1-39.6-10.1-66.3c-1.2-2.1-4-2.6-6-2.2
	c-1.6,0.4-3,1.3-3.9,2.8C628.9,283.2,628.7,284.9,629.2,286.5"/>
<path class="st0" d="M623.3,266.7c-0.2,0.1-0.4,0.2-0.6,0.4c-0.9-1.2-5.8-7.6-4.7-10c0.1-0.2,0.3-0.7,0.8-0.7
	c0.9-0.1,1.8,1.5,3.2,3.8c0.8,1.2,2,3,3.5,5.2C624.8,265.7,624,266.2,623.3,266.7"/>
<path class="st10" d="M623.4,268.2c-0.2,0.1-0.5,0.2-0.7,0.2c-0.4,0-0.8-0.2-1.1-0.5c-4.2-5.5-5.9-9.3-4.8-11.4
	c0.6-1.1,1.4-1.4,1.9-1.5c1.6-0.1,2.6,1.5,4.1,3.8l0.4,0.6c1.1,1.7,2.2,3.4,3.4,5.1c0.2,0.3,0.3,0.7,0.2,1c-0.1,0.4-0.3,0.7-0.6,0.9
	L623.4,268.2 M620.6,260.2c-0.5-0.7-1-1.6-1.4-2.1c0.1,1.1,1.2,3.6,3.8,7.2l0.7-0.4c-0.9-1.4-1.8-2.7-2.7-4.1L620.6,260.2"/>
<path class="st0" d="M634.4,276.7c-2.4-4.9-4.2-8.5-6-10.5c-0.8-0.9-2.4-1.4-3.7-1.5c-2.4-0.2-5.6,2.6-5.1,5.4
	c0.4,2.4,3.6,4.4,7,3.3c1.1,1.6,2.2,3.2,3.3,4.8"/>
<path class="st10" d="M629.9,279.5c-0.4,0-0.8-0.2-1.1-0.6l-2.8-4.1c-1.7,0.3-3.5,0-4.9-0.9c-1.5-0.9-2.5-2.2-2.7-3.7
	c-0.3-1.6,0.3-3.2,1.5-4.6c1.4-1.5,3.3-2.4,5-2.3c1.5,0.1,3.4,0.7,4.6,2c1.9,2.1,3.8,5.9,6.2,10.8c0.3,0.7,0,1.5-0.6,1.8
	c-0.7,0.3-1.5,0-1.8-0.6c-2.3-4.6-4.1-8.3-5.8-10.2c-0.5-0.6-1.6-1-2.8-1.1c-0.9-0.1-2,0.5-2.8,1.4c-0.7,0.8-1,1.6-0.9,2.4
	c0.1,0.7,0.7,1.4,1.5,1.9c1.1,0.7,2.5,0.8,3.8,0.4c0.6-0.2,1.2,0,1.5,0.5l3.3,4.8c0.4,0.6,0.3,1.4-0.4,1.9
	C630.4,279.4,630.1,279.5,629.9,279.5"/>
<line class="st4" x1="629" y1="276.9" x2="623.6" y2="268.6"/>
<path class="st10" d="M629,278.3c-0.4,0-0.9-0.2-1.1-0.6l-5.4-8.3c-0.4-0.6-0.2-1.4,0.4-1.8c0.6-0.4,1.4-0.2,1.8,0.4l5.4,8.3
	c0.4,0.6,0.2,1.4-0.4,1.8C629.5,278.2,629.2,278.3,629,278.3"/>
<path class="st13" d="M545.6,216.7c2.3,0,4.6,2.1,4.5,4.5s-2,4.5-4.5,4.5c-2.3,0-4.6-2.1-4.5-4.5
	C541.3,218.7,543.1,216.7,545.6,216.7"/>
<path class="st10" d="M545.6,226.6c-1.5,0-2.9-0.6-4-1.8c-1-1.1-1.5-2.4-1.5-3.7c0.1-3,2.5-5.4,5.5-5.4c1.5,0,2.9,0.6,4,1.8
	c1,1.1,1.5,2.4,1.5,3.7C551,224.2,548.6,226.6,545.6,226.6 M545.6,217.7c-1.9,0-3.4,1.5-3.5,3.5c0,0.8,0.3,1.6,0.9,2.3
	c0.7,0.7,1.6,1.1,2.5,1.1c1.9,0,3.4-1.5,3.5-3.5c0-0.8-0.3-1.6-0.9-2.3S546.6,217.7,545.6,217.7"/>
<path class="st10" d="M545.6,226.7c-3,0-5.4-2.4-5.6-5.5c-0.1-1.4,0.5-2.8,1.5-3.8c1.1-1.1,2.6-1.8,4.1-1.8c3,0,5.4,2.4,5.6,5.5
	c0.1,1.4-0.5,2.8-1.5,3.8C548.6,226.1,547.1,226.7,545.6,226.7 M545.6,217.8c-0.9,0-1.8,0.4-2.5,1.1c-0.6,0.6-0.9,1.4-0.9,2.2
	c0.1,1.9,1.5,3.4,3.3,3.4c0.9,0,1.8-0.4,2.4-1.1c0.6-0.6,0.9-1.4,0.9-2.2C548.9,219.3,547.5,217.8,545.6,217.8"/>
<path class="st13" d="M545.6,147.6c-12.2,0-22.2,10-22.2,22.2c0,2.5,2,4.5,4.5,4.5s4.5-2,4.5-4.5c0-7.3,6-13.3,13.3-13.3
	s13.3,6,13.3,13.3s-6,13.3-13.3,13.3c-2.5,0-4.5,2-4.5,4.5v18.2c0,2.5,2,4.5,4.5,4.5s4.5-2,4.5-4.5v-14.2
	c10.1-2.1,17.7-11,17.7-21.7C567.8,157.6,557.9,147.6,545.6,147.6"/>
<path class="st10" d="M545.6,211.2c-3,0-5.5-2.4-5.5-5.5v-18.2c0-3,2.4-5.5,5.5-5.5c6.8,0,12.3-5.5,12.3-12.3s-5.5-12.3-12.3-12.3
	s-12.3,5.5-12.3,12.3c0,3-2.4,5.5-5.5,5.5c-3,0-5.5-2.4-5.5-5.5c0-12.8,10.4-23.2,23.2-23.2c12.8,0,23.2,10.4,23.2,23.2
	c0,10.7-7.4,20-17.7,22.5v13.4C551.1,208.7,548.7,211.2,545.6,211.2 M545.6,155.5c7.9,0,14.3,6.4,14.3,14.3
	c0,7.9-6.4,14.3-14.3,14.3c-1.9,0-3.5,1.6-3.5,3.5v18.2c0,1.9,1.6,3.5,3.5,3.5s3.5-1.6,3.5-3.5v-15l0.8-0.2
	c9.8-2,16.9-10.7,16.9-20.8c0-11.7-9.5-21.2-21.2-21.2s-21.2,9.5-21.2,21.2c0,1.9,1.6,3.5,3.5,3.5c1.9,0,3.5-1.6,3.5-3.5
	C531.4,161.9,537.8,155.5,545.6,155.5"/>
<path class="st10" d="M593.4,269.7c-0.2,0-0.4-0.1-0.6-0.3c-0.2-0.3-0.1-0.7,0.2-0.9c6.4-3.8,12.5-1.8,12.8-1.7
	c0.4,0.1,0.5,0.5,0.4,0.8s-0.5,0.5-0.8,0.4c-0.1,0-5.8-1.8-11.7,1.6C593.7,269.7,593.6,269.7,593.4,269.7"/>
<g>
	<path class="st1" d="M800.9,348.2h-3V174.6c0-15.2-12.4-27.6-27.6-27.6c-18.7,0-33.9-15.2-33.9-33.9V-46.6h3v159.7
		c0,17,13.8,30.9,30.9,30.9c16.9,0,30.6,13.7,30.6,30.6V348.2z"/>
</g>
</svg>
