<?xml version="1.0" encoding="utf-8"?>
<!-- Generator: Adobe Illustrator 22.1.0, SVG Export Plug-In . SVG Version: 6.00 Build 0)  -->
<svg version="1.1" id="Capa_1" xmlns="http://www.w3.org/2000/svg" xmlns:xlink="http://www.w3.org/1999/xlink" x="0px" y="0px"
	 viewBox="0 0 1000 821" style="enable-background:new 0 0 1000 821;" xml:space="preserve">
<style type="text/css">
	.st0{fill:#FFFFFF;}
	.st1{fill:#232322;}
	.st2{fill:#00B0B9;}
	.st3{fill:#FC4C02;}
	.st4{fill:none;}
	.st5{fill:#006CB0;}
	.st6{fill:#FFC600;}
	.st7{fill:#84BD00;}
	.st8{fill:#08090A;}
	.st9{fill:#79B8BB;}
	.st10{fill:#222221;}
	.st11{fill:#79B7B9;}
	.st12{fill:#A1BC3E;}
	.st13{fill:#F4D832;}
	.st14{fill:#D8863D;}
</style>
<g>
	<path class="st0" d="M929.2,820H514.9c-34.2,0-62.2-21.4-62.2-47.4v-69.2c0-26.1,28-47.4,62.2-47.4h416.6c33,0,60,20.6,60,45.8
		v70.8C991.4,798.7,963.4,820,929.2,820z"/>
	<path class="st1" d="M952.1,821H492c-22.4,0-40.6-13.9-40.6-31V686c0-17.1,18.2-31,40.6-31h461.5c21.6,0,39.2,13.4,39.2,29.9V790
		C992.7,807.1,974.5,821,952.1,821z M492,656.9c-21,0-38.1,13-38.1,29.1V790c0,16,17.1,29.1,38.1,29.1h460.1c21,0,38.1-13,38.1-29.1
		V684.9c0-15.4-16.5-28-36.7-28H492z"/>
</g>
<g>
	<g>
		<path class="st2" d="M783.7,421.1c-5.7-0.6-13-0.8-21.2,0.4c-2.3,0.3-33.3,6.8-38.3,47.9c-0.1,0.6-0.1,1.6-0.1,2.2l0,0V503
			c0,0.4-0.7,0.5-0.7,0l-6.9-66.6c-0.9-8.8-8.8-15.3-17.7-14.3l-1.9,0.2c-8.8,0.9-15.3,8.8-14.3,17.7l11.5,85.6
			c0.3,2.1,2,3.6,4.1,3.6c20.4,0,120.1,0,142.5,0c2.2,0,4-1.8,4-4v-44.8c0-6.7-0.7-13.4-2.2-19.9
			C835.9,432.1,818.5,421.1,783.7,421.1z"/>
		<path class="st1" d="M822.1,530.6c-38.9,0-113.9,0-123.9,0c-2.7,0-5-2-5.4-4.7l-11.5-85.6c-0.5-4.6,0.9-9.2,3.8-12.8
			c2.9-3.6,7.1-5.8,11.7-6.3l1.9-0.2c4.6-0.5,9.1,0.9,12.7,3.8c3.6,2.9,5.8,7.1,6.3,11.7l5.1,49v-13.8c0-0.6,0.1-1.7,0.1-2.4
			c2.6-21.8,12.7-33.9,20.6-40.1c9.6-7.6,18.6-8.9,18.7-8.9c7.1-1,14.3-1.1,21.5-0.4c36,0,53.3,11.7,60,40.5
			c1.5,6.4,2.2,13.2,2.2,20.2v44.8c0,2.9-2.4,5.3-5.3,5.3C836.7,530.6,830.1,530.6,822.1,530.6z M700.5,423.4c-0.5,0-1,0-1.6,0.1
			l-1.9,0.2c-3.9,0.4-7.5,2.3-10,5.4s-3.6,6.9-3.2,10.9l11.5,85.6c0.2,1.4,1.4,2.5,2.9,2.5c12.1,0,119.1,0,142.5,0
			c1.5,0,2.8-1.2,2.8-2.8v-44.8c0-6.9-0.7-13.5-2.2-19.6c-6.3-27.3-23-38.5-57.6-38.5h-0.1c-7-0.7-14-0.6-20.9,0.4
			c-0.1,0-8.6,1.4-17.5,8.4c-11,8.6-17.6,21.6-19.7,38.4c-0.1,0.5-0.1,1.5-0.1,2.1v31.4c0,0.9-0.7,1.6-1.5,1.6
			c-0.9,0-1.6-0.6-1.7-1.4l-6.9-66.6c-0.4-3.9-2.3-7.5-5.4-10C707.1,424.5,703.9,423.4,700.5,423.4z"/>
	</g>
	<g>
		<path class="st3" d="M832.8,343.4c0,38.3-17.9,35.2-48.6,35.2c-30.7,0-53.5,4.8-53.5-36.7c0-30.7,21.4-50.7,52.1-50.7
			S832.8,312.7,832.8,343.4z"/>
		<path class="st1" d="M768,380c-12.4,0-22.9-1-29.8-7.8c-6-5.9-8.8-15.6-8.8-30.4c0-31.1,21.4-52,53.4-52c15.3,0,28.2,5.2,37.4,15
			c9,9.6,13.8,22.9,13.8,38.5c0,14.5-2.6,23.9-8.1,29.3c-7.5,7.4-19.8,7.3-35.4,7.2c-2.1,0-4.2,0-6.4,0c-2.9,0-5.8,0-8.6,0.1
			C773,380,770.5,380,768,380z M782.8,292.4c-30.4,0-50.8,19.9-50.8,49.4c0,13.9,2.6,23.2,8,28.6c7.5,7.4,19.9,7.2,35.5,7
			c2.8,0,5.7-0.1,8.7-0.1c2.2,0,4.4,0,6.4,0c15.6,0.1,26.9,0.2,33.6-6.5c5-5,7.3-13.7,7.3-27.5C831.6,312.9,812,292.4,782.8,292.4z"
			/>
	</g>
	<g>
		<path class="st0" d="M795.4,404.6h-28.2v16.2c0,3.9,2.2,7.4,5.7,9.1c2.2,1.1,5,1.9,8.3,1.9c3.4,0,6.2-0.9,8.5-1.9
			c3.5-1.7,5.7-5.2,5.7-9.1V404.6z"/>
		<path class="st1" d="M781.3,433.1C781.3,433.1,781.2,433.1,781.3,433.1c-3.2,0-6.1-0.7-9-2.1c-3.9-1.9-6.4-5.9-6.4-10.3v-17.5
			h30.8v17.5c0,4.4-2.5,8.4-6.5,10.3C787.4,432.4,784.4,433.1,781.3,433.1z M768.4,405.8v15c0,3.4,2,6.5,5,8
			c2.5,1.2,5.1,1.8,7.8,1.8s5.4-0.6,7.9-1.8c3.1-1.5,5-4.6,5-8v-15H768.4z"/>
	</g>
	<g>
		<path class="st0" d="M823.3,369.5c0-14,0.1-27.9,0.1-41.9c-28-3.2-56-6.4-84-9.7c0,17.2,0.1,34.4,0.1,51.6l0,0c0,0.1,0,0.3,0,0.4
			l0,0c0,22.4,18.8,40.6,41.9,40.6l0,0c23.1,0,41.9-18.2,41.9-40.6C823.3,369.8,823.3,369.6,823.3,369.5z"/>
		<path class="st1" d="M781.4,411.8c-23.8,0-43.2-18.8-43.2-41.9c0-0.1,0-0.1,0-0.2v-0.2l-0.1-53l86.5,10l-0.1,43.4
			C824.6,393,805.2,411.8,781.4,411.8z M740.8,368.3L740.8,368.3v1.5c0,0.1,0,0.1,0,0.2c0,21.7,18.2,39.4,40.6,39.4
			c22.4,0,40.6-17.7,40.6-39.4v-0.4l0.1-40.8l-81.4-9.4L740.8,368.3z"/>
	</g>
	<g>
		<circle class="st1" cx="758" cy="357.2" r="3.3"/>
	</g>
	<g>
		<path class="st1" d="M811,344.1c-0.5,0-0.9-0.2-1.3-0.5c-0.7-0.7-4.6-4-9.6-3.1c-2.2,0.4-3.9,1.5-4.9,2.4c-0.8,0.7-2,0.6-2.7-0.2
			c-0.7-0.8-0.6-2,0.2-2.7c2-1.7,4.3-2.8,6.7-3.3c6.7-1.2,11.9,3.1,12.8,4c0.8,0.7,0.8,1.9,0.1,2.7
			C812.1,343.8,811.5,344.1,811,344.1z"/>
	</g>
	<g>
		<g>
			<path class="st3" d="M826.3,332.9c-14,2.2-22.2-0.9-27.2-4.4c-7.9-5.4-12-14.8-15.1-13.6c-1.8,0.7-2,4.9-2,6.6
				c-0.2,5.6,2.5,9.5,1.6,10c-0.6,0.4-2.3-1-3.6-2.7c-4.9-5.9-3.3-12.2-5.5-13.1c-2.7-1-6,7.7-12.7,12.4
				c-11.3,7.8-22.6,9.1-27.9,9.4l4.6-21.1l30.1-11.6l42.3,2.8l11.1,7.3l3,5.3L826.3,332.9z"/>
		</g>
		<g>
			<path class="st0" d="M734.8,337.6c5.3-0.3,16.6-1.6,27.9-9.4c6.7-4.7,10-13.4,12.7-12.4c2.3,0.9,0.6,7.2,5.5,13.1
				c1.4,1.7,3.1,3,3.6,2.7c0.8-0.5-1.8-4.4-1.6-10c0.1-1.7,0.2-5.8,2-6.6c3-1.2,7.2,8.1,15.1,13.6c5,3.4,13.2,6.5,27.2,4.4"/>
			<path class="st1" d="M734.8,338.9c-0.7,0-1.2-0.5-1.3-1.2c0-0.7,0.5-1.3,1.2-1.3c6.9-0.4,17.2-2.3,27.3-9.2
				c3.1-2.2,5.6-5.4,7.5-7.9c2.4-3.2,4.1-5.5,6.4-4.6c1.6,0.6,2,2.5,2.4,4.6c0.5,2.4,1.1,5.7,3.7,8.9c0.3,0.4,0.7,0.8,1,1.1
				c-0.6-1.8-1.3-4.5-1.2-7.7c0.1-2.2,0.2-6.7,2.8-7.7c2.4-1,4.6,1.6,7.5,5.1c2.3,2.7,5.1,6.1,8.7,8.6c6.4,4.5,15.3,5.9,26.3,4.2
				c0.7-0.1,1.3,0.4,1.4,1.1c0.1,0.7-0.4,1.3-1.1,1.4c-11.7,1.8-21.1,0.3-28.1-4.6c-3.9-2.7-6.9-6.2-9.2-9.1
				c-1.6-1.9-3.9-4.6-4.6-4.4c-0.3,0.1-1.1,0.9-1.2,5.4c-0.1,3.1,0.7,5.6,1.2,7.3c0.5,1.7,1,3-0.2,3.7c-1.5,1-3.7-1.1-5.3-2.9
				c-3-3.6-3.7-7.5-4.2-10c-0.2-1-0.5-2.6-0.8-2.7c-0.6,0-2.3,2.3-3.4,3.8c-2,2.7-4.6,6.1-8.1,8.5
				C752.9,336.5,742.1,338.5,734.8,338.9L734.8,338.9z"/>
		</g>
	</g>
	<g>
		<path class="st1" d="M783.6,374.2L783.6,374.2l-3.9-0.1c-1.7-0.1-3-1.4-3-3.1c0-0.9,0.3-3,0.8-6.4c0.3-2.2,0.7-4.5,0.8-6.1
			c0.1-0.7,0.7-1.2,1.4-1.1s1.2,0.7,1.1,1.4c-0.2,1.6-0.5,3.9-0.8,6.2c-0.4,2.5-0.8,5.3-0.8,6.1c0,0.3,0.3,0.6,0.6,0.6l3.9,0.1
			c0.7,0,1.2,0.6,1.2,1.3C784.8,373.6,784.3,374.2,783.6,374.2z"/>
	</g>
	<g>
		<path class="st1" d="M780.8,392.2c-0.1,0-0.3,0-0.4,0c-6-0.2-9-4.9-9.1-5.1c-0.6-0.9-0.3-2.1,0.6-2.6c0.9-0.6,2-0.3,2.6,0.6
			c0.1,0.1,2.2,3.2,6.1,3.3c4.3,0.1,6.4-3.2,6.4-3.2c0.5-0.9,1.7-1.2,2.6-0.6c0.9,0.5,1.2,1.7,0.6,2.6
			C790.1,387.4,787.1,392.2,780.8,392.2z"/>
	</g>
	<g>
		<path class="st0" d="M739.3,355.4c-5.7-0.3-10.5,4.1-10.7,9.3c-0.3,5.6,4.7,10.6,10.7,10.3V355.4z"/>
		<path class="st1" d="M738.8,376.2c-3,0-6-1.2-8.1-3.4c-2.2-2.2-3.4-5.2-3.3-8.2c0.1-2.8,1.5-5.6,3.7-7.6c2.3-2.1,5.3-3.1,8.4-3
			l1.2,0.1v22l-1.2,0.1C739.2,376.2,739,376.2,738.8,376.2z M738.1,356.6c-2,0.1-3.9,0.9-5.4,2.3c-1.7,1.5-2.7,3.7-2.8,5.8
			c-0.1,2.3,0.8,4.6,2.6,6.3c1.5,1.5,3.5,2.4,5.6,2.6L738.1,356.6L738.1,356.6z"/>
	</g>
	<g>
		<path class="st0" d="M823.8,374.9c5.7,0.3,10.5-4.1,10.7-9.3c0.3-5.6-4.7-10.6-10.7-10.3V374.9z"/>
		<path class="st1" d="M824.4,376.2c-0.2,0-0.5,0-0.7,0l-1.2-0.1v-22l1.2-0.1c3.2-0.2,6.4,1,8.7,3.3c2.2,2.2,3.4,5.2,3.3,8.2
			c-0.1,2.8-1.5,5.6-3.7,7.6C829.9,375.2,827.2,376.2,824.4,376.2z M825,356.6v17c2-0.1,3.9-0.9,5.4-2.3c1.7-1.5,2.7-3.7,2.8-5.8
			c0.1-2.3-0.8-4.6-2.6-6.3C829.1,357.7,827.1,356.8,825,356.6z"/>
	</g>
	<g>
		<path class="st1" d="M749.7,344.3c-0.5,0-1-0.2-1.4-0.6c-0.7-0.8-0.7-2,0.1-2.7c1-0.9,6.1-5.2,12.8-4c2.4,0.5,4.8,1.6,6.7,3.3
			c0.8,0.7,0.9,1.9,0.2,2.7c-0.7,0.8-1.9,0.9-2.7,0.2c-1-0.9-2.7-2-4.9-2.4c-5-0.9-8.8,2.4-9.6,3.1
			C750.6,344.1,750.2,344.3,749.7,344.3z"/>
	</g>
	<g>
		<circle class="st1" cx="802.6" cy="357.2" r="3.3"/>
	</g>
	<g>
		<path class="st0" d="M715.3,393c-0.6-0.5-1.3-0.6-2.1-0.3l0,0c-0.3,0.1-2.3,1.1-3.9,3c-1.9,2.4-3.1,6-3.5,7.4
			c-0.1,0.4-0.1,0.7-0.1,1.1c0.1,0.9,0,0.1,0,0c-0.1-0.3-0.4-1.5-0.5-1.9l-6.6-18.8c-0.6-1.7-2.4-2.8-4.2-2.5
			c-2.2,0.5-3.4,2.7-2.7,4.7l4.6,13.2c0.1,0.2-7.6-18.8-7.6-18.8c-0.6-1.7-2.4-2.8-4.2-2.5c-2.2,0.5-3.4,2.7-2.7,4.7l6.7,19.2
			c0.1,0.2-6.2-14.9-6.2-14.9c-0.5-1.5-2.1-2.5-3.7-2.2c-1.9,0.4-3,2.4-2.3,4.1l6,17c0.1,0.2-4.6-10.4-4.6-10.4
			c-0.6-1.6-2.4-2.5-4-1.9s-2.5,2.4-1.9,4l8.1,23.2c5,11.6,12.9,10.7,19.9,8.2c5.8-2.1,10.1-6.8,11-12.3c0.1-0.7,0.5-2.4,1-4.4
			c1.2-5.1,4.3-15.9,4.4-16.8C716.5,395.1,716.2,393.8,715.3,393z"/>
		<path class="st1" d="M692.3,431.9c-5,0-9.9-2.4-13.4-10.5v-0.1l-8.1-23.2c-0.8-2.3,0.4-4.8,2.7-5.6c1-0.3,2-0.3,3,0l-1.1-3.2
			c-0.4-1.2-0.3-2.5,0.3-3.6s1.7-1.9,2.9-2.2c0.8-0.2,1.7-0.1,2.4,0.2l-0.2-0.6c-0.5-1.3-0.3-2.8,0.3-4c0.7-1.2,1.9-2.1,3.2-2.4
			c2.4-0.5,4.8,0.9,5.6,3.3c0.3,0.7,0.6,1.5,0.9,2.3c0.7-1.2,1.9-2,3.2-2.3c2.4-0.5,4.8,0.9,5.6,3.3l5.8,16.6
			c0.6-1.6,1.6-3.4,2.7-4.9c1.8-2.1,4-3.2,4.5-3.4c1.2-0.4,2.4-0.2,3.3,0.6l0,0c1.2,1,1.7,2.8,1.5,3.7c-0.1,0.4-0.4,1.6-1.3,4.9
			c-1,3.8-2.4,8.9-3.1,12c-0.5,2-0.9,3.8-1,4.4c-1,5.9-5.6,11-11.8,13.2C697.9,431.1,695.1,431.9,692.3,431.9z M681.2,420.4
			c4.6,10.6,11.5,9.9,18.3,7.5c5.4-1.9,9.3-6.2,10.2-11.3c0.2-0.7,0.6-2.4,1-4.5c0.7-3.1,2.1-8.3,3.2-12.1c0.6-2,1.1-4.1,1.2-4.6
			c0-0.3-0.2-1-0.6-1.4c-0.2-0.1-0.4-0.3-0.8-0.1c0,0-1.9,0.8-3.4,2.7c-1.8,2.2-2.9,5.6-3.3,6.9c0,0.2-0.1,0.3-0.1,0.5
			c0.1,0.4,0.2,1.1-0.3,1.6l-0.6,0.6l-0.7-0.3c-0.7-0.2-0.8-0.8-0.9-1.3c0-0.2-0.1-0.4-0.2-0.7c-0.1-0.3-0.2-0.9-0.3-1l-6.6-18.8
			c-0.4-1.2-1.6-1.9-2.7-1.6c-0.7,0.1-1.2,0.6-1.6,1.2c-0.3,0.6-0.4,1.3-0.2,1.9l5.1,14.4l-1.2,0.4c-0.8,0.3-1.3-0.1-1.6-0.8l0,0
			l-0.1-0.2c-0.1-0.2-0.2-0.4-0.3-0.6l-7.2-18c-0.4-1.2-1.6-1.9-2.8-1.7c-0.7,0.1-1.2,0.6-1.6,1.2c-0.3,0.6-0.4,1.3-0.2,1.9
			l7.1,20.3l-1.1,0.4c-0.9,0.3-1.3-0.2-1.6-0.8l0,0V402c-0.1-0.2-0.1-0.3-0.2-0.5l-6-14.4c-0.3-0.9-1.3-1.5-2.2-1.3
			c-0.5,0.1-1,0.4-1.3,0.9s-0.3,1-0.1,1.6l6.4,18.2l-1.1,0.5c-0.9,0.4-1.4-0.3-1.7-0.8l0,0l0,0c-0.1-0.1-0.1-0.2-0.2-0.3l-0.5-1.2
			c-0.4-1-1-2.3-1.6-3.6l-2.3-5.3c-0.2-0.5-0.5-0.9-1-1.1s-1-0.2-1.5-0.1c-1,0.3-1.5,1.4-1.2,2.4L681.2,420.4z"/>
	</g>
</g>
<g>
	<line class="st4" x1="871.9" y1="529.3" x2="511.4" y2="529.3"/>
	<rect x="511.4" y="528.1" class="st1" width="360.5" height="2.5"/>
</g>
<g>
	<g>
		<path class="st3" d="M871.2,529.3c37.6,0,99.2,0,116.2,0c2.2,0,4-1.8,4-4v-44.8c0-6.7-0.7-13.4-2.2-19.9
			c-6.6-28.5-24-39.5-58.8-39.5c-5.7-0.6-13-0.8-21.2,0.4c-2,0.3-25.2,5.1-34.8,32.7c-2.4,6.8-3.4,14-3.4,21.2L871.2,529.3z"/>
		<path class="st1" d="M968.7,530.6c-26.6,0-69.9,0-97.5,0h-1.3l-0.3-55.2c0-7.6,1.1-14.9,3.5-21.6c10.3-29.6,35.6-33.5,35.9-33.5
			c7.1-1,14.3-1.1,21.5-0.4c36,0,53.3,11.7,60,40.5c1.5,6.4,2.2,13.2,2.2,20.2v44.8c0,2.9-2.4,5.3-5.3,5.3
			C983.3,530.6,976.8,530.6,968.7,530.6z M872.4,528.1c36.1,0,97.7,0,115,0c1.5,0,2.7-1.2,2.7-2.7v-44.8c0-6.9-0.7-13.5-2.2-19.6
			c-6.3-27.3-23-38.5-57.6-38.5h-0.1c-7-0.7-14-0.6-20.9,0.4c-0.2,0-24.2,4.1-33.8,31.9c-2.2,6.5-3.4,13.4-3.3,20.7L872.4,528.1z"/>
	</g>
	<g>
		<g>
			<path class="st5" d="M979.5,343.4c0-26.3-14.1-45.8-37.4-50.9c-33.3-7.3-64.7,18.7-64.7,52.9v65l0,0c0,5.6,4.5,10.1,10.1,10.1h66
				c14.3,0,25.9-11.6,25.9-25.8L979.5,343.4z"/>
			<path class="st1" d="M953.6,421.8h-66c-6.3,0-11.4-5.1-11.4-11.4v-65c0-16.9,7.6-32.7,20.7-43.3c12.9-10.4,29.5-14.3,45.5-10.8
				c23.7,5.2,38.4,25.2,38.4,52.1l0,0l-0.1,51.3C980.7,409.7,968.5,421.8,953.6,421.8z M930.9,292.5c-11.6,0-23,4-32.4,11.5
				c-12.6,10.1-19.8,25.2-19.8,41.3v65.1c0,4.9,4,8.9,8.9,8.9h66c13.5,0,24.6-11,24.6-24.6l0.1-51.3c0-25.7-13.9-44.7-36.4-49.6
				C938.2,292.9,934.5,292.5,930.9,292.5z"/>
		</g>
		<g>
			<path class="st0" d="M942.1,404.6h-28.2v16.2c0,3.9,2.2,7.4,5.7,9.1c2.2,1.1,5,1.9,8.3,1.9c3.4,0,6.2-0.9,8.5-1.9
				c3.5-1.7,5.7-5.2,5.7-9.1V404.6z"/>
			<path class="st1" d="M928,433.1C928,433.1,927.9,433.1,928,433.1c-3.2,0-6.1-0.7-9-2.1c-3.9-1.9-6.4-5.9-6.4-10.3v-17.5h30.8
				v17.5c0,4.4-2.5,8.4-6.5,10.3C934.1,432.4,931.1,433.1,928,433.1z M915.1,405.8v15c0,3.4,2,6.5,5,8c2.5,1.2,5.1,1.8,7.8,1.8
				s5.4-0.6,7.9-1.8c3.1-1.5,5-4.6,5-8v-15H915.1z"/>
		</g>
		<g>
			<path class="st0" d="M970.1,369.5c0-8.9,0-17.8,0-26.7c0-8.7-6.5-16-15.1-17c-16.6-1.9-33.2-3.8-49.8-5.7c-10.1-1.2-19,6.8-19,17
				l0.1,32.4l0,0c0,0.1,0,0.3,0,0.4l0,0c0,22.4,18.8,40.6,41.9,40.6l0,0c23.1,0,41.9-18.2,41.9-40.6
				C970.1,369.8,970.1,369.6,970.1,369.5z"/>
			<path class="st1" d="M928.2,411.8c-23.8,0-43.2-18.8-43.2-41.9c0-0.1,0-0.1,0-0.2v-0.2l-0.1-32.4c0-5.2,2.2-10.2,6.1-13.7
				c3.9-3.5,9.1-5.1,14.3-4.5l49.8,5.7c9.3,1.1,16.2,8.9,16.2,18.2v27.1C971.3,393,952,411.8,928.2,411.8z M887.5,368.3L887.5,368.3
				v1.5c0,0.1,0,0.1,0,0.2c0,21.7,18.2,39.4,40.6,39.4c22.4,0,40.6-17.7,40.6-39.4v-0.4v-26.7c0-8-6-14.8-14-15.7l-49.8-5.7
				c-4.5-0.5-9,0.9-12.3,3.9c-3.4,3-5.3,7.3-5.3,11.8L887.5,368.3z"/>
		</g>
		<g>
			<circle class="st1" cx="904.7" cy="357.2" r="3.3"/>
		</g>
		<g>
			<path class="st1" d="M957.8,343.7c-0.4,0-0.8-0.1-1.1-0.4c-0.7-0.7-4.7-4.1-9.8-3.1c-2.3,0.4-4,1.6-5.1,2.5
				c-0.7,0.6-1.7,0.5-2.2-0.2c-0.6-0.7-0.5-1.7,0.2-2.2c1.9-1.7,4.2-2.8,6.6-3.2c6.6-1.2,11.6,3.1,12.6,3.9c0.6,0.6,0.7,1.6,0.1,2.2
				C958.6,343.6,958.2,343.7,957.8,343.7z"/>
		</g>
		<g>
			<path class="st1" d="M930.3,374.2L930.3,374.2l-3.9-0.1c-1.7-0.1-3-1.4-3-3.1c0-0.9,0.3-3,0.8-6.4c0.3-2.2,0.7-4.5,0.8-6.1
				c0.1-0.7,0.7-1.2,1.4-1.1s1.2,0.7,1.1,1.4c-0.2,1.6-0.5,3.9-0.8,6.2c-0.4,2.5-0.8,5.3-0.8,6.1c0,0.3,0.3,0.6,0.6,0.6l3.9,0.1
				c0.7,0,1.2,0.6,1.2,1.3C931.6,373.6,931,374.2,930.3,374.2z"/>
		</g>
		<g>
			<path class="st1" d="M927.5,392.2c-0.1,0-0.3,0-0.4,0c-6-0.2-9-4.9-9.1-5.1c-0.6-0.9-0.3-2.1,0.6-2.6c0.9-0.6,2-0.3,2.6,0.6
				c0.1,0.1,2.2,3.2,6.1,3.3c4.3,0.1,6.4-3.2,6.4-3.2c0.5-0.9,1.7-1.2,2.6-0.6c0.9,0.5,1.2,1.7,0.6,2.6
				C936.8,387.4,933.8,392.2,927.5,392.2z"/>
		</g>
		<g>
			<path class="st0" d="M886,355.4c-5.7-0.3-10.5,4.1-10.7,9.3c-0.3,5.6,4.7,10.6,10.7,10.3V355.4z"/>
			<path class="st1" d="M885.5,376.2c-3,0-6-1.2-8.1-3.4c-2.2-2.2-3.4-5.2-3.3-8.2c0.1-2.8,1.5-5.6,3.7-7.6c2.3-2.1,5.3-3.1,8.4-3
				l1.2,0.1v22l-1.2,0.1C885.9,376.2,885.7,376.2,885.5,376.2z M884.8,356.6c-2,0.1-3.9,0.9-5.4,2.3c-1.7,1.5-2.7,3.7-2.8,5.8
				c-0.1,2.3,0.8,4.6,2.6,6.3c1.5,1.5,3.5,2.4,5.6,2.6L884.8,356.6L884.8,356.6z"/>
		</g>
		<g>
			<path class="st0" d="M970.5,374.9c5.7,0.3,10.5-4.1,10.7-9.3c0.3-5.6-4.7-10.6-10.7-10.3V374.9z"/>
			<path class="st1" d="M971.1,376.2c-0.2,0-0.5,0-0.7,0l-1.2-0.1v-22l1.2-0.1c3.2-0.2,6.4,1,8.7,3.3c2.2,2.2,3.4,5.2,3.3,8.2
				c-0.1,2.8-1.5,5.6-3.7,7.6C976.7,375.2,973.9,376.2,971.1,376.2z M971.7,356.6v17c2-0.1,3.9-0.9,5.4-2.3c1.7-1.5,2.7-3.7,2.8-5.8
				c0.1-2.3-0.8-4.6-2.6-6.3C975.8,357.7,973.8,356.8,971.7,356.6z"/>
		</g>
		<g>
			<path class="st1" d="M896.4,344c-0.4,0-0.9-0.2-1.2-0.5c-0.6-0.6-0.6-1.6,0.1-2.2c0.9-0.9,6-5.1,12.6-3.9
				c2.4,0.4,4.6,1.6,6.6,3.2c0.7,0.6,0.7,1.6,0.2,2.2c-0.6,0.7-1.6,0.7-2.2,0.2c-1-0.9-2.7-2.1-5.1-2.5c-5.1-0.9-9.1,2.5-9.8,3.1
				C897.2,343.9,896.8,344,896.4,344z"/>
		</g>
		<g>
			<circle class="st1" cx="949.3" cy="357.2" r="3.3"/>
		</g>
	</g>
</g>
<g>
	<g>
		<circle class="st6" cx="524.5" cy="231.2" r="22.5"/>
		<path class="st1" d="M524.5,254.9c-13.1,0-23.8-10.7-23.8-23.8s10.6-23.7,23.8-23.7c13.1,0,23.8,10.7,23.8,23.8
			S537.6,254.9,524.5,254.9z M524.5,209.9c-11.7,0-21.3,9.5-21.3,21.3s9.5,21.2,21.3,21.2s21.3-9.5,21.3-21.3
			S536.2,209.9,524.5,209.9z"/>
	</g>
	<g>
		<line class="st4" x1="524.5" y1="187.8" x2="524.5" y2="202.9"/>
		<rect x="523.2" y="187.8" class="st1" width="2.5" height="15"/>
	</g>
	<g>
		<line class="st4" x1="524.5" y1="259.5" x2="524.5" y2="274.5"/>
		<rect x="523.2" y="259.5" class="st1" width="2.5" height="15"/>
	</g>
	<g>
		<line class="st4" x1="481.7" y1="232.3" x2="496.7" y2="232.3"/>
		<rect x="481.7" y="231" class="st1" width="15" height="2.5"/>
	</g>
	<g>
		<line class="st4" x1="553.3" y1="232.3" x2="568.4" y2="232.3"/>
		<rect x="553.3" y="231" class="st1" width="15" height="2.5"/>
	</g>
	<g>
		<line class="st4" x1="493.8" y1="200.5" x2="504.5" y2="211.1"/>
		
			<rect x="497.9" y="198.3" transform="matrix(0.7071 -0.7071 0.7071 0.7071 0.6696 413.2082)" class="st1" width="2.5" height="15"/>
	</g>
	<g>
		<line class="st4" x1="544.5" y1="251.2" x2="555.1" y2="261.8"/>
		
			<rect x="548.5" y="249.1" transform="matrix(0.7071 -0.7071 0.7071 0.7071 -20.4079 463.896)" class="st1" width="2.5" height="15"/>
	</g>
	<g>
		<line class="st4" x1="555.1" y1="200.5" x2="544.5" y2="211.1"/>
		
			<rect x="542.3" y="204.6" transform="matrix(0.7071 -0.7071 0.7071 0.7071 15.453 449.0429)" class="st1" width="15" height="2.5"/>
	</g>
	<g>
		<line class="st4" x1="504.5" y1="251.2" x2="493.8" y2="261.8"/>
		
			<rect x="491.6" y="255.2" transform="matrix(0.7071 -0.7071 0.7071 0.7071 -35.161 427.9937)" class="st1" width="15" height="2.5"/>
	</g>
</g>
<g>
	<path class="st0" d="M628.4,309.3c8.4,0,15.2-6.8,15.2-15.2s-6.8-15.2-15.2-15.2c-3,0-5.9,0.9-8.3,2.4c-0.5-9.1-8.1-16.4-17.4-16.4
		c-9.6,0-17.4,7.8-17.4,17.4c0,0.8,0.1,1.5,0.2,2.3c-0.4,0-0.7-0.1-1.1-0.1c-6.8,0-12.3,5.5-12.3,12.3s5.5,12.3,12.3,12.3h44V309.3z
		"/>
	<path class="st1" d="M628.4,310.5h-44c-7.5,0-13.6-6.1-13.6-13.6c0-7.4,5.9-13.4,13.3-13.6c0-0.3,0-0.6,0-1
		c0-10.3,8.4-18.7,18.7-18.7c9.2,0,16.9,6.7,18.4,15.6c2.2-1.1,4.7-1.7,7.2-1.7c9.1,0,16.4,7.4,16.4,16.4S637.5,310.5,628.4,310.5z
		 M584.5,285.9c-6.1,0-11.1,5-11.1,11.1s5,11.1,11.1,11.1h44c7.7,0,13.9-6.2,13.9-13.9c0-7.7-6.2-13.9-13.9-13.9
		c-2.7,0-5.3,0.8-7.6,2.2c-0.4,0.2-0.9,0.3-1.3,0.1c-0.4-0.2-0.7-0.6-0.7-1.1c-0.5-8.5-7.6-15.2-16.1-15.2
		c-8.9,0-16.1,7.2-16.1,16.1c0,0.7,0,1.4,0.1,2.1c0,0.4-0.1,0.8-0.3,1c-0.3,0.3-0.6,0.4-1,0.4C585.1,285.9,584.8,285.9,584.5,285.9z
		"/>
</g>
<g>
	<path class="st0" d="M733.1,212.5c5.4,0,9.8-4.4,9.8-9.8c0-4.5-3-8.3-7.2-9.4c0.1-0.7,0.2-1.5,0.2-2.3c0-7.3-5.9-13.3-13.3-13.3
		c-5.8,0-10.7,3.7-12.5,8.9c-1.1-0.4-2.3-0.7-3.6-0.7c-4.5,0-8.2,3-9.4,7.1c-0.4-0.1-0.9-0.1-1.3-0.1c-5.4,0-9.8,4.4-9.8,9.8
		s4.4,9.8,9.8,9.8H733.1z"/>
	<path class="st1" d="M733.1,213.8h-37.3c-6.1,0-11.1-5-11.1-11.1s5-11.1,11.1-11.1c0.2,0,0.3,0,0.5,0c1.7-4.2,5.7-7,10.3-7
		c1,0,1.9,0.1,2.9,0.4c2.3-5.2,7.5-8.6,13.3-8.6c8,0,14.5,6.5,14.5,14.5c0,0.5,0,0.9-0.1,1.4c4.2,1.6,7,5.7,7,10.3
		C744.2,208.8,739.2,213.8,733.1,213.8z M695.8,194.2c-4.7,0-8.5,3.8-8.5,8.5s3.8,8.5,8.5,8.5h37.3c4.7,0,8.5-3.8,8.5-8.5
		c0-3.8-2.6-7.2-6.2-8.2c-0.6-0.2-1-0.8-0.9-1.4c0.1-0.7,0.2-1.4,0.2-2.1c0-6.6-5.4-12-12-12c-5.1,0-9.7,3.2-11.3,8.1
		c-0.1,0.3-0.4,0.6-0.7,0.7c-0.3,0.1-0.7,0.2-1,0c-1-0.4-2.1-0.6-3.1-0.6c-3.8,0-7.1,2.5-8.2,6.1c-0.2,0.6-0.8,1-1.4,0.9
		C696.5,194.2,696.1,194.2,695.8,194.2z"/>
</g>
<g>
	<path class="st1" d="M483.1,371.9H450c-5.5,0-10-5-10-11.2c0-4.6,2.5-8.7,6.3-10.4c0-0.5-0.1-1-0.1-1.5c0-8.2,5.9-14.8,13.1-14.8
		c5.2,0,9.8,3.4,11.9,8.7c0.8-0.2,1.6-0.3,2.4-0.3c4.1,0,7.8,2.9,9.3,7.1c0.1,0,0.2,0,0.3,0c5.5,0,10,5,10,11.2
		C493.2,366.9,488.6,371.9,483.1,371.9z M459.2,336.4c-5.8,0-10.5,5.5-10.5,12.3c0,0.7,0.1,1.4,0.2,2.1c0.1,0.6-0.3,1.2-0.9,1.4
		c-3.2,1-5.5,4.5-5.5,8.4c0,4.8,3.3,8.7,7.4,8.7h33.2c4.1,0,7.4-3.9,7.4-8.7c0-4.8-3.3-8.7-7.4-8.7c-0.3,0-0.6,0-1,0.1
		c-0.6,0.1-1.3-0.3-1.4-0.9c-0.9-3.7-3.9-6.2-7.1-6.2c-0.9,0-1.8,0.2-2.7,0.6c-0.3,0.1-0.7,0.1-1,0c-0.3-0.2-0.6-0.4-0.7-0.8
		C467.7,339.7,463.7,336.4,459.2,336.4z"/>
</g>
<g>
	<path class="st0" d="M818.8,255.5c-8.4,0-15.2-6.8-15.2-15.2s6.8-15.2,15.2-15.2c3,0,5.9,0.9,8.3,2.4c0.5-9.1,8.1-16.4,17.4-16.4
		c9.6,0,17.4,7.8,17.4,17.4c0,0.8-0.1,1.5-0.2,2.3c0.4,0,0.7-0.1,1.1-0.1c6.8,0,12.3,5.5,12.3,12.3s-5.5,12.3-12.3,12.3h-44V255.5z"
		/>
	<path class="st1" d="M862.7,256.8h-44c-9.1,0-16.4-7.4-16.4-16.4s7.4-16.4,16.4-16.4c2.5,0,5,0.6,7.2,1.7
		c1.5-8.9,9.2-15.6,18.4-15.6c10.3,0,18.7,8.4,18.7,18.7c0,0.3,0,0.6,0,1c7.4,0.2,13.3,6.2,13.3,13.6
		C876.3,250.7,870.2,256.8,862.7,256.8z M818.8,226.4c-7.7,0-13.9,6.2-13.9,13.9s6.2,13.9,13.9,13.9h44c6.1,0,11.1-5,11.1-11.1
		s-5-11.1-11.1-11.1c-0.3,0-0.6,0-1,0.1c-0.4,0-0.8-0.1-1-0.4c-0.3-0.3-0.4-0.7-0.3-1c0.1-0.7,0.1-1.4,0.1-2.1
		c0-8.9-7.2-16.1-16.1-16.1c-8.5,0-15.6,6.7-16.1,15.2c0,0.4-0.3,0.9-0.7,1.1s-0.9,0.2-1.3-0.1C824.1,227.2,821.5,226.4,818.8,226.4
		z"/>
</g>
<g>
	<path class="st3" d="M571.2,402.2H624c4.3,0,8.3,2.2,10.6,5.8l17.2,26.7c1.3,2.1-0.1,4.8-2.6,4.9l-47.7,0.5"/>
	<path class="st1" d="M601.6,441.3v-2.5l47.7-0.5c0.7,0,1.3-0.4,1.6-1s0.3-1.3-0.1-1.9l-17.2-26.7c-2.1-3.3-5.7-5.2-9.6-5.2h-52.8
		V401H624c4.8,0,9.1,2.4,11.7,6.4l17.2,26.7c0.9,1.4,1,3.1,0.2,4.5s-2.2,2.3-3.9,2.3L601.6,441.3z"/>
</g>
<g>
	<path class="st3" d="M524.9,440.9l-46.9,0.5c-2.5,0-4-2.7-2.7-4.8l17.9-28.4c2.3-3.7,6.4-5.9,10.7-5.9h52.3"/>
	<path class="st1" d="M478,442.6c-1.6,0-3.1-0.8-3.9-2.3c-0.8-1.4-0.8-3.1,0.1-4.5l17.9-28.4c2.6-4.1,7-6.5,11.8-6.5h52.3v2.5h-52.3
		c-3.9,0-7.5,2-9.6,5.3l-17.9,28.4c-0.4,0.6-0.4,1.3-0.1,1.9s1,1,1.7,1l0,0l46.9-0.5v2.5L478,442.6L478,442.6z"/>
</g>
<g>
	<path class="st1" d="M602.3,447.1h-7.1c-0.9,0-1.8-0.4-2.4-1.1l-29-34.3c-0.2-0.2-0.4-0.2-0.5-0.2l0,0c-0.1,0-0.3,0-0.5,0.2
		l-28.3,34.2c-0.6,0.7-1.5,1.1-2.4,1.1h-7.2c-1.2,0-2.3-0.7-2.9-1.8c-0.5-1.1-0.4-2.4,0.4-3.3l38.4-47.6c0.6-0.7,1.5-1.2,2.4-1.2
		l0,0c1,0,1.8,0.4,2.4,1.2l0,0l39,47.6c0.8,1,0.9,2.2,0.4,3.4C604.6,446.4,603.5,447.1,602.3,447.1z M563.3,409
		c0.9,0,1.8,0.4,2.4,1.1l29,34.3c0.1,0.1,0.3,0.2,0.5,0.2h7.1c0.4,0,0.5-0.3,0.6-0.4s0.1-0.4-0.1-0.7l-39-47.6
		c-0.2-0.2-0.4-0.2-0.5-0.2l0,0c-0.1,0-0.3,0-0.5,0.2l-38.4,47.6c-0.2,0.3-0.1,0.6-0.1,0.7c0.1,0.1,0.2,0.4,0.6,0.4h7.2
		c0.2,0,0.4-0.1,0.5-0.2l28.3-34.2C561.5,409.4,562.4,409,563.3,409L563.3,409z"/>
</g>
<g>
	<path class="st1" d="M639.2,530.6H485.9c-0.7,0-1.3-0.6-1.3-1.3v-88c0-0.7,0.6-1.3,1.3-1.3s1.3,0.6,1.3,1.3v86.8H638v-88.4
		c0-0.7,0.6-1.3,1.3-1.3s1.3,0.6,1.3,1.3v89.6C640.5,530,639.9,530.6,639.2,530.6z"/>
</g>
<g>
	<path class="st2" d="M511.1,492h-3.7c-5.8,0-10.5-4.7-10.5-10.5v-13.1c0-5.8,4.7-10.5,10.5-10.5h3.7c5.8,0,10.5,4.7,10.5,10.5v13.1
		C521.6,487.3,516.8,492,511.1,492z"/>
	<path class="st1" d="M514.9,493.3h-11.4c-4.4,0-7.9-3.5-7.9-7.9v-20.9c0-4.4,3.5-7.9,7.9-7.9h11.4c4.4,0,7.9,3.5,7.9,7.9v20.9
		C522.8,489.7,519.3,493.3,514.9,493.3z M503.5,459.1c-3,0-5.4,2.4-5.4,5.4v20.9c0,3,2.4,5.4,5.4,5.4h11.4c3,0,5.4-2.4,5.4-5.4
		v-20.9c0-3-2.4-5.4-5.4-5.4H503.5z"/>
</g>
<g>
	<path class="st2" d="M618.6,492h-3.7c-5.8,0-10.5-4.7-10.5-10.5v-13.1c0-5.8,4.7-10.5,10.5-10.5h3.7c5.8,0,10.5,4.7,10.5,10.5v13.1
		C629.1,487.3,624.3,492,618.6,492z"/>
	<path class="st1" d="M622.4,493.3H611c-4.4,0-7.9-3.5-7.9-7.9v-20.9c0-4.4,3.5-7.9,7.9-7.9h11.4c4.4,0,7.9,3.5,7.9,7.9v20.9
		C630.3,489.7,626.8,493.3,622.4,493.3z M611,459.1c-3,0-5.4,2.4-5.4,5.4v20.9c0,3,2.4,5.4,5.4,5.4h11.4c3,0,5.4-2.4,5.4-5.4v-20.9
		c0-3-2.4-5.4-5.4-5.4H611z"/>
</g>
<g>
	<path class="st2" d="M553.8,461.7h19v-16.4c0-5.2-4.2-9.5-9.5-9.5l0,0c-5.2,0-9.5,4.2-9.5,9.5V461.7z"/>
	<path class="st1" d="M574,462.9h-21.5v-17.7c0-5.9,4.8-10.8,10.8-10.8s10.8,4.8,10.8,10.8L574,462.9L574,462.9z M555.1,460.4h16.4
		v-15.2c0-4.5-3.7-8.2-8.2-8.2s-8.2,3.7-8.2,8.2V460.4z"/>
</g>
<g>
	<path class="st6" d="M547.5,529.3v-44.9c0-3.1,2.6-5.7,5.8-5.7H572c3.2,0,5.8,2.5,5.8,5.7v44.9"/>
	<path class="st1" d="M579.1,529.3h-2.5v-44.9c0-2.4-2-4.4-4.5-4.4h-18.8c-2.5,0-4.5,2-4.5,4.4v44.9h-2.5v-44.9
		c0-3.8,3.2-6.9,7.1-6.9H572c3.9,0,7.1,3.1,7.1,6.9V529.3z"/>
</g>
<g>
	<path class="st1" d="M532.9,530.6c-0.7,0-1.3-0.6-1.3-1.3v-83.5c0-0.7,0.6-1.3,1.3-1.3s1.3,0.6,1.3,1.3v83.5
		C534.2,530,533.6,530.6,532.9,530.6z"/>
</g>
<g>
	<path class="st1" d="M594.3,530.6c-0.7,0-1.3-0.6-1.3-1.3v-83.5c0-0.7,0.6-1.3,1.3-1.3s1.3,0.6,1.3,1.3v83.5
		C595.6,530,595,530.6,594.3,530.6z"/>
</g>
<g>
	<path class="st1" d="M450.3,719.7H290c-27.5,0-49.8-17.5-49.8-39v-10.3c0-16.6-17.5-30.1-39.1-30.1H63.2
		c-24.8,0-44.9-15.8-44.9-35.2v-53.4c-0.1-5.3,2.1-10.4,6.2-14.6c5.7-5.8,14.2-9.1,23.5-9.1h437.9v2.5H48c-8.6,0-16.5,3-21.7,8.3
		c-3.7,3.7-5.6,8.1-5.5,12.8V605c0,18,19,32.7,42.4,32.7h137.9c23,0,41.6,14.6,41.6,32.6v10.3c0,20.1,21.2,36.5,47.3,36.5h160.3
		V719.7z"/>
</g>
<g>
	<path class="st7" d="M80.7,443.3L80.7,443.3c7.4,0,14,4.7,16.3,11.7l7.5,22.6c3.7,11.1-4.6,22.6-16.3,22.6H74.9
		c-11.2,0-19.4-10.6-16.6-21.4l5.8-22.6C66,448.6,72.9,443.3,80.7,443.3z"/>
	<path class="st1" d="M88.2,501.5H74.9c-5.7,0-11-2.6-14.6-7.1c-3.5-4.5-4.7-10.3-3.3-15.9l5.8-22.6c2.1-8.2,9.4-13.8,17.9-13.8
		c7.9,0,15,5.1,17.5,12.6l7.5,22.6c1.9,5.7,1,11.7-2.5,16.6C99.7,498.7,94.2,501.5,88.2,501.5z M80.7,444.6
		c-7.3,0-13.6,4.9-15.4,11.9l-5.8,22.6c-1.2,4.8-0.2,9.8,2.8,13.7c3,3.9,7.6,6.2,12.6,6.2h13.3c5.2,0,9.9-2.4,12.9-6.6
		s3.8-9.4,2.2-14.3l-7.5-22.6C93.6,449,87.6,444.6,80.7,444.6z"/>
</g>
<g>
	<path class="st7" d="M416.5,443.3L416.5,443.3c7.4,0,14,4.7,16.3,11.7l7.5,22.6c3.7,11.1-4.6,22.6-16.3,22.6h-13.3
		c-11.2,0-19.4-10.6-16.6-21.4l5.8-22.6C401.8,448.6,408.7,443.3,416.5,443.3z"/>
	<path class="st1" d="M424,501.5h-13.3c-5.7,0-11-2.6-14.6-7.1c-3.5-4.5-4.7-10.3-3.3-15.9l5.8-22.6c2.1-8.2,9.4-13.8,17.9-13.8
		c7.9,0,15,5.1,17.5,12.6l7.5,22.6c1.9,5.7,1,11.7-2.5,16.6C435.5,498.7,430,501.5,424,501.5z M416.5,444.6
		c-7.3,0-13.6,4.9-15.4,11.9l-5.8,22.6c-1.2,4.8-0.2,9.8,2.8,13.7c3,3.9,7.6,6.2,12.6,6.2H424c5.2,0,9.9-2.4,12.9-6.6
		s3.8-9.4,2.2-14.3l-7.5-22.6C429.4,449,423.4,444.6,416.5,444.6z"/>
</g>
<g>
	<path class="st7" d="M101.5,470.9l0.5-2.1c1.6-6.3,7.5-10.7,14.1-10.7l0,0c6.2,0,11.9,3.9,13.8,9.7l6.3,18.7
		c3.2,9.2-3.9,18.7-13.8,18.7h-11.2c-5.9,0-10.8-3.4-13.2-8.2"/>
	<path class="st1" d="M122.5,506.5h-11.2c-6.2,0-11.7-3.4-14.3-8.9l2.4-1.1c2.2,4.6,6.8,7.5,12,7.5h11.2c4.3,0,8.2-2,10.7-5.4
		s3.2-7.7,1.8-11.7l-6.3-18.7c-1.8-5.3-6.8-8.9-12.6-8.9c-6,0-11.3,4-12.8,9.7l-0.5,2.1l-2.5-0.6l0.5-2.1
		c1.8-6.8,8.1-11.6,15.3-11.6c6.8,0,12.9,4.3,15,10.6l6.3,18.7c1.6,4.8,0.8,9.9-2.1,14C132.4,504.2,127.7,506.5,122.5,506.5z"/>
</g>
<g>
	<g>
		<path class="st3" d="M313.9,516.5v-49.3c0-1.8-1.5-3.3-3.3-3.3h-15.7c-1.8,0-3.3,1.5-3.3,3.3v49.3"/>
		<path class="st1" d="M315.2,516.5h-2.5v-49.3c0-1.1-0.9-2.1-2.1-2.1h-15.7c-1.1,0-2.1,0.9-2.1,2.1v49.3h-2.5v-49.3
			c0-2.5,2.1-4.6,4.6-4.6h15.7c2.5,0,4.6,2.1,4.6,4.6V516.5z"/>
	</g>
	<g>
		<path class="st2" d="M216.4,461.9h62.5c1.8,0,3.3,1.5,3.3,3.3v11.5c0,1.8-1.5,3.3-3.3,3.3h-62.5"/>
		<path class="st1" d="M278.8,481.4h-62.5v-2.5h62.5c1.1,0,2.1-0.9,2.1-2.1v-11.5c0-1.1-0.9-2.1-2.1-2.1h-62.5v-2.5h62.5
			c2.5,0,4.6,2.1,4.6,4.6v11.5C283.4,479.3,281.4,481.4,278.8,481.4z"/>
	</g>
	<g>
		<path class="st2" d="M350.4,464.1h-22c-1.8,0-3.3,1.5-3.3,3.3v18.5c0,1.8,1.5,3.3,3.3,3.3h22"/>
		<path class="st1" d="M350.4,490.5h-22c-2.5,0-4.6-2.1-4.6-4.6v-18.5c0-2.5,2.1-4.6,4.6-4.6h22v2.5h-22c-1.1,0-2.1,0.9-2.1,2.1
			v18.5c0,1.1,0.9,2.1,2.1,2.1h22V490.5z"/>
	</g>
	<g>
		<rect x="258.2" y="461.9" class="st8" width="2.5" height="18.2"/>
	</g>
	<g>
		<rect x="235.6" y="461.9" class="st8" width="2.5" height="17.9"/>
	</g>
	<g>
		<path class="st8" d="M256.3,529c-6.5,0-11.9-5.3-11.9-11.9c0-6.5,5.3-11.9,11.9-11.9c6.5,0,11.9,5.3,11.9,11.9
			C268.2,523.6,262.8,529,256.3,529z M256.3,507.8c-5.1,0-9.3,4.2-9.3,9.3s4.2,9.3,9.3,9.3s9.3-4.2,9.3-9.3S261.4,507.8,256.3,507.8
			z"/>
	</g>
	<g>
		<path class="st8" d="M328.3,529c-6.5,0-11.9-5.3-11.9-11.9c0-6.5,5.3-11.9,11.9-11.9c6.5,0,11.9,5.3,11.9,11.9
			C340.2,523.6,334.9,529,328.3,529z M328.3,507.8c-5.1,0-9.3,4.2-9.3,9.3s4.2,9.3,9.3,9.3s9.3-4.2,9.3-9.3S333.5,507.8,328.3,507.8
			z"/>
	</g>
	<g>
		<path class="st8" d="M347,517.8h-8.1v-2.5h8.1c1.1,0,2.1-0.9,2.1-2.1v-57.8c0-1.1-0.9-2.1-2.1-2.1H219.7c-1.1,0-2.1,0.9-2.1,2.1
			v57.8c0,1.1,0.9,2.1,2.1,2.1h26v2.5h-26c-2.5,0-4.6-2.1-4.6-4.6v-57.8c0-2.5,2.1-4.6,4.6-4.6H347c2.5,0,4.6,2.1,4.6,4.6v57.8
			C351.6,515.7,349.6,517.8,347,517.8z"/>
	</g>
	<g>
		<rect x="266.9" y="515.3" class="st8" width="50.8" height="2.5"/>
	</g>
</g>
<g>
	<path class="st1" d="M80.8,530.6c-0.7,0-1.3-0.6-1.3-1.3v-44.9c0-0.7,0.6-1.3,1.3-1.3s1.3,0.6,1.3,1.3v44.9
		C82.1,530,81.5,530.6,80.8,530.6z"/>
</g>
<g>
	<path class="st1" d="M116.7,530.6c-0.7,0-1.3-0.6-1.3-1.3v-37.2c0-0.7,0.6-1.3,1.3-1.3s1.3,0.6,1.3,1.3v37.2
		C117.9,530,117.4,530.6,116.7,530.6z"/>
</g>
<g>
	<path class="st1" d="M416.6,530.6c-0.7,0-1.3-0.6-1.3-1.3v-44.9c0-0.7,0.6-1.3,1.3-1.3s1.3,0.6,1.3,1.3v44.9
		C417.9,530,417.3,530.6,416.6,530.6z"/>
</g>
<g>
	<path class="st9" d="M899.7,1368.7v130.2c0,39.4-31.9,71.3-71.3,71.3H280.5l14.1-0.3h-23.5c-4.6,0-8.6,3.4-9.2,8
		c-0.5,3.9,0.3,9.5,4.2,17.1c9.8,18.8,3.6,42.1-26,42.1h0.9c-29.5,0-35.8-23.3-26-42.1c4-7.6,4.7-13.2,4.2-17.1
		c-0.6-4.6-4.6-8-9.2-8h-33.5l21.5,0.3h-92.3c-39.4,0-71.3-31.9-71.3-71.3v-322.3c0-39.4,31.9-71.3,71.3-71.3l448.1,0.2h59.3h23.5
		c4.6,0,8.6-3.4,9.2-8c0.5-3.9-0.3-9.5-4.2-17.1c-9.8-18.8-3.6-42.1,26-42.1h-0.9c29.5,0,35.8,23.3,26,42.1
		c-4,7.6-4.7,13.2-4.2,17.1c0.6,4.6,4.6,8,9.2,8h33.5h49.2h47.9c39.4,0,71.3,31.9,71.3,71.3v109.9l-0.1-12.4v23.5
		c0,4.6,3.4,8.6,8,9.2c3.9,0.5,9.5-0.3,17.1-4.2c18.8-9.8,42.1-3.6,42.1,26v-0.9c0,29.5-23.3,35.8-42.1,26c-7.6-4-13.2-4.7-17.1-4.2
		c-4.6,0.6-8,4.6-8,9.2v33.5"/>
	<path class="st1" d="M241.1,1638.2h-0.9c-15.9-0.2-23.4-7.1-26.9-12.8c-5.1-8.5-4.8-20,0.8-30.9c3.3-6.3,4.7-11.9,4.1-16.4
		c-0.5-4-4-7-8.1-7h-12v0.3h-92.3c-39.9,0-72.4-32.5-72.4-72.4v-322.3c0-19.3,7.5-37.5,21.2-51.2s31.8-21.2,51.2-21.2l0,0l448.1,0.2
		h82.8c4.1,0,7.6-3,8.1-7c0.6-4.6-0.8-10.1-4.1-16.4c-5.7-10.8-6-22.4-0.8-30.9c3.5-5.7,10.9-12.6,26.9-12.8l0,0h0.9
		c15.9,0.2,23.4,7.1,26.9,12.8c5.1,8.5,4.8,20-0.8,30.9c-3.3,6.3-4.7,11.9-4.1,16.4c0.5,4,4,7,8.1,7h130.7
		c39.9,0,72.4,32.5,72.4,72.4v109.9h-0.1v11.1c0,4.1,3,7.6,7,8.1c4.6,0.6,10.1-0.8,16.4-4.1c10.8-5.7,22.4-6,30.9-0.8
		c5.7,3.5,12.6,10.9,12.8,26.9l0,0v0.9c-0.2,15.9-7.1,23.4-12.8,26.9c-8.5,5.1-20.1,4.8-30.9-0.8c-6.3-3.3-11.9-4.7-16.4-4.1
		c-4,0.5-7,4-7,8.1v9.8h0.1V1499c0,39.9-32.5,72.4-72.4,72.4h-548v-0.3h-9.4c-4.1,0-7.6,3-8.1,7c-0.6,4.6,0.8,10.1,4.1,16.4
		c5.7,10.8,6,22.4,0.8,30.9C264.5,1631.1,257,1637.9,241.1,1638.2L241.1,1638.2z M176.6,1568.8h33.5c5.2,0,9.7,3.8,10.3,8.9
		c0.6,5-0.8,11-4.4,17.7c-5.2,10-5.6,21-0.9,28.7c4.6,7.6,13.4,11.7,25.4,11.8c12-0.1,20.8-4.2,25.4-11.8c4.7-7.7,4.3-18.7-0.9-28.7
		c-3.5-6.8-5-12.7-4.4-17.7c0.7-5.1,5.1-8.9,10.3-8.9h23.5v0.3h533.8c38.7,0,70.2-31.5,70.2-70.2v-106.5h-0.1v-33.5
		c0-5.2,3.8-9.7,8.9-10.3c5-0.7,11,0.8,17.7,4.4c10,5.2,21,5.6,28.7,0.9c7.6-4.6,11.7-13.4,11.8-25.4c-0.1-12.1-4.2-20.8-11.8-25.4
		c-7.7-4.7-18.7-4.3-28.7,0.9c-6.8,3.5-12.7,5-17.7,4.4c-5.1-0.7-8.9-5.1-8.9-10.3v-23.7h0.1v-97.5c0-38.7-31.5-70.2-70.2-70.2
		H697.8c-5.2,0-9.7-3.8-10.3-8.9c-0.6-5,0.8-11,4.4-17.7c5.2-10,5.6-21,0.9-28.7c-4.6-7.6-13.4-11.7-25.4-11.8
		c-12,0.1-20.8,4.2-25.4,11.8c-4.7,7.7-4.3,18.7,0.9,28.7c3.5,6.8,5,12.7,4.4,17.7c-0.7,5.1-5.1,8.9-10.3,8.9h-83l-448.1-0.2l0,0
		c-18.7,0-36.3,7.3-49.6,20.5c-13.3,13.3-20.6,30.9-20.6,49.6v322.3c0,38.7,31.5,70.2,70.2,70.2h70.8L176.6,1568.8z"/>
</g>
<g>
	<path class="st1" d="M737.3,1107.6h-2.5v-107.1c0-17.2-11.5-31.2-25.7-31.2h-7.4c-13.1,0-23.7-12.7-23.7-28.2v-92.2
		c0-15.4-10.3-27.9-23-27.9h-38.2v-2.5H655c14.1,0,25.6,13.7,25.6,30.5v92.2c0,14.2,9.5,25.7,21.2,25.7h7.4
		c15.6,0,28.3,15.1,28.3,33.7v107H737.3z"/>
</g>
<path class="st10" d="M515.3,1005.2c-33.9,0-61.5-27.6-61.5-61.5s27.6-61.5,61.5-61.5s61.5,27.6,61.5,61.5
	C576.8,977.6,549.2,1005.2,515.3,1005.2 M515.3,885.2c-32.2,0-58.5,26.2-58.5,58.5c0,32.2,26.2,58.5,58.5,58.5
	c32.2,0,58.5-26.2,58.5-58.5C573.8,911.5,547.6,885.2,515.3,885.2"/>
<path class="st11" d="M610.9,1029.8c1.2-1.7,1.9-3.7,2.1-5.8c0.5-5.7-3-10.8-8.2-12.5c0.2-0.8,0.4-1.7,0.4-2.5
	c0-3.6-1.9-6.7-4.8-8.5v-2.1c0-19.9-14.7-36-32.9-36s-32.9,16.1-32.9,36v1.8c-3.1,1.7-5.2,5-5.2,8.8c0,0.8,0.1,1.7,0.4,2.5
	c-5.2,1.7-8.7,6.8-8.2,12.5c0.2,2.1,0.9,4.1,2.1,5.8c-1.8,1.5-3.1,3.5-3.8,5.8c-0.9,3.1-0.6,6.3,1,9.1c1.3,2.3,3.3,4.2,5.8,5.3H608
	l0,0c2.4-1,4.5-2.9,5.8-5.2C616.5,1039.6,615.2,1033.4,610.9,1029.8"/>
<path class="st10" d="M526.7,1051.3h-0.3l-0.3-0.1c-2.7-1.2-5-3.2-6.4-5.8c-1.7-3.1-2.1-6.7-1.1-10.1c0.6-2.1,1.8-4.1,3.3-5.6
	c-0.9-1.7-1.5-3.5-1.7-5.4c-0.5-5.7,2.8-11.2,8-13.4c-0.1-0.5-0.1-1.1-0.1-1.6c0-3.9,2-7.5,5.2-9.6v-1.1c0-20.6,15.3-37.3,34.2-37.3
	s34.2,16.7,34.2,37.3v1.4c3,2.1,4.8,5.5,4.8,9.2c0,0.6-0.1,1.1-0.2,1.7c5.2,2.2,8.5,7.7,8,13.4c-0.2,1.9-0.8,3.8-1.7,5.4
	c4.1,4.1,5.1,10.6,2.2,15.7c-1.4,2.6-3.7,4.7-6.4,5.8l-0.3,0.1L526.7,1051.3L526.7,1051.3z M522.1,1044.1c1.1,2,2.8,3.6,4.9,4.6
	h80.7c2.1-0.9,3.8-2.6,4.9-4.6c2.4-4.4,1.4-10-2.5-13.2l-0.9-0.8l0.7-1c1-1.5,1.7-3.3,1.9-5.1c0.4-4.9-2.6-9.6-7.3-11.1l-1.2-0.4
	l0.3-1.2c0.2-0.7,0.3-1.4,0.3-2.2c0-3-1.5-5.7-4.1-7.3l-0.6-0.4v-2.8c0-19.1-14.2-34.6-31.5-34.6c-17.4,0-31.5,15.5-31.5,34.6v2.6
	l-0.7,0.4c-2.8,1.5-4.5,4.4-4.5,7.6c0,0.7,0.1,1.4,0.3,2.1l0.3,1.2l-1.2,0.4c-4.7,1.5-7.8,6.2-7.3,11.1c0.2,1.8,0.8,3.6,1.9,5.1
	l0.7,1l-0.9,0.8c-1.6,1.3-2.7,3.1-3.3,5.1C520.4,1038.7,520.7,1041.6,522.1,1044.1"/>
<path class="st0" d="M523,1107.6h89v-5.5c0-24.6-19.9-44.5-44.5-44.5s-44.5,19.9-44.5,44.5V1107.6z"/>
<path class="st10" d="M613.3,1107.6c0,0.7-0.6,1.3-1.3,1.3h-89c-0.7,0-1.3-0.6-1.3-1.3v-18.8c0-17.9,14.6-32.5,32.5-32.5h26.7
	c17.9,0,32.5,14.6,32.5,32.5v18.8 M524.3,1106.3h86.3v-17.5c0-16.4-13.4-29.8-29.8-29.8h-26.7c-16.4,0-29.8,13.4-29.8,29.8V1106.3z"
	/>
<path class="st12" d="M567.4,1107.6L567.4,1107.6c8.3,0,15.3-6.2,16.3-14.4l4.2-35h-41.3l4.5,35.1
	C552.2,1101.4,559.2,1107.6,567.4,1107.6"/>
<path class="st10" d="M585,1093.3c-1.1,8.9-8.6,15.6-17.6,15.6c-8.9,0-16.5-6.7-17.6-15.5l-4.7-36.6h44.3L585,1093.3 M548.2,1059.4
	l4.3,33.6c1,7.5,7.4,13.2,15,13.2s14.1-5.7,15-13.3l4-33.6h-38.3V1059.4z"/>
<path class="st0" d="M547,1058v-0.3h1.8l0.9-0.2c4.7,0,8.5-3.8,8.5-8.5v-8.9h20.3v8.9c0,4.7,3.8,8.5,8.5,8.5l0.9,0.5l-1.9,15.3
	c-10.1,10.1-26.5,10.3-36.8,0.3l-0.6-0.6L547,1058L547,1058L547,1058z"/>
<path class="st10" d="M586.9,1074.3c-5.4,5.4-12.4,8-19.5,8c-6.9,0-13.9-2.6-19.2-7.7l-0.6-0.6c-0.2-0.2-0.4-0.5-0.4-0.8l-1.5-14.9
	c0-0.1,0-0.2-0.1-0.3c0-0.1,0-0.1,0-0.2v-0.1c-0.1-0.4,0.1-0.8,0.3-1.1c0.3-0.3,0.6-0.5,1-0.5h1.7l0.7-0.1c0.1,0,0.2,0,0.2,0
	c4,0,7.2-3.2,7.2-7.2v-8.9c0-0.7,0.6-1.3,1.3-1.3h20.3c0.7,0,1.3,0.6,1.3,1.3v8.9c0,4,3.2,7.2,7.2,7.2c0.2,0,0.5,0.1,0.7,0.2
	l0.9,0.5c0.5,0.3,0.7,0.8,0.7,1.3l-1.9,15.3C587.3,1073.8,587.2,1074.1,586.9,1074.3 M549.9,1072.5l0.2,0.2c9.6,9.3,25.1,9.3,34.6,0
	l1.8-13.9c-5.2-0.3-9.4-4.6-9.4-9.9v-7.6h-17.6v7.6c0,5.4-4.4,9.8-9.7,9.9l-0.7,0.1c-0.1,0-0.2,0-0.2,0h-0.3L549.9,1072.5z"/>
<path class="st0" d="M542,992.9l10.4-8.4l15.4-12.4c0,0,8.2,6.6,15.5,12.4c5,4,9.6,7.6,10.8,8.4c0,0.1,0,0.1,0,0.2
	c0,7.8,0,15.6,0,23.4l0,0c0,0.1,0,0.2,0,0.2c0,14-11.7,25.3-26.1,25.3c-14.4,0-26.1-11.3-26.1-25.3v-0.2c0-6.2,0-15.5,0-23.4
	L542,992.9L542,992.9z"/>
<path class="st10" d="M595.4,1016.9c0,14.7-12.3,26.6-27.4,26.6c-15.1,0-27.4-11.9-27.4-26.6v-0.2c0-4.3,0-10.2,0-16v-7.6
	c0-0.4,0.2-0.8,0.5-1l25.9-20.8c0.5-0.4,1.2-0.4,1.7,0c0.1,0.1,8.3,6.7,15.5,12.4c6.1,4.8,9.7,7.7,10.7,8.4c0.4,0.3,0.6,0.7,0.6,1.1
	v0.2L595.4,1016.9L595.4,1016.9L595.4,1016.9 M543.3,993.6v7c0,5.8,0,11.7,0,16v0.2c0,13.2,11.1,24,24.7,24
	c13.6,0,24.7-10.7,24.7-24v-0.2v-0.1v-22.8c-1.5-1.1-5-3.9-10.3-8.1c-5.9-4.7-12.4-9.9-14.7-11.7L543.3,993.6z"/>
<path class="st10" d="M586.7,999.8c-0.4,0-0.7-0.1-1-0.4c-0.1-0.1-0.2-0.2-0.3-0.4c-0.6-0.8-1.8-2.4-5.2-2.2c-0.3,0-0.6,0-0.9,0.1
	c-1.7,0.1-3.5,0.3-5.3-1.8c-0.5-0.6-0.4-1.4,0.1-1.9c0.6-0.5,1.4-0.4,1.9,0.1c0.9,1.1,1.6,1,3.1,0.9c0.3,0,0.6,0,1-0.1
	c4.8-0.2,6.8,2.4,7.4,3.3c0,0.1,0.1,0.1,0.1,0.2c0.5,0.5,0.5,1.4,0,1.9C587.4,999.7,587,999.8,586.7,999.8"/>
<path class="st10" d="M557.4,1000.9c0,1.3-1,2.3-2.3,2.3s-2.3-1-2.3-2.3s1-2.3,2.3-2.3C556.3,998.6,557.4,999.7,557.4,1000.9"/>
<path class="st10" d="M580.2,1000.7c0,1.3-1,2.3-2.3,2.3s-2.3-1-2.3-2.3s1-2.3,2.3-2.3S580.2,999.5,580.2,1000.7"/>
<path class="st10" d="M560,997.5c-0.3,0-0.6-0.1-0.9-0.3c-0.5-0.4-1.4-1.1-2.7-1.6c-3-1.2-5.6-0.8-6.1-0.7c-0.7,0.1-1.4-0.4-1.5-1.1
	c-0.1-0.7,0.4-1.4,1.1-1.5c0.6-0.1,3.9-0.6,7.5,0.9c1.3,0.5,2.5,1.3,3.5,2.1c0.6,0.5,0.6,1.3,0.1,1.9
	C560.8,997.4,560.4,997.5,560,997.5"/>
<path class="st10" d="M567.5,1018.3c-0.2,0-0.4-0.1-0.7-0.2l-2.2-1.2c-1.6-0.9-2.3-2.8-1.6-4.5l3.2-8.2c0.3-0.7,1-1,1.7-0.8
	c0.7,0.3,1,1,0.8,1.7l-3.2,8.2c-0.2,0.4,0,1,0.4,1.2l2.2,1.2c0.6,0.4,0.9,1.2,0.5,1.8C568.4,1018,568,1018.3,567.5,1018.3"/>
<path class="st13" d="M573.1,1025.7c0,1.6-3.6,3.2-5.2,2.9c-1.6-0.3-4.1-1-3.4-2.5c0.3-0.5,1-2.5,2.5-3.1c0.1-0.1,1.2,0.4,1.4,0.4
	c0.3,0,0.9-0.7,1.1-0.6C571.3,1023.5,573.1,1024.3,573.1,1025.7"/>
<path class="st10" d="M572.6,1027.6c-1.1,1-3.1,1.7-4.4,1.7c-0.2,0-0.4,0-0.5,0c-2.2-0.4-3.5-1-3.9-1.9c-0.2-0.3-0.3-0.9,0-1.5
	c0-0.1,0.1-0.1,0.1-0.2c0.4-0.8,1.2-2.6,2.7-3.1c0.3-0.1,0.6,0,1.2,0.2c0.1,0,0.2,0.1,0.3,0.1l0.1-0.1c0.4-0.3,0.8-0.6,1.2-0.4
	c2.1,0.7,4.1,1.6,4.1,3.5C573.7,1026.3,573.4,1027,572.6,1027.6 M567.4,1023.9c-0.1,0-0.3-0.1-0.5-0.2c-0.9,0.4-1.5,1.8-1.8,2.4
	c-0.1,0.1-0.1,0.2-0.1,0.3c-0.1,0.2-0.1,0.3,0,0.3c0.2,0.3,1,0.9,2.9,1.2c0.8,0.2,2.8-0.4,3.9-1.3c0.4-0.3,0.6-0.6,0.6-0.9
	c0-0.9-1.7-1.7-3-2.1c-0.1,0-0.2,0.1-0.2,0.2c-0.3,0.2-0.5,0.4-0.8,0.4C568.1,1024.1,567.9,1024.1,567.4,1023.9"/>
<path class="st0" d="M594.2,1002.7c3.6-0.2,6.6,2.6,6.8,5.9c0.2,3.5-3,6.7-6.8,6.5V1002.7z"/>
<path class="st10" d="M600.1,1014.1c-1.5,1.5-3.5,2.3-5.5,2.3c-0.1,0-0.3,0-0.4,0l-1.3-0.1v-14.9l1.3-0.1c2.1-0.1,4.1,0.6,5.7,2
	c1.5,1.4,2.4,3.2,2.5,5.2C602.4,1010.6,601.6,1012.6,600.1,1014.1 M598,1005.3c-0.7-0.6-1.6-1.1-2.5-1.2v9.6c1-0.2,1.9-0.7,2.7-1.4
	c1-1,1.5-2.3,1.5-3.6C599.6,1007.4,599,1006.2,598,1005.3"/>
<path class="st0" d="M541.9,1015c-3.6,0.2-6.6-2.6-6.8-5.9c-0.2-3.5,3-6.7,6.8-6.5V1015z"/>
<path class="st10" d="M542,1016.3c-0.2,0-0.3,0-0.5,0c-1.9,0-3.8-0.7-5.2-2c-1.5-1.4-2.4-3.2-2.5-5.2c-0.1-2.1,0.7-4.1,2.3-5.6
	c1.6-1.6,3.7-2.4,5.9-2.3l1.3,0.1v14.9L542,1016.3 M540.6,1004c-1,0.2-1.9,0.7-2.7,1.4c-1,1-1.5,2.3-1.5,3.6
	c0.1,1.2,0.6,2.4,1.6,3.3c0.7,0.6,1.6,1.1,2.5,1.2v-9.5H540.6z"/>
<path class="st0" d="M599.3,1034.4c0,0.2,0.1,0.4,0.1,0.7c-1.4,0.4-9.3,2.5-11,0.5c-0.1-0.1-0.5-0.6-0.4-1c0.3-0.8,2.1-1.1,4.7-1.5
	c1.4-0.3,3.5-0.7,6.1-1.2L599.3,1034.4z"/>
<path class="st10" d="M599.8,1036.4c-3.4,0.9-6.1,1.4-8.2,1.4c-2,0-3.5-0.4-4.2-1.3c-0.8-1-0.8-1.8-0.6-2.4c0.5-1.5,2.3-1.8,5.1-2.3
	l0.7-0.1c2-0.4,4-0.8,6-1.2c0.4-0.1,0.7,0,1,0.2s0.5,0.5,0.6,0.9l0.5,2.7l0.1,0.7C600.9,1035.5,600.5,1036.2,599.8,1036.4
	 M592.3,1034.4c-0.8,0.1-1.8,0.3-2.5,0.5c1.1,0.3,3.8,0.3,8.1-0.8l-0.1-0.8c-1.6,0.3-3.2,0.7-4.8,0.9L592.3,1034.4"/>
<path class="st0" d="M619.7,1107.5c0,0,7.2-37.9-10-68.3c-1.4-2.5-4.6-3.5-7.5-2.8c-4.1,0.9-6.6,5.1-5.5,9.2
	c4.2,14.3,6.3,48.3,0.2,61.9L619.7,1107.5L619.7,1107.5z"/>
<path class="st10" d="M621,1107.7c-0.1,0.6-0.7,1.1-1.3,1.1h-22.8c-0.5,0-0.9-0.2-1.1-0.6c-0.2-0.4-0.3-0.9-0.1-1.3
	c2.7-6,4-16.7,3.7-30.1c-0.3-11.6-1.8-23.7-3.9-30.9c-0.7-2.3-0.3-4.8,0.9-6.8s3.3-3.5,5.6-4c3.6-0.8,7.3,0.6,8.9,3.5
	C628.1,1068.9,621.1,1107.3,621,1107.7 M598,1045.2c4.2,14.4,6,46.3,0.8,61h19.7c1-6.4,5.1-39.6-10.1-66.3c-1.2-2.1-4-2.6-6-2.2
	c-1.6,0.4-3,1.3-3.9,2.8C597.8,1041.9,597.6,1043.6,598,1045.2"/>
<path class="st0" d="M592.1,1025.3c-0.2,0.1-0.4,0.2-0.6,0.4c-0.9-1.2-5.8-7.6-4.7-10c0.1-0.2,0.3-0.7,0.8-0.7
	c0.9-0.1,1.8,1.5,3.2,3.8c0.8,1.2,2,3,3.5,5.2C593.6,1024.3,592.9,1024.8,592.1,1025.3"/>
<path class="st10" d="M592.3,1026.8c-0.2,0.1-0.5,0.2-0.7,0.2c-0.4,0-0.8-0.2-1.1-0.5c-4.2-5.5-5.9-9.3-4.8-11.4
	c0.6-1.1,1.4-1.4,1.9-1.5c1.6-0.1,2.6,1.5,4.1,3.8l0.4,0.6c1.1,1.7,2.2,3.4,3.4,5.1c0.2,0.3,0.3,0.7,0.2,1c-0.1,0.4-0.3,0.7-0.6,0.9
	L592.3,1026.8 M589.4,1018.8c-0.5-0.7-1-1.6-1.4-2.1c0.1,1.1,1.2,3.6,3.8,7.2l0.7-0.4c-0.9-1.4-1.8-2.7-2.7-4.1L589.4,1018.8"/>
<path class="st0" d="M603.3,1035.3c-2.4-4.9-4.2-8.5-6-10.5c-0.8-0.9-2.4-1.4-3.7-1.5c-2.4-0.2-5.6,2.6-5.1,5.4
	c0.4,2.4,3.6,4.4,7,3.3c1.1,1.6,2.2,3.2,3.3,4.8"/>
<path class="st10" d="M598.7,1038.1c-0.4,0-0.8-0.2-1.1-0.6l-2.8-4.1c-1.7,0.3-3.5,0-4.9-0.9c-1.5-0.9-2.5-2.2-2.7-3.7
	c-0.3-1.6,0.3-3.2,1.5-4.6c1.4-1.5,3.3-2.4,5-2.3c1.5,0.1,3.4,0.7,4.6,2c1.9,2.1,3.8,5.9,6.2,10.8c0.3,0.7,0,1.5-0.6,1.8
	c-0.7,0.3-1.5,0-1.8-0.6c-2.3-4.6-4.1-8.3-5.8-10.2c-0.5-0.6-1.6-1-2.8-1.1c-0.9-0.1-2,0.5-2.8,1.4c-0.7,0.8-1,1.6-0.9,2.4
	c0.1,0.7,0.7,1.4,1.5,1.9c1.1,0.7,2.5,0.8,3.8,0.4c0.6-0.2,1.2,0,1.5,0.5l3.3,4.8c0.4,0.6,0.3,1.4-0.4,1.9
	C599.2,1038,599,1038.1,598.7,1038.1"/>
<line class="st4" x1="597.8" y1="1035.6" x2="592.4" y2="1027.2"/>
<path class="st10" d="M597.8,1036.9c-0.4,0-0.9-0.2-1.1-0.6l-5.4-8.3c-0.4-0.6-0.2-1.4,0.4-1.8c0.6-0.4,1.4-0.2,1.8,0.4l5.4,8.3
	c0.4,0.6,0.2,1.4-0.4,1.8C598.3,1036.8,598.1,1036.9,597.8,1036.9"/>
<path class="st14" d="M514.5,975.3c2.3,0,4.6,2.1,4.5,4.5s-2,4.5-4.5,4.5c-2.3,0-4.6-2.1-4.5-4.5C510.1,977.4,512,975.3,514.5,975.3
	"/>
<path class="st10" d="M514.5,985.2c-1.5,0-2.9-0.6-4-1.8c-1-1.1-1.5-2.4-1.5-3.7c0.1-3,2.5-5.4,5.5-5.4c1.5,0,2.9,0.6,4,1.8
	c1,1.1,1.5,2.4,1.5,3.7C519.8,982.9,517.4,985.2,514.5,985.2 M514.5,976.3c-1.9,0-3.4,1.5-3.5,3.5c0,0.8,0.3,1.6,0.9,2.3
	c0.7,0.7,1.6,1.1,2.5,1.1c1.9,0,3.4-1.5,3.5-3.5c0-0.8-0.3-1.6-0.9-2.3C516.3,976.7,515.4,976.3,514.5,976.3"/>
<path class="st10" d="M514.5,985.4c-3,0-5.4-2.4-5.6-5.5c-0.1-1.4,0.5-2.8,1.5-3.8c1.1-1.1,2.6-1.8,4.1-1.8c3,0,5.4,2.4,5.6,5.5
	c0.1,1.4-0.5,2.8-1.5,3.8C517.5,984.7,516,985.4,514.5,985.4 M514.5,976.4c-0.9,0-1.8,0.4-2.5,1.1c-0.6,0.6-0.9,1.4-0.9,2.2
	c0.1,1.9,1.5,3.4,3.3,3.4c0.9,0,1.8-0.4,2.4-1.1c0.6-0.6,0.9-1.4,0.9-2.2C517.7,977.9,516.3,976.4,514.5,976.4"/>
<path class="st14" d="M514.5,906.3c-12.2,0-22.2,10-22.2,22.2c0,2.5,2,4.5,4.5,4.5s4.5-2,4.5-4.5c0-7.3,6-13.3,13.3-13.3
	s13.3,6,13.3,13.3s-6,13.3-13.3,13.3c-2.5,0-4.5,2-4.5,4.5v18.2c0,2.5,2,4.5,4.5,4.5s4.5-2,4.5-4.5v-14.2
	c10.1-2.1,17.7-11,17.7-21.7C536.7,916.2,526.7,906.3,514.5,906.3"/>
<path class="st10" d="M514.5,969.8c-3,0-5.5-2.4-5.5-5.5v-18.2c0-3,2.4-5.5,5.5-5.5c6.8,0,12.3-5.5,12.3-12.3s-5.5-12.3-12.3-12.3
	s-12.3,5.5-12.3,12.3c0,3-2.4,5.5-5.5,5.5c-3,0-5.5-2.4-5.5-5.5c0-12.8,10.4-23.2,23.2-23.2c12.8,0,23.2,10.4,23.2,23.2
	c0,10.7-7.4,20-17.7,22.5v13.4C519.9,967.4,517.5,969.8,514.5,969.8 M514.5,914.2c7.9,0,14.3,6.4,14.3,14.3
	c0,7.9-6.4,14.3-14.3,14.3c-1.9,0-3.5,1.6-3.5,3.5v18.2c0,1.9,1.6,3.5,3.5,3.5s3.5-1.6,3.5-3.5v-15l0.8-0.2
	c9.8-2,16.9-10.7,16.9-20.8c0-11.7-9.5-21.2-21.2-21.2s-21.2,9.5-21.2,21.2c0,1.9,1.6,3.5,3.5,3.5s3.5-1.6,3.5-3.5
	C500.2,920.6,506.6,914.2,514.5,914.2"/>
<path class="st10" d="M562.3,1028.3c-0.2,0-0.4-0.1-0.6-0.3c-0.2-0.3-0.1-0.7,0.2-0.9c6.4-3.8,12.5-1.8,12.8-1.7
	c0.4,0.1,0.5,0.5,0.4,0.8s-0.5,0.5-0.8,0.4c-0.1,0-5.8-1.8-11.7,1.6C562.5,1028.3,562.4,1028.3,562.3,1028.3"/>
</svg>
