<?xml version="1.0" encoding="utf-8"?>
<!-- Generator: Adobe Illustrator 22.1.0, SVG Export Plug-In . SVG Version: 6.00 Build 0)  -->
<svg version="1.1" id="Capa_1" xmlns="http://www.w3.org/2000/svg" xmlns:xlink="http://www.w3.org/1999/xlink" x="0px" y="0px"
	 viewBox="0 0 1000 900" style="enable-background:new 0 0 1000 900;" xml:space="preserve">
<style type="text/css">
	.st0{fill:#00B0B9;}
	.st1{fill:#222221;}
	.st2{fill:#FFFFFF;}
	.st3{fill:#FFC600;}
	.st4{fill:#FC4C02;}
	.st5{fill:#84BD00;}
	.st6{fill:#040404;}
	.st7{fill:#79B8BB;stroke:#232322;stroke-width:4;stroke-miterlimit:10;}
	.st8{fill:none;stroke:#070809;stroke-width:4;stroke-linejoin:round;stroke-miterlimit:10;}
	.st9{fill:#84BD00;stroke:#070809;stroke-width:4;stroke-miterlimit:10;}
	.st10{fill:none;stroke:#08090A;stroke-width:4;stroke-miterlimit:10;}
	.st11{fill:#FFC600;stroke:#232322;stroke-width:4;stroke-miterlimit:10;}
	.st12{fill:#FFC600;stroke:#070809;stroke-width:4;stroke-miterlimit:10;}
	.st13{fill:#FC4C02;stroke:#070809;stroke-width:4;stroke-miterlimit:10;}
</style>
<g>
	<path class="st0" d="M492.7,3c23,0,41.6,20.1,41.6,44.9v49.3c0,2.9-2.4,5.3-5.3,5.3h-72.5c-2.9,0-5.3-2.4-5.3-5.3V47.8
		C451.2,23.1,469.8,3,492.7,3"/>
</g>
<g>
	<path class="st1" d="M449.7,97.2V47.8c0-25.5,19.3-46.3,43.1-46.3c23.7,0,43.1,20.8,43.1,46.3v49.3c0,3.7-3.1,6.7-6.8,6.7h-72.5
		C452.7,103.9,449.7,100.9,449.7,97.2 M452.6,47.8v49.3c0,2.1,1.7,3.8,3.8,3.8H529c2.1,0,3.8-1.7,3.8-3.8V47.8
		c0-23.9-18-43.4-40.1-43.4C470.6,4.5,452.6,23.9,452.6,47.8"/>
</g>
<g>
	<path class="st2" d="M441.6,166.6h101.2v-16.2c0-22-17.8-39.9-39.9-39.9h-21.4c-22,0-39.9,17.8-39.9,39.9V166.6z"/>
</g>
<g>
	<path class="st1" d="M440.1,166.6v-21.1c0-20.1,16.5-36.4,36.9-36.4h30.4c20.3,0,36.9,16.3,36.9,36.4v21.1c0,0.8-0.7,1.5-1.5,1.5
		H441.6C440.8,168.1,440.1,167.4,440.1,166.6 M541.3,145.5c0-18.4-15.2-33.4-33.9-33.4H477c-18.7,0-33.9,15-33.9,33.4v19.7h98.2
		V145.5z"/>
</g>
<g>
	<polygon class="st3" points="475.7,166.6 508.7,166.6 515.5,111.1 468.5,111.1 	"/>
</g>
<g>
	<path class="st1" d="M466.9,109.6h50.3l-7.1,58.4h-35.6L466.9,109.6z M513.8,112.6h-43.6l6.8,52.6h30.4L513.8,112.6z"/>
</g>
<g>
	<path class="st2" d="M468.9,111l-0.1-0.4h2l1-0.2c5.4,0,9.7-4.3,9.7-9.6v-10h23.1v10c0,5.3,4.3,9.6,9.7,9.6l1.1,0.6l-2.2,17.1
		l-20.8,20.5L470.7,128L468.9,111L468.9,111L468.9,111z"/>
</g>
<g>
	<path class="st1" d="M491.5,149.8L469.7,129c-0.3-0.2-0.4-0.6-0.4-0.9l-1.7-16.5c-0.1-0.1-0.1-0.3-0.1-0.4s0-0.2,0-0.3
		c-0.1-0.4,0.1-0.8,0.3-1.1c0.3-0.3,0.7-0.5,1.1-0.5h1.9l0.8-0.1c0.1,0,0.2,0,0.3,0c4.5,0,8.2-3.6,8.2-8.1v-10
		c0-0.8,0.7-1.5,1.5-1.5h23.1c0.8,0,1.5,0.7,1.5,1.5v10c0,4.5,3.7,8.1,8.2,8.1c0.3,0,0.5,0.1,0.7,0.2l1.1,0.6
		c0.5,0.3,0.8,0.9,0.7,1.5l-2.2,17.1c0,0.3-0.2,0.6-0.4,0.9L493.5,150c-0.3,0.3-0.7,0.4-1,0.4C492.1,150.2,491.8,150,491.5,149.8
		 M513.9,111.9c-5.9-0.3-10.7-5.1-10.7-11v-8.5h-20.1v8.5c0,6-4.9,11-11,11l-0.8,0.1c-0.1,0-0.2,0-0.3,0h-0.4l1.6,15.1l20.3,19.4
		l19.4-19.1L513.9,111.9z"/>
</g>
<g>
	<path class="st1" d="M492.5,150.3c-0.4,0-0.8-0.2-1.1-0.4l-21.8-20.7c-0.3-0.3-0.4-0.6-0.5-1l-1.7-16.5c-0.1-0.1-0.1-0.3-0.1-0.4
		s0-0.2,0-0.3c-0.1-0.4,0.1-0.9,0.4-1.2c0.3-0.3,0.7-0.5,1.2-0.5h1.9l0.8-0.1c0.1,0,0.2,0,0.3,0c4.5,0,8.1-3.6,8.1-8v-10
		c0-0.9,0.7-1.6,1.6-1.6h23.1c0.9,0,1.6,0.7,1.6,1.6v10c0,4.4,3.6,8,8.1,8c0.3,0,0.5,0.1,0.8,0.2l1.1,0.6c0.6,0.3,0.9,0.9,0.8,1.6
		l-2.2,17.1c0,0.3-0.2,0.7-0.5,0.9l-20.8,20.5C493.3,150.1,492.9,150.3,492.5,150.3z M481.6,89.6c-0.8,0-1.4,0.6-1.4,1.3v10
		c0,4.5-3.7,8.2-8.3,8.2c-0.1,0-0.2,0-0.2,0l-0.8,0.1H469c-0.4,0-0.8,0.2-1,0.5c-0.3,0.3-0.4,0.7-0.3,1c0,0.1,0,0.2,0,0.3
		c0,0.1,0,0.3,0.1,0.4l0,0l1.7,16.5c0,0.3,0.2,0.6,0.4,0.8l21.8,20.7c0.3,0.2,0.6,0.4,1,0.4s0.7-0.1,1-0.4l20.8-20.5
		c0.2-0.2,0.4-0.5,0.4-0.8l2.2-17.1c0.1-0.5-0.2-1.1-0.7-1.3l-1.1-0.6c-0.2-0.1-0.4-0.2-0.7-0.2c-4.6,0-8.3-3.7-8.3-8.2v-10
		c0-0.7-0.6-1.3-1.4-1.3h-23.3V89.6z M492.5,146.8L492.5,146.8L472,127.3l0,0l-1.6-15.3h0.5c0.1,0,0.2,0,0.2,0l0.8-0.1
		c6-0.1,11-5,11-10.9v-8.6h20.3v8.6c0,5.8,4.6,10.6,10.5,10.9h0.1v0.1l-2,15.6l0,0L492.5,146.8z M472.3,127.2l20.2,19.3l19.3-19
		l2-15.4c-6-0.3-10.6-5.2-10.6-11.1v-8.4h-19.9v8.4c0,6.1-5,11.1-11.2,11.2l-0.8,0.1c-0.1,0-0.2,0-0.3,0h-0.2L472.3,127.2z"/>
</g>
<g>
	<path class="st2" d="M463.2,38l11.9-9.4l17.5-13.9c0,0,9.3,7.4,17.7,13.9c5.7,4.4,10.9,8.5,12.3,9.5c0,0.1,0,0.1,0,0.2
		c0,8.8,0,17.5-0.1,26.3l0,0c0,0.1,0,0.2,0,0.3c0,15.7-13.3,28.4-29.6,28.4c-16.4,0-29.6-12.7-29.6-28.4v-0.3c0-7,0-17.4,0-26.3
		C463.2,38.2,463.2,38.1,463.2,38"/>
</g>
<g>
	<path class="st1" d="M461.7,64.8v-0.3c0-4.7,0-11.1,0-17.4V38c0-0.4,0.2-0.9,0.6-1.1l29.4-23.3c0.5-0.4,1.3-0.4,1.9,0
		c0.1,0.1,9.4,7.5,17.7,13.9c8.6,6.7,11.4,8.8,12.2,9.4c0.4,0.3,0.6,0.7,0.6,1.2L524,64.6v0.1c0,0.1,0,0.1,0,0.2
		c0,16.4-14,29.8-31.1,29.8C475.7,94.7,461.7,81.3,461.7,64.8 M521,38.8c-1.7-1.3-5.7-4.3-11.7-9.1c-6.7-5.3-14.2-11.1-16.7-13.2
		l-27.9,22.1V47c0,6.4,0,12.7,0,17.5v0.3c0,14.8,12.6,26.9,28.1,26.9s28.1-12.1,28.1-26.9v-0.3c0-0.1,0-0.1,0-0.2L521,38.8z"/>
</g>
<g>
	<path class="st1" d="M482,51.3c0,1.4-1.2,2.6-2.6,2.6s-2.6-1.1-2.6-2.6c0-1.4,1.2-2.6,2.6-2.6S482,49.8,482,51.3"/>
</g>
<g>
	<path class="st1" d="M507.2,51.3c0,1.4-1.2,2.6-2.6,2.6s-2.6-1.1-2.6-2.6c0-1.4,1.2-2.6,2.6-2.6S507.2,49.8,507.2,51.3"/>
</g>
<g>
	<path class="st1" d="M473.4,43.2c0.3,0.1,0.7,0.1,1.1,0c0.5-0.2,3.3-1.3,6.9-0.8c1.6,0.2,2.8,0.7,3.5,1.1c0.7,0.4,1.6,0.1,2-0.6
		c0.4-0.7,0.1-1.6-0.6-2c-1.3-0.7-2.8-1.1-4.4-1.4c-4.4-0.6-7.9,0.7-8.6,1c-0.8,0.3-1.1,1.2-0.8,1.9C472.7,42.8,473,43,473.4,43.2"
		/>
</g>
<g>
	<path class="st1" d="M490.1,66.9c-0.5-0.1-0.9-0.5-1.1-1c-0.2-0.8,0.2-1.6,1-1.8l2.7-0.8c0.5-0.2,0.9-0.7,0.8-1.2l-1.7-9.7
		c-0.1-0.8,0.4-1.6,1.2-1.7c0.8-0.1,1.6,0.4,1.7,1.2l1.7,9.7c0.3,2-0.9,3.9-2.8,4.5l-2.7,0.8C490.6,67,490.3,67,490.1,66.9"/>
</g>
<g>
	<path class="st4" d="M497.8,77.4c-0.3,1.8-4.7,2.8-6.4,2.2c-1.7-0.6-4.4-1.9-3.4-3.3c0.4-0.5,1.6-2.6,3.3-2.9
		c0.2,0,1.3,0.7,1.4,0.7c0.3,0,1.1-0.6,1.3-0.5C496.2,74.7,498.1,75.9,497.8,77.4"/>
</g>
<g>
	<path class="st1" d="M487.1,77.5c-0.1-0.4-0.2-1,0.3-1.6c0-0.1,0.1-0.1,0.2-0.2c0.6-0.9,1.8-2.7,3.6-3c0.4-0.1,0.7,0.1,1.3,0.5
		c0.1,0.1,0.2,0.1,0.3,0.2c0.1,0,0.1-0.1,0.2-0.1c0.5-0.2,1-0.5,1.5-0.3c2.2,1.1,4.3,2.5,4,4.6c-0.1,0.7-0.7,1.4-1.6,1.9
		c-1.7,1-4.4,1.4-5.8,0.9C488.8,79.5,487.5,78.6,487.1,77.5 M493.8,74.5c-0.4,0.2-0.7,0.3-1,0.3c-0.2,0-0.4-0.1-0.9-0.4
		c-0.1-0.1-0.3-0.2-0.5-0.3c-1.1,0.3-2.1,1.7-2.5,2.3c-0.1,0.1-0.1,0.2-0.2,0.3c-0.1,0.2-0.1,0.3-0.1,0.3c0.1,0.4,1,1.1,3.1,1.9
		c0.9,0.3,3.2,0.1,4.6-0.8c0.5-0.3,0.8-0.6,0.8-0.9c0.2-1.1-1.6-2.2-3-2.9C494,74.4,493.8,74.5,493.8,74.5"/>
</g>
<g>
	<path class="st2" d="M522.6,48.9c4.1-0.2,7.6,2.9,7.7,6.6c0.2,4-3.4,7.5-7.7,7.3V48.9z"/>
</g>
<g>
	<path class="st1" d="M522.5,64.3l-1.4-0.1V47.5l1.4-0.1c2.4-0.1,4.7,0.7,6.5,2.2c1.7,1.5,2.7,3.6,2.8,5.8c0.1,2.3-0.8,4.6-2.6,6.3
		c-1.7,1.6-3.9,2.5-6.3,2.5C522.8,64.3,522.6,64.3,522.5,64.3 M524,61.3c1.2-0.2,2.2-0.8,3.1-1.6c1.1-1.1,1.7-2.6,1.7-4.1
		c-0.1-1.4-0.7-2.8-1.9-3.7c-0.8-0.7-1.8-1.2-2.9-1.4L524,61.3L524,61.3z"/>
</g>
<g>
	<path class="st2" d="M463.2,62.7c-4.1,0.2-7.6-2.9-7.7-6.6c-0.2-4,3.4-7.5,7.7-7.3V62.7z"/>
</g>
<g>
	<path class="st1" d="M456.8,62c-1.7-1.5-2.7-3.6-2.8-5.8c-0.1-2.3,0.8-4.6,2.6-6.3c1.8-1.7,4.2-2.7,6.7-2.5l1.4,0.1v16.7l-1.4,0.1
		c-0.2,0-0.3,0-0.5,0C460.5,64.2,458.4,63.4,456.8,62 M458.6,52c-1.1,1.1-1.7,2.6-1.7,4.1c0.1,1.4,0.7,2.8,1.9,3.7
		c0.8,0.7,1.8,1.2,2.9,1.4V50.4C460.5,50.6,459.5,51.1,458.6,52"/>
</g>
<g>
	<path class="st1" d="M499.8,75.4c-0.2-0.1-0.3-0.1-0.5,0c-7.2,2.8-13.3-0.2-13.4-0.3c-0.4-0.2-0.8,0-1,0.3c-0.2,0.4,0,0.8,0.3,1
		c0.3,0.1,6.8,3.3,14.6,0.3c0.4-0.1,0.6-0.6,0.4-0.9C500.1,75.6,500,75.5,499.8,75.4"/>
</g>
<g>
	<path class="st1" d="M500,43.2c0.3,0.1,0.7,0.1,1.1,0c0.5-0.2,3.3-1.3,6.9-0.8c1.6,0.2,2.8,0.7,3.5,1.1c0.7,0.4,1.6,0.1,2-0.6
		c0.4-0.7,0.1-1.6-0.6-2c-1.3-0.7-2.8-1.1-4.4-1.4c-4.4-0.6-7.9,0.7-8.6,1c-0.8,0.3-1.1,1.2-0.8,1.9C499.3,42.8,499.6,43,500,43.2"
		/>
</g>
<g>
	<path class="st1" d="M565.6,25.6c-1.8,0-3.4,0.7-4.7,1.9l-0.3,0.3l-0.3-0.3c-1.3-1.2-2.9-1.9-4.7-1.9s-3.4,0.7-4.7,1.9
		c-1.3,1.2-1.9,2.9-1.9,4.6c0,1.8,0.7,3.4,1.9,4.6l8.9,8.7c0.2,0.2,0.5,0.3,0.8,0.3s0.6-0.1,0.8-0.3l8.9-8.7
		c1.3-1.2,1.9-2.9,1.9-4.6c0-1.8-0.7-3.4-1.9-4.6C569,26.3,567.3,25.6,565.6,25.6 M568.7,35.2l-8.1,8l-8.1-8
		c-0.8-0.8-1.3-1.9-1.3-3.1c0-1.2,0.5-2.3,1.3-3.1c0.8-0.8,1.9-1.3,3.1-1.3c1.2,0,2.3,0.5,3.1,1.3l1.1,1.1c0.4,0.4,1.1,0.4,1.6,0
		l1.1-1c0.8-0.8,1.9-1.3,3.1-1.3c1.2,0,2.3,0.5,3.1,1.3s1.3,1.9,1.3,3.1C570,33.3,569.5,34.4,568.7,35.2"/>
</g>
<g>
	<path class="st2" d="M418.6,161.5c-3.1-8.2-8.1-26-6.6-52.2c0.2-3.9,3.4-7.1,7.4-7.4l7-0.5c3.8-0.3,7.2,2.1,8.2,5.7l13.7,49.5
		c1.4,5-2.4,9.9-7.7,9.9h-14.7C422.8,166.6,419.8,164.6,418.6,161.5"/>
</g>
<g>
	<path class="st1" d="M440.8,167.5h-14.7c-3.7,0-7-2.3-8.3-5.7l0,0c-3.1-8.3-8.2-26.3-6.6-52.6c0.3-4.4,3.8-7.9,8.2-8.3l7-0.5
		c4.2-0.3,8.1,2.4,9.2,6.4l13.7,49.5c0.7,2.6,0.2,5.4-1.5,7.6C446.2,166.3,443.6,167.5,440.8,167.5z M419.5,161.2
		c1,2.7,3.7,4.5,6.6,4.5h14.7c2.2,0,4.3-1,5.6-2.8c1.3-1.7,1.7-3.9,1.2-6l-13.7-49.5c-0.9-3.2-3.9-5.3-7.3-5.1l-7,0.5
		c-3.5,0.3-6.3,3.1-6.5,6.5C411.5,135.3,416.4,153,419.5,161.2L419.5,161.2z"/>
</g>
<g>
	<path class="st2" d="M442.2,76.9c-0.5-0.4-1.1-0.5-1.8-0.3l0,0c-0.2,0.1-2,0.9-3.4,2.5c-1.6,2-2.7,5-3,6.2
		c-0.1,0.3-0.1,0.6-0.1,0.9c0.1,0.7,0,0.1,0,0c-0.1-0.2-0.3-1.3-0.5-1.6L427.9,69c-0.5-1.5-2-2.4-3.6-2.1c-1.8,0.4-2.9,2.3-2.3,4
		l4,11.1c0.1,0.2-6.4-15.7-6.4-15.7c-0.5-1.5-2-2.4-3.6-2.1c-1.8,0.4-2.9,2.3-2.3,4l5.7,16.1c0.1,0.2-5.3-12.5-5.3-12.5
		c-0.5-1.3-1.8-2.1-3.1-1.8c-1.6,0.3-2.5,2-2,3.5l5.1,14.3c0.1,0.2-3.9-8.7-3.9-8.7c-0.5-1.4-2-2.1-3.4-1.6s-2.1,2-1.6,3.4l6.9,19.4
		c4.3,9.7,10.9,8.9,16.9,6.9c5-1.7,8.5-5.7,9.4-10.3c0.1-0.5,0.5-2,0.9-3.7c1-4.3,3.6-13.4,3.7-14C443.1,78.6,442.9,77.5,442.2,76.9
		"/>
</g>
<g>
	<path class="st1" d="M422.6,109.3c-4.2,0-8.3-2-11.3-8.7l-6.9-19.5c-0.3-0.9-0.3-1.9,0.1-2.7c0.4-0.9,1.2-1.5,2.1-1.8
		s1.9-0.2,2.7,0.1l-1-2.9c-0.3-1-0.3-2,0.2-2.9s1.4-1.6,2.4-1.8c0.8-0.2,1.6-0.1,2.3,0.3l-0.3-0.8c-0.4-1.1-0.3-2.2,0.3-3.2
		c0.6-1,1.5-1.7,2.7-2c2-0.4,3.9,0.7,4.6,2.7c0.3,0.7,0.6,1.4,0.9,2.2c0-0.1,0.1-0.1,0.1-0.2c0.6-1,1.5-1.7,2.7-2
		c2-0.4,3.9,0.7,4.6,2.7l5.1,14.3c0.6-1.4,1.4-3.1,2.4-4.4c1.5-1.8,3.3-2.7,3.8-2.8c1-0.3,1.9-0.2,2.7,0.4l0,0c1,0.8,1.4,2.3,1.3,3
		c0,0.3-0.3,1.4-1.1,4.1c-0.9,3.1-2.1,7.4-2.7,10c-0.4,1.7-0.7,3.2-0.9,3.7c-0.9,4.9-4.7,9.2-10,11
		C427.3,108.7,424.9,109.3,422.6,109.3z M407.8,78.2c-0.2,0-0.4,0-0.6,0.1c-0.4,0.2-0.8,0.5-1,0.9s-0.2,0.9-0.1,1.3l6.9,19.4
		c3.9,9,9.9,8.3,15.8,6.3c4.6-1.6,8-5.3,8.7-9.6c0.1-0.6,0.5-2,0.9-3.8c0.6-2.6,1.8-6.9,2.7-10.1c0.5-1.9,1-3.6,1.1-3.9
		c0-0.1-0.2-0.9-0.6-1.2l0,0c-0.2-0.2-0.5-0.2-0.9-0.1c-0.3,0.1-1.8,0.9-2.9,2.3c-1.5,1.8-2.5,4.7-2.8,5.9c0,0.2-0.1,0.3,0,0.5
		c0.1,0.3,0.2,0.8-0.2,1.2c-0.2,0.3-0.6,0.3-1,0.2c-0.5-0.2-0.6-0.6-0.7-1c0-0.1-0.1-0.3-0.2-0.6c-0.1-0.3-0.2-0.7-0.2-0.9
		l-5.6-15.7c-0.4-1.1-1.4-1.7-2.5-1.5c-0.6,0.1-1.1,0.5-1.4,1s-0.3,1.1-0.1,1.7l3.9,11.1c0.2,0.5-0.1,1-0.5,1.2
		c-0.6,0.2-0.9-0.1-1.2-0.6l0,0v-0.1c-0.1-0.2-0.1-0.3-0.2-0.5l-6.1-15c-0.4-1.1-1.5-1.7-2.5-1.5c-0.6,0.1-1.1,0.5-1.4,1
		s-0.3,1.1-0.1,1.7l5.7,16.1c0.2,0.5-0.1,1-0.5,1.2c-0.6,0.2-1-0.1-1.2-0.6l0,0v-0.1c-0.1-0.1-0.1-0.3-0.2-0.4l-5-12
		c-0.3-0.9-1.2-1.4-2.1-1.3c-0.5,0.1-0.9,0.4-1.2,0.9c-0.2,0.4-0.3,0.9-0.1,1.4l5.1,14.3c0.2,0.5-0.1,1-0.5,1.2
		c-0.5,0.2-0.7,0.3-1.2-0.6h-0.1l-0.1-0.4c-0.4-0.7-0.9-1.9-1.8-3.9l-1.9-4.3C409.2,78.6,408.5,78.2,407.8,78.2z"/>
</g>
<g>
	<path class="st2" d="M564.4,162.6c3.1-8.1,8.6-27.6,6.8-54.1c-0.2-3.3-2.9-6-6.3-6.2l-9.1-0.7c-3.2-0.2-6.2,1.8-7,4.9l-14.4,51.9
		c-1.2,4.2,2.1,8.4,6.5,8.4H558C560.9,166.9,563.4,165.2,564.4,162.6"/>
</g>
<g>
	<path class="st1" d="M558.1,167.8H541c-2.4,0-4.7-1.1-6.1-3c-1.4-1.9-1.9-4.3-1.3-6.6l14.4-51.9c1-3.5,4.3-5.8,8-5.6l9.1,0.7
		c3.8,0.3,6.9,3.3,7.1,7.1c1.9,29.3-4.8,49.1-6.9,54.5l0,0C564.1,165.9,561.3,167.8,558.1,167.8z M555.4,102.6
		c-2.6,0-4.9,1.7-5.6,4.2l-14.4,51.9c-0.5,1.7-0.1,3.5,1,4.9c1.1,1.5,2.8,2.3,4.7,2.3h17.1c2.4,0,4.6-1.5,5.4-3.7l0,0
		c2.1-5.3,8.7-24.8,6.8-53.7c-0.2-2.8-2.5-5.1-5.4-5.3l-9.1-0.7C555.7,102.6,555.6,102.6,555.4,102.6z"/>
</g>
<g>
	<path class="st2" d="M541.6,78.6c0.1,0.7,2.7,9.7,3.7,14c0.4,1.7,0.7,3.2,0.9,3.7c0.8,4.6,4.4,8.6,9.4,10.3
		c6,2.1,12.7,2.9,16.9-6.9l6.9-19.4c0.5-1.4-0.2-2.9-1.6-3.4c-1.4-0.5-2.9,0.2-3.4,1.6c0,0-4,8.9-3.9,8.7l5.1-14.3
		c0.5-1.5-0.4-3.1-2-3.5c-1.3-0.3-2.7,0.5-3.1,1.8c0,0-5.3,12.7-5.3,12.5l5.7-16.1c0.6-1.7-0.4-3.6-2.3-4c-1.5-0.3-3,0.6-3.6,2.1
		c0,0-6.5,15.9-6.4,15.7l3.9-11.1c0.6-1.7-0.4-3.6-2.3-4c-1.5-0.3-3,0.6-3.6,2.1L551,84.1c-0.1,0.3-0.4,1.3-0.4,1.6
		c0,0.1-0.1,0.7,0,0c0-0.3,0-0.6-0.1-0.9c-0.3-1.2-1.3-4.2-3-6.2c-1.4-1.7-3.1-2.5-3.4-2.5l0,0c-0.6-0.2-1.3-0.1-1.8,0.3
		C541.8,77.1,541.5,78.3,541.6,78.6"/>
</g>
<g>
	<path class="st1" d="M562.1,108.9c-2.3,0-4.7-0.6-6.8-1.4c-5.3-1.8-9.1-6.1-10-11c-0.1-0.5-0.5-1.9-0.9-3.7
		c-0.6-2.6-1.8-6.9-2.7-10c-0.8-2.7-1-3.8-1.1-4.1l0,0c-0.1-0.7,0.3-2.1,1.3-3c0.7-0.6,1.7-0.8,2.7-0.4h0.1l0,0
		c0.7,0.3,2.3,1.2,3.7,2.8c1.1,1.3,1.9,3,2.4,4.4l5.1-14.3c0.7-1.9,2.7-3.1,4.6-2.7c1.1,0.2,2.1,1,2.7,2c0,0.1,0.1,0.1,0.1,0.2
		c0.3-0.8,0.6-1.6,0.9-2.3c0.7-1.9,2.7-3,4.6-2.6c1.1,0.2,2.1,1,2.7,2c0.6,1,0.7,2.2,0.3,3.2l-0.3,0.8c0.7-0.3,1.5-0.4,2.3-0.3
		c1,0.2,1.9,0.9,2.4,1.8s0.6,2,0.2,2.9l-1,2.9c0.8-0.4,1.8-0.4,2.7-0.1s1.6,1,2.1,1.8c0.4,0.9,0.5,1.8,0.1,2.7l-6.9,19.4
		C570.4,106.9,566.2,108.9,562.1,108.9z M542.5,78.5c0.1,0.3,0.5,2.1,1,3.9c0.9,3.2,2.1,7.5,2.7,10.1c0.4,1.7,0.8,3.2,0.9,3.7
		c0.8,4.4,4.1,8,8.8,9.7c5.9,2,11.8,2.7,15.8-6.4l6.9-19.4c0.2-0.4,0.1-0.9-0.1-1.3c-0.2-0.4-0.6-0.7-1-0.9
		c-0.9-0.3-1.9,0.2-2.3,1.1l-2,4.4c-0.9,1.9-1.4,3.1-1.8,3.9l-0.1,0.4h-0.1c-0.5,0.8-0.7,0.8-1.2,0.6c-0.5-0.2-0.7-0.7-0.5-1.2
		l5.1-14.3c0.2-0.5,0.1-1-0.1-1.4c-0.2-0.4-0.7-0.8-1.2-0.9c-0.9-0.2-1.7,0.3-2.1,1.2l-5.1,12c-0.1,0.1-0.1,0.3-0.2,0.4v0.1l0,0
		c-0.2,0.4-0.6,0.8-1.2,0.6c-0.5-0.2-0.7-0.7-0.5-1.2l5.7-16.1c0.2-0.6,0.1-1.2-0.1-1.7c-0.3-0.5-0.8-0.9-1.4-1
		c-1-0.2-2.1,0.4-2.5,1.5l-6.2,15.1c-0.1,0.2-0.1,0.3-0.2,0.5V82l0,0c-0.3,0.5-0.6,0.8-1.2,0.6c-0.5-0.2-0.7-0.7-0.5-1.2l3.9-11.1
		c0.2-0.6,0.1-1.2-0.1-1.7c-0.3-0.5-0.8-0.9-1.4-1c-1.1-0.2-2.1,0.4-2.5,1.5L552,84.7c-0.1,0.2-0.2,0.5-0.3,0.9
		c-0.1,0.2-0.1,0.4-0.2,0.6c-0.1,0.4-0.1,0.8-0.7,1c-0.3,0.1-0.7,0-1-0.2c-0.4-0.4-0.3-0.9-0.2-1.2c0-0.2,0-0.3,0-0.5
		c-0.3-0.9-1.2-4-2.8-5.9c-1.1-1.4-2.6-2.1-3-2.3l0,0l0,0l0,0c-0.3-0.1-0.6,0-0.8,0.1C542.7,77.6,542.5,78.3,542.5,78.5z
		 M542.5,78.5L542.5,78.5L542.5,78.5L542.5,78.5z"/>
</g>
<g>
	<path class="st2" d="M341.1,165.4c19.2,0,48.3,0,56.6,0c1.1,0,2-0.9,2-2v-22.3c0-3.4-0.3-6.8-1.1-10.1
		c-3.4-14.2-12.2-19.7-29.8-19.7c-2.9-0.3-6.6-0.4-10.7,0.2c-1,0.1-13.6,2.7-18.1,17.8c-0.9,2.9-1.3,6-1.2,9.1l0.1,24.7
		C338.7,164.4,339.8,165.4,341.1,165.4"/>
</g>
<g>
	<path class="st1" d="M388.3,166.3c-12.6,0-32.7,0-47.2,0c-1.8,0-3.2-1.4-3.3-3.2l-0.1-24.7c0-3.3,0.4-6.4,1.3-9.3
		c4.9-16.3,18.7-18.4,18.9-18.4c3.6-0.5,7.3-0.6,11-0.2l0,0c18.3,0,27.2,5.9,30.6,20.4c0.8,3.2,1.1,6.7,1.1,10.3v22.3
		c0,1.6-1.3,2.9-3,2.9C395.6,166.3,392.3,166.3,388.3,166.3z M364.2,112c-2,0-4.1,0.1-6.1,0.4c-0.1,0-12.9,2.2-17.4,17.1
		c-0.8,2.7-1.2,5.7-1.2,8.8l0.1,24.7c0,0.8,0.6,1.4,1.4,1.4l0,0c19.2,0,48.3,0,56.6,0c0.6,0,1.1-0.5,1.1-1.1V141
		c0-3.5-0.4-6.8-1.1-9.9c-3.2-13.7-11.3-19-28.9-19C367.2,112.1,365.7,112,364.2,112z"/>
</g>
<g>
	<path class="st4" d="M393,75.3c0,18.3-8.7,16.9-23.6,16.9s-25.9,2.3-25.9-17.6c0-14.7,10.4-24.3,25.3-24.3
		C383.6,50.4,393,60.6,393,75.3"/>
</g>
<g>
	<path class="st1" d="M361.6,93.2c-6.1,0-11.3-0.5-14.7-3.9c-2.9-2.9-4.3-7.6-4.3-14.7c0-15.1,10.5-25.2,26.2-25.2
		c15.1,0,25.2,10.4,25.2,25.9c0,7-1.3,11.5-4,14.2c-3.7,3.7-9.7,3.6-17.4,3.6c-2.3,0-4.9,0-7.3,0C364,93.2,362.8,93.2,361.6,93.2z
		 M368.7,51.3c-14.6,0-24.3,9.4-24.3,23.3c0,6.5,1.2,10.9,3.8,13.4c3.5,3.5,9.5,3.4,17,3.3c2.4,0,5,0,7.3,0c7.5,0.1,12.9,0.1,16.1-3
		c2.3-2.3,3.4-6.4,3.4-12.9C392.1,60.7,382.9,51.3,368.7,51.3z"/>
</g>
<g>
	<path class="st2" d="M374.8,104.6h-13.7v7.8c0,1.9,1.1,3.6,2.8,4.4c1.1,0.5,2.4,0.9,4,0.9s3-0.4,4.1-0.9c1.7-0.8,2.8-2.5,2.8-4.4
		L374.8,104.6L374.8,104.6z"/>
</g>
<g>
	<path class="st1" d="M368,118.6L368,118.6c-1.6,0-3.1-0.3-4.5-1c-2-1-3.3-3-3.3-5.2v-8.7h15.5v8.7c0,2.2-1.3,4.3-3.3,5.2
		C371,118.2,369.5,118.6,368,118.6z M362.1,105.5v6.8c0,1.5,0.9,2.9,2.2,3.5c1.2,0.6,2.4,0.8,3.6,0.8c1.3,0,2.5-0.3,3.7-0.8
		c1.4-0.7,2.3-2,2.3-3.5v-6.8H362.1z"/>
</g>
<g>
	<path class="st2" d="M388.4,87.8c0-6.7,0-13.4,0-20c-13.6-1.5-27.1-3.1-40.7-4.6c0,8.2,0,16.4,0.1,24.7l0,0c0,0.1,0,0.1,0,0.2
		c0,10.7,9.1,19.4,20.3,19.4c11.2,0,20.3-8.7,20.3-19.4L388.4,87.8L388.4,87.8z"/>
</g>
<g>
	<path class="st1" d="M368.1,108.4c-11.5,0-20.8-8.7-21.2-19.6l0,0v-0.3c0-0.1,0-0.3,0-0.4l0,0V88l-0.1-25.7l42.6,4.8v21.1
		C389.3,99.2,379.8,108.4,368.1,108.4z M348.7,86.9L348.7,86.9v0.9v0.1c0,10.3,8.7,18.6,19.4,18.6c10.7,0,19.4-8.3,19.4-18.5V68.6
		l-38.8-4.4V86.9z"/>
</g>
<g>
	<path class="st1" d="M358.3,83.7c0,0.9-0.7,1.6-1.6,1.6s-1.6-0.7-1.6-1.6s0.7-1.6,1.6-1.6C357.6,82.2,358.3,82.9,358.3,83.7"/>
</g>
<g>
	<path class="st1" d="M382.4,75.7c-0.2,0-0.4-0.1-0.6-0.2c-0.4-0.3-2.2-1.9-4.6-1.5c-1.1,0.2-1.9,0.7-2.4,1.2
		c-0.4,0.3-1,0.3-1.3-0.1s-0.3-1,0.1-1.3c0.9-0.8,2.1-1.4,3.3-1.6c3.3-0.6,5.8,1.5,6.2,1.9c0.4,0.3,0.4,0.9,0.1,1.3
		C382.9,75.6,382.7,75.7,382.4,75.7z"/>
</g>
<g>
	<path class="st4" d="M369.1,57.4l13.2,0.9l5.4,3.5l1.5,2.5l0.6,6c-6.8,1-10.8-0.4-13.2-2.1c-3.8-2.6-5.8-7.1-7.3-6.5
		c-0.9,0.4-1,2.3-1,3.1c-0.1,2.7,1.2,4.5,0.8,4.8c-0.3,0.2-1.1-0.5-1.8-1.3c-2.4-2.8-1.6-5.8-2.7-6.2c-1.3-0.5-2.9,3.7-6.1,5.9
		c-5.5,3.7-11,4.4-13.5,4.5l2.2-10.1l14.6-5.6L369.1,57.4"/>
</g>
<g>
	<path class="st2" d="M345.5,72.6c2.6-0.1,8.1-0.8,13.5-4.5c3.3-2.2,4.9-6.4,6.1-5.9c1.1,0.4,0.3,3.4,2.7,6.2
		c0.7,0.8,1.5,1.5,1.8,1.3c0.4-0.3-0.9-2.1-0.8-4.8c0-0.8,0.1-2.8,1-3.1c1.5-0.6,3.5,3.9,7.3,6.5c2.4,1.6,6.4,3.1,13.2,2.1"/>
</g>
<g>
	<path class="st1" d="M345.5,73.5c-0.5,0-0.9-0.4-0.9-0.9s0.4-0.9,0.9-1c3.3-0.2,8.2-1.1,13.1-4.3c1.5-1,2.6-2.5,3.6-3.7
		c1.2-1.6,2.1-2.8,3.4-2.3c1,0.4,1.2,1.4,1.4,2.4c0.2,1,0.4,2.3,1.3,3.5c-0.1-0.7-0.2-1.5-0.2-2.4c0-1.1,0.1-3.4,1.6-4
		c1.4-0.6,2.5,0.8,4,2.5c1.1,1.3,2.5,2.9,4.2,4.1c3.1,2.1,7.3,2.7,12.5,1.9c0.5-0.1,1,0.3,1.1,0.8s-0.3,1-0.8,1.1
		c-5.7,0.9-10.4,0.1-13.9-2.2c-1.9-1.3-3.4-3-4.5-4.4c-0.6-0.8-1.5-1.8-1.9-2c-0.1,0.1-0.3,0.6-0.4,2.3c0,1.4,0.3,2.6,0.6,3.4
		c0.3,0.8,0.5,1.7-0.2,2.2s-1.7,0-3-1.5c-1.5-1.8-1.9-3.7-2.1-4.9c-0.1-0.3-0.1-0.7-0.2-0.9c-0.3,0.3-0.9,1-1.3,1.6
		c-1,1.3-2.3,2.9-4,4.1C354.4,72.3,349.1,73.3,345.5,73.5L345.5,73.5z"/>
</g>
<g>
	<path class="st1" d="M369.1,90.4L369.1,90.4l-1.9-0.1c-1,0-1.8-0.8-1.8-1.8c0-0.4,0.1-1.5,0.4-3.1c0.2-1,0.3-2.1,0.4-2.9
		c0.1-0.5,0.5-0.9,1-0.8s0.9,0.5,0.8,1c-0.1,0.8-0.3,1.9-0.4,3c-0.2,1.1-0.4,2.5-0.4,2.8h1.9c0.5,0,0.9,0.4,0.9,1
		C370,90,369.6,90.4,369.1,90.4z"/>
</g>
<g>
	<path class="st1" d="M367.8,98.7c-0.1,0-0.1,0-0.2,0c-2.9-0.1-4.4-2.3-4.4-2.4c-0.3-0.4-0.2-1,0.3-1.3c0.4-0.3,1-0.2,1.3,0.3
		c0,0.1,1,1.5,2.9,1.6c2.1,0.1,3.1-1.5,3.1-1.5c0.3-0.4,0.8-0.6,1.3-0.3c0.4,0.3,0.6,0.8,0.3,1.3C372.3,96.4,370.8,98.7,367.8,98.7z
		"/>
</g>
<g>
	<path class="st2" d="M347.7,81.1c-2.8-0.2-5.1,2-5.2,4.5c-0.1,2.7,2.3,5.1,5.2,4.9V81.1z"/>
</g>
<g>
	<path class="st1" d="M347.4,91.4c-1.6,0-3.1-0.6-4.2-1.7s-1.7-2.6-1.7-4.2c0.1-1.4,0.7-2.8,1.9-3.8c1.2-1.1,2.7-1.6,4.3-1.5h0.9
		v11.1h-0.9C347.6,91.4,347.5,91.4,347.4,91.4z M346.7,82c-0.8,0.1-1.5,0.5-2.1,1c-0.8,0.7-1.2,1.6-1.2,2.5c0,1,0.4,2,1.1,2.8
		c0.6,0.6,1.4,1,2.2,1.1V82z"/>
</g>
<g>
	<path class="st2" d="M388.6,90.4c2.8,0.2,5.1-1.9,5.2-4.5c0.1-2.7-2.3-5.1-5.2-4.9V90.4z"/>
</g>
<g>
	<path class="st1" d="M388.9,91.4c-0.1,0-0.2,0-0.3,0h-0.9V80.2h0.9c1.7-0.1,3.3,0.5,4.5,1.7c1.1,1.1,1.7,2.6,1.7,4.2
		c-0.1,1.4-0.7,2.8-1.9,3.8C391.8,90.8,390.4,91.4,388.9,91.4z M389.5,82v7.4c0.8-0.1,1.5-0.5,2.1-1c0.8-0.7,1.2-1.6,1.2-2.5
		c0-1-0.4-2-1.1-2.8C391.1,82.6,390.4,82.2,389.5,82z"/>
</g>
<g>
	<path class="st1" d="M352.7,75.8c-0.3,0-0.5-0.1-0.7-0.3c-0.3-0.4-0.3-1,0.1-1.3c0.5-0.4,2.9-2.5,6.2-1.9c1.2,0.2,2.3,0.8,3.3,1.6
		c0.4,0.3,0.4,0.9,0.1,1.3s-0.9,0.4-1.3,0.1c-0.5-0.4-1.3-1-2.4-1.2c-2.4-0.4-4.3,1.1-4.6,1.5C353.1,75.7,352.9,75.8,352.7,75.8z"/>
</g>
<g>
	<path class="st1" d="M379.9,83.7c0,0.9-0.7,1.6-1.6,1.6s-1.6-0.7-1.6-1.6s0.7-1.6,1.6-1.6S379.9,82.9,379.9,83.7"/>
</g>
<g>
	<path class="st2" d="M380.4,159.8c-1.9-5.9-4.4-16.3-3.9-30.7c0.1-4.1,3.4-7.5,7.6-7.8c3.9-0.3,7.5,2.2,8.5,5.9l7.7,27.9
		c1.4,5.1-2.5,10.2-7.9,10.2h-4.3C384.6,165.3,381.5,163.1,380.4,159.8"/>
</g>
<g>
	<path class="st1" d="M392.5,166.2h-4.3c-4,0-7.4-2.5-8.7-6.2l0,0c-2.1-6.2-4.4-16.7-3.9-31c0.2-4.6,3.8-8.4,8.5-8.7
		c4.3-0.3,8.3,2.5,9.5,6.6l7.7,27.9c0.8,2.7,0.2,5.5-1.5,7.8C398,164.9,395.4,166.2,392.5,166.2z M381.3,159.5
		c1,2.9,3.7,4.9,6.9,4.9h4.3c2.3,0,4.4-1,5.8-2.9c1.4-1.8,1.8-4,1.2-6.2l-7.7-27.9c-0.9-3.3-4.1-5.5-7.5-5.3
		c-3.7,0.3-6.6,3.2-6.7,6.9C377,143.2,379.3,153.4,381.3,159.5L381.3,159.5z"/>
</g>
<g>
	<path class="st1" d="M380.6,130.5c5.1-3.5,6.6-6.6,7.3-8.6c0.5-1.4,0.1-3-1-4.1l-5.8-5.8c-0.9-0.9-2.4-1-3.4-0.2
		c-0.6,0.4-0.9,1.1-1,1.8c0,0.1,0,0.2,0,0.3c-0.4-0.4-0.9-0.8-1.2-1.1c-0.9-0.9-2.4-1-3.4-0.2c-0.1,0.1-0.2,0.2-0.3,0.2
		c-0.4,0.4-0.7,1-0.7,1.6c0,0.7,0.2,1.4,0.7,1.9l0.5,0.5c-0.5,0-1.1,0.1-1.5,0.5c-0.5,0.4-0.8,1-0.9,1.7c0,0.6,0.2,1.3,0.7,1.7
		l1.5,1.5H372c-0.6,0-1.2,0.3-1.6,0.7c-0.8,0.9-0.8,2.3,0.1,3.2l4,3.9C376.3,131.5,378.8,131.7,380.6,130.5 M371.5,125.2
		c-0.5-0.5-0.5-1.2-0.1-1.7l0,0c0.2-0.2,0.5-0.4,0.8-0.4s0.6,0.1,0.9,0.3l0,0l2.4,2c0.6,0.5,1.2,1,1.6,1.4l0.5,0.4
		c0,0,0.1,0.1,0.2,0.1l0,0l0,0c0.2,0.2,0.5,0.3,0.8,0c0.2-0.2,0.2-0.6,0-0.8l-7-6.9c-0.2-0.2-0.4-0.6-0.4-0.9s0.2-0.6,0.5-0.9
		c0.5-0.4,1.1-0.3,1.6,0.1l0,0l6.3,5.6c0.1,0.1,0.1,0.1,0.2,0.2l0,0l0,0c0.3,0.2,0.5,0.3,0.8,0l0,0c0.2-0.2,0.2-0.6,0-0.8l-7.9-7.7
		c-0.3-0.3-0.4-0.7-0.4-1.1s0.2-0.8,0.5-1c0.6-0.4,1.4-0.4,1.9,0.2l7.9,7c0.1,0.1,0.2,0.2,0.3,0.2l0.1,0.1l0,0
		c0.3,0.2,0.5,0.3,0.8,0l0,0c0.2-0.2,0.2-0.6,0-0.8l-5.4-5.3c-0.3-0.3-0.4-0.7-0.4-1.1s0.2-0.8,0.5-1c0.6-0.4,1.4-0.4,1.9,0.2
		l5.8,5.8l0,0c0.8,0.8,1.1,1.9,0.7,2.9c-0.7,1.9-2.1,4.8-6.9,8.1c-1.4,0.9-3.3,0.8-4.5-0.4L371.5,125.2z"/>
</g>
<g>
	<path class="st2" d="M380,129.5c4.8-3.3,6.2-6.2,6.9-8.1c0.4-1,0.1-2.2-0.7-2.9l0,0l-5.8-5.8c-0.5-0.5-1.4-0.6-1.9-0.2
		c-0.3,0.3-0.5,0.6-0.5,1s0.1,0.8,0.4,1.1l5.4,5.3c0.2,0.2,0.2,0.5,0,0.8l0,0c-0.3,0.3-0.5,0.2-0.8,0l0,0l-0.1-0.1
		c-0.1-0.1-0.2-0.2-0.3-0.2l-7.9-7c-0.6-0.5-1.4-0.6-1.9-0.2c-0.3,0.3-0.5,0.6-0.5,1s0.1,0.8,0.4,1.1l7.9,7.7c0.2,0.2,0.2,0.5,0,0.8
		l0,0c-0.3,0.3-0.5,0.2-0.8,0l0,0l0,0c-0.1-0.1-0.1-0.1-0.2-0.2l-6.3-5.6l0,0c-0.4-0.4-1.1-0.5-1.6-0.1c-0.3,0.2-0.4,0.5-0.5,0.9
		c0,0.3,0.1,0.7,0.4,0.9l7,6.9c0.2,0.2,0.2,0.5,0,0.8c-0.3,0.3-0.6,0.2-0.8,0l0,0l0,0c-0.1,0-0.1-0.1-0.2-0.1l-0.5-0.4
		c-0.4-0.4-1-0.9-1.6-1.4l-2.4-2l0,0c-0.2-0.2-0.5-0.3-0.9-0.3c-0.3,0-0.6,0.1-0.8,0.4l0,0c-0.4,0.5-0.4,1.2,0.1,1.7l4,3.9
		C376.7,130.3,378.6,130.4,380,129.5"/>
</g>
<g>
	<path class="st2" d="M342.9,159.8c1.9-5.9,4.4-16.3,3.9-30.7c-0.1-4.1-3.4-7.5-7.6-7.8c-3.9-0.3-7.5,2.2-8.5,5.9l-7.7,27.9
		c-1.4,5.1,2.5,10.2,7.9,10.2h4.3C338.6,165.3,341.8,163.1,342.9,159.8"/>
</g>
<g>
	<path class="st1" d="M335.1,166.2h-4.3c-2.9,0-5.6-1.3-7.3-3.6c-1.7-2.2-2.3-5.1-1.5-7.8l7.7-27.9c1.1-4.1,5.1-6.9,9.5-6.6
		c4.7,0.3,8.3,4.1,8.5,8.7c0.5,14.4-1.8,24.8-3.9,31l0,0C342.5,163.7,339,166.2,335.1,166.2z M338.5,122.1c-3.2,0-6.1,2.1-7,5.3
		l-7.7,27.9c-0.6,2.1-0.2,4.4,1.2,6.2c1.4,1.8,3.5,2.9,5.8,2.9h4.3c3.2,0,5.9-2,6.9-4.9c2-6.1,4.3-16.3,3.8-30.4
		c-0.1-3.7-3-6.6-6.7-6.9C338.9,122.2,338.7,122.1,338.5,122.1z M342.9,159.8L342.9,159.8L342.9,159.8z"/>
</g>
<g>
	<path class="st5" d="M357,106.7c-0.4,0.4-1.1,0.6-1.7,0.4c-0.5-0.2-0.9-0.6-1-1.1c-0.1-0.3-0.2-0.6-0.5-0.9l-0.1-0.1
		c-0.8-0.8-2.2-0.7-3.1,0.3c-0.5,0.5-0.7,1-0.8,1.6c0,0.6,0.1,1.1,0.5,1.4l0.1,0.1c0.2,0.2,0.5,0.4,0.9,0.5c0.5,0.1,1,0.5,1.1,1
		c0.2,0.6,0,1.2-0.4,1.6l-3.5,3.4c-0.3,0.3-0.4,0.7-0.1,0.9l2.9,2.8c0.2-0.5,0.5-1,1-1.4l0.1-0.1c1.6-1.6,4.1-1.7,5.6-0.3
		c1.5,1.4,1.3,3.9-0.3,5.5l-0.1,0.1c-0.4,0.4-0.9,0.7-1.5,1l2.9,2.8c0.1,0.1,0.3,0.1,0.4,0.1c0.2,0,0.4-0.1,0.6-0.3l3.5-3.4
		c0.4-0.4,1.1-0.6,1.7-0.4c0.5,0.2,0.9,0.6,1,1.1c0.1,0.3,0.2,0.6,0.5,0.9l0.1,0.1c0.8,0.8,2.2,0.7,3.1-0.3c0.9-0.9,1-2.3,0.3-3.1
		L370,121c-0.2-0.2-0.5-0.4-0.9-0.5c-0.5-0.1-1-0.5-1.1-1c0-0.1-0.1-0.3-0.1-0.4c0-0.4,0.2-0.9,0.5-1.2l0.9-0.9l1.2-1.2l1.3-1.3
		c0.2-0.2,0.3-0.4,0.3-0.5s0-0.3-0.1-0.4c0,0-3.5-3.9-3.4-4.4c0.1-0.6,0.5-1,1.1-1.2c0.3-0.1,0.7-0.3,0.9-0.6l0.1-0.1
		c0.9-0.9,1-2.3,0.3-3.1c-0.8-0.8-2.2-0.7-3.1,0.3l-0.1,0.1c-0.3,0.3-0.5,0.6-0.6,0.9c-0.2,0.5-0.7,0.9-1.3,1.1
		c-0.5,0.1-1.1,0-1.4-0.4l-3-3c-0.1-0.1-0.3-0.1-0.4-0.1c-0.2,0-0.4,0.1-0.6,0.3L357,106.7z"/>
</g>
<g>
	<path class="st6" d="M359.3,101.8l-3.3,3.3c-0.2-0.5-0.5-1-0.9-1.4l-0.1-0.1c-1.5-1.4-4-1.3-5.6,0.3c-0.8,0.8-1.2,1.7-1.3,2.7
		c-0.1,1.1,0.3,2,1,2.7l0.1,0.1c0.4,0.4,0.9,0.7,1.4,0.8l-3.3,3.3c-1,1-1,2.5-0.1,3.4l3,3c0.4,0.4,0.9,0.5,1.4,0.4
		c0.6-0.1,1-0.5,1.3-1.1c0.1-0.3,0.3-0.7,0.6-0.9l0.1-0.1c0.5-0.5,1.1-0.7,1.7-0.8c0.6,0,1.1,0.1,1.4,0.5c0.4,0.4,0.5,0.9,0.5,1.4
		c0,0.6-0.3,1.2-0.8,1.6l-0.1,0.1c-0.3,0.3-0.6,0.5-0.9,0.6c-0.6,0.2-1,0.7-1.1,1.2s0,1,0.4,1.4l3,3c0.9,0.9,2.4,0.8,3.4-0.1
		l3.3-3.3c0.2,0.5,0.5,1,0.9,1.4l0.1,0.1c1.5,1.4,4,1.3,5.6-0.3c0.9-0.8,1.3-1.9,1.3-3c0-0.9-0.3-1.8-1-2.5l-0.1-0.1
		c-0.4-0.4-0.9-0.7-1.4-0.8l3.3-3.3c0.5-0.5,0.7-1,0.8-1.7v-0.1c0-0.6-0.2-1.2-0.6-1.6l-2.9-2.8c0.5-0.2,1-0.5,1.5-1l0.1-0.1
		c1.6-1.6,1.7-4.1,0.3-5.5c-1.5-1.4-4-1.3-5.6,0.3l-0.1,0.1c-0.4,0.4-0.8,0.9-1,1.4l-2.9-2.8c-0.4-0.4-1.1-0.7-1.7-0.6
		C360.3,101.1,359.7,101.3,359.3,101.8 M361.4,102.9l3,3c0.4,0.4,0.9,0.5,1.4,0.4c0.6-0.1,1-0.5,1.3-1.1c0.1-0.3,0.3-0.7,0.6-0.9
		l0.1-0.1c0.9-0.9,2.3-1,3.1-0.3c0.8,0.8,0.7,2.1-0.3,3.1l-0.1,0.1c-0.3,0.3-0.6,0.5-0.9,0.6c-0.5,0.2-1,0.7-1.1,1.2s0,1,0.4,1.4
		l3,3c0.1,0.1,0.1,0.3,0.1,0.4c0,0.2-0.1,0.4-0.3,0.5l-1.3,1.3l-1.2,1.2l-0.9,0.9c-0.3,0.3-0.5,0.8-0.5,1.2c0,0.1,0,0.3,0.1,0.4
		c0.2,0.5,0.6,0.9,1.1,1c0.3,0.1,0.6,0.2,0.9,0.5l0.1,0.1c0.8,0.8,0.7,2.1-0.3,3.1c-0.9,0.9-2.3,1-3.1,0.3l-0.1-0.1
		c-0.2-0.2-0.4-0.5-0.5-0.9c-0.1-0.5-0.5-1-1-1.1c-0.6-0.2-1.2,0-1.7,0.4L360,126c-0.2,0.2-0.4,0.2-0.6,0.3c-0.1,0-0.3,0-0.4-0.1
		l-2.9-2.8c0.5-0.2,1-0.5,1.5-1l0.1-0.1c1.6-1.6,1.7-4.1,0.3-5.5c-1.5-1.4-4-1.3-5.6,0.3l-0.1,0.1c-0.4,0.4-0.8,0.9-1,1.4l-2.9-2.8
		c-0.2-0.2-0.2-0.6,0.1-0.9l3.5-3.4c0.4-0.4,0.6-1.1,0.4-1.6s-0.6-0.9-1.1-1c-0.3-0.1-0.6-0.2-0.9-0.5l-0.1-0.1
		c-0.4-0.4-0.5-0.9-0.5-1.4c0-0.6,0.3-1.2,0.8-1.6c0.9-0.9,2.3-1,3.1-0.3l0.1,0.1c0.2,0.2,0.4,0.5,0.5,0.9c0.1,0.5,0.5,1,1,1.1
		c0.6,0.2,1.2,0,1.7-0.4l3.5-3.4c0.2-0.2,0.4-0.2,0.6-0.3C361.2,102.7,361.3,102.8,361.4,102.9"/>
</g>
<g>
	<path class="st1" d="M347,129.9l4-3.9c0.9-0.9,1-2.3,0.1-3.2c-0.4-0.5-1-0.7-1.6-0.7h-0.1l1.5-1.5c0.5-0.5,0.7-1.1,0.7-1.7
		s-0.4-1.3-0.9-1.7c-0.4-0.3-1-0.5-1.5-0.5l0.5-0.5c0.5-0.5,0.8-1.2,0.7-1.9c0-0.6-0.3-1.2-0.7-1.6c-0.1-0.1-0.2-0.2-0.3-0.2
		c-1-0.8-2.4-0.7-3.4,0.2c-0.4,0.3-0.8,0.7-1.2,1.1c0-0.1,0-0.2,0-0.3c0-0.7-0.4-1.4-1-1.8c-1-0.8-2.4-0.7-3.4,0.2l-5.8,5.8
		c-1.1,1.1-1.5,2.7-1,4.1c0.7,2.1,2.3,5.2,7.3,8.6C343,131.7,345.4,131.5,347,129.9 M346.3,129.2c-1.2,1.2-3.1,1.3-4.5,0.4
		c-4.8-3.3-6.2-6.2-6.9-8.1c-0.4-1-0.1-2.2,0.7-2.9l0,0l5.8-5.8c0.5-0.5,1.4-0.6,1.9-0.2c0.3,0.3,0.5,0.6,0.5,1s-0.1,0.8-0.4,1.1
		L338,120c-0.2,0.2-0.2,0.5,0,0.8l0,0c0.3,0.3,0.5,0.2,0.8,0l0,0l0.1-0.1c0.1-0.1,0.2-0.1,0.3-0.2l7.9-7c0.6-0.5,1.4-0.6,1.9-0.2
		c0.3,0.3,0.5,0.6,0.5,1s-0.1,0.8-0.4,1.1l-7.9,7.7c-0.2,0.2-0.2,0.5,0,0.8l0,0c0.3,0.3,0.5,0.2,0.8,0l0,0l0,0
		c0.1-0.1,0.1-0.1,0.2-0.2l6.3-5.6l0,0c0.4-0.4,1.1-0.5,1.6-0.1c0.3,0.2,0.4,0.5,0.5,0.9c0,0.3-0.1,0.7-0.4,0.9l-7,6.9
		c-0.2,0.2-0.2,0.5,0,0.8c0.3,0.3,0.6,0.2,0.8,0l0,0l0,0c0.1,0,0.1-0.1,0.2-0.1l0.5-0.4c0.4-0.4,1-0.9,1.6-1.4l2.4-2l0,0
		c0.2-0.2,0.5-0.3,0.9-0.3c0.3,0,0.6,0.1,0.8,0.4l0,0c0.4,0.5,0.4,1.2-0.1,1.7L346.3,129.2z"/>
</g>
<g>
	<path class="st2" d="M341.8,129.5c-4.8-3.3-6.2-6.2-6.9-8.1c-0.4-1-0.1-2.2,0.7-2.9l0,0l5.8-5.8c0.5-0.5,1.4-0.6,1.9-0.2
		c0.3,0.3,0.5,0.6,0.5,1s-0.1,0.8-0.4,1.1l-5.4,5.3c-0.2,0.2-0.2,0.5,0,0.8l0,0c0.3,0.3,0.5,0.2,0.8,0l0,0l0.1-0.1
		c0.1-0.1,0.2-0.2,0.3-0.2l7.9-7c0.6-0.5,1.4-0.6,1.9-0.2c0.3,0.3,0.5,0.6,0.5,1s-0.1,0.8-0.4,1.1l-7.9,7.7c-0.2,0.2-0.2,0.5,0,0.8
		l0,0c0.3,0.3,0.5,0.2,0.8,0l0,0l0,0c0.1-0.1,0.1-0.1,0.2-0.2l6.3-5.6l0,0c0.4-0.4,1.1-0.5,1.6-0.1c0.3,0.2,0.4,0.5,0.5,0.9
		c0,0.3-0.1,0.7-0.4,0.9l-7,6.9c-0.2,0.2-0.2,0.5,0,0.8c0.3,0.3,0.6,0.2,0.8,0l0,0l0,0c0.1,0,0.1-0.1,0.2-0.1l0.5-0.4
		c0.4-0.4,1-0.9,1.6-1.4l2.4-2l0,0c0.2-0.2,0.5-0.3,0.9-0.3c0.3,0,0.6,0.1,0.8,0.4l0,0c0.4,0.5,0.4,1.2-0.1,1.7l-4,3.9
		C345.1,130.3,343.2,130.4,341.8,129.5"/>
</g>
<g>
	<path class="st2" d="M657,72.2c0,0-6.6,34.7-19.7,48.6c-2-2.5-4.5-4.3-7.6-5.7c-4.5-2-10.1-2.8-17.2-2.8c-2.9-0.3-6.6-0.4-10.8,0.2
		c-1,0.1-14.6,2.5-19.5,16.3c0,0,0,0,0,0.1l-14,34.1c0,1.8,1.5,3.3,3.3,3.3c18.8,0,59.9,0.5,69.3,0.5c0,0,25.6-13.2,30.9-89.5
		C672.3,75.9,657,72.2,657,72.2"/>
</g>
<g>
	<path class="st1" d="M640.7,167.7c-4.1,0-13.8-0.1-25.1-0.2c-15.6-0.1-33.4-0.3-44.1-0.3c-2.3,0-4.2-1.9-4.2-4.2v-0.2l14-34.3
		c5.2-14.7,20.1-16.9,20.3-16.9c3.6-0.5,7.4-0.6,11-0.2c0,0,0,0,0.1,0c7.2,0,13,1,17.4,2.9c2.9,1.3,5.3,3,7.3,5.2
		c12.3-14,18.7-47.1,18.8-47.4l0.2-1l0.9,0.2c6.6,1.6,14.5,3.8,15.3,5.3c0.1,0.2,0.2,0.5,0.1,0.8c-5.3,75.9-30.3,89.6-31.4,90.2
		l-0.2,0.1h-0.2C640.8,167.7,640.8,167.7,640.7,167.7z M569.2,163.1c0.1,1.2,1.1,2.2,2.4,2.2c10.8,0,28.5,0.2,44.1,0.3
		c11.1,0.1,20.8,0.2,25,0.2c2.2-1.4,25.2-17.3,30.2-88.4c-1.2-0.9-7.4-2.7-13.1-4.1c-1.2,5.8-7.7,35.3-19.7,48.1l-0.7,0.8l-0.7-0.8
		c-1.9-2.4-4.3-4.1-7.3-5.4c-4.2-1.9-9.7-2.8-16.8-2.8c-3.6-0.4-7.2-0.3-10.7,0.2c-0.1,0-13.8,2.1-18.7,15.6l-0.1,0.2L569.2,163.1z"
		/>
</g>
<g>
	<path class="st2" d="M582.2,126.8C582.2,123.2,581,130.3,582.2,126.8"/>
</g>
<g>
	<path class="st4" d="M638.1,74.7c0-19.5-15.7-31.6-39-23.9c-7.8,2.6-13.1,9.9-13.1,18.1v39.6v0.2c0,2.7,2.2,4.9,4.9,4.9H633
		c2.8,0,5-2.2,5-4.9L638.1,74.7z"/>
</g>
<g>
	<path class="st1" d="M633,114.5h-42.1c-3.2,0-5.9-2.6-5.9-5.8V68.8c0-8.6,5.5-16.2,13.7-18.9c11.7-3.9,22.4-3,29.9,2.4
		c6.7,4.8,10.3,12.8,10.3,22.4l0,0l-0.1,33.9C638.9,111.8,636.3,114.5,633,114.5z M612.5,49.3c-4.1,0-8.6,0.8-13.2,2.3
		c-7.4,2.5-12.4,9.4-12.4,17.2v39.8c0,2.2,1.8,3.9,4,3.9H633c2.3,0,4.1-1.8,4.1-4l0.1-33.9c0-9-3.4-16.4-9.6-20.9
		C623.4,50.8,618.3,49.3,612.5,49.3z"/>
</g>
<g>
	<path class="st2" d="M619,105.5h-14.4v8.2c0,1.9,1.1,3.7,2.9,4.6c1.1,0.6,2.6,1,4.3,1s3.2-0.4,4.4-1c1.8-0.9,2.9-2.6,2.9-4.6v-8.2
		H619z"/>
</g>
<g>
	<path class="st1" d="M611.8,120.2C611.7,120.2,611.7,120.2,611.8,120.2c-1.7,0-3.3-0.4-4.8-1.1c-2.1-1-3.4-3.1-3.4-5.4v-9.1h16.3
		v9.1c0,2.3-1.3,4.4-3.4,5.4C615,119.8,613.4,120.2,611.8,120.2z M605.5,106.4v7.2c0,1.6,0.9,3,2.3,3.7c1.2,0.6,2.6,0.9,3.9,0.9l0,0
		c1.4,0,2.7-0.3,3.9-0.9c1.4-0.7,2.3-2.2,2.3-3.7v-7.2H605.5z"/>
</g>
<g>
	<path class="st2" d="M633.2,87.9c0-4.5,0-9,0-13.4s-3.3-8-7.7-8.5c-8.5-1-27.9-0.4-27.9-0.4s-7.2,0.9-7.2,6.1V88l0,0
		c0,0.1,0,0.1,0,0.2c0,11.3,9.6,20.5,21.4,20.5c11.8,0,21.4-9.2,21.4-20.5V87.9z"/>
</g>
<g>
	<path class="st1" d="M611.8,109.4c-12,0-21.9-9.2-22.3-20.7l0,0v-0.3c0-0.2,0-0.3,0-0.5l0,0v-0.1V71.5c0-5.9,7.7-6.9,8-7
		c0.9,0,19.7-0.6,28.1,0.4c4.9,0.6,8.5,4.6,8.5,9.5V88C634.1,99.8,624.1,109.4,611.8,109.4z M591.4,86.9L591.4,86.9v1
		c0,10.8,9.2,19.6,20.4,19.6c11.3,0,20.5-8.8,20.5-19.5V74.4c0-3.9-3-7.2-6.9-7.6c-8.1-0.9-26.6-0.4-27.7-0.4
		c-0.5,0.1-6.3,1.1-6.3,5.1V86.9z"/>
</g>
<g>
	<path class="st1" d="M603.6,79c0,0.9-0.7,1.6-1.6,1.6c-0.9,0-1.6-0.7-1.6-1.6s0.7-1.6,1.6-1.6C602.9,77.4,603.6,78.1,603.6,79"/>
</g>
<g>
	<path class="st1" d="M626.9,75c-0.2,0-0.4-0.1-0.6-0.2c-0.4-0.3-2.4-2-4.9-1.6c-1.2,0.2-2,0.8-2.5,1.2c-0.4,0.3-1,0.3-1.3-0.1
		s-0.3-1,0.1-1.3c1-0.9,2.2-1.4,3.4-1.6c3.4-0.6,6,1.6,6.5,2c0.4,0.3,0.4,0.9,0.1,1.3C627.4,74.9,627.2,75,626.9,75z"/>
</g>
<g>
	<path class="st1" d="M612.9,90.5L612.9,90.5l-2-0.1c-1,0-1.8-0.8-1.8-1.9c0-0.5,0.2-1.6,0.4-3.3c0.2-1.1,0.3-2.2,0.4-3
		c0.1-0.5,0.5-0.9,1-0.8s0.9,0.5,0.8,1c-0.1,0.8-0.3,2-0.4,3.1c-0.2,1.2-0.4,2.7-0.4,3l2,0.1c0.5,0,0.9,0.4,0.9,1
		C613.8,90.1,613.4,90.5,612.9,90.5z"/>
</g>
<g>
	<path class="st1" d="M611.5,98.7c-0.1,0-0.1,0-0.2,0c-3-0.1-4.5-1.9-4.6-2c-0.2-0.3-0.3-0.7-0.1-1s0.5-0.5,0.8-0.5l0,0h8
		c0.4,0,0.7,0.2,0.8,0.5c0.2,0.3,0.1,0.7-0.1,1C616.1,96.7,614.6,98.7,611.5,98.7z"/>
</g>
<g>
	<path class="st2" d="M590.3,80.7c-2.9-0.2-5.3,2.1-5.5,4.7c-0.1,2.8,2.4,5.3,5.5,5.2V80.7z"/>
</g>
<g>
	<path class="st1" d="M590.1,91.5c-1.6,0-3.2-0.6-4.4-1.8c-1.2-1.2-1.8-2.8-1.7-4.3s0.8-2.9,1.9-4c1.2-1.1,2.9-1.7,4.5-1.6h0.9v11.6
		h-0.9C590.3,91.5,590.2,91.5,590.1,91.5z M589.4,81.7c-0.9,0.1-1.6,0.5-2.3,1.1c-0.8,0.7-1.3,1.7-1.3,2.7c0,1.1,0.4,2.1,1.2,2.9
		c0.7,0.7,1.5,1.1,2.4,1.2L589.4,81.7L589.4,81.7z"/>
</g>
<g>
	<path class="st2" d="M633.4,90.6c2.9,0.2,5.3-2.1,5.5-4.7c0.1-2.8-2.4-5.3-5.5-5.2V90.6z"/>
</g>
<g>
	<path class="st1" d="M633.7,91.5c-0.1,0-0.2,0-0.4,0l-0.9-0.1V79.8h0.9c1.8-0.1,3.5,0.6,4.7,1.8c1.2,1.2,1.8,2.8,1.7,4.3
		s-0.8,2.9-1.9,4C636.7,91,635.3,91.5,633.7,91.5z M634.4,81.7v7.9c0.8-0.1,1.6-0.5,2.3-1.1c0.8-0.7,1.3-1.7,1.3-2.7
		c0-1.1-0.4-2.1-1.2-2.9C636.1,82.2,635.3,81.8,634.4,81.7z"/>
</g>
<g>
	<path class="st1" d="M595.6,75.1c-0.3,0-0.5-0.1-0.7-0.3c-0.3-0.4-0.3-1,0.1-1.3c0.5-0.4,3.1-2.6,6.5-2c1.2,0.2,2.4,0.8,3.4,1.6
		c0.4,0.3,0.4,0.9,0.1,1.3c-0.3,0.4-0.9,0.4-1.3,0.1c-0.5-0.4-1.4-1-2.5-1.2c-2.5-0.5-4.6,1.2-4.9,1.6
		C596.1,75.1,595.9,75.1,595.6,75.1z"/>
</g>
<g>
	<path class="st1" d="M625.2,79c0,0.9-0.7,1.6-1.6,1.6c-0.9,0-1.6-0.7-1.6-1.6s0.7-1.6,1.6-1.6S625.2,78.1,625.2,79"/>
</g>
<g>
	<path class="st2" d="M652.9,61.7c0.1,0.4,1.8,6.4,2.5,9.2c0.3,1.1,0.5,2.1,0.6,2.4c0.5,3,2.9,5.7,6.1,6.8c3.9,1.4,8.3,1.9,11.1-4.5
		l4.5-12.8c0.3-0.9-0.2-1.9-1.1-2.2c-0.9-0.3-1.9,0.2-2.3,1.1c0,0-2.6,5.8-2.6,5.7L675,58c0.3-1-0.2-2.1-1.3-2.3
		c-0.9-0.2-1.7,0.3-2,1.2c0,0-3.5,8.4-3.5,8.2l3.8-10.6c0.4-1.1-0.3-2.4-1.5-2.6c-1-0.2-2,0.4-2.3,1.4c0,0-4.3,10.5-4.2,10.3
		l2.6-7.3c0.4-1.1-0.3-2.4-1.5-2.6c-1-0.2-2,0.4-2.3,1.4l-3.7,10.3c-0.1,0.2-0.2,0.9-0.3,1c0,0-0.1,0.5,0,0c0-0.2,0-0.4,0-0.6
		c-0.2-0.8-0.9-2.8-2-4.1c-0.9-1.1-2-1.6-2.2-1.7l0,0c-0.4-0.1-0.8-0.1-1.2,0.2C653,60.7,652.8,61.5,652.9,61.7"/>
</g>
<g>
	<path class="st1" d="M666.3,81.9c-1.6,0-3.1-0.4-4.6-0.9c-3.6-1.2-6.2-4.1-6.8-7.5c-0.1-0.2-0.2-0.9-0.4-1.7l-0.2-0.7
		c-0.4-1.7-1.2-4.5-1.7-6.6c-0.5-1.9-0.7-2.5-0.7-2.7c-0.1-0.5,0.2-1.6,0.9-2.2c0.6-0.5,1.3-0.6,2-0.4l0,0c0.4,0.1,1.6,0.8,2.6,2
		c0.5,0.7,1,1.5,1.3,2.2l3.1-8.6c0.5-1.4,2-2.3,3.4-1.9c0.7,0.1,1.3,0.5,1.7,1c0.1-0.3,0.3-0.6,0.4-0.9c0.5-1.4,1.9-2.2,3.4-1.9
		c0.8,0.2,1.6,0.7,2,1.4s0.5,1.5,0.2,2.3c0.3-0.1,0.7-0.1,1,0c0.8,0.2,1.4,0.6,1.8,1.3c0.4,0.7,0.4,1.5,0.2,2.2l-0.5,1.3
		c0.4-0.1,0.9-0.1,1.4,0.1c0.7,0.2,1.2,0.7,1.5,1.4c0.3,0.6,0.3,1.4,0.1,2l-4.5,12.8C672,80.6,669.2,81.9,666.3,81.9z M653.8,61.6
		c0.1,0.3,0.4,1.4,0.7,2.5c0.6,2.1,1.4,4.9,1.8,6.6l0.2,0.7c0.2,0.8,0.4,1.5,0.4,1.8c0.5,2.8,2.6,5.1,5.5,6.1c4.3,1.5,7.6,1.4,10-4
		l4.5-12.7c0.1-0.2,0.1-0.4,0-0.6c-0.1-0.2-0.3-0.3-0.5-0.4c-0.4-0.2-0.9,0.1-1.1,0.5L674,65c-0.5,1.2-0.9,2-1.2,2.5l-0.1,0.2l0,0
		c-0.5,0.8-0.7,0.8-1.2,0.6c-0.5-0.2-0.7-0.7-0.5-1.2l3.3-9.4c0.1-0.2,0.1-0.5-0.1-0.7c-0.1-0.2-0.3-0.4-0.6-0.4
		c-0.4-0.1-0.8,0.2-1,0.6l-1.7,4.2c-0.7,1.7-1.2,2.8-1.5,3.5l-0.2,0.5h-0.1c-0.5,0.8-0.7,0.8-1.1,0.6c-0.5-0.2-0.7-0.7-0.5-1.2
		l3.8-10.6c0.1-0.3,0.1-0.6-0.1-0.9c-0.2-0.3-0.4-0.5-0.7-0.5c-0.5-0.1-1.1,0.2-1.3,0.8l-3.6,8.8c-0.2,0.6-0.4,1-0.6,1.3l-0.1,0.2
		l0,0c-0.4,0.7-0.6,0.8-1.2,0.6c-0.5-0.2-0.7-0.7-0.5-1.2l2.6-7.3c0.1-0.3,0.1-0.6-0.1-0.9c-0.2-0.3-0.4-0.5-0.7-0.5
		c-0.5-0.1-1.1,0.2-1.3,0.8L660,65.8c0,0.1-0.1,0.4-0.2,0.6c0,0.1-0.1,0.3-0.1,0.4c0,0.3-0.1,0.7-0.7,0.9c-0.3,0.1-0.7,0-1-0.3
		s-0.3-0.8-0.2-1c0-0.1,0-0.1,0-0.2c-0.2-0.6-0.8-2.5-1.8-3.7c-0.7-0.8-1.6-1.3-1.8-1.4c-0.1,0-0.2,0-0.3,0
		C653.9,61.2,653.8,61.4,653.8,61.6z"/>
</g>
<g>
	<path class="st5" d="M680,59.6c-0.4-0.4-0.6-1.1-0.4-1.6c0.2-0.5,0.6-0.9,1.1-1c0.3-0.1,0.6-0.2,0.9-0.5l0.1-0.1
		c0.8-0.8,0.7-2.1-0.3-3.1c-0.5-0.5-1.1-0.7-1.7-0.8c-0.6,0-1.1,0.1-1.4,0.5l-0.1,0.1c-0.2,0.2-0.4,0.5-0.5,0.9
		c-0.1,0.5-0.5,1-1,1.1c-0.6,0.2-1.2,0-1.7-0.4l-3.5-3.4c-0.3-0.3-0.7-0.3-0.9-0.1l-2.9,2.8c0.5,0.2,1,0.5,1.5,1l0.1,0.1
		c1.6,1.6,1.7,4.1,0.3,5.5c-1.5,1.4-4,1.3-5.6-0.3l-0.1-0.1c-0.4-0.4-0.8-0.9-1-1.4l-2.9,2.8c-0.1,0.1-0.1,0.3-0.1,0.4
		c0,0.2,0.1,0.4,0.3,0.5l3.5,3.4c0.4,0.4,0.6,1.1,0.4,1.6c-0.2,0.5-0.6,0.9-1.1,1c-0.3,0.1-0.6,0.2-0.9,0.5l-0.1,0.1
		c-0.8,0.8-0.7,2.1,0.3,3.1c0.9,0.9,2.3,1,3.1,0.3l0.1-0.1c0.2-0.2,0.4-0.5,0.5-0.9c0.1-0.5,0.5-1,1-1.1c0.2,0,0.3-0.1,0.5-0.1
		c0.4,0,0.9,0.2,1.2,0.5l0.9,0.9l1.2,1.2l1.3,1.3c0.2,0.2,0.4,0.2,0.6,0.3c0.1,0,0.3,0,0.4-0.1l3-3c0.4-0.4,0.9-0.5,1.4-0.4
		c0.6,0.1,1,0.5,1.3,1.1c0.1,0.3,0.3,0.7,0.6,0.9l0.1,0.1c0.9,0.9,2.3,1,3.1,0.3c0.8-0.8,0.7-2.1-0.3-3.1l-0.1-0.1
		c-0.3-0.3-0.6-0.5-0.9-0.6c-0.5-0.2-0.9-0.7-1.1-1.2c-0.1-0.5,0-1.1,0.4-1.4l3-3c0.1-0.1,0.1-0.3,0.1-0.4c0-0.2-0.1-0.4-0.3-0.5
		L680,59.6z"/>
</g>
<g>
	<path class="st6" d="M685,61.8l-3.3-3.3c0.5-0.2,1-0.5,1.4-0.8l0.1-0.1c1.5-1.4,1.3-3.9-0.3-5.5c-0.8-0.8-1.8-1.2-2.8-1.3
		c-1.1-0.1-2.1,0.3-2.8,1l-0.1,0.1c-0.4,0.4-0.7,0.9-0.9,1.4L673,50c-1-1-2.5-1-3.4-0.1l-3,3c-0.4,0.4-0.5,0.9-0.4,1.4
		c0.1,0.6,0.5,1,1.1,1.2c0.3,0.1,0.7,0.3,0.9,0.6l0.1,0.1c0.5,0.5,0.7,1,0.8,1.6c0,0.6-0.1,1.1-0.5,1.4c-0.4,0.4-0.9,0.5-1.4,0.5
		c-0.6,0-1.2-0.3-1.7-0.8l-0.1-0.1c-0.3-0.3-0.5-0.6-0.6-0.9c-0.2-0.5-0.7-0.9-1.3-1.1c-0.5-0.1-1.1,0-1.4,0.4l-3,3
		c-0.9,0.9-0.8,2.4,0.1,3.4l3.3,3.3c-0.5,0.2-1,0.5-1.4,0.8l-0.1,0.1c-1.5,1.4-1.3,3.9,0.3,5.5c0.9,0.8,2,1.3,3,1.3
		c0.9,0,1.9-0.3,2.5-1l0.1-0.1c0.4-0.4,0.7-0.9,0.9-1.4l3.3,3.3c0.5,0.5,1.1,0.7,1.7,0.8h0.1c0.6,0,1.2-0.2,1.6-0.6l2.9-2.8
		c0.2,0.5,0.6,1,1,1.4l0.1,0.1c1.6,1.6,4.1,1.7,5.6,0.3c1.5-1.4,1.3-3.9-0.3-5.5l-0.1-0.1c-0.4-0.4-0.9-0.7-1.5-1l2.9-2.8
		c0.4-0.4,0.7-1.1,0.6-1.7C685.7,62.8,685.4,62.2,685,61.8 M683.9,63.9l-3,3c-0.4,0.4-0.5,0.9-0.4,1.4c0.1,0.6,0.5,1,1.1,1.2
		c0.3,0.1,0.7,0.3,0.9,0.6l0.1,0.1c0.9,0.9,1,2.3,0.3,3.1c-0.8,0.8-2.2,0.7-3.1-0.3l-0.1-0.1c-0.3-0.3-0.5-0.6-0.6-0.9
		c-0.2-0.5-0.7-0.9-1.3-1.1c-0.5-0.1-1.1,0-1.4,0.4l-3,3c-0.1,0.1-0.3,0.1-0.4,0.1c-0.2,0-0.4-0.1-0.6-0.3l-1.3-1.3l-1.2-1.2
		l-0.9-0.9c-0.3-0.3-0.8-0.5-1.2-0.5c-0.2,0-0.3,0-0.5,0.1c-0.5,0.2-0.9,0.6-1,1.1c-0.1,0.3-0.2,0.6-0.5,0.9l-0.1,0.1
		c-0.8,0.8-2.2,0.7-3.1-0.3c-0.9-0.9-1-2.3-0.3-3.1l0.1-0.1c0.2-0.2,0.5-0.4,0.9-0.5c0.5-0.1,1-0.5,1.1-1c0.2-0.6,0-1.2-0.4-1.6
		l-3.5-3.4c-0.2-0.2-0.2-0.4-0.3-0.5c0-0.1,0-0.3,0.1-0.4l2.9-2.8c0.2,0.5,0.5,1,1,1.4l0.1,0.1c1.6,1.6,4.1,1.7,5.6,0.3
		s1.3-3.9-0.3-5.5l-0.1-0.1c-0.4-0.4-0.9-0.7-1.5-1l2.9-2.8c0.2-0.2,0.7-0.2,0.9,0.1l3.5,3.4c0.4,0.4,1.1,0.6,1.7,0.4
		c0.5-0.2,0.9-0.6,1-1.1c0.1-0.3,0.2-0.6,0.5-0.9l0.1-0.1c0.4-0.4,0.9-0.5,1.4-0.5c0.6,0,1.2,0.3,1.7,0.8c0.9,0.9,1,2.3,0.3,3.1
		l-0.1,0.1c-0.2,0.2-0.5,0.4-0.9,0.5c-0.5,0.1-1,0.5-1.1,1c-0.2,0.6,0,1.2,0.4,1.6l3.5,3.4c0.2,0.2,0.3,0.4,0.3,0.5
		C684,63.6,684,63.8,683.9,63.9"/>
</g>
<g>
	<path class="st1" d="M422.4,28.7c-1.9,0-3.6,0.7-4.9,2l-0.3,0.3l-0.3-0.3c-1.3-1.3-3.1-2-4.9-2s-3.6,0.7-4.9,2s-2,3-2,4.8
		s0.7,3.5,2,4.8l9.2,9.1c0.2,0.2,0.5,0.3,0.8,0.3s0.6-0.1,0.8-0.3l9.3-9.1c1.3-1.3,2-3,2-4.8s-0.7-3.5-2-4.8
		C426,29.4,424.3,28.7,422.4,28.7 M425.7,38.7l-8.4,8.3l-8.4-8.3c-0.9-0.9-1.4-2-1.4-3.2s0.5-2.4,1.3-3.2c0.9-0.9,2-1.3,3.3-1.3
		c1.2,0,2.4,0.5,3.3,1.3l1.1,1.1c0.5,0.4,1.2,0.4,1.6,0l1.1-1.1c0.9-0.9,2-1.3,3.3-1.3c1.2,0,2.4,0.5,3.3,1.3c0.9,0.9,1.4,2,1.3,3.2
		C427,36.7,426.5,37.9,425.7,38.7"/>
</g>
<g>
	<path class="st5" d="M558.9,65.7c-0.6,0.6-1.4,0.8-2.3,0.6c-0.7-0.2-1.2-0.8-1.4-1.5c-0.1-0.5-0.3-0.8-0.6-1.2l-0.1-0.1
		c-1-1-3-0.9-4.2,0.3c-0.6,0.6-1,1.4-1,2.3c0,0.7,0.2,1.4,0.7,2L550,68c0.3,0.3,0.7,0.5,1.2,0.6c0.7,0.2,1.3,0.7,1.5,1.4
		c0.2,0.8,0,1.6-0.6,2.3l-4.8,4.7c-0.4,0.4-0.5,1-0.2,1.2l3.9,3.9c0.3-0.7,0.7-1.4,1.3-2l0.1-0.1c2.3-2.2,5.7-2.4,7.7-0.3
		c2.1,2,1.9,5.4-0.4,7.6l-0.1,0.1c-0.6,0.6-1.2,1-2,1.3l3.9,3.9c0.2,0.2,0.4,0.2,0.5,0.2c0.3,0,0.5-0.1,0.7-0.3l4.8-4.7
		c0.6-0.6,1.4-0.8,2.3-0.6c0.7,0.2,1.2,0.8,1.4,1.5c0.1,0.5,0.3,0.8,0.6,1.2l0.1,0.1c1,1,3,0.9,4.2-0.3c1.2-1.2,1.4-3.2,0.4-4.2
		l-0.1-0.1c-0.3-0.3-0.7-0.5-1.2-0.6c-0.7-0.2-1.3-0.7-1.5-1.4c-0.1-0.2-0.1-0.4-0.1-0.6c0-0.6,0.2-1.2,0.7-1.6l1.2-1.2l1.8-1.6
		l1.9-1.9c0.2-0.2,0.3-0.5,0.4-0.7c0-0.1,0-0.4-0.2-0.5l-4.1-4.1c-0.5-0.5-0.7-1.2-0.5-2c0.2-0.8,0.7-1.4,1.4-1.8
		c0.5-0.2,0.9-0.5,1.3-0.8l0.1-0.1c1.2-1.2,1.4-3.2,0.4-4.2c-1-1-3-0.9-4.2,0.3l-0.1,0.1c-0.4,0.4-0.6,0.8-0.8,1.2
		c-0.3,0.7-0.9,1.3-1.8,1.4c-0.7,0.1-1.4-0.1-2-0.5l-4.1-4.1c-0.2-0.2-0.4-0.2-0.5-0.2c-0.3,0-0.5,0.1-0.7,0.3L558.9,65.7z"/>
</g>
<g>
	<path class="st6" d="M562.6,60l-4.4,4.4c-0.2-0.7-0.6-1.3-1.1-1.9l-0.1-0.1c-2-1.9-5.3-1.8-7.5,0.3c-1,1-1.6,2.3-1.7,3.7
		c-0.1,1.4,0.4,2.7,1.4,3.7l0.1,0.1c0.5,0.5,1.2,0.9,1.9,1.1l-4.4,4.4c-1.3,1.3-1.4,3.3-0.2,4.5l4,4c0.5,0.5,1.2,0.7,1.9,0.5
		c0.8-0.2,1.4-0.7,1.7-1.4c0.2-0.5,0.5-0.9,0.8-1.2l0.1-0.1c0.6-0.6,1.4-1,2.2-1s1.4,0.2,1.9,0.7s0.7,1.2,0.7,1.9
		c-0.1,0.8-0.4,1.6-1,2.2l-0.1,0.1c-0.4,0.4-0.8,0.6-1.3,0.8c-0.7,0.3-1.3,0.9-1.4,1.7c-0.1,0.7,0.1,1.4,0.5,1.9l4,4
		c1.2,1.2,3.3,1.1,4.6-0.2l4.4-4.4c0.2,0.7,0.6,1.3,1.1,1.9l0.1,0.1c2,1.9,5.3,1.8,7.5-0.3c1.1-1.1,1.7-2.6,1.7-4
		c0-1.2-0.5-2.5-1.4-3.4l-0.1-0.1c-0.5-0.5-1.2-0.9-1.9-1.1l4.4-4.4c0.6-0.6,1-1.4,1-2.2c0-0.1,0-0.1,0-0.2c0-0.8-0.3-1.6-0.9-2.1
		l-3.8-3.8c0.7-0.3,1.4-0.7,1.9-1.3l0.1-0.1c2.2-2.1,2.3-5.4,0.3-7.4c-2-1.9-5.3-1.8-7.5,0.3l-0.1,0.1c-0.6,0.6-1,1.2-1.3,1.9
		l-3.8-3.8c-0.6-0.6-1.4-0.9-2.3-0.8C564,59,563.2,59.3,562.6,60 M565.5,61.4l4,4c0.5,0.5,1.2,0.7,1.9,0.5c0.8-0.2,1.4-0.7,1.7-1.4
		c0.2-0.5,0.5-0.9,0.8-1.2l0.1-0.1c1.2-1.2,3.1-1.4,4.1-0.3c1,1,0.9,2.9-0.4,4.1l-0.1,0.1c-0.4,0.4-0.8,0.6-1.3,0.8
		c-0.7,0.3-1.3,0.9-1.4,1.7c-0.2,0.7,0.1,1.4,0.5,1.9l4,4c0.2,0.2,0.2,0.4,0.2,0.5c0,0.3-0.1,0.5-0.4,0.7l-1.8,1.8l-1.7,1.6
		l-1.2,1.2c-0.4,0.4-0.7,1-0.7,1.6c0,0.2,0,0.4,0.1,0.6c0.2,0.7,0.8,1.2,1.5,1.4c0.5,0.1,0.9,0.3,1.2,0.6l0.1,0.1
		c1,1,0.9,2.9-0.4,4.1c-1.2,1.2-3.1,1.4-4.1,0.3l-0.1-0.1c-0.3-0.3-0.5-0.7-0.6-1.2c-0.2-0.7-0.7-1.3-1.4-1.5
		c-0.8-0.2-1.6,0-2.2,0.6l-4.7,4.6c-0.2,0.2-0.5,0.3-0.7,0.3s-0.4,0-0.5-0.2l-3.8-3.8c0.7-0.3,1.4-0.7,1.9-1.3l0.1-0.1
		c2.2-2.1,2.3-5.4,0.4-7.4c-2-1.9-5.3-1.8-7.5,0.3l-0.1,0.1c-0.6,0.6-1,1.2-1.3,1.9l-3.8-3.8c-0.3-0.3-0.2-0.9,0.2-1.2l4.7-4.6
		c0.6-0.6,0.8-1.4,0.6-2.2c-0.2-0.7-0.8-1.2-1.5-1.4c-0.5-0.1-0.9-0.3-1.2-0.6l-0.1-0.1c-0.5-0.5-0.7-1.2-0.7-1.9
		c0-0.8,0.4-1.6,1-2.2c1.2-1.2,3.1-1.4,4.1-0.3l0.1,0.1c0.3,0.3,0.5,0.7,0.6,1.2c0.2,0.7,0.7,1.3,1.4,1.5c0.8,0.2,1.6,0,2.2-0.6
		l4.7-4.6c0.2-0.2,0.5-0.3,0.7-0.3C565.2,61.2,565.4,61.3,565.5,61.4"/>
</g>
<polyline class="st7" points="438.6,903.1 -18.6,903.1 -19.1,902.8 1015.1,902.8 1015.6,903.1 590.3,903.1 "/>
<path class="st8" d="M328.6,371.3c6.9,0,12.5-5.6,12.5-12.5s-5.6-12.5-12.5-12.5c-2.5,0-4.8,0.7-6.8,2c-0.4-7.5-6.7-13.4-14.3-13.4
	c-7.9,0-14.3,6.4-14.3,14.3c0,0.6,0,1.3,0.1,1.9c-0.3,0-0.6,0-0.9,0c-5.6,0-10.1,4.5-10.1,10.1s4.5,10.1,10.1,10.1H328.6
	L328.6,371.3z"/>
<path class="st8" d="M151.1,418.7c4.4,0,8.1-3.6,8.1-8.1c0-3.7-2.5-6.8-5.9-7.7c0.1-0.6,0.2-1.2,0.2-1.9c0-6-4.9-10.9-10.9-10.9
	c-4.8,0-8.8,3.1-10.3,7.3c-0.9-0.4-1.9-0.6-3-0.6c-3.7,0-6.8,2.5-7.7,5.8c-0.4,0-0.7-0.1-1.1-0.1c-4.4,0-8.1,3.6-8.1,8.1
	c0,4.4,3.6,8.1,8.1,8.1L151.1,418.7L151.1,418.7z"/>
<path class="st8" d="M100,210.1c-6.2,0-11.3-5.1-11.3-11.3c0-5.2,3.5-9.5,8.3-10.9c-0.1-0.9-0.2-1.7-0.2-2.6
	c0-8.5,6.9-15.3,15.3-15.3c6.7,0,12.4,4.3,14.4,10.3c1.3-0.5,2.7-0.8,4.1-0.8c5.1,0,9.5,3.4,10.8,8.1c0.5-0.1,1-0.1,1.6-0.1
	c6.2,0,11.3,5.1,11.3,11.3s-5.1,11.3-11.3,11.3H100z"/>
<path class="st8" d="M749.3,572.1c-6.9,0-12.5-5.6-12.5-12.5s5.6-12.5,12.5-12.5c2.5,0,4.8,0.7,6.8,2c0.4-7.5,6.7-13.4,14.3-13.4
	c7.9,0,14.3,6.4,14.3,14.3c0,0.6,0,1.3-0.1,1.9c0.3,0,0.6,0,0.9,0c5.6,0,10.1,4.5,10.1,10.1s-4.5,10.1-10.1,10.1L749.3,572.1
	L749.3,572.1z"/>
<path class="st8" d="M884.4,310.6c-6.9,0-12.5-5.6-12.5-12.5s5.6-12.5,12.5-12.5c2.5,0,4.8,0.7,6.8,2c0.4-7.5,6.7-13.4,14.3-13.4
	c7.9,0,14.3,6.4,14.3,14.3c0,0.6,0,1.3-0.1,1.9c0.3,0,0.6,0,0.9,0c5.6,0,10.1,4.5,10.1,10.1s-4.5,10.1-10.1,10.1H884.4z"/>
<path class="st8" d="M824.1,185.6c4.2,0,7.7-3.4,7.7-7.7s-3.4-7.7-7.7-7.7c-1.5,0-3,0.5-4.2,1.2c-0.3-4.6-4.1-8.3-8.8-8.3
	c-4.8,0-8.8,3.9-8.8,8.8c0,0.4,0,0.8,0.1,1.1c-0.2,0-0.4,0-0.6,0c-3.4,0-6.2,2.8-6.2,6.2s2.8,6.2,6.2,6.2h22.3V185.6z"/>
<g>
	<path class="st9" d="M590.5,903.4c0-24.2-19.6-43.8-43.8-43.8c-3.8,0-7.6,0.5-11.1,1.4c-8.1-11.1-21.2-18.3-36.1-18.3
		c-17.7,0-33,10.3-40.2,25.3c-0.5,0-1,0-1.5,0c-22.8,0-41.3,18.5-41.3,35.1h174V903.4z"/>
	<line class="st10" x1="518.6" y1="692.9" x2="518.6" y2="846.4"/>
	<line class="st10" x1="518.6" y1="572.1" x2="518.6" y2="646"/>
	<line class="st10" x1="518.6" y1="451.4" x2="518.6" y2="525.2"/>
	<line class="st10" x1="485.1" y1="525.2" x2="485.1" y2="451.4"/>
	<line class="st10" x1="485.1" y1="646" x2="485.1" y2="572.1"/>
	<line class="st10" x1="485.1" y1="843.8" x2="485.1" y2="692.9"/>
	<polyline class="st11" points="485.1,451.4 405.3,451.4 405.3,404.4 485.1,404.4 	"/>
	<path class="st12" d="M485.1,404.4h93.4c0.6,0,1.2,0.2,1.7,0.5l30.4,20.4c1.8,1.2,1.8,3.9,0,5.1l-30.4,20.4
		c-0.5,0.3-1.1,0.5-1.7,0.5h-93.4"/>
	<path class="st13" d="M485.1,572.1h-79.2c-0.6,0-1.2-0.2-1.7-0.5l-30.4-20.4c-1.8-1.2-1.8-3.9,0-5.1l30.4-20.4
		c0.5-0.3,1.1-0.5,1.7-0.5h173.2v47L485.1,572.1"/>
	<path class="st12" d="M485.1,692.9h-80v-47h174.1l31.2,20.9c1.8,1.2,1.8,3.9,0,5.1l-31.2,20.9L485.1,692.9"/>
	<path class="st8" d="M718.4,167H285.3c-3.4,0-6.2,2.8-6.2,6.2v113.9c0,3.4,2.8,6.2,6.2,6.2h199.8V404l33.5,0.3V293.4h199.8
		c3.4,0,6.2-2.8,6.2-6.2V173.3C724.7,169.8,721.9,167,718.4,167z"/>
</g>
<g>
	<path d="M425.6,558c-0.1-0.1-0.2-0.3-0.2-0.4v-16.3c0-0.2,0.1-0.3,0.2-0.5c0.1-0.1,0.3-0.2,0.4-0.2h3.5c0.2,0,0.3,0.1,0.4,0.2
		c0.1,0.1,0.2,0.3,0.2,0.5v13h7.5c0.2,0,0.3,0.1,0.5,0.2s0.2,0.3,0.2,0.5v2.7c0,0.2-0.1,0.3-0.2,0.5s-0.3,0.2-0.5,0.2H426
		C425.9,558.2,425.8,558.1,425.6,558z"/>
	<path d="M440.6,558c-0.1-0.1-0.2-0.3-0.2-0.4v-16.2c0-0.2,0.1-0.3,0.2-0.5c0.1-0.1,0.3-0.2,0.5-0.2h11.8c0.2,0,0.3,0.1,0.5,0.2
		s0.2,0.3,0.2,0.5v2.5c0,0.2-0.1,0.3-0.2,0.5s-0.3,0.2-0.5,0.2H445v3.2h7.4c0.2,0,0.3,0.1,0.5,0.2s0.2,0.3,0.2,0.5v2.3
		c0,0.2-0.1,0.3-0.2,0.5s-0.3,0.2-0.5,0.2H445v3.3h8.1c0.2,0,0.3,0.1,0.5,0.2s0.2,0.3,0.2,0.5v2.5c0,0.2-0.1,0.3-0.2,0.5
		s-0.3,0.2-0.5,0.2h-12C440.9,558.2,440.8,558.1,440.6,558z"/>
	<path d="M456.7,558c-0.1-0.1-0.2-0.3-0.2-0.4v-16.2c0-0.2,0.1-0.3,0.2-0.5c0.1-0.1,0.3-0.2,0.5-0.2h2.8c0.4,0,0.7,0.2,0.9,0.5
		l5.9,9.3v-9.1c0-0.2,0.1-0.3,0.2-0.5c0.1-0.1,0.3-0.2,0.4-0.2h3.2c0.2,0,0.3,0.1,0.4,0.2s0.2,0.3,0.2,0.5v16.2
		c0,0.2-0.1,0.3-0.2,0.5s-0.3,0.2-0.4,0.2h-2.8c-0.4,0-0.7-0.2-0.9-0.5l-5.9-9v8.8c0,0.2-0.1,0.3-0.2,0.5s-0.3,0.2-0.5,0.2h-3.2
		C457,558.2,456.8,558.1,456.7,558z"/>
	<path d="M476.2,556.7c-1.4-1.2-2.1-2.9-2.2-5c0-0.5,0-1.2,0-2.3s0-1.8,0-2.3c0.1-2.1,0.8-3.7,2.2-4.9c1.4-1.2,3.3-1.7,5.7-1.7
		c1.6,0,3,0.3,4.2,0.8s2.1,1.2,2.7,2s1,1.6,1,2.5c0,0.2-0.1,0.3-0.2,0.4c-0.1,0.1-0.2,0.2-0.4,0.2h-3.9c-0.2,0-0.3,0-0.4-0.1
		s-0.2-0.1-0.3-0.3c-0.2-0.5-0.5-0.9-1-1.2c-0.4-0.3-1.1-0.5-1.9-0.5c-1.9,0-2.9,1-3,3c0,0.5,0,1.2,0,2.2s0,1.7,0,2.2
		c0.1,2.1,1.1,3.2,3.1,3.2c1,0,1.7-0.2,2.3-0.7c0.6-0.5,0.9-1.2,0.9-2.2v-0.5h-2.2c-0.2,0-0.3-0.1-0.5-0.2s-0.2-0.3-0.2-0.5v-1.9
		c0-0.2,0.1-0.3,0.2-0.5s0.3-0.2,0.5-0.2h6.4c0.2,0,0.3,0.1,0.5,0.2s0.2,0.3,0.2,0.5v2.9c0,1.4-0.3,2.6-1,3.7
		c-0.7,1-1.6,1.8-2.8,2.3c-1.2,0.5-2.6,0.8-4.2,0.8C479.4,558.4,477.5,557.8,476.2,556.7z"/>
	<path d="M494.5,556.7c-1.3-1.2-2-2.9-2-5.2v-10.2c0-0.2,0.1-0.3,0.2-0.5c0.1-0.1,0.3-0.2,0.4-0.2h3.4c0.2,0,0.3,0.1,0.5,0.2
		s0.2,0.3,0.2,0.5v10.1c0,1,0.2,1.8,0.7,2.3s1.2,0.8,2.1,0.8s1.6-0.3,2.1-0.8s0.7-1.3,0.7-2.3v-10.1c0-0.2,0.1-0.3,0.2-0.5
		s0.3-0.2,0.5-0.2h3.4c0.2,0,0.3,0.1,0.5,0.2s0.2,0.3,0.2,0.5v10.2c0,2.3-0.7,4-2,5.2c-1.3,1.1-3.2,1.7-5.5,1.7
		C497.7,558.4,495.8,557.8,494.5,556.7z"/>
	<path d="M509,558c-0.1-0.1-0.2-0.2-0.2-0.4c0-0.1,0-0.2,0-0.2l5.8-16c0.2-0.5,0.5-0.7,1-0.7h3.9c0.5,0,0.8,0.2,1,0.7l5.8,16
		c0,0,0,0.1,0,0.2c0,0.1-0.1,0.3-0.2,0.4c-0.1,0.1-0.2,0.2-0.4,0.2h-3.3c-0.4,0-0.7-0.2-0.9-0.5l-0.9-2.4H514l-0.9,2.4
		c-0.2,0.4-0.5,0.5-0.9,0.5h-3.3C509.3,558.2,509.1,558.1,509,558z M515.4,551.4h4.5l-2.2-6.4L515.4,551.4z"/>
	<path d="M530.7,557.8c-1.1-0.4-2-1.1-2.7-2s-1-1.9-1-3.1c0-0.1,0-0.3,0.2-0.4c0.1-0.1,0.2-0.2,0.4-0.2h3.6c0.2,0,0.4,0.1,0.5,0.2
		c0.1,0.1,0.2,0.3,0.3,0.5c0.3,1.3,1.1,1.9,2.4,1.9c0.8,0,1.4-0.3,1.8-0.8c0.4-0.5,0.6-1.3,0.6-2.3v-7h-8c-0.2,0-0.3-0.1-0.4-0.2
		s-0.2-0.3-0.2-0.4v-2.6c0-0.2,0.1-0.3,0.2-0.5c0.1-0.1,0.3-0.2,0.4-0.2H541c0.2,0,0.3,0.1,0.5,0.2s0.2,0.3,0.2,0.5v10.4
		c0,1.4-0.3,2.6-0.9,3.6c-0.6,1-1.5,1.8-2.6,2.3s-2.4,0.8-3.9,0.8C533,558.4,531.8,558.2,530.7,557.8z"/>
	<path d="M545.2,558c-0.1-0.1-0.2-0.3-0.2-0.4v-16.2c0-0.2,0.1-0.3,0.2-0.5c0.1-0.1,0.3-0.2,0.5-0.2h11.8c0.2,0,0.3,0.1,0.5,0.2
		s0.2,0.3,0.2,0.5v2.5c0,0.2-0.1,0.3-0.2,0.5s-0.3,0.2-0.5,0.2h-7.9v3.2h7.4c0.2,0,0.3,0.1,0.5,0.2s0.2,0.3,0.2,0.5v2.3
		c0,0.2-0.1,0.3-0.2,0.5s-0.3,0.2-0.5,0.2h-7.4v3.3h8.1c0.2,0,0.3,0.1,0.5,0.2s0.2,0.3,0.2,0.5v2.5c0,0.2-0.1,0.3-0.2,0.5
		s-0.3,0.2-0.5,0.2h-12C545.4,558.2,545.3,558.1,545.2,558z"/>
</g>
<g>
	<path d="M414.9,678.7c-0.1-0.1-0.2-0.3-0.2-0.4V662c0-0.2,0.1-0.3,0.2-0.5c0.1-0.1,0.3-0.2,0.4-0.2h3.6c0.2,0,0.3,0.1,0.5,0.2
		c0.1,0.1,0.2,0.3,0.2,0.5v16.3c0,0.2-0.1,0.3-0.2,0.4c-0.1,0.1-0.3,0.2-0.5,0.2h-3.6C415.1,678.9,415,678.9,414.9,678.7z"/>
	<path d="M423.1,678.7c-0.1-0.1-0.2-0.3-0.2-0.4v-16.2c0-0.2,0.1-0.3,0.2-0.5c0.1-0.1,0.3-0.2,0.5-0.2h2.8c0.4,0,0.7,0.2,0.9,0.5
		l5.9,9.3v-9.1c0-0.2,0.1-0.3,0.2-0.5c0.1-0.1,0.3-0.2,0.4-0.2h3.2c0.2,0,0.3,0.1,0.4,0.2s0.2,0.3,0.2,0.5v16.2
		c0,0.2-0.1,0.3-0.2,0.5s-0.3,0.2-0.4,0.2h-2.8c-0.4,0-0.7-0.2-0.9-0.5l-5.9-9v8.8c0,0.2-0.1,0.3-0.2,0.5s-0.3,0.2-0.5,0.2h-3.2
		C423.4,678.9,423.2,678.9,423.1,678.7z"/>
	<path d="M441.1,678.7c-0.1-0.1-0.2-0.3-0.2-0.4v-16.2c0-0.2,0.1-0.3,0.2-0.5c0.1-0.1,0.3-0.2,0.5-0.2h6.6c2.5,0,4.4,0.6,5.8,1.8
		s2.1,2.9,2.1,5.1c0,0.5,0,1.1,0,1.9s0,1.4,0,1.9c-0.2,4.6-2.8,6.8-7.8,6.8h-6.7C441.4,678.9,441.2,678.9,441.1,678.7z M448.1,675.2
		c1.1,0,1.8-0.3,2.3-0.8s0.8-1.3,0.8-2.4c0-0.5,0.1-1.1,0.1-1.9c0-0.8,0-1.4-0.1-1.8c0-1.1-0.3-1.9-0.9-2.4
		c-0.5-0.5-1.3-0.8-2.4-0.8h-2.4v10h2.6V675.2z"/>
	<path d="M459.1,678.7c-0.1-0.1-0.2-0.3-0.2-0.4V662c0-0.2,0.1-0.3,0.2-0.5c0.1-0.1,0.3-0.2,0.4-0.2h3.6c0.2,0,0.3,0.1,0.5,0.2
		c0.1,0.1,0.2,0.3,0.2,0.5v16.3c0,0.2-0.1,0.3-0.2,0.4c-0.1,0.1-0.3,0.2-0.5,0.2h-3.6C459.4,678.9,459.2,678.9,459.1,678.7z"/>
	<path d="M467.3,678.7c-0.1-0.1-0.2-0.3-0.2-0.4v-16.2c0-0.2,0.1-0.3,0.2-0.5c0.1-0.1,0.3-0.2,0.5-0.2h11.6c0.2,0,0.3,0.1,0.5,0.2
		s0.2,0.3,0.2,0.5v2.6c0,0.2-0.1,0.3-0.2,0.5c-0.1,0.1-0.3,0.2-0.5,0.2h-7.7v3.5h7.2c0.2,0,0.3,0.1,0.5,0.2s0.2,0.3,0.2,0.5v2.7
		c0,0.2-0.1,0.3-0.2,0.5c-0.1,0.1-0.3,0.2-0.5,0.2h-7.2v5.5c0,0.2-0.1,0.3-0.2,0.4c-0.1,0.1-0.3,0.2-0.5,0.2h-3.3
		C467.6,678.9,467.4,678.9,467.3,678.7z"/>
	<path d="M482.8,678.7c-0.1-0.1-0.2-0.3-0.2-0.4v-16.2c0-0.2,0.1-0.3,0.2-0.5c0.1-0.1,0.3-0.2,0.5-0.2h11.8c0.2,0,0.3,0.1,0.5,0.2
		s0.2,0.3,0.2,0.5v2.5c0,0.2-0.1,0.3-0.2,0.5s-0.3,0.2-0.5,0.2h-7.9v3.2h7.4c0.2,0,0.3,0.1,0.5,0.2s0.2,0.3,0.2,0.5v2.3
		c0,0.2-0.1,0.3-0.2,0.5s-0.3,0.2-0.5,0.2h-7.4v3.3h8.1c0.2,0,0.3,0.1,0.5,0.2s0.2,0.3,0.2,0.5v2.5c0,0.2-0.1,0.3-0.2,0.5
		s-0.3,0.2-0.5,0.2h-12C483.1,678.9,483,678.9,482.8,678.7z"/>
	<path d="M498.9,678.7c-0.1-0.1-0.2-0.3-0.2-0.4v-16.2c0-0.2,0.1-0.3,0.2-0.5c0.1-0.1,0.3-0.2,0.5-0.2h6.9c2.2,0,3.9,0.5,5.2,1.5
		c1.2,1,1.9,2.4,1.9,4.2c0,1.2-0.3,2.2-0.8,3s-1.3,1.5-2.2,1.9l3.4,6.1c0.1,0.1,0.1,0.2,0.1,0.3s-0.1,0.3-0.2,0.4s-0.2,0.2-0.4,0.2
		h-3.5c-0.5,0-0.8-0.2-1-0.7l-2.8-5.4h-2.4v5.5c0,0.2-0.1,0.3-0.2,0.5s-0.3,0.2-0.5,0.2h-3.4C499.2,678.9,499,678.9,498.9,678.7z
		 M506.2,669.2c0.7,0,1.3-0.2,1.6-0.5c0.4-0.4,0.6-0.9,0.6-1.5s-0.2-1.1-0.6-1.5s-0.9-0.6-1.6-0.6h-2.8v4.1H506.2z"/>
	<path d="M516.3,678.7c-0.1-0.1-0.2-0.3-0.2-0.4v-16.2c0-0.2,0.1-0.3,0.2-0.5c0.1-0.1,0.3-0.2,0.5-0.2h11.8c0.2,0,0.3,0.1,0.5,0.2
		s0.2,0.3,0.2,0.5v2.5c0,0.2-0.1,0.3-0.2,0.5s-0.3,0.2-0.5,0.2h-7.9v3.2h7.4c0.2,0,0.3,0.1,0.5,0.2s0.2,0.3,0.2,0.5v2.3
		c0,0.2-0.1,0.3-0.2,0.5s-0.3,0.2-0.5,0.2h-7.4v3.3h8.1c0.2,0,0.3,0.1,0.5,0.2s0.2,0.3,0.2,0.5v2.5c0,0.2-0.1,0.3-0.2,0.5
		s-0.3,0.2-0.5,0.2h-12C516.5,678.9,516.4,678.9,516.3,678.7z"/>
	<path d="M532.3,678.7c-0.1-0.1-0.2-0.3-0.2-0.4v-16.2c0-0.2,0.1-0.3,0.2-0.5c0.1-0.1,0.3-0.2,0.5-0.2h2.8c0.4,0,0.7,0.2,0.8,0.5
		l5.9,9.3v-9.1c0-0.2,0.1-0.3,0.2-0.5c0.1-0.1,0.3-0.2,0.5-0.2h3.2c0.2,0,0.3,0.1,0.5,0.2c0.1,0.1,0.2,0.3,0.2,0.5v16.2
		c0,0.2-0.1,0.3-0.2,0.5c-0.1,0.1-0.3,0.2-0.5,0.2h-2.8c-0.4,0-0.7-0.2-0.8-0.5l-5.9-9v8.8c0,0.2-0.1,0.3-0.2,0.5s-0.3,0.2-0.5,0.2
		h-3.2C532.6,678.9,532.4,678.9,532.3,678.7z"/>
	<path d="M551.8,677.5c-1.4-1.2-2.1-2.8-2.2-5.1c0-0.4,0-1.2,0-2.2s0-1.8,0-2.3c0.1-2.2,0.8-3.8,2.2-5s3.2-1.8,5.6-1.8
		c1.5,0,2.8,0.2,4,0.7s2.1,1.2,2.8,2.1s1,2,1.1,3.3c0,0.1-0.1,0.3-0.2,0.4c-0.1,0.1-0.2,0.1-0.4,0.1h-3.5c-0.2,0-0.4,0-0.5-0.1
		s-0.2-0.3-0.3-0.5c-0.2-0.8-0.6-1.4-1.1-1.7s-1.1-0.5-1.9-0.5c-1.9,0-2.9,1-2.9,3.2c0,0.4,0,1.1,0,2.1c0,0.9,0,1.6,0,2.1
		c0.1,2.1,1,3.2,2.9,3.2c0.8,0,1.4-0.2,1.9-0.5s0.8-0.9,1.1-1.7c0.1-0.3,0.2-0.4,0.3-0.5s0.3-0.1,0.5-0.1h3.5c0.2,0,0.3,0,0.4,0.1
		c0.1,0.1,0.2,0.2,0.2,0.4c0,1.3-0.4,2.3-1.1,3.3c-0.7,0.9-1.6,1.6-2.8,2.1s-2.5,0.7-4,0.7C555,679.2,553.1,678.6,551.8,677.5z"/>
	<path d="M568,678.7c-0.1-0.1-0.2-0.3-0.2-0.4V662c0-0.2,0.1-0.3,0.2-0.5c0.1-0.1,0.3-0.2,0.4-0.2h3.6c0.2,0,0.3,0.1,0.4,0.2
		c0.1,0.1,0.2,0.3,0.2,0.5v16.3c0,0.2-0.1,0.3-0.2,0.4c-0.1,0.1-0.3,0.2-0.4,0.2h-3.6C568.3,678.9,568.1,678.9,568,678.7z"/>
	<path d="M574.7,678.8c-0.1-0.1-0.2-0.2-0.2-0.4c0-0.1,0-0.2,0-0.2l5.8-16c0.2-0.5,0.5-0.7,1-0.7h3.9c0.5,0,0.8,0.2,1,0.7l5.8,16
		c0,0,0,0.1,0,0.2c0,0.1-0.1,0.3-0.2,0.4s-0.2,0.2-0.4,0.2h-3.3c-0.4,0-0.7-0.2-0.9-0.5l-0.9-2.4H580l-0.9,2.4
		c-0.2,0.4-0.5,0.5-0.9,0.5H575C574.9,678.9,574.8,678.9,574.7,678.8z M581.1,672.2h4.4l-2.2-6.4L581.1,672.2z"/>
</g>
<g>
	<path d="M425.6,437.2c-0.1-0.1-0.2-0.3-0.2-0.4v-16.2c0-0.2,0.1-0.3,0.2-0.5c0.1-0.1,0.3-0.2,0.5-0.2h11.8c0.2,0,0.3,0.1,0.5,0.2
		s0.2,0.3,0.2,0.5v2.5c0,0.2-0.1,0.3-0.2,0.5s-0.3,0.2-0.5,0.2H430v3.2h7.4c0.2,0,0.3,0.1,0.5,0.2s0.2,0.3,0.2,0.5v2.3
		c0,0.2-0.1,0.3-0.2,0.5s-0.3,0.2-0.5,0.2H430v3.3h8.1c0.2,0,0.3,0.1,0.5,0.2s0.2,0.3,0.2,0.5v2.5c0,0.2-0.1,0.3-0.2,0.5
		s-0.3,0.2-0.5,0.2h-12C425.9,437.4,425.8,437.3,425.6,437.2z"/>
	<path d="M441.7,437.2c-0.1-0.1-0.2-0.3-0.2-0.5v-16.2c0-0.2,0.1-0.3,0.2-0.5s0.3-0.2,0.5-0.2h2.8c0.4,0,0.7,0.2,0.9,0.5l4.3,7.7
		l4.3-7.7c0.2-0.4,0.5-0.5,0.9-0.5h2.8c0.2,0,0.3,0.1,0.5,0.2s0.2,0.3,0.2,0.5v16.2c0,0.2-0.1,0.3-0.2,0.5s-0.3,0.2-0.5,0.2H455
		c-0.2,0-0.3-0.1-0.4-0.2s-0.2-0.3-0.2-0.4v-9.1l-2.7,4.9c-0.2,0.4-0.5,0.6-0.9,0.6h-1.3c-0.3,0-0.6-0.2-0.9-0.6l-2.7-4.9v9.1
		c0,0.2-0.1,0.3-0.2,0.5s-0.3,0.2-0.5,0.2h-3.1C442,437.4,441.8,437.3,441.7,437.2z"/>
	<path d="M463.9,435.9c-1.4-1.2-2.1-2.8-2.2-5.1c0-0.5,0-1.2,0-2.2s0-1.7,0-2.2c0.1-2.2,0.8-3.9,2.2-5.1c1.4-1.2,3.3-1.8,5.6-1.8
		c2.3,0,4.2,0.6,5.6,1.8c1.4,1.2,2.1,2.9,2.2,5.1c0,1,0,1.7,0,2.2s0,1.2,0,2.2c-0.1,2.2-0.8,3.9-2.2,5.1c-1.4,1.1-3.2,1.7-5.6,1.7
		C467.2,437.6,465.3,437.1,463.9,435.9z M471.6,433.1c0.5-0.5,0.8-1.3,0.8-2.4c0-1,0-1.7,0-2.1s0-1.1,0-2c0-1.1-0.3-1.9-0.8-2.4
		s-1.2-0.8-2.1-0.8s-1.6,0.3-2.1,0.8s-0.8,1.3-0.8,2.4c0,0.5,0,1.1,0,2s0,1.6,0,2.1c0,1.1,0.3,1.9,0.8,2.4s1.2,0.8,2.1,0.8
		S471.1,433.6,471.6,433.1z"/>
	<path d="M481.8,435.9c-1.4-1.2-2.1-2.8-2.2-5.1c0-0.4,0-1.2,0-2.2s0-1.8,0-2.3c0.1-2.2,0.8-3.8,2.2-5s3.2-1.8,5.6-1.8
		c1.5,0,2.8,0.2,4,0.7s2.1,1.2,2.8,2.1c0.7,0.9,1,2,1.1,3.3c0,0.1-0.1,0.3-0.2,0.4s-0.2,0.1-0.4,0.1h-3.5c-0.2,0-0.4,0-0.5-0.1
		s-0.2-0.3-0.3-0.5c-0.2-0.8-0.6-1.4-1.1-1.7s-1.1-0.5-1.9-0.5c-1.9,0-2.9,1-2.9,3.2c0,0.4,0,1.1,0,2.1c0,0.9,0,1.6,0,2.1
		c0.1,2.1,1,3.2,2.9,3.2c0.8,0,1.4-0.2,1.9-0.5s0.8-0.9,1.1-1.7c0.1-0.3,0.2-0.4,0.3-0.5c0.1-0.1,0.3-0.1,0.5-0.1h3.5
		c0.1,0,0.3,0,0.4,0.1s0.2,0.2,0.2,0.4c0,1.3-0.4,2.3-1.1,3.3c-0.7,0.9-1.6,1.6-2.8,2.1c-1.2,0.5-2.5,0.7-4,0.7
		C485,437.6,483.1,437.1,481.8,435.9z"/>
	<path d="M498,437.2c-0.1-0.1-0.2-0.3-0.2-0.4v-16.3c0-0.2,0.1-0.3,0.2-0.5c0.1-0.1,0.3-0.2,0.4-0.2h3.6c0.2,0,0.3,0.1,0.5,0.2
		c0.1,0.1,0.2,0.3,0.2,0.5v16.3c0,0.2-0.1,0.3-0.2,0.4s-0.3,0.2-0.5,0.2h-3.6C498.3,437.4,498.1,437.3,498,437.2z"/>
	<path d="M507.7,435.9c-1.4-1.2-2.1-2.8-2.2-5.1c0-0.5,0-1.2,0-2.2s0-1.7,0-2.2c0.1-2.2,0.8-3.9,2.2-5.1c1.4-1.2,3.3-1.8,5.6-1.8
		s4.2,0.6,5.6,1.8c1.4,1.2,2.1,2.9,2.2,5.1c0,1,0,1.7,0,2.2s0,1.2,0,2.2c-0.1,2.2-0.8,3.9-2.2,5.1c-1.4,1.1-3.2,1.7-5.6,1.7
		C510.9,437.6,509,437.1,507.7,435.9z M515.3,433.1c0.5-0.5,0.8-1.3,0.8-2.4c0-1,0-1.7,0-2.1s0-1.1,0-2c0-1.1-0.3-1.9-0.8-2.4
		s-1.2-0.8-2.1-0.8c-0.9,0-1.6,0.3-2.1,0.8s-0.8,1.3-0.8,2.4c0,0.5,0,1.1,0,2s0,1.6,0,2.1c0,1.1,0.3,1.9,0.8,2.4s1.2,0.8,2.1,0.8
		C514.1,433.9,514.8,433.6,515.3,433.1z"/>
	<path d="M524.1,437.2c-0.1-0.1-0.2-0.3-0.2-0.4v-16.2c0-0.2,0.1-0.3,0.2-0.5c0.1-0.1,0.3-0.2,0.5-0.2h2.8c0.4,0,0.7,0.2,0.8,0.5
		l5.9,9.3v-9.1c0-0.2,0.1-0.3,0.2-0.5c0.1-0.1,0.3-0.2,0.5-0.2h3.2c0.2,0,0.3,0.1,0.5,0.2c0.1,0.1,0.2,0.3,0.2,0.5v16.2
		c0,0.2-0.1,0.3-0.2,0.5c-0.1,0.1-0.3,0.2-0.5,0.2h-2.8c-0.4,0-0.7-0.2-0.8-0.5l-5.9-9v8.8c0,0.2-0.1,0.3-0.2,0.5s-0.3,0.2-0.5,0.2
		h-3.2C524.4,437.4,524.2,437.3,524.1,437.2z"/>
	<path d="M542.1,437.2c-0.1-0.1-0.2-0.3-0.2-0.4v-16.2c0-0.2,0.1-0.3,0.2-0.5c0.1-0.1,0.3-0.2,0.5-0.2h11.8c0.2,0,0.3,0.1,0.5,0.2
		s0.2,0.3,0.2,0.5v2.5c0,0.2-0.1,0.3-0.2,0.5s-0.3,0.2-0.5,0.2h-7.9v3.2h7.4c0.2,0,0.3,0.1,0.5,0.2s0.2,0.3,0.2,0.5v2.3
		c0,0.2-0.1,0.3-0.2,0.5s-0.3,0.2-0.5,0.2h-7.4v3.3h8.1c0.2,0,0.3,0.1,0.5,0.2s0.2,0.3,0.2,0.5v2.5c0,0.2-0.1,0.3-0.2,0.5
		s-0.3,0.2-0.5,0.2h-12C542.4,437.4,542.2,437.3,542.1,437.2z"/>
	<path d="M560.5,436.9c-1.1-0.5-2-1.1-2.6-1.8c-0.6-0.8-0.9-1.6-0.9-2.5c0-0.2,0.1-0.3,0.2-0.4c0.1-0.1,0.2-0.2,0.4-0.2h3.3
		c0.2,0,0.4,0,0.5,0.1s0.3,0.2,0.4,0.3c0.2,0.4,0.6,0.7,1,1c0.5,0.3,1.1,0.4,1.8,0.4c0.9,0,1.6-0.1,2.1-0.4s0.7-0.7,0.7-1.1
		s-0.1-0.6-0.4-0.9c-0.3-0.2-0.7-0.4-1.2-0.6s-1.3-0.4-2.4-0.6c-2-0.4-3.5-1-4.5-1.8s-1.5-2-1.5-3.5c0-1,0.3-2,0.9-2.8
		s1.4-1.4,2.5-1.9s2.3-0.7,3.7-0.7c1.5,0,2.7,0.3,3.8,0.8s1.9,1.1,2.5,1.9s0.9,1.5,0.9,2.2c0,0.1,0,0.3-0.1,0.4s-0.2,0.2-0.4,0.2
		h-3.5c-0.4,0-0.7-0.2-0.9-0.5c-0.1-0.3-0.4-0.6-0.8-0.9c-0.4-0.2-0.9-0.4-1.5-0.4c-0.7,0-1.2,0.1-1.6,0.4c-0.4,0.3-0.6,0.6-0.6,1.1
		s0.3,0.9,0.8,1.1c0.5,0.3,1.4,0.6,2.8,0.8c1.6,0.3,2.8,0.6,3.7,1.1s1.6,1,2,1.6c0.4,0.7,0.7,1.5,0.7,2.6s-0.3,2.1-1,3
		c-0.6,0.8-1.5,1.5-2.7,1.9s-2.5,0.7-4,0.7C563,437.6,561.6,437.4,560.5,436.9z"/>
</g>
</svg>
